<?xml version="1.0" encoding="UTF-8"?>
<svg id="Calque_1" data-name="Calque 1" xmlns="http://www.w3.org/2000/svg" viewBox="0 0 328.43 400.64">
  <defs>
    <style>
      .cls-1 {
        fill: #ff540a;
      }
    </style>
  </defs>
  <path class="cls-1" d="M148.6,32.84v16.82H10.01c4.54,12.02,10.54,23.23,18.02,33.64h120.56v16.82H32.04c-6.41,17.89-9.61,35.65-9.61,53.27,0,25.9,6.14,50.07,18.42,72.5,12.28,22.43,28.84,40.59,49.67,54.47l81.31-81.31c18.69-18.69,39.25-28.04,61.68-28.04,17.62,0,33.44,5.08,47.46,15.22,14.02,10.15,23.83,23.37,29.44,39.65,12.02-22.43,18.02-46.59,18.02-72.5,0-27.77-6.88-53.33-20.63-76.7-13.75-23.36-32.31-41.92-55.67-55.67C228.76,7.28,203.2.4,175.43.4L0,0c.53,11.48,2.13,22.43,4.81,32.84h143.79ZM240.12,90.72c3.33-3.34,7.41-5.01,12.21-5.01s8.88,1.67,12.22,5.01c3.33,3.34,5.01,7.41,5.01,12.22s-1.67,8.88-5.01,12.22c-3.34,3.34-7.41,5.01-12.22,5.01s-8.88-1.67-12.21-5.01c-3.34-3.34-5.01-7.41-5.01-12.22s1.67-8.87,5.01-12.22Z"/>
  <path class="cls-1" d="M50.11,367.75c3.58-2.21,6.38-5.17,8.42-8.86,2.03-3.69,3.05-7.75,3.05-12.18s-1.07-8.75-3.21-12.51c-2.14-3.77-5.13-6.76-8.97-8.97-3.84-2.21-8.19-3.32-13.07-3.32H0v77.51h14.4v-28.02h7.86l28.02,28.02h20.38l-28.63-28.63c2.93-.51,5.63-1.52,8.09-3.04ZM36.1,358.12H14.4v-22.15h21.7c1.99,0,3.84.44,5.54,1.33,1.7.89,3.05,2.18,4.04,3.88,1,1.7,1.49,3.65,1.49,5.87s-.5,4.17-1.49,5.87c-1,1.7-2.34,2.99-4.04,3.88-1.7.89-3.54,1.33-5.54,1.33Z"/>
  <path class="cls-1" d="M131.94,326.06c-6.09-3.51-12.83-5.26-20.21-5.26s-14.12,1.75-20.21,5.26c-6.09,3.51-10.89,8.3-14.4,14.4-3.51,6.09-5.26,12.83-5.26,20.21s1.75,14.12,5.26,20.21c3.51,6.09,8.31,10.89,14.4,14.4,6.09,3.51,12.83,5.26,20.21,5.26s14.12-1.75,20.21-5.26c6.09-3.51,10.89-8.3,14.4-14.4,3.51-6.09,5.26-12.83,5.26-20.21s-1.75-14.12-5.26-20.21c-3.51-6.09-8.31-10.89-14.4-14.4ZM133.87,373.62c-2.21,3.91-5.26,6.98-9.14,9.19-3.88,2.21-8.21,3.32-13.01,3.32s-9.04-1.11-12.96-3.32c-3.91-2.21-6.98-5.26-9.19-9.14-2.21-3.88-3.32-8.21-3.32-13.01s1.11-9.04,3.32-12.96c2.21-3.91,5.26-6.98,9.14-9.19,3.88-2.21,8.21-3.32,13.01-3.32s9.04,1.11,12.96,3.32c3.91,2.21,6.98,5.26,9.19,9.14,2.21,3.88,3.32,8.21,3.32,13.01s-1.11,9.04-3.32,12.96Z"/>
  <path class="cls-1" d="M220.52,376.72c-2.25,2.88-5.13,5.17-8.64,6.87-3.51,1.7-7.36,2.55-11.57,2.55-4.8,0-9.14-1.09-13.01-3.27-3.88-2.18-6.92-5.15-9.14-8.91-2.21-3.77-3.32-7.86-3.32-12.29,0-4.8,1.11-9.21,3.32-13.23,2.21-4.02,5.26-7.23,9.14-9.63,3.88-2.4,8.21-3.6,13.01-3.6,4.21,0,8.06.83,11.57,2.49,3.5,1.66,6.37,3.91,8.58,6.75,2.21,2.84,3.73,6,4.54,9.47h14.73c-.89-6.2-3.16-11.83-6.81-16.89-3.65-5.06-8.32-9.02-14.01-11.9-5.69-2.88-11.89-4.32-18.6-4.32-7.38,0-14.12,1.85-20.21,5.54-6.09,3.69-10.89,8.68-14.4,14.95-3.51,6.28-5.26,13.1-5.26,20.49s1.75,13.49,5.26,19.43c3.5,5.94,8.3,10.65,14.4,14.12,6.09,3.47,12.83,5.2,20.21,5.2,6.72,0,12.94-1.46,18.66-4.37,5.72-2.92,10.41-6.92,14.06-12.01,3.65-5.09,5.92-10.74,6.81-16.94h-14.73c-.81,3.47-2.34,6.64-4.6,9.52Z"/>
  <path class="cls-1" d="M323.17,380.88c3.5-6.09,5.26-12.83,5.26-20.21s-1.75-14.12-5.26-20.21c-3.51-6.09-8.31-10.89-14.4-14.4-6.09-3.51-12.83-5.26-20.21-5.26s-14.12,1.75-20.21,5.26c-6.09,3.51-10.89,8.3-14.39,14.4-3.51,6.09-5.26,12.83-5.26,20.21s1.75,14.12,5.26,20.21c3.5,6.09,8.3,10.89,14.39,14.4,6.09,3.51,12.83,5.26,20.21,5.26s14.12-1.75,20.21-5.26c.33-.19.64-.4.96-.59l5.96,5.96,10.19-10.08-5.49-5.49c1-1.32,1.93-2.72,2.78-4.2ZM310.71,373.62c-.21.38-.44.74-.67,1.1l-16.6-16.6-10.19,10.08,15.84,15.84c-3.22,1.39-6.73,2.1-10.53,2.1-4.73,0-9.04-1.11-12.96-3.32-3.91-2.21-6.98-5.26-9.19-9.14-2.21-3.88-3.32-8.21-3.32-13.01s1.11-9.04,3.32-12.96c2.21-3.91,5.26-6.98,9.14-9.19,3.88-2.21,8.21-3.32,13.01-3.32s9.04,1.11,12.96,3.32c3.91,2.21,6.98,5.26,9.19,9.14,2.21,3.88,3.32,8.21,3.32,13.01s-1.11,9.04-3.32,12.96Z"/>
</svg>