<?xml version="1.0" encoding="UTF-8"?>
<svg id="Calque_1" data-name="Calque 1" xmlns="http://www.w3.org/2000/svg" viewBox="0 0 331.08 351.22">
  <g>
    <polygon points="8.43 327.1 .43 327.1 .43 331.82 8.43 331.82 8.43 350.72 13.15 350.72 13.15 331.82 21.15 331.82 21.15 327.1 13.15 327.1 8.43 327.1"/>
    <polygon points="40.04 336.61 28.23 336.61 28.23 327.1 23.51 327.1 23.51 350.72 28.23 350.72 28.23 341.34 40.04 341.34 40.04 350.72 44.77 350.72 44.77 327.1 40.04 327.1 40.04 336.61"/>
    <polygon points="49.63 327.1 48.82 327.1 48.82 350.72 49.63 350.72 53.54 350.72 68.19 350.72 68.19 345.99 53.54 345.99 53.54 341.13 67.17 341.13 67.17 336.41 53.54 336.41 53.54 331.82 68.19 331.82 68.19 327.1 53.54 327.1 49.63 327.1"/>
    <path d="M96.04,341.15c1.07-.69,1.91-1.59,2.51-2.72.61-1.12.91-2.36.91-3.71s-.33-2.68-.98-3.85c-.65-1.17-1.58-2.09-2.77-2.77s-2.54-1.01-4.05-1.01h-11.41v23.62h4.72v-8.4h2.26l8.4,8.4h6.68l-8.62-8.62c.84-.18,1.62-.49,2.33-.95ZM91.57,338.06h-6.58v-6.38h6.58c.56,0,1.09.14,1.59.4.5.27.88.64,1.16,1.11.28.47.42,1.03.42,1.69s-.14,1.19-.42,1.67c-.28.48-.66.85-1.15,1.11-.48.26-1.02.39-1.6.39Z"/>
    <path d="M120.24,328.36c-1.86-1.07-3.91-1.6-6.16-1.6s-4.3.53-6.16,1.6c-1.86,1.07-3.32,2.53-4.39,4.39s-1.6,3.91-1.6,6.16.53,4.3,1.6,6.16,2.53,3.32,4.39,4.39c1.86,1.07,3.91,1.6,6.16,1.6s4.3-.53,6.16-1.6c1.86-1.07,3.32-2.53,4.39-4.39,1.07-1.86,1.6-3.91,1.6-6.16s-.54-4.3-1.6-6.16c-1.07-1.86-2.53-3.32-4.39-4.39ZM120.54,342.69c-.64,1.12-1.53,2.01-2.67,2.67-1.14.65-2.4.98-3.8.98s-2.66-.32-3.78-.96c-1.12-.64-2.01-1.53-2.67-2.67-.65-1.14-.98-2.4-.98-3.8s.32-2.65.96-3.78c.64-1.12,1.53-2.01,2.67-2.67s2.4-.98,3.8-.98,2.65.32,3.78.96c1.12.64,2.01,1.53,2.67,2.67.65,1.14.98,2.4.98,3.8s-.32,2.65-.96,3.78Z"/>
    <path d="M146.27,343.6c-.65.83-1.48,1.5-2.5,1.99-1.01.5-2.14.74-3.37.74-1.4,0-2.66-.32-3.78-.96-1.12-.64-2.01-1.51-2.67-2.6-.65-1.09-.98-2.29-.98-3.59,0-1.37.33-2.65.98-3.83s1.54-2.12,2.67-2.82c1.12-.7,2.38-1.05,3.78-1.05,1.24,0,2.36.24,3.36.73,1,.48,1.82,1.14,2.46,1.96.64.82,1.08,1.72,1.33,2.68h4.86c-.27-1.89-.96-3.6-2.08-5.15-1.11-1.54-2.54-2.75-4.27-3.63-1.73-.88-3.62-1.32-5.67-1.32-2.25,0-4.3.56-6.16,1.69-1.86,1.12-3.32,2.64-4.39,4.56-1.07,1.91-1.6,3.99-1.6,6.24s.53,4.11,1.6,5.92c1.07,1.81,2.53,3.25,4.39,4.3,1.86,1.06,3.91,1.59,6.16,1.59,2.05,0,3.94-.44,5.69-1.33,1.74-.89,3.17-2.11,4.29-3.66s1.81-3.27,2.08-5.16h-4.86c-.23.97-.66,1.87-1.32,2.7Z"/>
    <path d="M178.76,338.91c0-2.25-.54-4.3-1.6-6.16-1.07-1.86-2.53-3.32-4.39-4.39-1.86-1.07-3.91-1.6-6.16-1.6s-4.3.53-6.16,1.6c-1.86,1.07-3.32,2.53-4.39,4.39s-1.6,3.91-1.6,6.16.53,4.3,1.6,6.16,2.53,3.32,4.39,4.39c1.86,1.07,3.91,1.6,6.16,1.6s4.3-.53,6.16-1.6c.06-.03.11-.07.16-.11l1.88,1.88,3.34-3.34-1.72-1.72c.26-.35.5-.71.73-1.1,1.07-1.86,1.6-3.91,1.6-6.16ZM173.08,342.69s-.03.05-.05.07l-4.76-4.76-3.34,3.34,4.48,4.48c-.87.34-1.8.51-2.8.51-1.4,0-2.66-.32-3.78-.96-1.12-.64-2.01-1.53-2.67-2.67-.65-1.14-.98-2.4-.98-3.8s.32-2.65.96-3.78c.64-1.12,1.53-2.01,2.67-2.67s2.4-.98,3.8-.98,2.65.32,3.78.96c1.12.64,2.01,1.53,2.67,2.67.65,1.14.98,2.4.98,3.8s-.32,2.65-.96,3.78Z"/>
    <path d="M207.07,328.09c-1.17-.66-2.53-1-4.08-1h-12.15v23.62h4.72v-8.44h7.42c1.55,0,2.91-.33,4.08-1s2.07-1.57,2.7-2.72c.63-1.15.95-2.44.95-3.88s-.32-2.73-.95-3.88c-.63-1.15-1.53-2.05-2.7-2.72ZM205.54,336.41c-.3.5-.71.87-1.21,1.13-.51.26-1.07.39-1.7.39h-7.05v-6.48h7.05c.63,0,1.2.13,1.7.39.51.26.91.63,1.21,1.11s.46,1.06.46,1.74-.15,1.23-.46,1.72Z"/>
    <path d="M229.39,341.15c1.07-.69,1.91-1.59,2.51-2.72.61-1.12.91-2.36.91-3.71s-.33-2.68-.98-3.85c-.65-1.17-1.58-2.09-2.77-2.77s-2.54-1.01-4.05-1.01h-11.41v23.62h4.72v-8.4h2.26l8.4,8.4h6.68l-8.62-8.62c.84-.18,1.62-.49,2.33-.95ZM224.92,338.06h-6.58v-6.38h6.58c.56,0,1.09.14,1.59.4.5.27.88.64,1.16,1.11.28.47.42,1.03.42,1.69s-.14,1.19-.42,1.67c-.28.48-.66.85-1.15,1.11-.48.26-1.02.39-1.6.39Z"/>
    <path d="M253.59,328.36c-1.86-1.07-3.91-1.6-6.16-1.6s-4.3.53-6.16,1.6c-1.86,1.07-3.32,2.53-4.39,4.39s-1.6,3.91-1.6,6.16.53,4.3,1.6,6.16,2.53,3.32,4.39,4.39c1.86,1.07,3.91,1.6,6.16,1.6s4.3-.53,6.16-1.6c1.86-1.07,3.32-2.53,4.39-4.39,1.07-1.86,1.6-3.91,1.6-6.16s-.54-4.3-1.6-6.16c-1.07-1.86-2.53-3.32-4.39-4.39ZM253.89,342.69c-.64,1.12-1.53,2.01-2.67,2.67-1.14.65-2.4.98-3.8.98s-2.66-.32-3.78-.96c-1.12-.64-2.01-1.53-2.67-2.67-.65-1.14-.98-2.4-.98-3.8s.32-2.65.96-3.78c.64-1.12,1.53-2.01,2.67-2.67s2.4-.98,3.8-.98,2.65.32,3.78.96c1.12.64,2.01,1.53,2.67,2.67.65,1.14.98,2.4.98,3.8s-.32,2.65-.96,3.78Z"/>
    <polygon points="271.69 345.33 264.2 327.1 259.11 327.1 268.79 350.72 274.56 350.72 284.24 327.1 279.15 327.1 271.69 345.33"/>
    <polygon points="287.42 327.1 286.61 327.1 286.61 350.72 287.42 350.72 291.33 350.72 305.98 350.72 305.98 345.99 291.33 345.99 291.33 341.13 304.96 341.13 304.96 336.41 291.33 336.41 291.33 331.82 305.98 331.82 305.98 327.1 291.33 327.1 287.42 327.1"/>
    <path d="M322.46,342.1c.84-.18,1.62-.49,2.33-.95,1.07-.69,1.91-1.59,2.51-2.72.61-1.12.91-2.36.91-3.71s-.33-2.68-.98-3.85c-.65-1.17-1.58-2.09-2.77-2.77s-2.54-1.01-4.05-1.01h-11.41v23.62h4.72v-8.4h2.26l8.4,8.4h6.68l-8.62-8.62ZM320.32,338.06h-6.58v-6.38h6.58c.56,0,1.09.14,1.59.4.5.27.88.64,1.16,1.11.28.47.42,1.03.42,1.69s-.14,1.19-.42,1.67c-.28.48-.66.85-1.15,1.11-.48.26-1.02.39-1.6.39Z"/>
  </g>
  <path d="M280.97,186.24c-14.02-10.15-29.84-15.22-47.46-15.22-22.43,0-42.99,9.35-61.68,28.04l-81.31,81.31c-20.83-13.88-37.39-32.04-49.67-54.47-12.29-22.43-18.42-46.59-18.42-72.5,0-17.62,3.2-35.38,9.61-53.27h116.55v-16.82H28.04c-7.48-10.41-13.49-21.63-18.02-33.64h138.58v-16.82H4.81C2.13,22.43.53,11.48,0,0l175.43.4c27.77,0,53.33,6.88,76.7,20.63,23.36,13.75,41.92,32.31,55.67,55.67,13.75,23.37,20.63,48.93,20.63,76.7,0,25.9-6.01,50.07-18.02,72.5-5.61-16.28-15.42-29.5-29.44-39.65ZM264.55,115.15c3.33-3.34,5.01-7.41,5.01-12.22s-1.67-8.87-5.01-12.21c-3.34-3.34-7.41-5.01-12.22-5.01s-8.88,1.67-12.21,5.01c-3.34,3.34-5.01,7.41-5.01,12.21s1.67,8.88,5.01,12.22c3.33,3.34,7.41,5.01,12.21,5.01s8.87-1.67,12.22-5.01Z"/>
</svg>