<?xml version="1.0" encoding="UTF-8"?><svg id="a" xmlns="http://www.w3.org/2000/svg" viewBox="0 0 998.02 415.84"><defs><style>.b,.c{fill:#004a92;}.c{font-family:AvenirNext-Italic, Avenir Next;font-size:106.72px;}</style></defs><text class="c" transform="translate(482.21 154.29) scale(1 1.09)"><tspan x="0" y="0"> </tspan></text><g><path class="b" d="M452.05,318.75h25.25l-2.09,7.98h-22.46l-4,10.39c11.88,5.99,23.46,12.57,23.46,27.54,0,14.07-11.18,24.46-25.05,24.46-5.2,0-14.17-2.89-14.17-7.98,0-2.3,1.69-2.99,3.08-2.99,4.1,0,3.9,7.78,13.08,7.78s15.07-7.78,15.07-16.87c0-13.58-11.08-19.47-21.66-24.76l9.49-25.55Z"/><path class="b" d="M503.95,351.09c8.48-.7,17.47-6.19,17.47-15.68,0-7.08-4.49-12.17-11.58-12.17-5.49,0-8.88,3.18-12.58,6.88l-1.49-1.89c5.49-6.29,10.58-10.98,19.26-10.98,8.08,0,14.37,5.79,14.37,14.17s-6.88,14.67-14.47,17.67l.2,.2c5.49-.5,18.07,1.99,18.07,15.96,0,9.69-7.88,23.86-26.95,23.86-9.18,0-15.17-5.19-15.17-8.38,0-1.79,1.7-3.2,3.2-3.2,3.7,0,3.7,8.38,13.97,8.38,9.69,0,15.78-7.38,15.78-16.67,0-12.88-8.78-16.28-20.06-15.58v-2.59Z"/><path class="b" d="M414.66,370.02c-3.26,0-3.26-.73-3.26-1.75v-44.5l-2.07-.83-.55,.38c-6.19,4.23-11.37,7.37-16.31,9.86l-1.12,.57,2.07,3.82,1.06-.53c2.67-1.34,5.44-2.81,8.1-4.3v35.54c0,1.01,0,1.75-3.26,1.75h-5.03v4.28l1.26-.02c5.44-.1,11.07-.18,16.78-.07,1.81,.03,3.64,.07,5.44,.07h1.24v-4.25h-4.34Z"/><path class="b" d="M574.58,327.21c11.37,0,16.67,13.99,16.67,23.45,0,12.15-5.98,19.98-15.22,19.98-11.38,0-16.68-13.98-16.68-23.44,0-12.15,5.98-20,15.23-20h0Zm.82-4.66c-16.12,0-26.11,13.84-26.11,26.66,0,14.15,11.87,26.1,25.9,26.1,16.13,0,26.11-13.84,26.11-26.65,0-14.15-11.86-26.11-25.9-26.11h0Z"/></g><path class="b" d="M730.63,54.83c.87,.12,1.64,.19,2.29,.23,1.85,.08,3.75,.33,5.73,.79,.66,.16,1.18,.27,1.56,.35,.7,.11,1.22,.38,1.57,.79,.07,.57,.1,.95,.1,1.14l.47,7.05-.04,6.41,.26,9.1-.06,6.41,.16,21.41-.04,1.77c.03,1.55,.04,2.65,.04,3.3,0,1.66-.19,3.04-.57,4.14-1.39,.76-3.9,1.36-7.5,1.81-1.98,.23-3.3,.43-3.96,.62v3.92l6.31-.22h2.19c6.08-.38,11.21-.57,15.39-.57,8.37,0,15.54,.13,21.49,.4,8.44,.38,13.64,.57,15.59,.57,1.32,0,3.12-.06,5.38-.18l.92-6.47,1.89-10.73,.31-1.71c.07-.63,.16-1.44,.26-2.38-.77-.03-1.34-.06-1.73-.06-.69,0-1.58,.06-2.65,.17-1.57,4.59-3.53,8.15-5.89,10.69-1.77,1.96-3.83,3.23-6.16,3.8-3.36,.8-7.46,1.19-12.29,1.19-7.29,0-11.66-.39-13.08-1.19-.94-.52-1.4-1.51-1.4-2.95l.1-12.27c-.13-2.99-.21-6.74-.21-11.24v-1.94c2.65-.3,6.6-.45,11.86-.45,4.45,0,7.04,.13,7.73,.39,.98,.35,1.67,.86,2.09,1.54,.56,.87,1.18,3.07,1.88,6.59,.38,1.89,.65,3.14,.78,3.75h3.7v-1.26c0-1.09-.04-2.77-.16-5.02-.1-2.25-.16-3.9-.16-4.91,0-.65,.03-1.54,.08-2.67,.06-1.14,.08-3.7,.08-7.67,0-1.74-.07-4.3-.2-7.67l-3.03-.06-.68,.06c-.9,4.74-1.51,7.53-1.83,8.35-.49,1.18-1.05,2-1.67,2.47-.62,.48-2.26,.85-4.91,1.11-2.65,.27-7.08,.39-13.32,.39-.62,0-1.38-.06-2.25-.17v-7.16l-.04-9.54c0-6.51,.04-10.24,.16-11.19,3.33-.14,7.11-.22,11.36-.22,3.72,0,7.19,.14,10.42,.46,1.77,.14,2.83,.24,3.18,.28,1.35,.03,2.46,.19,3.33,.46,1.43,1.78,2.54,3.52,3.34,5.22l2.08,4.03c.52,1.48,.94,2.59,1.25,3.35,.9,.08,1.49,.12,1.77,.12l2.14-.12c.03-.45,.06-.79,.06-1.01l-.1-2.34v-11.69c0-1.29-.31-2.32-.95-3.07-4.13-.57-7.26-.86-9.37-.86l-9.43,.12c-6.26,0-13.26,.17-21.01,.51-5.18,.22-8.38,.33-9.63,.33-3.62,0-6.8-.2-9.54-.62-1.46-.22-3.17-.4-5.15-.51l-.27,4.54Zm-35.29-3.89c-3.67-1.16-7.64-1.74-11.88-1.74-1.56-.19-2.69-.28-3.38-.28-5.56,0-10.7,.98-15.42,2.95-4.73,1.97-8.66,4.61-11.81,7.93-3.14,3.31-5.58,7.04-7.31,11.16-2.36,5.72-3.54,11.37-3.54,16.93,0,4.95,.79,9.93,2.39,14.93,1.15,3.53,2.88,6.8,5.21,9.83,2.33,3.03,5.12,5.6,8.39,7.73,2.43,1.59,5.37,2.79,8.83,3.61,3.45,.81,7.53,1.21,12.21,1.21,6.71,0,12.59-.67,17.65-2,5.05-1.35,8.06-2.55,9.04-3.61,.35-.33,.52-1.21,.52-2.61,0-.38,.07-1.97,.2-4.76,.03-.87,.06-3.53,.06-7.99,0-3.86,.06-6.11,.16-6.75,.1-.65,.3-1.11,.58-1.43,.17-.19,.97-.58,2.39-1.16,1.43-.58,2.43-1.06,3.02-1.44,.24-.53,.37-1.01,.37-1.43,0-.68-.01-1.51-.06-2.5-1.9-.11-3.07-.14-3.48-.11l-3.5,.11-8.23,.12c-1.15,0-2.2-.03-3.18-.1-2.77-.28-6.06-.41-9.84-.41-.24,0-.68,.11-1.3,.33-.24,.95-.37,1.69-.37,2.22,0,.23,.03,.59,.1,1.08,.24,.38,.87,.7,1.88,.97l4.63,1.36c1.18,.38,1.88,.65,2.12,.82,.22,.17,.46,.53,.7,1.1,.1,1.47,.16,4.16,.16,8.08s-.13,7.15-.41,9.33c-.18,1.21-.55,2.12-1.1,2.72-.79,.9-1.84,1.51-3.13,1.81-2.53,.63-4.93,.96-7.18,.96-4.66,0-8.71-1.41-12.15-4.23-3.44-2.82-6.02-6.7-7.74-11.66-1.71-4.95-2.58-10.06-2.58-15.33,0-11.19,2.2-19.63,6.62-25.31,4.41-5.68,9.52-8.52,15.32-8.52,3.02,0,5.69,.56,8.03,1.65,3.15,1.48,5.74,3.28,7.76,5.4,1.08,1.14,2.94,3.92,5.58,8.35,1.04,.27,2.3,.41,3.8,.46,.24-.83,.37-1.54,.37-2.1,0-1.48-.16-3.83-.47-7.07-.31-3.24-.59-5.41-.83-6.5-2.43-1.59-5.49-2.96-9.17-4.12h0Zm-106-6.17l4.12,.18c-.35-1.64-1.32-5-2.92-10.11-.42-1.37-.87-2.94-1.36-4.72-.38-1.25-.75-2.38-1.09-3.41h-14.23l15.47,18.06Zm-39.86,10.05c.87,.12,1.63,.19,2.29,.23,1.84,.08,3.74,.33,5.72,.79,.67,.16,1.18,.27,1.57,.35,.69,.11,1.21,.38,1.56,.79,.07,.57,.11,.95,.11,1.14l.47,7.05-.06,6.41,.26,9.1-.04,6.41,.16,21.41-.06,1.77c.03,1.55,.06,2.65,.06,3.3,0,1.66-.19,3.04-.58,4.14-1.39,.76-3.89,1.36-7.5,1.81-1.98,.23-3.3,.43-3.95,.62v3.92l6.3-.22h2.19c6.09-.38,11.21-.57,15.39-.57,8.37,0,15.54,.13,21.49,.4,8.45,.38,13.64,.57,15.59,.57,1.32,0,3.12-.06,5.38-.18l.92-6.47,1.89-10.73,.31-1.71c.07-.63,.16-1.44,.26-2.38-.77-.03-1.34-.06-1.71-.06-.7,0-1.58,.06-2.66,.17-1.56,4.59-3.53,8.15-5.89,10.69-1.77,1.96-3.82,3.23-6.15,3.8-3.37,.8-7.47,1.19-12.3,1.19-7.29,0-11.66-.39-13.08-1.19-.94-.52-1.4-1.51-1.4-2.95l.1-12.27c-.13-2.99-.2-6.74-.2-11.24v-1.94c2.64-.3,6.59-.45,11.85-.45,4.46,0,7.04,.13,7.74,.39,.97,.35,1.67,.86,2.08,1.54,.56,.87,1.18,3.07,1.88,6.59,.38,1.89,.65,3.14,.78,3.75h3.71v-1.26c0-1.09-.06-2.77-.16-5.02-.11-2.25-.16-3.9-.16-4.91,0-.65,.02-1.54,.08-2.67,.04-1.14,.08-3.7,.08-7.67,0-1.74-.08-4.3-.21-7.67l-3.03-.06-.67,.06c-.91,4.74-1.51,7.53-1.84,8.35-.48,1.18-1.04,2-1.67,2.47-.62,.48-2.26,.85-4.91,1.11-2.64,.27-7.08,.39-13.32,.39-.62,0-1.37-.06-2.24-.17v-7.16l-.06-9.54c0-6.51,.06-10.24,.16-11.19,3.33-.14,7.13-.22,11.36-.22,3.72,0,7.19,.14,10.42,.46,1.78,.14,2.84,.24,3.18,.28,1.36,.03,2.46,.19,3.33,.46,1.43,1.78,2.54,3.52,3.34,5.22l2.08,4.03c.52,1.48,.94,2.59,1.26,3.35,.9,.08,1.49,.12,1.77,.12l2.14-.12c.03-.45,.04-.79,.04-1.01l-.1-2.34v-11.69c0-1.29-.31-2.32-.94-3.07-4.14-.57-7.27-.86-9.39-.86l-9.43,.12c-6.26,0-13.25,.17-21,.51-5.18,.22-8.39,.33-9.64,.33-3.62,0-6.79-.2-9.54-.62-1.46-.22-3.17-.4-5.15-.51l-.26,4.54Zm-81.52,67.77c0,.3,.03,.66,.1,1.08,.46,.03,.79,.06,.99,.06h.79c3.57-.3,7.41-.51,11.51-.62l10.63-.35c5.7,0,11.51,.11,17.46,.35,5.93,.22,9.25,.36,9.95,.39,3.82,.31,5.89,.46,6.2,.46l2.71-.06h1.93c.21,0,.71-.08,1.51-.22,.24-.61,.49-2.27,.73-4.99,.62-6.8,.94-11.56,.94-14.27v-1.59c-1.05-.14-1.98-.22-2.82-.22h-1.67c-.94,3.05-1.78,5.24-2.53,6.57-.75,1.31-1.7,2.54-2.88,3.67-.73,1.06-2.29,2.12-4.7,3.17-3.2,1.39-7.59,2.09-13.18,2.09l-3.28-.06-3.07,.06-4.95-.22c-.35-.35-.51-1.08-.51-2.22l.2-26.95c0-1.51,.02-2.75,.06-3.7,.1-2.54,.16-4.79,.16-6.77,0-1.7-.06-3.69-.16-5.97-.07-1.44-.1-2.46-.1-3.07,0-.49,.01-.98,.03-1.47,.08-1.9,.12-2.94,.12-3.13v-1.65l.16-3.58,.04-1.59c.08-.19,.18-.41,.32-.68,.41-.23,.7-.38,.88-.46l6.46-1.65c1.32-.19,2.09-.42,2.29-.69,.39-.45,.58-1.1,.58-1.96,0-1.08-.14-1.84-.42-2.25-.2-.29-.57-.45-1.09-.45-.17,0-.81,.06-1.93,.16-3.75,.31-6.82,.47-9.22,.47l-5.53-.11-7.45,.06c-5.21-.3-8.23-.46-9.06-.46-.36,0-.68,.1-.99,.29-.03,.6-.06,1.06-.06,1.36,0,.53,.03,1.29,.1,2.27,.49,.46,1.35,.86,2.56,1.19,.69,.16,1.47,.42,2.34,.8,1.15,.49,1.81,.78,1.98,.85,1.77,.61,2.77,1.11,2.99,1.51,.23,.4,.47,2.58,.71,6.57v.79l-.06,5.74-.21,12.68,.11,5.91-.06,5.57v4.72l-.31,7.39,.1,7.27c0,.61-.1,1.37-.31,2.28-.46,.43-1.36,.67-2.71,.71-.36,0-1.5,.16-3.47,.47-1.96,.31-3.47,.63-4.55,.98-.24,.71-.37,1.87-.37,3.46h0Zm-81.66,0c0,.3,.03,.66,.1,1.08,.45,.03,.78,.06,.99,.06h.78c3.57-.3,7.41-.51,11.52-.62l10.62-.35c5.7,0,11.52,.11,17.46,.35,5.95,.22,9.26,.36,9.95,.39,3.83,.31,5.89,.46,6.2,.46l2.72-.06h1.93c.21,0,.71-.08,1.51-.22,.23-.61,.48-2.27,.72-4.99,.62-6.8,.94-11.56,.94-14.27v-1.59c-1.04-.14-1.98-.22-2.81-.22h-1.67c-.94,3.05-1.78,5.24-2.53,6.57-.75,1.31-1.71,2.54-2.89,3.67-.72,1.06-2.29,2.12-4.69,3.17-3.2,1.39-7.59,2.09-13.18,2.09l-3.28-.06-3.07,.06-4.95-.22c-.35-.35-.52-1.08-.52-2.22l.21-26.95c0-1.51,.01-2.75,.06-3.7,.1-2.54,.16-4.79,.16-6.77,0-1.7-.06-3.69-.16-5.97-.08-1.44-.11-2.46-.11-3.07,0-.49,.01-.98,.04-1.47,.08-1.9,.11-2.94,.11-3.13v-1.65l.16-3.58,.06-1.59c.07-.19,.18-.41,.31-.68,.41-.23,.71-.38,.89-.46l6.46-1.65c1.32-.19,2.08-.42,2.29-.69,.38-.45,.57-1.1,.57-1.96,0-1.08-.13-1.84-.41-2.25-.21-.29-.57-.45-1.09-.45-.18,0-.82,.06-1.93,.16-3.75,.31-6.84,.47-9.23,.47l-5.52-.11-7.45,.06c-5.21-.3-8.24-.46-9.07-.46-.35,0-.68,.1-.99,.29-.03,.6-.04,1.06-.04,1.36,0,.53,.03,1.29,.1,2.27,.49,.46,1.34,.86,2.55,1.19,.7,.16,1.48,.42,2.35,.8,1.15,.49,1.8,.78,1.98,.85,1.77,.61,2.77,1.11,2.99,1.51,.22,.4,.46,2.58,.7,6.57v.79l-.06,5.74-.2,12.68,.1,5.91-.06,5.57v4.72l-.31,7.39,.11,7.27c0,.61-.11,1.37-.31,2.28-.46,.43-1.36,.67-2.72,.71-.35,0-1.5,.16-3.46,.47-1.96,.31-3.48,.63-4.56,.98-.23,.71-.36,1.87-.36,3.46h0Zm-46.57-63.28c3.63,3.26,6.09,7.99,7.37,14.21,.24,1.25,.41,2.03,.52,2.33l.26,1.08c.38,5.19,.57,9.3,.57,12.32,0,7.35-.97,13.32-2.91,17.89-1.95,4.59-4.52,7.83-7.74,9.74-3.21,1.91-6.68,2.87-10.43,2.87-1.97,0-3.95-.41-5.93-1.22-1.97-.81-3.48-1.71-4.52-2.69-2.05-1.89-3.6-3.81-4.63-5.74-.63-1.14-1.69-4.11-3.18-8.92-.41-1.28-.78-3.33-1.09-6.13-.13-1.09-.24-1.87-.31-2.33-.24-1.4-.36-3.73-.36-6.98,0-5.34,.41-9.88,1.25-13.6,.82-3.73,2.24-7.17,4.21-10.31,1.18-1.86,2.94-3.55,5.25-5.09,2.33-1.54,5-2.29,8.02-2.29,5.49,0,10.04,1.63,13.66,4.88h0Zm-48.03,37.04c1.11,4.54,2.1,7.68,2.97,9.43,1.59,3.11,3.54,5.89,5.83,8.35,2.29,2.46,5.32,4.87,9.11,7.2,.31,.16,1.79,.7,4.43,1.65,1.46,.53,3.16,.95,5.1,1.26,2.57,.41,5.33,.62,8.28,.62,11.9,0,21.2-3.83,27.89-11.48,6.68-7.65,10.02-16.83,10.02-27.54,0-7.19-1.98-14.07-5.93-20.62-3.06-5.03-7.24-9.03-12.55-11.99-5.32-2.95-11.58-4.42-18.8-4.42-4.23,0-8.07,.48-11.51,1.45-3.43,.96-6.8,2.55-10.1,4.76-3.3,2.22-6.05,4.74-8.23,7.58-2.19,2.84-3.89,5.97-5.1,9.37-1.67,4.73-2.5,9.45-2.5,14.14,0,3.91,.37,7.31,1.09,10.23h0Zm-38.54-47c-3.81-.47-7.86-.71-12.17-.71-10.6,0-19.3,3.67-26.13,11.02-6.82,7.35-10.24,16.67-10.24,27.94,0,4.65,.55,8.86,1.65,12.61,1.09,3.74,2.76,7.21,5.02,10.39,2.26,3.18,5.37,6.13,9.33,8.86,2.71,1.89,5.97,3.27,9.77,4.15,3.8,.87,7.84,1.3,12.11,1.3,5.59,0,10.31-.45,14.15-1.34,3.83-.89,6.81-2.23,8.93-4.01l.73-2.66,.47-1.69c.69-4.19,1.09-6.58,1.2-7.19,.31-1.55,.53-3.04,.67-4.46-2.08,.03-3.76,.19-5.05,.45-3.26,5.13-6.67,9-10.23,11.58-3.56,2.58-7.26,3.87-11.08,3.87-3.47,0-6.74-.85-9.8-2.55-2.36-1.26-4.28-2.94-5.73-5.07-1.9-2.79-3.48-6.41-4.74-10.84-.76-2.73-1.15-7.3-1.15-13.75,0-11.09,2.25-19.74,6.72-25.95,3.31-4.59,7.65-6.87,13.03-6.87,4.39,0,8.34,1.12,11.88,3.37,3.55,2.26,6.99,5.96,10.32,11.11h4.74c-.03-2.73-.37-5.31-.99-7.73-1.39-5.34-2.3-8.58-2.76-9.72-3.3-.95-6.85-1.65-10.65-2.13h0Z"/><rect class="b" x="646.85" y="345.84" width="270.73" height="7.35"/><rect class="b" x="80.44" y="345.84" width="270.72" height="7.35"/><path class="b" d="M801.8,181.41c.87,.11,1.63,.19,2.29,.22,1.84,.08,3.75,.35,5.73,.79,.66,.16,1.18,.27,1.56,.35,.69,.11,1.21,.38,1.57,.79,.07,.57,.1,.95,.1,1.14l.47,7.05-.06,6.42,.27,9.08-.06,6.41,.16,21.42-.06,1.76c.03,1.55,.06,2.65,.06,3.3,0,1.66-.19,3.05-.57,4.14-1.39,.76-3.9,1.37-7.5,1.81-1.98,.23-3.31,.45-3.96,.63v3.92l6.31-.23h2.18c6.09-.38,11.21-.57,15.39-.57,8.38,0,15.54,.13,21.49,.4,8.45,.38,13.65,.57,15.6,.57,1.31,0,3.11-.06,5.37-.17l.92-6.48,1.9-10.73,.3-1.7c.08-.65,.16-1.45,.26-2.39-.76-.03-1.34-.06-1.71-.06-.7,0-1.58,.06-2.66,.18-1.56,4.58-3.53,8.14-5.89,10.68-1.77,1.97-3.82,3.24-6.15,3.81-3.37,.79-7.47,1.19-12.3,1.19-7.29,0-11.65-.4-13.07-1.19-.95-.53-1.41-1.51-1.41-2.96l.11-12.27c-.14-2.98-.21-6.74-.21-11.24v-1.93c2.64-.3,6.59-.46,11.86-.46,4.45,0,7.02,.13,7.73,.4,.97,.33,1.67,.85,2.08,1.53,.56,.88,1.19,3.07,1.88,6.59,.39,1.89,.65,3.15,.79,3.75h3.7v-1.25c0-1.1-.06-2.77-.16-5.03-.1-2.25-.16-3.89-.16-4.91,0-.65,.02-1.54,.08-2.67,.06-1.14,.08-3.7,.08-7.67,0-1.74-.07-4.3-.21-7.66l-3.02-.07-.68,.07c-.9,4.73-1.51,7.51-1.83,8.35-.49,1.17-1.05,1.99-1.67,2.46-.63,.48-2.27,.85-4.91,1.11-2.65,.27-7.09,.4-13.32,.4-.63,0-1.38-.06-2.25-.18v-7.15l-.06-9.55c0-6.51,.06-10.24,.16-11.19,3.34-.14,7.13-.22,11.37-.22,3.71,0,7.19,.16,10.42,.46,1.77,.14,2.83,.24,3.17,.28,1.36,.04,2.47,.19,3.34,.46,1.43,1.78,2.54,3.52,3.33,5.22l2.09,4.04c.51,1.47,.94,2.59,1.25,3.35,.9,.08,1.49,.11,1.77,.11l2.14-.11c.03-.46,.06-.8,.06-1.02l-.11-2.33v-11.7c0-1.29-.31-2.32-.94-3.07-4.13-.57-7.26-.85-9.39-.85l-9.43,.11c-6.25,0-13.25,.17-21,.51-5.18,.22-8.38,.33-9.64,.33-3.61,0-6.79-.2-9.53-.62-1.46-.22-3.18-.39-5.17-.51l-.26,4.55Zm-34.64-5.49c-3.81-.47-7.86-.71-12.17-.71-10.6,0-19.3,3.67-26.14,11.02-6.82,7.35-10.23,16.67-10.23,27.94,0,4.66,.55,8.86,1.64,12.61,1.09,3.75,2.77,7.21,5.03,10.39,2.26,3.18,5.37,6.13,9.33,8.86,2.71,1.89,5.96,3.28,9.76,4.15,3.81,.87,7.85,1.3,12.11,1.3,5.6,0,10.31-.45,14.15-1.34,3.84-.89,6.81-2.23,8.94-4l.72-2.66,.47-1.7c.7-4.19,1.1-6.58,1.2-7.19,.31-1.54,.53-3.03,.68-4.46-2.08,.03-3.77,.19-5.05,.46-3.26,5.12-6.68,8.98-10.24,11.57-3.56,2.58-7.25,3.87-11.07,3.87-3.47,0-6.75-.85-9.8-2.55-2.37-1.25-4.28-2.94-5.73-5.05-1.91-2.81-3.5-6.42-4.74-10.85-.77-2.73-1.15-7.3-1.15-13.74,0-11.1,2.24-19.75,6.72-25.96,3.3-4.58,7.64-6.87,13.03-6.87,4.38,0,8.34,1.12,11.88,3.37,3.54,2.26,6.98,5.96,10.32,11.11h4.74c-.03-2.73-.37-5.3-.99-7.73-1.39-5.34-2.32-8.57-2.76-9.71-3.31-.95-6.86-1.66-10.65-2.14h0Zm-149.7,7.01c1.49,.69,2.84,1.7,4.06,3.07,.59,.65,.99,1.4,1.19,2.27,.49,1.7,.75,4.75,.79,9.14l.16,11.53-.11,18.46v3.13c0,1.32-.12,5-.37,11.01-.07,2.08-.37,3.36-.9,3.84-.55,.47-2.27,.7-5.19,.7-1.15-.07-1.83-.11-2.04-.11-.62,0-1.43,.1-2.39,.29-.03,.95-.06,1.63-.06,2.04,0,.65,.03,1.4,.11,2.28,.72,.14,1.3,.22,1.71,.22,.18,0,1.18-.08,3.03-.22,1.84-.16,5.52-.27,11.04-.35,5.9,.57,9.41,.85,10.52,.85l2.04-.06-.21-4.6c-.59-.19-1.04-.32-1.35-.4-4.55-.26-7.5-.66-8.86-1.19-.31-.76-.52-1.34-.62-1.73-.11-.4-.2-1.09-.27-2.08-.28-3.63-.47-7-.57-10.11l-.31-7.44,.04-4.03c0-1.37-.01-2.69-.04-3.97l-.47-21.13,8.48,8.35c3.47,3.44,7.34,7.44,11.58,11.98l6.51,7.27,8.85,9.66,12.67,13.68,6.2,6.99,5.99-.23v-3.01c0-.3-.07-1.24-.21-2.78l.16-3.07-.16-2.95v-6.99c0-.57-.01-1.55-.04-2.95l-.58-19.94c-.03-1.28-.09-2.44-.16-3.46-.24-3.17-.38-7.51-.41-13,0-2.5-.02-4.09-.06-4.78-.07-1.36-.11-2.15-.11-2.38,0-.95,.17-1.65,.48-2.1,.13-.22,1.09-.89,2.86-1.98,.35-.23,1.64-.62,3.85-1.19,.84-.23,1.66-.57,2.45-1.02l-.04-3.7c-.7,0-1.43,.02-2.19,.06l-11.47,.35-10.26,.35-1.35,.17-.06,3.35c.94,.53,2.36,.97,4.28,1.3,2.61,.42,4.28,1.05,5,1.88,.46,.52,.69,2.03,.73,4.49,0,.76,.2,3.61,.62,8.57,.21,2.54,.32,5.37,.37,8.49,.03,3.12,.13,5.81,.31,8.06,.17,2.26,.31,5.31,.41,9.17l.21,6.59v1.41c-21.23-22.95-33.52-36.33-36.9-40.16-3.37-3.82-7.73-8.38-13.08-13.68-.69-.03-1.24-.06-1.61-.06-.24,0-1.3,.03-3.17,.11-1.88,.08-2.97,.11-3.28,.11s-.7-.01-1.15-.06c-2.02-.08-3.23-.11-3.65-.11-.8,0-2.24,.06-4.32,.17l-1.51,.06h-4.43l.21,3.97c3.79,.65,6.12,1.18,7.04,1.59h0Zm-60.83,13.58c1.05,2.35,2.4,5.76,4.06,10.24,1.67,4.5,3.03,8.42,4.07,11.79l-1.3,.06c-1.46,0-6.25-.06-14.36-.17l7.53-21.92Zm-31.11,53.84c2.33,0,4.78-.22,7.35-.68l2.14-.4c8.13,.65,13.27,.97,15.42,.97,.08-.46,.11-.89,.11-1.3,0-.53-.02-1.48-.06-2.85-2.15-.33-3.38-.55-3.7-.62-2.26-.3-3.79-.81-4.59-1.53-.49-.42-.73-1.12-.73-2.1,0-.72,.33-2.08,.99-4.09,2.33-7.08,3.85-11.53,4.59-13.35l19.89,.06,4.09,11.13,2.07,5.57c.18,.52,.27,1.04,.27,1.53s-.18,.94-.52,1.31c-.28,.27-1.28,.65-3.02,1.14l-5.79,1.36c-.1,1.21-.16,2.48-.16,3.81l2.55-.11,8.86-.51c1.21-.08,3.2-.11,5.95-.11,2.46,0,5.24,.13,8.33,.39,3.09,.27,5.92,.4,8.49,.4,.03-.57,.06-.98,.06-1.25,0-.6-.09-1.54-.26-2.78-1.64-.68-3.16-1.11-4.56-1.3-1.4-.19-2.43-.57-3.05-1.15-.35-.26-.87-1.19-1.56-2.77-1.29-2.92-2.24-5.34-2.86-7.28-1.21-3.55-2.17-6.22-2.86-8-1.18-2.95-2.59-6.77-4.22-11.44-1.64-4.68-3.47-9.5-5.52-14.45l-9.05-23.4-.47-1.02h-5.68l-12.34,35.29-10.52,30.03c-.83,1.74-1.54,2.84-2.12,3.3-.57,.46-2.19,.97-4.87,1.54-1.67,.33-2.83,.62-3.5,.85l-.1,3.86h.94Zm-60.04-41.8c.03-2.76,.09-5.01,.16-6.76l-.06-6.19,.16-4.65-.1-7.67,.1-1.08c1.15-.19,2.52-.29,4.11-.29,3.36,0,5.8,.29,7.33,.86,2.08,.76,3.76,1.87,5.04,3.35,.9,1.02,1.66,2.58,2.26,4.69,.61,2.1,.91,4.34,.91,6.72,0,3.86-1.24,6.96-3.7,9.26-2.47,2.32-6.66,3.46-12.56,3.46-.77,0-1.98-.03-3.65-.11v-1.59Zm-23.6,40.1c0,.27,.03,.87,.1,1.81h2.24c1.81,0,3.81-.13,6-.39l7.19-.51c.38-.04,1.02-.06,1.93-.06,1.39,0,5.81,.36,13.28,1.08l2.14-.12c.18,0,.59,.02,1.26,.06,.13-.95,.2-2.34,.2-4.2-1.95-.83-4.28-1.56-6.98-2.16-1.56-.35-2.83-.83-3.81-1.48l.31-10.68-.26-12.6c0-1.51,.06-2.83,.16-3.92,1.67-.08,2.85-.12,3.54-.12,2.54,0,4.33,.4,5.37,1.2,.7,.49,1.91,2.59,3.65,6.3,3.72,8.03,6.33,13.87,7.87,17.55,.59,1.4,1.61,3.53,3.07,6.37l1.77,3.74c.56-.07,1.3-.17,2.24-.28,2.05-.27,3.27-.4,3.65-.4l5.21,.06c1.64,0,3.01,.1,4.12,.29h2.14l2.71,.4,1.05-.07h1.4c.03-.52,.06-.96,.06-1.3,0-.49-.11-1.06-.31-1.7-.83-.65-2.04-1.29-3.6-1.93-2.02-.8-3.35-1.53-3.99-2.19-.65-.66-2.02-2.94-4.1-6.85l-8.31-14.71c-.9-1.59-2.08-3.52-3.53-5.79-.69-1.07-1.25-1.99-1.67-2.78,4.71-1.59,8.21-3.95,10.47-7.08,2.27-3.12,3.41-6.59,3.41-10.42,0-5.11-2.1-9.64-6.3-13.6-4.21-3.95-9.88-5.93-16.99-5.93-4.52,0-8.81,.23-12.87,.69l-6.51,.33-2.76,.17c-.21,0-1.57-.11-4.06-.33-2.44,.03-4.05,.06-4.85,.06-1.46,0-3.05,.16-4.79,.46l-.21,.62,.1,3.41c.95,.19,2.82,.38,5.63,.57l3.07,.68c.17,2.19,.26,7.24,.26,15.11,0,3.6-.04,7.46-.16,11.59l-.1,3.07,.1,5.28-.2,6.81,.04,12.67c0,3.11-.03,4.92-.1,5.46-.03,.33-.14,.89-.31,1.65-1.43,.57-3.03,.97-4.8,1.21-1.77,.24-3.11,.63-4.01,1.17-.11,.76-.16,1.35-.16,1.76h0Zm-75.99,2.16c.24,0,1.74-.17,4.49-.51,1.74-.22,3.56-.35,5.47-.35,6.95,0,10.84,.02,11.68,.07l7.39,.45,1.63-.06,.98,.06c.11-.88,.17-1.6,.17-2.18,0-.53-.08-1.3-.21-2.29l-1.41-.35c-1.18-.38-2.55-.62-4.11-.75l-1.05-.11c-2.23-.46-3.53-.91-3.91-1.36-.59-.72-.9-2.65-.94-5.8l-.27-17.03c0-2.08,.12-3.92,.37-5.51,1.7-.27,3.2-.4,4.48-.4,8.81,0,14.04,.46,15.71,1.37,.94,.49,1.8,2.23,2.59,5.22,.39,1.36,.73,2.4,1.05,3.13,1.09,.22,1.77,.33,2.06,.33,.38,0,.91-.08,1.58-.22,.03-.8,.04-1.37,.04-1.7,0-5.23-.01-8.03-.04-8.41l-.11-1.26c.08-1.39,.13-3.06,.16-5l.32-9.08c-1.15-.11-1.91-.17-2.29-.17-.18,0-.51,.02-.99,.06-.77,.03-1.24,.06-1.41,.06-.17,3.6-.43,5.86-.8,6.79-.37,.92-.96,1.69-1.79,2.29-.46,.35-1.67,.65-3.64,.91-2.88,.38-5.01,.57-6.4,.57h-6.23l-3.7-.06c-.2-.03-.47-.17-.78-.4-.23-.91-.36-3.34-.36-7.28l.16-7.75-.16-6.77c0-1.37,.22-2.48,.68-3.36,.72-.3,1.28-.49,1.66-.57,1.77-.33,4.17-.52,7.23-.57l7.18-.22c4.69,0,7.54,.35,8.56,1.05,1.02,.7,2.26,2.96,3.72,6.79,.59,1.47,.99,2.33,1.19,2.55,.42,.35,.98,.51,1.67,.51,.59,0,1.51-.09,2.76-.28,.21-.61,.31-1.48,.31-2.62l-.78-10.68c-.07-1.14-.21-2.27-.41-3.41-.59,.03-1.22,.09-1.9,.17-.68,.08-1.22,.11-1.64,.11l-9.32,.35h-2.19l-1.04,.06-2.55-.06-.99,.06c-4.41,.22-8.65,.35-12.7,.35-8.09,0-14.22-.23-18.38-.69l-6.87-.28v3.97l1.25,.35c1.32,.45,2.33,.76,3.02,.9,2.85,.53,4.54,1.07,5.05,1.59l.63,19.02-.11,9.64,.21,8.12-.06,5.51,.21,13.1v.35c0,1.58-.18,3.14-.52,4.65l-.99,.68c-1.77,.49-3.54,.92-5.31,1.3-1.77,.38-3.04,.66-3.81,.86l-.1,4.14c.83,.03,2.38,.06,4.63,.06h0Zm-135.92-69.4c.87,.11,1.64,.19,2.29,.22,1.85,.08,3.75,.35,5.73,.79,.66,.16,1.18,.27,1.57,.35,.69,.11,1.21,.38,1.56,.79,.07,.57,.1,.95,.1,1.14l.48,7.05-.06,6.42,.26,9.08-.04,6.41,.16,21.42-.06,1.76c.03,1.55,.06,2.65,.06,3.3,0,1.66-.2,3.05-.58,4.14-1.39,.76-3.89,1.37-7.5,1.81-1.98,.23-3.3,.45-3.96,.63v3.92l6.31-.23h2.19c6.08-.38,11.21-.57,15.39-.57,8.37,0,15.54,.13,21.49,.4,8.44,.38,13.64,.57,15.59,.57,1.32,0,3.12-.06,5.38-.17l.92-6.48,1.89-10.73,.31-1.7c.07-.65,.16-1.45,.26-2.39-.77-.03-1.34-.06-1.73-.06-.69,0-1.58,.06-2.65,.18-1.57,4.58-3.53,8.14-5.89,10.68-1.77,1.97-3.82,3.24-6.15,3.81-3.37,.79-7.47,1.19-12.3,1.19-7.29,0-11.66-.4-13.08-1.19-.94-.53-1.4-1.51-1.4-2.96l.1-12.27c-.13-2.98-.21-6.74-.21-11.24v-1.93c2.65-.3,6.6-.46,11.86-.46,4.45,0,7.04,.13,7.73,.4,.98,.33,1.67,.85,2.09,1.53,.56,.88,1.18,3.07,1.88,6.59,.38,1.89,.65,3.15,.78,3.75h3.71v-1.25c0-1.1-.06-2.77-.17-5.03-.1-2.25-.16-3.89-.16-4.91,0-.65,.03-1.54,.08-2.67,.06-1.14,.08-3.7,.08-7.67,0-1.74-.07-4.3-.2-7.66l-3.03-.07-.68,.07c-.9,4.73-1.51,7.51-1.83,8.35-.49,1.17-1.05,1.99-1.67,2.46-.62,.48-2.26,.85-4.91,1.11-2.64,.27-7.08,.4-13.32,.4-.62,0-1.37-.06-2.25-.18v-7.15l-.04-9.55c0-6.51,.04-10.24,.16-11.19,3.33-.14,7.11-.22,11.36-.22,3.72,0,7.19,.16,10.42,.46,1.77,.14,2.84,.24,3.18,.28,1.35,.04,2.46,.19,3.33,.46,1.43,1.78,2.54,3.52,3.34,5.22l2.08,4.04c.52,1.47,.94,2.59,1.25,3.35,.91,.08,1.5,.11,1.78,.11l2.13-.11c.04-.46,.06-.8,.06-1.02l-.1-2.33v-11.7c0-1.29-.31-2.32-.94-3.07-4.14-.57-7.27-.85-9.39-.85l-9.43,.11c-6.26,0-13.26,.17-21,.51-5.18,.22-8.39,.33-9.64,.33-3.62,0-6.79-.2-9.54-.62-1.46-.22-3.17-.39-5.15-.51l-.27,4.55Zm-62.02-.46c5.04,0,9.51,1.21,13.39,3.65,3.9,2.44,6.96,6.08,9.2,10.92,2.25,4.83,3.36,11.07,3.36,18.7,0,4.65-.51,9.16-1.56,13.53-1.05,4.36-2.56,7.74-4.56,10.12-1.99,2.38-4.7,4.29-8.09,5.72-1.64,.72-4.17,1.08-7.62,1.08-4.51,0-8.06-1.32-10.63-3.97-1.77-1.85-2.65-5.37-2.65-10.54l.16-5.57-.16-9.02,.1-5.39c0-2.04-.03-4.42-.1-7.15v-8.39l-.11-9.64c0-.5,.03-1.32,.11-2.5,2.57-1.04,5.62-1.55,9.16-1.55h0Zm-34.33,69.35c.56-.03,1.39-.06,2.5-.06,1.8-.03,3.26-.08,4.38-.14,3.33-.24,5.11-.37,5.31-.37l5.79,.06,4.38-.1,1.25,.1,4.22-.1,3.13,.16,10.69,.46c6.91,0,12.38-1.17,16.41-3.52,5.73-3.3,10.13-7.67,13.18-13.14,3.06-5.47,4.59-12.02,4.59-19.67,0-6.05-1.14-11.65-3.41-16.77-2.28-5.13-5.69-9.64-10.24-13.54-3.41-2.92-7.82-5.11-13.24-6.58-3.57-.95-9.22-1.43-16.93-1.43-9.24,0-17.02,.57-23.35,1.7-3.82,.69-6.76,1.39-8.81,2.1l.06,5c.45-.08,.78-.13,.99-.17,1.21-.23,2.58-.38,4.11-.46,1.18-.22,2.23-.35,3.13-.35,1.11,0,1.79,.13,2.04,.4,.48,.53,.72,1.29,.72,2.27v2.27l.16,19.35-.04,7.55,.04,6.23c-.2,11.09-.32,16.86-.36,17.31-.18,1.81-.58,3.05-1.2,3.69-1.01,1.02-3.13,1.84-6.36,2.45-1.64,.3-2.72,.52-3.23,.68,0,2.23,.03,3.76,.1,4.6h0Z"/></svg>