<?xml version="1.0" encoding="UTF-8"?>
<svg id="Calque_1" data-name="Calque 1" xmlns="http://www.w3.org/2000/svg" viewBox="0 0 757.39 180.73">
  <defs>
    <style>
      .cls-1 {
        fill: #260085;
      }

      .cls-2 {
        fill: #ff540a;
      }
    </style>
  </defs>
  <g>
    <path class="cls-1" d="M267.02,160.11l-6.65-2.13c-1.93-.64-3.31-1.38-4.14-2.21-.83-.83-1.24-1.9-1.24-3.22,0-1.59.63-2.83,1.88-3.71,1.25-.88,3-1.32,5.23-1.32,2.4,0,4.27.54,5.61,1.62,1.34,1.08,2.21,2.76,2.62,5.03h5.23c-.24-2.3-.92-4.27-2.03-5.92s-2.62-2.9-4.52-3.78c-1.9-.88-4.13-1.32-6.7-1.32s-4.7.41-6.58,1.22c-1.88.81-3.34,1.98-4.37,3.5-1.03,1.52-1.55,3.3-1.55,5.33,0,2.4.75,4.41,2.26,6.02s3.9,2.94,7.19,3.99l6.35,2.03c1.86.61,3.21,1.36,4.04,2.26.83.9,1.24,2.09,1.24,3.58,0,1.69-.63,3-1.91,3.91-1.27.91-3.14,1.37-5.61,1.37-1.96,0-3.66-.3-5.08-.89-1.42-.59-2.56-1.46-3.4-2.62-.85-1.15-1.37-2.57-1.58-4.27h-5.23c.27,2.61,1.05,4.82,2.34,6.63,1.29,1.81,3.01,3.18,5.18,4.11,2.17.93,4.72,1.4,7.67,1.4,2.71,0,5.02-.4,6.93-1.19,1.91-.79,3.37-1.96,4.37-3.48s1.5-3.37,1.5-5.54c0-2.57-.74-4.7-2.21-6.37-1.47-1.68-3.75-3.02-6.83-4.04Z"/>
    <polygon class="cls-1" points="279.51 148.12 291.85 148.12 291.85 180.27 297.24 180.27 297.24 148.12 309.58 148.12 309.58 143.7 279.51 143.7 279.51 148.12"/>
    <path class="cls-1" d="M331.27,143.7h-4.67l-13.76,36.57h5.28l3.64-10.11h15.74l3.64,10.11h5.59l-13.82-36.57h-1.62ZM323.35,165.69l6.26-17.4,6.26,17.4h-12.52Z"/>
    <polygon class="cls-1" points="376.52 173.02 358.34 143.7 352.09 143.7 352.09 180.27 357.27 180.27 357.27 150.95 375.45 180.27 381.7 180.27 381.7 143.7 376.52 143.7 376.52 173.02"/>
    <path class="cls-1" d="M412.3,145.94c-2.93-1.49-6.34-2.23-10.23-2.23h-12.85v36.57h12.9c3.83,0,7.21-.76,10.16-2.29,2.95-1.52,5.22-3.68,6.83-6.48,1.61-2.79,2.41-6,2.41-9.62s-.8-6.86-2.41-9.6c-1.61-2.74-3.88-4.86-6.81-6.35ZM414.33,169.12c-1.14,2.12-2.75,3.76-4.85,4.93-2.1,1.17-4.57,1.75-7.42,1.75h-7.47v-27.63h7.47c2.88,0,5.37.56,7.47,1.68,2.1,1.12,3.71,2.7,4.83,4.75,1.12,2.05,1.68,4.44,1.68,7.19s-.57,5.22-1.7,7.34Z"/>
    <path class="cls-1" d="M443.77,143.7h-4.67l-13.76,36.57h5.28l3.64-10.11h15.74l3.64,10.11h5.59l-13.82-36.57h-1.62ZM435.86,165.69l6.26-17.4,6.26,17.4h-12.52Z"/>
    <path class="cls-1" d="M478.96,164.52c2.57,0,4.81-.43,6.7-1.29,1.9-.86,3.35-2.08,4.37-3.66,1.02-1.57,1.52-3.41,1.52-5.51s-.51-3.89-1.52-5.46c-1.02-1.57-2.46-2.79-4.34-3.63-1.88-.85-4.12-1.27-6.73-1.27h-14.42v36.57h5.38v-15.75h1.31l15.45,15.75h7.67l-16.17-15.75h.78ZM478.81,148.12c2.44,0,4.29.52,5.56,1.55,1.27,1.03,1.9,2.51,1.9,4.44,0,1.25-.3,2.33-.89,3.23-.59.9-1.44,1.59-2.54,2.08-1.1.49-2.45.74-4.04.74h-8.89v-12.04h8.89Z"/>
    <path class="cls-1" d="M521.2,145.94c-2.93-1.49-6.34-2.23-10.23-2.23h-12.85v36.57h12.9c3.83,0,7.21-.76,10.16-2.29,2.95-1.52,5.22-3.68,6.83-6.48,1.61-2.79,2.41-6,2.41-9.62s-.8-6.86-2.41-9.6c-1.61-2.74-3.88-4.86-6.81-6.35ZM523.23,169.12c-1.14,2.12-2.75,3.76-4.85,4.93-2.1,1.17-4.57,1.75-7.42,1.75h-7.47v-27.63h7.47c2.88,0,5.37.56,7.47,1.68,2.1,1.12,3.71,2.7,4.83,4.75,1.12,2.05,1.68,4.44,1.68,7.19s-.57,5.22-1.7,7.34Z"/>
    <polygon class="cls-1" points="551.75 143.7 546.36 143.7 546.36 180.27 549 180.27 551.75 180.27 570.13 180.27 570.13 175.85 551.75 175.85 551.75 143.7"/>
    <rect class="cls-1" x="576.28" y="143.7" width="5.38" height="36.57"/>
    <path class="cls-1" d="M611.25,161.76c-.59-.34-1.22-.59-1.86-.8.44-.15.87-.33,1.28-.55,1.39-.74,2.48-1.78,3.28-3.1.79-1.32,1.19-2.86,1.19-4.62,0-2.74-.98-4.93-2.95-6.55-1.96-1.62-4.61-2.44-7.92-2.44h-15.08v36.57h15.75c2.2,0,4.16-.41,5.87-1.22,1.71-.81,3.03-1.96,3.96-3.45.93-1.49,1.4-3.2,1.4-5.13s-.44-3.65-1.32-5.16c-.88-1.51-2.08-2.69-3.58-3.56ZM603.45,147.87c2.03,0,3.59.47,4.67,1.4,1.08.93,1.63,2.28,1.63,4.04,0,1.22-.25,2.26-.76,3.12-.51.86-1.25,1.52-2.21,1.98s-2.14.69-3.53.69h-8.68v-11.22h8.89ZM609.88,173.19c-.53.93-1.28,1.65-2.26,2.16s-2.17.76-3.55.76h-9.5v-12.95h9.19c2.13,0,3.82.6,5.05,1.8,1.24,1.2,1.85,2.84,1.85,4.9,0,1.29-.26,2.4-.79,3.33Z"/>
    <path class="cls-1" d="M636.06,164.52c2.57,0,4.81-.43,6.7-1.29,1.9-.86,3.35-2.08,4.37-3.66,1.02-1.57,1.52-3.41,1.52-5.51s-.51-3.89-1.52-5.46c-1.02-1.57-2.46-2.79-4.34-3.63-1.88-.85-4.12-1.27-6.73-1.27h-14.42v36.57h5.38v-15.75h1.31l15.45,15.75h7.67l-16.17-15.75h.78ZM635.9,148.12c2.44,0,4.29.52,5.56,1.55,1.27,1.03,1.9,2.51,1.9,4.44,0,1.25-.3,2.33-.89,3.23-.59.9-1.44,1.59-2.54,2.08-1.1.49-2.45.74-4.04.74h-8.89v-12.04h8.89Z"/>
    <path class="cls-1" d="M671.51,143.7h-4.67l-13.76,36.57h5.28l3.64-10.11h15.74l3.64,10.11h5.59l-13.82-36.57h-1.62ZM663.6,165.69l6.26-17.4,6.26,17.4h-12.52Z"/>
    <path class="cls-1" d="M706.71,164.52c2.57,0,4.81-.43,6.7-1.29,1.9-.86,3.35-2.08,4.37-3.66,1.02-1.57,1.52-3.41,1.52-5.51s-.51-3.89-1.52-5.46c-1.02-1.57-2.46-2.79-4.34-3.63-1.88-.85-4.12-1.27-6.73-1.27h-14.42v36.57h5.38v-15.75h1.31l15.45,15.75h7.67l-16.17-15.75h.78ZM706.55,148.12c2.44,0,4.29.52,5.56,1.55,1.27,1.03,1.9,2.51,1.9,4.44,0,1.25-.3,2.33-.89,3.23-.59.9-1.44,1.59-2.54,2.08-1.1.49-2.45.74-4.04.74h-8.89v-12.04h8.89Z"/>
    <polygon class="cls-1" points="750.08 143.7 739.85 159.7 729.61 143.7 723.11 143.7 736.88 164.32 736.88 180.27 742.26 180.27 742.26 164.32 756.02 143.7 750.08 143.7"/>
  </g>
  <path class="cls-1" d="M178.69,118.46c-8.92-6.45-18.98-9.68-30.19-9.68-14.26,0-27.34,5.95-39.23,17.83l-51.71,51.71c-13.25-8.83-23.78-20.38-31.59-34.64-7.81-14.27-11.72-29.63-11.72-46.11,0-11.21,2.04-22.5,6.11-33.88h74.13v-10.7H17.83c-4.76-6.62-8.58-13.75-11.46-21.4h88.14v-10.7H3.06C1.36,14.27.34,7.31,0,0l111.57.25c17.66,0,33.92,4.37,48.78,13.12,14.86,8.75,26.66,20.55,35.41,35.41,8.74,14.86,13.12,31.12,13.12,48.78,0,16.47-3.82,31.84-11.46,46.11-3.57-10.36-9.81-18.76-18.72-25.22ZM168.25,73.24c2.12-2.12,3.18-4.71,3.18-7.77s-1.06-5.64-3.18-7.77c-2.13-2.12-4.71-3.18-7.77-3.18s-5.65,1.06-7.77,3.18c-2.13,2.13-3.18,4.71-3.18,7.77s1.06,5.65,3.18,7.77c2.12,2.13,4.71,3.18,7.77,3.18s5.64-1.06,7.77-3.18Z"/>
  <g>
    <path class="cls-2" d="M328.01,72.43c5.52-3.42,9.85-7.97,12.98-13.67,3.13-5.69,4.7-11.96,4.7-18.79s-1.65-13.5-4.95-19.3c-3.3-5.81-7.92-10.42-13.84-13.84-5.92-3.42-12.64-5.12-20.16-5.12h-56.03v119.58h22.21v-43.22h12.13l43.22,43.22h31.43l-44.17-44.17c4.52-.79,8.69-2.34,12.48-4.69ZM306.4,57.57h-33.48V23.4h33.48c3.07,0,5.92.68,8.54,2.05,2.62,1.37,4.7,3.36,6.24,5.98,1.54,2.62,2.31,5.64,2.31,9.05s-.77,6.44-2.31,9.05c-1.54,2.62-3.62,4.61-6.24,5.98-2.62,1.37-5.47,2.05-8.54,2.05Z"/>
    <path class="cls-2" d="M454.25,8.11c-9.4-5.41-19.79-8.11-31.18-8.11s-21.78,2.71-31.18,8.11c-9.4,5.41-16.8,12.81-22.21,22.21-5.41,9.4-8.11,19.79-8.11,31.18s2.7,21.78,8.11,31.18c5.41,9.4,12.81,16.8,22.21,22.21,9.4,5.41,19.79,8.11,31.18,8.11s21.78-2.7,31.18-8.11c9.4-5.41,16.8-12.81,22.21-22.21,5.41-9.4,8.11-19.79,8.11-31.18s-2.71-21.78-8.11-31.18c-5.41-9.4-12.81-16.8-22.21-22.21ZM457.24,81.49c-3.42,6.04-8.11,10.76-14.09,14.18-5.98,3.42-12.67,5.12-20.07,5.12s-13.95-1.71-19.99-5.12c-6.04-3.42-10.76-8.11-14.18-14.09-3.42-5.98-5.13-12.67-5.13-20.07s1.71-13.95,5.13-19.99c3.42-6.04,8.11-10.76,14.09-14.18,5.98-3.42,12.67-5.12,20.07-5.12s13.95,1.71,19.99,5.12c6.03,3.42,10.76,8.11,14.18,14.09,3.42,5.98,5.12,12.67,5.12,20.07s-1.71,13.95-5.12,19.99Z"/>
    <path class="cls-2" d="M590.92,86.27c-3.48,4.44-7.92,7.97-13.32,10.59-5.41,2.62-11.36,3.93-17.85,3.93-7.4,0-14.09-1.68-20.07-5.04-5.98-3.36-10.68-7.94-14.09-13.75-3.42-5.81-5.12-12.13-5.12-18.96,0-7.4,1.71-14.21,5.12-20.41,3.42-6.21,8.11-11.16,14.09-14.86,5.98-3.7,12.67-5.55,20.07-5.55,6.49,0,12.44,1.28,17.85,3.84,5.41,2.56,9.82,6.04,13.24,10.42,3.42,4.39,5.75,9.25,7,14.61h22.72c-1.37-9.57-4.87-18.25-10.51-26.05-5.64-7.8-12.84-13.92-21.61-18.36-8.77-4.44-18.34-6.66-28.7-6.66-11.39,0-21.78,2.85-31.18,8.54-9.4,5.7-16.8,13.38-22.21,23.06-5.41,9.68-8.12,20.22-8.12,31.6s2.7,20.81,8.12,29.98c5.41,9.17,12.81,16.43,22.21,21.78,9.4,5.35,19.79,8.03,31.18,8.03,10.36,0,19.96-2.25,28.79-6.75,8.82-4.5,16.06-10.68,21.7-18.53,5.64-7.86,9.14-16.57,10.51-26.14h-22.72c-1.25,5.35-3.62,10.25-7.09,14.69Z"/>
    <path class="cls-2" d="M749.28,92.68c5.41-9.4,8.11-19.79,8.11-31.18s-2.71-21.78-8.11-31.18c-5.41-9.4-12.81-16.8-22.21-22.21-9.4-5.41-19.79-8.11-31.18-8.11s-21.78,2.71-31.18,8.11c-9.4,5.41-16.8,12.81-22.21,22.21-5.41,9.4-8.12,19.79-8.12,31.18s2.7,21.78,8.12,31.18c5.41,9.4,12.81,16.8,22.21,22.21,9.4,5.41,19.79,8.11,31.18,8.11s21.78-2.7,31.18-8.11c.51-.29.98-.61,1.48-.91l9.2,9.2,15.72-15.55-8.47-8.47c1.54-2.04,2.98-4.2,4.29-6.47ZM730.06,81.49c-.33.58-.68,1.14-1.03,1.7l-25.62-25.62-15.72,15.55,24.44,24.44c-4.97,2.14-10.38,3.23-16.24,3.23-7.29,0-13.95-1.71-19.99-5.12-6.04-3.42-10.76-8.11-14.18-14.09-3.42-5.98-5.12-12.67-5.12-20.07s1.71-13.95,5.12-19.99c3.42-6.04,8.11-10.76,14.09-14.18,5.98-3.42,12.67-5.12,20.07-5.12s13.95,1.71,19.99,5.12c6.04,3.42,10.76,8.11,14.18,14.09,3.42,5.98,5.12,12.67,5.12,20.07s-1.71,13.95-5.12,19.99Z"/>
  </g>
</svg>