<?xml version="1.0" encoding="UTF-8"?>
<svg id="Calque_1" xmlns="http://www.w3.org/2000/svg" xmlns:xlink="http://www.w3.org/1999/xlink" version="1.1" viewBox="0 0 1440 430">
  <!-- Generator: Adobe Illustrator 29.1.0, SVG Export Plug-In . SVG Version: 2.1.0 Build 142)  -->
  <defs>
    <style>
      .st0, .st1, .st2 {
        fill: none;
      }

      .st1 {
        stroke-dasharray: 2 2;
      }

      .st1, .st2 {
        stroke: #fff;
        stroke-miterlimit: 10;
      }

      .st2 {
        stroke-dasharray: 1 3;
      }

      .st3 {
        opacity: .2;
      }

      .st4 {
        clip-path: url(#clippath);
      }
    </style>
    <clipPath id="clippath">
      <rect class="st0" y=".9" width="1440" height="428.1"/>
    </clipPath>
  </defs>
  <g class="st3">
    <g class="st4">
      <g>
        <line class="st1" x1="862.3" y1="587.5" x2="1024.2" y2="587.5"/>
        <line class="st1" x1="1977" y1="587.5" x2="1815.1" y2="587.5"/>
        <circle class="st2" cx="1227.4" cy="440.7" r="154.3"/>
        <circle class="st2" cx="1117.4" cy="253.4" r="291"/>
        <circle class="st2" cx="1263.6" cy="157.3" r="33"/>
        <circle class="st2" cx="1075.2" cy="-47.8" r="291"/>
        <line class="st2" x1="646.1" y1="803.9" x2="1204.5" y2="245.6"/>
        <line class="st2" x1="2194.9" y1="803.9" x2="1636.5" y2="245.6"/>
        <line class="st2" x1="2335" y1="803.9" x2="1776.7" y2="245.6"/>
        <line class="st2" x1="2059.7" y1="-38.7" x2="561.7" y2="-38.7"/>
        <line class="st2" x1="1709.8" y1="493.8" x2="561.7" y2="493.8"/>
        <line class="st2" x1="1179.4" y1="24.1" x2="622" y2="24.1"/>
        <line class="st2" x1="1994.5" y1="55.9" x2="559.9" y2="55.9"/>
        <line class="st2" x1="1171" y1="119.9" x2="561.8" y2="119.9"/>
        <line class="st2" x1="1171.2" y1="152" x2="561.9" y2="152"/>
        <line class="st2" x1="1066.4" y1="152.3" x2="1066.4" y2="-118.3"/>
        <path class="st2" d="M902.5,547.4c10.2,10.3,16.5,24.4,16.5,40"/>
        <path class="st2" d="M1936.8,547.4c-10.2,10.3-16.5,24.4-16.5,40"/>
      </g>
    </g>
  </g>
</svg>