<?xml version="1.0" encoding="utf-8"?>
<svg width="125" height="31" viewBox="0 0 125 31" fill="none" xmlns="http://www.w3.org/2000/svg">
<g clip-path="url(#clip0_221_6)">
<path d="M20.1226 3.33595L13.8676 6.61282L7.61255 3.33595L13.8676 0.059082L20.1226 3.33595Z" fill="#006BFF"></path>
<path d="M13.8676 20.4716L7.61255 17.402V11.1671L13.8676 7.83447L20.1471 11.1403V17.3619L13.8676 20.4716Z" fill="#006BFF"></path>
<path d="M6.65404 16.9052L0 13.557V7.09909L6.42668 3.84229L12.7954 7.25513L6.65851 10.483V16.9052H6.65404Z" fill="#006BFF"></path>
<path d="M21.1214 10.483L14.9845 7.25513L21.3532 3.84229L27.7799 7.09909V13.557L21.1258 16.9029V10.4807L21.1214 10.483Z" fill="#006BFF"></path>
<path d="M0 14.6782V23.6662L13.8788 30.7371L27.7776 23.7242V14.6782L13.8877 21.6934L0 14.6782Z" fill="#006BFF"></path>
<path d="M113.708 23.1755L113.73 8.87575L116.792 7.19922V16.9625L120.853 11.1933H124.581L120.254 17.1844L124.869 23.1755H120.942L116.792 17.4063V23.1755H113.708Z" fill="black"></path>
<path d="M107.628 23.5083C106.385 23.5083 105.32 23.2309 104.433 22.6762C103.545 22.1214 102.865 21.367 102.391 20.4129C101.918 19.4587 101.681 18.3825 101.681 17.1843C101.681 15.9713 101.925 14.8877 102.413 13.9336C102.909 12.9794 103.604 12.2287 104.499 11.6814C105.394 11.134 106.452 10.8604 107.672 10.8604C109.085 10.8604 110.268 11.2191 111.223 11.9365C112.184 12.6466 112.798 13.6192 113.064 14.8544L110.047 15.6533C109.869 15.0319 109.558 14.5475 109.115 14.1998C108.678 13.8522 108.183 13.6784 107.628 13.6784C106.992 13.6784 106.47 13.8337 106.064 14.1444C105.657 14.4476 105.357 14.8655 105.165 15.3981C104.973 15.9232 104.876 16.5186 104.876 17.1843C104.876 18.2272 105.106 19.0741 105.564 19.725C106.03 20.3685 106.718 20.6902 107.628 20.6902C108.308 20.6902 108.826 20.5349 109.181 20.2243C109.536 19.9136 109.802 19.4698 109.98 18.8929L113.064 19.5364C112.724 20.8086 112.081 21.7886 111.134 22.4765C110.187 23.1643 109.018 23.5083 107.628 23.5083Z" fill="black"></path>
<path d="M95.3804 23.5083C94.1748 23.5083 93.1171 23.2383 92.2074 22.6984C91.2976 22.1584 90.5875 21.4151 90.0772 20.4683C89.5742 19.5142 89.3228 18.4195 89.3228 17.1843C89.3228 15.9343 89.5816 14.8359 90.0994 13.8892C90.6171 12.9351 91.3309 12.1917 92.2407 11.6592C93.1504 11.1266 94.197 10.8604 95.3804 10.8604C96.5861 10.8604 97.6438 11.1303 98.5535 11.6703C99.4707 12.2102 100.184 12.9572 100.695 13.9114C101.205 14.8581 101.46 15.9491 101.46 17.1843C101.46 18.4269 101.201 19.5253 100.684 20.4794C100.173 21.4262 99.4596 22.1695 98.5424 22.7095C97.6327 23.242 96.5787 23.5083 95.3804 23.5083ZM95.3804 20.6902C96.3494 20.6902 97.0705 20.3648 97.5439 19.7139C98.0247 19.0556 98.2651 18.2124 98.2651 17.1843C98.2651 16.1192 98.021 15.2686 97.5328 14.6325C97.052 13.9964 96.3346 13.6784 95.3804 13.6784C94.7222 13.6784 94.1822 13.8263 93.7606 14.1222C93.339 14.418 93.0247 14.8285 92.8176 15.3537C92.6179 15.8788 92.518 16.489 92.518 17.1843C92.518 18.2568 92.7584 19.1111 93.2392 19.7472C93.7273 20.3759 94.4411 20.6902 95.3804 20.6902Z" fill="black"></path>
<path d="M76.6765 23.1755V7.19922H83.4221C83.5774 7.19922 83.7845 7.20662 84.0434 7.22141C84.3097 7.2288 84.5463 7.25099 84.7534 7.28798C85.7076 7.4359 86.4879 7.75025 87.0944 8.231C87.7083 8.71179 88.1595 9.3183 88.448 10.0505C88.7364 10.7754 88.8807 11.5853 88.8807 12.4803C88.8807 13.819 88.5478 14.9655 87.8821 15.9196C87.2165 16.8664 86.1736 17.4507 84.7534 17.6726L83.4221 17.7613H79.6943V23.1755H76.6765ZM85.6854 23.1755L82.5345 16.6741L85.641 16.075L89.1025 23.1755H85.6854ZM79.6943 14.9433H83.2889C83.4443 14.9433 83.6144 14.9359 83.7993 14.9211C83.9842 14.9063 84.1543 14.8767 84.3096 14.8324C84.7165 14.7214 85.0308 14.5365 85.2527 14.2776C85.4746 14.0113 85.6262 13.7192 85.7076 13.4011C85.7963 13.0757 85.8407 12.7687 85.8407 12.4803C85.8407 12.1918 85.7963 11.8886 85.7076 11.5705C85.6262 11.2451 85.4746 10.9529 85.2527 10.694C85.0308 10.4278 84.7165 10.2392 84.3096 10.1282C84.1543 10.0838 83.9842 10.0542 83.7993 10.0395C83.6144 10.0247 83.4443 10.0172 83.2889 10.0172H79.6943V14.9433Z" fill="black"></path>
<path d="M69.5616 23.5083C68.3338 23.5083 67.2502 23.2457 66.3109 22.7206C65.3789 22.188 64.6467 21.4595 64.1141 20.5349C63.589 19.603 63.3264 18.5379 63.3264 17.3396C63.3264 16.0305 63.5853 14.8914 64.103 13.9225C64.6208 12.9535 65.3346 12.2028 66.2443 11.6703C67.1541 11.1303 68.2007 10.8604 69.3841 10.8604C70.6415 10.8604 71.7103 11.1562 72.5905 11.7479C73.4706 12.3396 74.1215 13.1717 74.5431 14.2442C74.9647 15.3167 75.1127 16.5778 74.9869 18.0275H72.0025V16.918C72.0025 15.6976 71.8065 14.8212 71.4144 14.2886C71.0298 13.7487 70.3974 13.4787 69.5172 13.4787C68.4891 13.4787 67.731 13.793 67.2428 14.4217C66.7621 15.043 66.5217 15.9639 66.5217 17.1843C66.5217 18.3012 66.7621 19.1666 67.2428 19.7805C67.731 20.387 68.4448 20.6902 69.3841 20.6902C69.9758 20.6902 70.4825 20.5608 70.9041 20.3019C71.3257 20.043 71.6474 19.6695 71.8693 19.1814L74.8871 20.0467C74.4359 21.1414 73.7221 21.992 72.7458 22.5985C71.7769 23.205 70.7155 23.5083 69.5616 23.5083ZM65.5897 18.0275V15.7864H73.5335V18.0275H65.5897Z" fill="black"></path>
<path d="M55.8986 23.5306C54.9593 23.5306 54.1937 23.3716 53.602 23.0536C53.0103 22.7355 52.548 22.3324 52.2152 21.8442C51.8898 21.3561 51.6568 20.8494 51.5162 20.3243C51.3757 19.7917 51.2906 19.3073 51.2611 18.8709C51.2315 18.4345 51.2167 18.1164 51.2167 17.9167V11.1934H54.2788V16.8516C54.2788 17.1253 54.2936 17.4766 54.3232 17.9056C54.3528 18.3272 54.4452 18.7525 54.6006 19.1815C54.7559 19.6105 55.0074 19.9692 55.355 20.2577C55.71 20.5462 56.2093 20.6904 56.8528 20.6904C57.1116 20.6904 57.389 20.6497 57.6849 20.5684C57.9807 20.487 58.2581 20.3317 58.517 20.1024C58.7758 19.8657 58.9866 19.5218 59.1494 19.0706C59.3195 18.612 59.4045 18.0129 59.4045 17.2732L61.1353 18.0942C61.1353 19.041 60.943 19.9286 60.5584 20.757C60.1738 21.5854 59.5932 22.2547 58.8165 22.7651C58.0473 23.2755 57.0747 23.5306 55.8986 23.5306ZM59.7818 23.1756V19.2037H59.4045V11.1934H62.4445V23.1756H59.7818Z" fill="black"></path>
<path d="M46.6482 23.1754V8.87558L49.6659 6.86621V23.1754H46.6482Z" fill="black"></path>
<path d="M33.8511 23.1755V7.19922H40.2416C41.3807 7.19922 42.3015 7.42851 43.0042 7.88709C43.7068 8.33827 44.2209 8.9078 44.5463 9.59564C44.8718 10.2835 45.0345 10.9788 45.0345 11.6815C45.0345 12.5764 44.8311 13.3198 44.4243 13.9115C44.0249 14.5032 43.4739 14.8989 42.7712 15.0986V14.5439C43.7697 14.751 44.5168 15.2133 45.0123 15.9307C45.5153 16.6482 45.7668 17.4507 45.7668 18.3383C45.7668 19.2924 45.5892 20.1319 45.2342 20.8568C44.8866 21.5816 44.354 22.1511 43.6366 22.5653C42.9191 22.9721 42.0168 23.1755 40.9295 23.1755H33.8511ZM36.9132 20.3353H40.6188C41.0256 20.3353 41.3881 20.2503 41.7061 20.0801C42.0242 19.9026 42.2719 19.6585 42.4494 19.3479C42.6344 19.0298 42.7268 18.6563 42.7268 18.2273C42.7268 17.8501 42.6491 17.5136 42.4938 17.2177C42.3385 16.9219 42.1018 16.6889 41.7838 16.5187C41.4731 16.3412 41.0848 16.2525 40.6188 16.2525H36.9132V20.3353ZM36.9132 13.4344H40.1972C40.5375 13.4344 40.8407 13.3753 41.107 13.2569C41.3733 13.1386 41.5841 12.9574 41.7394 12.7133C41.8947 12.4618 41.9724 12.14 41.9724 11.748C41.9724 11.2599 41.8207 10.8494 41.5175 10.5165C41.2142 10.1837 40.7741 10.0172 40.1972 10.0172H36.9132V13.4344Z" fill="black"></path>
</g>
<defs>
<clipPath id="clip0_221_6">
<rect width="125" height="30.8185" fill="white"></rect>
</clipPath>
</defs>
</svg>