<?xml version="1.0" encoding="UTF-8"?>
<svg id="a" xmlns="http://www.w3.org/2000/svg" version="1.1" viewBox="0 0 998.02002 415.84">
  <!-- Generator: Adobe Illustrator 29.1.0, SVG Export Plug-In . SVG Version: 2.1.0 Build 142)  -->
  <defs>
    <style>
      .st0 {
        fill: #004a92;
      }
    </style>
  </defs>
  <g>
    <path class="st0" d="M447.32221,329.90849h27.79209l-2.30041,8.78341h-24.72119l-4.40271,11.43605c13.07604,6.59304,25.82186,13.83551,25.82186,30.31264,0,15.48653-12.30556,26.92254-27.57194,26.92254-5.72353,0-15.5966-3.18097-15.5966-8.78341,0-2.53154,1.86015-3.29101,3.39007-3.29101,4.51278,0,4.29263,8.56326,14.39684,8.56326s16.58721-8.56326,16.58721-18.56841c0-14.94717-12.19548-21.43018-23.84066-27.25276l10.44541-28.12227.00003-.00003Z"/>
    <path class="st0" d="M504.44736,365.50437c9.33372-.77049,19.22879-6.81319,19.22879-17.2586,0-7.79278-4.94203-13.39525-12.74582-13.39525-6.0427,0-9.77401,3.50014-13.8465,7.57266l-1.64-2.08029c6.0427-6.92327,11.64514-12.08544,21.19904-12.08544,8.89349,0,15.81672,6.37293,15.81672,15.5966s-7.57266,16.14694-15.92676,19.44897l.22015.22015c6.0427-.55034,19.88924,2.19034,19.88924,17.56679,0,10.66556-8.67334,26.26213-29.66325,26.26213-10.1042,0-16.69728-5.71251-16.69728-9.22368,0-1.97022,1.87116-3.52218,3.52218-3.52218,4.07252,0,4.07252,9.22368,15.37645,9.22368,10.66556,0,17.36871-8.123,17.36871-18.34829,0-14.17672-9.66397-17.91901-22.07957-17.14853v-2.85075l-.0221.02204Z"/>
    <path class="st0" d="M406.16793,386.34017c-3.58822,0-3.58822-.80351-3.58822-1.92618v-48.98011l-2.27841-.91355-.60536.41826c-6.81319,4.65587-12.51469,8.11198-17.95203,10.85266l-1.23275.62739,2.27841,4.20459,1.16671-.58336c2.93882-1.4749,5.98768-3.0929,8.91549-4.7329v39.11806c0,1.11169,0,1.92618-3.58822,1.92618h-5.5364v4.71089l1.38686-.022c5.98768-.11007,12.1845-.19811,18.46935-.07706,1.99222.03302,4.00648.07706,5.98768.07706h1.36483v-4.67788h-4.77693l-.01102-.02207Z"/>
    <path class="st0" d="M582.18816,339.22021c12.51469,0,18.34826,15.39846,18.34826,25.81088,0,13.37321-6.58202,21.99153-16.75227,21.99153-12.52571,0-18.35928-15.38747-18.35928-25.79986,0-13.37321,6.58202-22.01353,16.76328-22.01353h0v.01098ZM583.09072,334.09105c-17.7429,0-28.73865,15.23336-28.73865,29.34404,0,15.57457,13.06503,28.72767,28.50755,28.72767,17.75392,0,28.73865-15.23336,28.73865-29.33303,0-15.57457-13.05401-28.73868-28.50755-28.73868h0Z"/>
  </g>
  <path class="st0" d="M753.94873,39.41792c.95758.13208,1.80513.20913,2.52053.25316,2.03622.08806,4.12754.36323,6.30686.86954.72642.17611,1.29879.29718,1.71705.38524.77049.12108,1.34279.41826,1.72807.86954.07706.62739.11004,1.04564.11004,1.25477l.51729,7.75977-.044,7.05533.28619,10.01616-.06604,7.05533.17608,23.56549-.044,1.94819c.03305,1.70605.044,2.91679.044,3.63224,0,1.82713-.20913,3.34606-.62739,4.5568-1.52996.83652-4.29267,1.49692-8.25507,1.99222-2.17932.25316-3.63222.47329-4.3587.68242v4.31465l6.94527-.24215h2.41048c6.69213-.41825,12.33861-.62739,16.93943-.62739,9.21266,0,17.10449.14308,23.65353.44027,9.28971.41825,15.01325.62739,17.15958.62739,1.4529,0,3.43411-.06604,5.92165-.19812l1.0126-7.12138,2.08029-11.81026.34121-1.88216c.07706-.69342.17608-1.58498.28619-2.61961-.84754-.03302-1.47494-.06604-1.90415-.06604-.75947,0-1.73909.06604-2.91682.18711-1.72807,5.0521-3.88542,8.97052-6.483,11.76624-1.94822,2.15733-4.21561,3.55519-6.78014,4.18257-3.69826.88054-8.21107,1.30981-13.52729,1.30981-8.02391,0-12.83386-.42926-14.39687-1.30981-1.03464-.57235-1.54097-1.66202-1.54097-3.24699l.11004-13.50531c-.14309-3.29102-.23117-7.41856-.23117-12.3716v-2.13532c2.91682-.33021,7.26444-.4953,13.05401-.4953,4.89802,0,7.74874.14308,8.50821.42926,1.07864.38524,1.83811.94658,2.30044,1.69504.61638.95759,1.29879,3.37908,2.06928,7.25346.41826,2.08028.71547,3.45612.85856,4.12754h4.07252v-1.38685c0-1.19973-.044-3.04887-.17608-5.52539-.11004-2.47652-.17608-4.29264-.17608-5.40433,0-.71544.03305-1.69504.08807-2.9388.06604-1.25477.08807-4.0725.08807-8.44219,0-1.91518-.07706-4.73291-.22015-8.44219l-3.33508-.06604-.74845.06604c-.99064,5.2172-1.66203,8.28809-2.01426,9.19065-.53932,1.2988-1.1557,2.20135-1.83811,2.71867-.68241.52833-2.48754.93557-5.40429,1.22175-2.91682.29718-7.79281.42926-14.66102.42926-.68241,0-1.51894-.06604-2.47652-.18711v-7.88084l-.044-10.50046c0-7.16541.044-11.27093.17608-12.31657,3.66527-.15409,7.82579-.24215,12.50367-.24215,4.09448,0,7.91387.15409,11.46903.50631,1.94822.15409,3.11493.26416,3.50014.30819,1.48589.03302,2.70769.20913,3.66527.50631,1.57396,1.9592,2.79569,3.87438,3.67629,5.74553l2.28943,4.43573c.57237,1.62901,1.03464,2.85075,1.37585,3.68727.99064.08806,1.64.13208,1.94822.13208l2.35546-.13208c.03305-.4953.06604-.86954.06604-1.11169l-.11004-2.57558v-12.86691c0-1.41987-.34121-2.55357-1.04566-3.37908-4.5458-.62739-7.99092-.94658-10.31333-.94658l-10.37937.13208c-6.89025,0-14.59498.18711-23.12523.56134-5.7015.24215-9.22368.36323-10.59952.36323-3.98444,0-7.48459-.22014-10.50043-.68242-1.60701-.24215-3.48913-.44027-5.66851-.56134l-.2972,4.99707-.02204-.01102ZM715.10588,35.13628c-4.03946-1.27678-8.40919-1.91518-13.07604-1.91518-1.71705-.20913-2.96082-.30819-3.72029-.30819-6.11976,0-11.77725,1.07866-16.97242,3.247-5.20618,2.16833-9.53183,5.07412-12.99899,8.72837-3.45614,3.64324-6.14179,7.74876-8.04594,12.28356-2.59758,6.29587-3.89637,12.5147-3.89637,18.63446,0,5.44835.86951,10.92972,2.63063,16.4331,1.26581,3.88539,3.16995,7.4846,5.73455,10.81965s5.63546,6.16379,9.23469,8.50823c2.67464,1.75007,5.91063,3.07089,9.71899,3.97344,3.79735.89155,8.28813,1.33182,13.43929,1.33182,7.38556,0,13.85755-.73745,19.42697-2.20135,5.5584-1.48591,8.87145-2.80673,9.95009-3.97344.38521-.36323.57237-1.33182.57237-2.87277,0-.41825.07706-2.16833.22015-5.23922.03305-.95759.06604-3.88539.06604-8.7944,0-4.24861.06604-6.72513.17608-7.42957.11004-.71544.33019-1.22175.63841-1.57397.1871-.20913,1.06762-.63839,2.63063-1.27679,1.57396-.63839,2.67464-1.16671,3.32406-1.58498.26415-.58336.40724-1.11169.40724-1.57397,0-.74846-.01102-1.66202-.06604-2.75169-2.09131-.12108-3.37909-.15409-3.83033-.12108l-3.85237.12108-9.05855.13208c-1.26581,0-2.4215-.03302-3.50014-.11007-3.0489-.30819-6.6701-.45128-10.83069-.45128-.26415,0-.74845.12108-1.43087.36323-.26415,1.04564-.40724,1.86015-.40724,2.4435,0,.25316.03305.6494.11004,1.18873.26415.41825.95758.77047,2.06928,1.06766l5.09614,1.49692c1.29879.41825,2.06928.71544,2.33343.90255.24212.18711.50634.58336.77049,1.21074.11004,1.618.17608,4.57882.17608,8.89347s-.14309,7.86984-.45125,10.26932c-.19811,1.33182-.60536,2.33344-1.21072,2.99384-.86951.99061-2.02527,1.66202-3.44512,1.99222-2.78474.69342-5.42633,1.05665-7.90285,1.05665-5.12912,0-9.58692-1.55196-13.37325-4.65587s-6.62609-7.37453-8.51923-12.83389c-1.88218-5.44835-2.83976-11.0728-2.83976-16.87337,0-12.31657,2.4215-21.60628,7.28647-27.85812,4.85395-6.25184,10.47846-9.37777,16.86237-9.37777,3.32406,0,6.26285.61638,8.83847,1.81612,3.46716,1.629,6.31787,3.61022,8.54126,5.94366,1.18875,1.25477,3.23599,4.31465,6.14179,9.19065,1.14468.29718,2.53154.45128,4.18256.50631.26415-.91356.40724-1.69504.40724-2.31142,0-1.62901-.17608-4.21559-.51729-7.78178-.34121-3.56619-.64943-5.95466-.91358-7.1544-2.67464-1.75008-6.0427-3.258-10.09319-4.53479h0l-.03332.011ZM598.43415,28.34511l4.53478.19812c-.38521-1.80511-1.4529-5.50338-3.21396-11.12784-.46227-1.50793-.95758-3.23599-1.4969-5.19519-.41826-1.37585-.82551-2.61961-1.19977-3.75331h-15.66261l17.02744,19.87822h.01102ZM554.5612,39.40691c.95758.13208,1.79411.20913,2.52053.25316,2.02527.08806,4.11652.36323,6.29584.86954.73743.17611,1.29879.29718,1.72807.38524.75947.12108,1.33184.41826,1.71705.86954.07706.62739.12106,1.04564.12106,1.25477l.51729,7.75977-.06604,7.05533.28619,10.01616-.044,7.05533.17608,23.56549-.06604,1.94819c.03305,1.70605.06604,2.91679.06604,3.63224,0,1.82713-.20913,3.34606-.63841,4.5568-1.52996.83652-4.28165,1.49692-8.25507,1.99222-2.17932.25316-3.63222.47329-4.34769.68242v4.31465l6.93425-.24215h2.41048c6.70315-.41825,12.33861-.62739,16.93943-.62739,9.21266,0,17.10449.14308,23.65353.44027,9.30073.41825,15.01325.62739,17.15958.62739,1.4529,0,3.43411-.06604,5.92165-.19812l1.0126-7.12138,2.08029-11.81026.34121-1.88216c.07706-.69342.17608-1.58498.28619-2.61961-.84754-.03302-1.47494-.06604-1.88218-.06604-.77049,0-1.73909.06604-2.92777.18711-1.71705,5.0521-3.88542,8.97052-6.483,11.76624-1.94822,2.15733-4.20459,3.55519-6.76919,4.18257-3.70927.88054-8.22202,1.30981-13.53831,1.30981-8.02391,0-12.83386-.42926-14.39687-1.30981-1.03464-.57235-1.54097-1.66202-1.54097-3.24699l.11004-13.50531c-.14309-3.29102-.22015-7.41856-.22015-12.3716v-2.13532c2.9058-.33021,7.25349-.4953,13.04299-.4953,4.90904,0,7.74874.14308,8.51923.42926,1.06762.38524,1.83811.94658,2.28943,1.69504.61638.95759,1.29879,3.37908,2.06928,7.25346.41826,2.08028.71547,3.45612.85856,4.12754h4.08353v-1.38685c0-1.19973-.06604-3.04887-.17608-5.52539-.12106-2.47652-.17608-4.29264-.17608-5.40433,0-.71544.02204-1.69504.08807-2.9388.044-1.25477.08807-4.0725.08807-8.44219,0-1.91518-.08807-4.73291-.23117-8.44219l-3.33508-.06604-.73743.06604c-1.00159,5.2172-1.66203,8.28809-2.02527,9.19065-.5283,1.2988-1.14468,2.20135-1.83811,2.71867-.68241.52833-2.48754.93557-5.40429,1.22175-2.9058.29718-7.79281.42926-14.66102.42926-.68241,0-1.50792-.06604-2.4655-.18711v-7.88084l-.06604-10.50046c0-7.16541.06604-11.27093.17608-12.31657,3.66527-.15409,7.84783-.24215,12.50367-.24215,4.09448,0,7.91387.15409,11.46903.50631,1.95924.15409,3.12595.26416,3.50014.30819,1.4969.03302,2.70769.20913,3.66527.50631,1.57396,1.9592,2.79569,3.87438,3.67629,5.74553l2.28943,4.43573c.57237,1.62901,1.03464,2.85075,1.38686,3.68727.99064.08806,1.64.13208,1.94822.13208l2.35546-.13208c.03305-.4953.044-.86954.044-1.11169l-.11004-2.57558v-12.86691c0-1.41987-.34121-2.55357-1.03464-3.37908-4.55682-.62739-8.00194-.94658-10.33537-.94658l-10.37937.13208c-6.89025,0-14.58397.18711-23.11421.56134-5.7015.24215-9.23469.36323-10.61054.36323-3.98444,0-7.47357-.22014-10.50043-.68242-1.60701-.24215-3.48913-.44027-5.66851-.56134l-.28619,4.99707.00007-.01103ZM464.83405,113.99976c0,.33021.03302.72645.11007,1.18873.5063.03302.86954.06604,1.08966.06604h.86954c3.92942-.33021,8.15602-.56135,12.6688-.68242l11.7002-.38524c6.27387,0,12.6688.12108,19.2178.38524,6.527.24215,10.18126.39624,10.95175.42926,4.20459.34121,6.483.50631,6.82421.50631l2.98286-.06604h2.1243c.23117,0,.7815-.08806,1.66203-.24215.26415-.67141.53932-2.49853.80347-5.49237.68241-7.4846,1.03464-12.72382,1.03464-15.70665v-1.75007c-1.1557-.15409-2.17932-.24215-3.10392-.24215h-1.83811c-1.03464,3.35707-1.95924,5.76754-2.78474,7.23145-.82551,1.44188-1.87116,2.79572-3.16995,4.03948-.80347,1.16671-2.52053,2.33344-5.17319,3.48914-3.52218,1.52994-8.35413,2.30041-14.50691,2.30041l-3.61022-.06604-3.37909.06604-5.44836-.24215c-.38524-.38524-.56136-1.18873-.56136-2.4435l.22015-29.66324c0-1.66202.022-3.02686.06604-4.0725.11007-2.79572.17611-5.27224.17611-7.45158,0-1.87115-.06604-4.0615-.17611-6.57104-.07706-1.58498-.11007-2.70766-.11007-3.37908,0-.53933.01102-1.07867.03302-1.618.08804-2.09129.13208-3.23599.13208-3.44511v-1.81612l.17611-3.94042.04404-1.75008c.08804-.20913.19811-.45128.35222-.74846.45128-.25316.77049-.41826.9686-.50631l7.11036-1.81612c1.4529-.20913,2.30041-.46228,2.52056-.75947.42928-.49531.63838-1.21074.63838-2.15733,0-1.18873-.15411-2.02525-.4623-2.47652-.22015-.3192-.62739-.49531-1.19973-.49531-.18713,0-.89155.06604-2.1243.17611-4.12754.34121-7.50662.51732-10.14824.51732l-6.08674-.12108-8.20005.06604c-5.73452-.3302-9.05858-.50631-9.97213-.50631-.39623,0-.74845.11007-1.08966.3192-.03302.6604-.06604,1.16672-.06604,1.49692,0,.58336.03302,1.41987.11007,2.49854.53932.50631,1.48592.94658,2.81773,1.3098.75947.17611,1.618.46228,2.57558.88054,1.26577.53933,1.99222.85853,2.17935.93557,1.94819.67141,3.04886,1.22175,3.29101,1.66202.25317.44027.51732,2.83974.78147,7.23145v.86954l-.06604,6.31788-.23113,13.95658.12106,6.505-.06604,6.13077v5.1952l-.34121,8.134.11007,8.00192c0,.67141-.11007,1.50793-.34121,2.50954-.5063.47329-1.4969.73745-2.98282.78148-.39623,0-1.65101.17611-3.81935.51732-2.15732.34121-3.81935.69342-5.00807,1.07867-.26415.78148-.40724,2.05827-.40724,3.80834h0l.01098.01101ZM374.95279,113.99976c0,.33021.03302.72645.11007,1.18873.49532.03302.85853.06604,1.08966.06604h.85853c3.92942-.33021,8.15602-.56135,12.67978-.68242l11.68918-.38524c6.27387,0,12.67978.12108,19.2178.38524,6.54904.24215,10.19228.39624,10.95175.42926,4.21558.34121,6.483.50631,6.82421.50631l2.99384-.06604h2.1243c.23113,0,.78147-.08806,1.66203-.24215.25317-.67141.52834-2.49853.79249-5.49237.68241-7.4846,1.03464-12.72382,1.03464-15.70665v-1.75007c-1.14471-.15409-2.17935-.24215-3.0929-.24215h-1.83814c-1.03464,3.35707-1.9592,5.76754-2.78471,7.23145-.82551,1.44188-1.88215,2.79572-3.18097,4.03948-.79249,1.16671-2.52056,2.33344-5.16218,3.48914-3.52218,1.52994-8.35413,2.30041-14.50691,2.30041l-3.61022-.06604-3.37909.06604-5.44836-.24215c-.38524-.38524-.57234-1.18873-.57234-2.4435l.23113-29.66324c0-1.66202.01102-3.02686.06604-4.0725.11007-2.79572.17611-5.27224.17611-7.45158,0-1.87115-.06604-4.0615-.17611-6.57104-.08804-1.58498-.12106-2.70766-.12106-3.37908,0-.53933.01102-1.07867.04404-1.618.08804-2.09129.12106-3.23599.12106-3.44511v-1.81612l.17611-3.94042.06604-1.75008c.07706-.20913.19811-.45128.34121-.74846.45128-.25316.78147-.41826.97962-.50631l7.11036-1.81612c1.4529-.20913,2.28939-.46228,2.52056-.75947.41826-.49531.62739-1.21074.62739-2.15733,0-1.18873-.14309-2.02525-.45128-2.47652-.23113-.3192-.62739-.49531-1.19973-.49531-.19811,0-.90256.06604-2.1243.17611-4.12754.34121-7.52862.51732-10.15926.51732l-6.07572-.12108-8.20005.06604c-5.73452-.3302-9.06956-.50631-9.98315-.50631-.38524,0-.74845.11007-1.08966.3192-.03302.6604-.04404,1.16672-.04404,1.49692,0,.58336.03302,1.41987.11007,2.49854.53932.50631,1.4749.94658,2.80671,1.3098.77049.17611,1.62901.46228,2.5866.88054,1.26577.53933,1.9812.85853,2.17935.93557,1.94819.67141,3.04886,1.22175,3.29101,1.66202.24215.44027.5063,2.83974.77049,7.23145v.86954l-.06604,6.31788-.22015,13.95658.11007,6.505-.06604,6.13077v5.1952l-.34121,8.134.12106,8.00192c0,.67141-.12106,1.50793-.34121,2.50954-.5063.47329-1.4969.73745-2.99384.78148-.38524,0-1.65101.17611-3.80833.51732s-3.83037.69342-5.01908,1.07867c-.25317.78148-.39623,2.05827-.39623,3.80834h0l-.01102.01101ZM323.69427,44.34894c3.99546,3.5882,6.70312,8.7944,8.11198,15.64061.26415,1.37585.45128,2.23437.57234,2.56458l.28619,1.18873c.41826,5.71251.62739,10.2363.62739,13.56034,0,8.08997-1.06766,14.66101-3.20297,19.6911-2.14633,5.0521-4.97505,8.6183-8.51923,10.72059-3.53316,2.1023-7.35251,3.15894-11.48005,3.15894-2.16833,0-4.34769-.45128-6.527-1.34283-2.16833-.89155-3.83037-1.88216-4.97505-2.96082-2.25637-2.08028-3.96244-4.19358-5.09614-6.31788-.69343-1.25477-1.86015-4.52378-3.50014-9.81803-.45128-1.40886-.85853-3.66526-1.19973-6.74714-.14309-1.19973-.26415-2.05827-.34121-2.56458-.26415-1.54095-.39623-4.10553-.39623-7.68273,0-5.87762.45128-10.87468,1.37585-14.9692.90256-4.10553,2.4655-7.89185,4.63384-11.34798,1.29879-2.04726,3.23599-3.9074,5.77855-5.60244,2.56456-1.69504,5.50338-2.52055,8.82741-2.52055,6.0427,0,11.0508,1.7941,15.03525,5.3713h0l-.01105-.02201ZM270.82877,85.11801c1.22173,4.99707,2.31143,8.4532,3.26901,10.37938,1.75007,3.42311,3.8964,6.48298,6.41693,9.19065,2.52056,2.70766,5.85561,5.3603,10.02715,7.92487.34121.17611,1.97022.77047,4.87599,1.81612,1.60698.58336,3.47814,1.04564,5.61346,1.38685,2.82875.45128,5.86659.68242,9.1136.68242,13.09805,0,23.33436-4.21559,30.69785-12.63576,7.35251-8.42018,11.02877-18.52439,11.02877-30.31264,0-7.91387-2.17935-15.48652-6.527-22.69596-3.36807-5.5364-7.96889-9.93911-13.81348-13.19711-5.85561-3.247-12.74582-4.86499-20.69271-4.86499-4.65587,0-8.88247.52832-12.6688,1.59598-3.77531,1.05665-7.48459,2.80672-11.11684,5.23922-3.63222,2.4435-6.65908,5.2172-9.05858,8.34313-2.41048,3.12592-4.28165,6.57104-5.61346,10.31334-1.83814,5.2062-2.75169,10.40139-2.75169,15.56357,0,4.30365.40724,8.04594,1.19973,11.25993h0l.00007.01099ZM228.40869,33.3862c-4.19358-.51732-8.65132-.78148-13.39523-.78148-11.66718,0-21.24306,4.03948-28.76069,12.12946-7.50662,8.08998-11.27093,18.34828-11.27093,30.7529,0,5.11815.60538,9.752,1.81611,13.87953,1.19973,4.11653,3.03786,7.93588,5.5254,11.43603,2.48752,3.50015,5.91063,6.74714,10.26932,9.752,2.98284,2.08028,6.57104,3.59921,10.75362,4.56781,4.18257.95759,8.6293,1.43088,13.32919,1.43088,6.15278,0,11.34797-.4953,15.57457-1.4749,4.21558-.9796,7.49561-2.45451,9.82903-4.41372l.80351-2.9278.51732-1.86015c.75947-4.61184,1.19973-7.24245,1.32083-7.91387.34121-1.70605.58336-3.34606.73747-4.90902-2.28939.03302-4.13855.20913-5.5584.4953-3.58822,5.64647-7.34153,9.90609-11.25992,12.74584-3.91841,2.83975-7.99091,4.25962-12.1955,4.25962-3.81935,0-7.41857-.93557-10.78663-2.80673-2.5976-1.38685-4.71089-3.23599-6.30687-5.58043-2.09128-3.07089-3.83035-7.05534-5.21721-11.93133-.83651-3.00485-1.26577-8.03494-1.26577-15.1343,0-12.2065,2.47652-21.72735,7.39655-28.56256,3.64324-5.05211,8.42017-7.56165,14.34182-7.56165,4.83197,0,9.17964,1.23276,13.07604,3.70928,3.90741,2.48753,7.69374,6.56003,11.35897,12.22851h5.2172c-.03302-3.00485-.40724-5.84459-1.08966-8.50823-1.52996-5.87761-2.53154-9.4438-3.03788-10.69858-3.63222-1.04564-7.53964-1.81612-11.7222-2.34444h0l-.00003.02202Z"/>
  <rect class="st0" x="661.73401" y="359.72582" width="297.98617" height="8.08998"/>
  <rect class="st0" x="38.29978" y="359.72582" width="297.97518" height="8.08998"/>
  <path class="st0" d="M832.28387,178.74157c.95758.12108,1.79411.20913,2.52053.24215,2.02527.08806,4.12754.38524,6.30686.86953.72642.17611,1.29879.29719,1.71705.38524.75947.12108,1.33184.41826,1.72807.86953.07706.62739.11004,1.04564.11004,1.25477l.51729,7.75977-.06604,7.06634.2972,9.99415-.06604,7.05534.17608,23.57649-.06604,1.93718c.03305,1.70605.06604,2.91679.06604,3.63224,0,1.82713-.20913,3.35707-.62739,4.5568-1.52996.83651-4.29267,1.50792-8.25507,1.99222-2.17932.25315-3.64324.4953-4.3587.69343v4.31465l6.94527-.25315h2.39947c6.70315-.41826,12.33861-.62739,16.93943-.62739,9.22368,0,17.10449.14309,23.65353.44026,9.30073.41826,15.02426.62739,17.17053.62739,1.44188,0,3.42309-.06604,5.91063-.18711l1.0126-7.13238,2.09131-11.81026.33019-1.87115c.08807-.71543.17608-1.59598.28619-2.63062-.83652-.03302-1.47494-.06604-1.88218-.06604-.77049,0-1.73909.06604-2.92777.19811-1.71705,5.0411-3.88542,8.95951-6.483,11.75524-1.94822,2.16833-4.20459,3.5662-6.76919,4.19358-3.70927.86953-8.22202,1.30981-13.53831,1.30981-8.02391,0-12.82291-.44026-14.38585-1.30981-1.04566-.58336-1.55192-1.66202-1.55192-3.25801l.12106-13.50531c-.15411-3.28001-.23117-7.41857-.23117-12.37161v-2.1243c2.9058-.33021,7.25349-.50632,13.05401-.50632,4.89802,0,7.72677.14309,8.50821.44026,1.06762.36323,1.83811.93558,2.28943,1.68403.61638.9686,1.30981,3.37909,2.06928,7.25346.42928,2.08028.71547,3.46712.86951,4.12754h4.07252v-1.37585c0-1.21075-.06604-3.04888-.17608-5.5364-.11004-2.47652-.17608-4.28163-.17608-5.40433,0-.71543.02204-1.69503.08807-2.9388.06604-1.25477.08807-4.0725.08807-8.44219,0-1.91518-.07706-4.73291-.23117-8.43119l-3.32406-.07706-.74845.07706c-.99064,5.2062-1.66203,8.26608-2.01426,9.19066-.53932,1.28779-1.1557,2.19035-1.83811,2.70767-.69343.52832-2.49856.93558-5.40429,1.22175-2.91682.29719-7.80383.44026-14.66102.44026-.69343,0-1.51894-.06604-2.47652-.19811v-7.86983l-.06604-10.51147c0-7.1654.06604-11.27093.17608-12.31657,3.67629-.15409,7.84783-.24215,12.51469-.24215,4.08353,0,7.91387.17611,11.46903.50632,1.94822.15409,3.11493.26417,3.48913.30819,1.4969.04402,2.71864.20913,3.67629.50632,1.57396,1.9592,2.79569,3.87439,3.66527,5.74553l2.30044,4.44673c.56136,1.618,1.03464,2.85075,1.37585,3.68727.99064.08806,1.64.12108,1.94822.12108l2.35546-.12108c.03305-.50632.06604-.88054.06604-1.12269l-.12106-2.56458v-12.87791c0-1.41987-.34121-2.55358-1.03464-3.37909-4.5458-.62739-7.99092-.93558-10.33537-.93558l-10.37937.12108c-6.87923,0-14.58397.18711-23.11421.56134-5.7015.24215-9.22368.36323-10.61054.36323-3.97343,0-7.47357-.22013-10.48948-.68241-1.60701-.24215-3.50014-.42926-5.69048-.56134l-.28619,5.00808h.01115ZM794.15642,172.69885c-4.19358-.51732-8.6513-.78149-13.39522-.78149-11.66715,0-21.24305,4.03948-28.7717,12.12946-7.50662,8.08998-11.2599,18.34828-11.2599,30.75291,0,5.12916.60536,9.752,1.80513,13.87953s3.0489,7.93589,5.53644,11.43603,5.91063,6.74715,10.26933,9.752c2.98286,2.08028,6.56006,3.61022,10.74261,4.5678,4.19358.95758,8.64028,1.43088,13.32918,1.43088,6.16376,0,11.34797-.4953,15.5746-1.4749s7.49561-2.4545,9.84005-4.40271l.79245-2.9278.51729-1.87115c.77049-4.61184,1.21072-7.24245,1.32083-7.91387.34121-1.69503.58339-3.33505.74845-4.90903-2.28943.03302-4.14957.20913-5.5584.50632-3.58822,5.63546-7.35251,9.88407-11.27092,12.73484-3.91841,2.83975-7.97991,4.25961-12.1845,4.25961-3.81932,0-7.42957-.93558-10.78662-2.80673-2.6086-1.37585-4.71093-3.23599-6.30686-5.55842-2.10226-3.0929-3.85237-7.06634-5.2172-11.94235-.84754-3.00484-1.26581-8.03494-1.26581-15.1233,0-12.21752,2.4655-21.73836,7.39651-28.57357,3.63222-5.0411,8.40919-7.56164,14.34185-7.56164,4.82097,0,9.17967,1.23275,13.07604,3.70927,3.89637,2.48752,7.6827,6.56004,11.35899,12.22852h5.2172c-.03305-3.00484-.40724-5.83359-1.08966-8.50823-1.52996-5.87761-2.55358-9.43281-3.03788-10.68758-3.64324-1.04564-7.55063-1.82713-11.72223-2.35545h0l-.00007.01103ZM629.38511,180.41458c1.64.75947,3.12595,1.87115,4.46874,3.37909.64943.71543,1.08966,1.54094,1.30981,2.49854.53932,1.87115.82551,5.22821.86951,10.06018l.17608,12.6908-.12106,20.31848v3.44512c0,1.4529-.13208,5.50338-.40724,12.11844-.07706,2.28941-.40724,3.69827-.99064,4.22659-.60536.51732-2.49856.77047-5.71251.77047-1.26581-.07706-2.01426-.12108-2.24536-.12108-.68241,0-1.57396.11007-2.63063.31919-.03305,1.04564-.06604,1.79411-.06604,2.24537,0,.71543.03305,1.54094.12106,2.50954.79245.15409,1.43087.24215,1.88218.24215.19811,0,1.29879-.08806,3.33508-.24215,2.02527-.17611,6.07576-.29719,12.15145-.38524,6.49402.62739,10.35734.93558,11.57914.93558l2.24536-.06604-.23117-5.06312c-.64943-.20913-1.14468-.35222-1.48589-.44026-5.00807-.28617-8.25507-.72645-9.75198-1.30981-.34121-.83651-.57237-1.4749-.68241-1.90417-.12106-.44026-.22015-1.19973-.2972-2.28941-.30822-3.99546-.51729-7.70474-.62739-11.12784l-.34121-8.18904.044-4.43573c0-1.50792-.01102-2.96082-.044-4.36969l-.51729-23.2573,9.33372,9.19066c3.81932,3.78633,8.079,8.18904,12.74585,13.1861l7.16542,8.00192,9.74096,10.63254,13.94555,15.05725,6.82421,7.69374,6.59304-.25315v-3.31303c0-.33021-.07706-1.36485-.23117-3.05988l.17608-3.37909-.17608-3.24699v-7.69374c0-.62739-.01102-1.70605-.044-3.24699l-.63841-21.9475c-.03305-1.40886-.09909-2.68565-.17608-3.80835-.26415-3.48914-.41826-8.26608-.45125-14.3088,0-2.75169-.02204-4.50176-.06604-5.26123-.07706-1.49692-.12106-2.36645-.12106-2.61962,0-1.04564.1871-1.81611.5283-2.31143.14309-.24215,1.19977-.9796,3.14792-2.17934.38521-.25315,1.80513-.68241,4.23758-1.30981.9246-.25315,1.82709-.62739,2.69667-1.12269l-.044-4.0725c-.77049,0-1.57396.02202-2.41048.06604l-12.62473.38524-11.29295.38524-1.48589.18711-.06604,3.68727c1.03464.58336,2.59758,1.06766,4.71093,1.43088,2.87275.46228,4.71093,1.15571,5.50338,2.06928.50634.57236.75947,2.23437.80347,4.94204,0,.83651.22015,3.97344.68241,9.43279.23117,2.79571.35222,5.91063.40724,9.34475.03305,3.43411.14309,6.39493.34121,8.87145.1871,2.48752.34121,5.84459.45125,10.0932l.23117,7.25346v1.55196c-23.36734-25.26053-36.8947-39.98758-40.615-44.20318-3.70927-4.20459-8.50821-9.22368-14.39687-15.05725-.75947-.03302-1.36483-.06604-1.77207-.06604-.26415,0-1.43087.03302-3.48913.12108-2.06928.08806-3.26898.12108-3.61025.12108s-.77049-.011-1.26581-.06604c-2.22339-.08806-3.55516-.12108-4.0175-.12108-.88053,0-2.4655.06604-4.75493.18711l-1.66203.06604h-4.87599l.23117,4.36969c4.17154.71543,6.73614,1.29879,7.74874,1.75007h0l.01108.01102ZM562.43093,195.36178c1.1557,2.5866,2.64165,6.33989,4.46874,11.27093,1.83811,4.95304,3.33508,9.2677,4.47976,12.97697l-1.43087.06604c-1.60701,0-6.87923-.06604-15.8057-.18711l8.28813-24.12683h-.00007ZM528.18889,254.6222c2.5646,0,5.26127-.24215,8.08995-.74845l2.35546-.44026c8.94851.71543,14.606,1.06766,16.97242,1.06766.08807-.50632.12106-.9796.12106-1.43088,0-.58336-.02204-1.629-.06604-3.13694-2.36648-.36323-3.72029-.60538-4.07252-.68241-2.48754-.33021-4.17154-.89155-5.05214-1.68403-.53932-.46228-.80347-1.23275-.80347-2.31143,0-.79249.36324-2.28941,1.08966-4.50176,2.5646-7.79279,4.23758-12.6908,5.05214-14.69404l21.89247.06604,4.5018,12.25054,2.27841,6.13078c.19811.57236.2972,1.1447.2972,1.68403s-.19811,1.03464-.57237,1.44188c-.30822.29719-1.4089.71543-3.32406,1.25477l-6.37289,1.49692c-.11004,1.33183-.17608,2.72967-.17608,4.19358l2.80671-.12108,9.75198-.56134c1.33184-.08806,3.52218-.12108,6.54904-.12108,2.70769,0,5.76753.14309,9.16866.42926,3.40112.29719,6.51599.44026,9.34473.44026.03305-.62739.06604-1.07866.06604-1.37585,0-.66041-.09909-1.69503-.28619-3.05988-1.80513-.74845-3.47811-1.22175-5.01908-1.43088s-2.67464-.62739-3.35705-1.26577c-.38521-.28617-.95758-1.30981-1.71705-3.04888-1.41985-3.21397-2.4655-5.87761-3.14792-8.01292-1.33184-3.90741-2.38845-6.84621-3.14792-8.80541-1.29879-3.24699-2.85078-7.45159-4.64482-12.59174-1.80513-5.15116-3.81932-10.45643-6.07576-15.90477l-9.96111-25.75583-.51729-1.12269h-6.25184l-13.58238,38.84289-11.57914,33.05332c-.91358,1.91518-1.69502,3.12592-2.33343,3.63224-.62739.50632-2.41048,1.06766-5.36029,1.69503-1.83811.36323-3.11493.68241-3.85237.93558l-.11004,4.24861h1.03464l.01088-.05505ZM462.10426,208.61391c.03302-3.03786.09906-5.51438.17611-7.44057l-.06604-6.81319.17611-5.11814-.11007-8.44219.11007-1.18873c1.26577-.20913,2.77369-.31919,4.52376-.31919,3.69826,0,6.38391.31919,8.06795.94658,2.28939.83651,4.13855,2.05826,5.54742,3.68727.9906,1.12269,1.82713,2.83975,2.48754,5.16218.6714,2.31143,1.00162,4.77693,1.00162,7.39655,0,4.24861-1.36483,7.66072-4.07252,10.19226-2.71867,2.55358-7.33051,3.80835-13.8245,3.80835-.84751,0-2.17935-.03302-4.01746-.12108v-1.75011ZM436.12828,252.75105c0,.29719.03302.95758.11007,1.99222h2.4655c1.99222,0,4.19358-.14309,6.60406-.42926l7.91387-.56134c.41826-.04402,1.12268-.06604,2.1243-.06604,1.52996,0,6.39493.39624,14.61698,1.18873l2.35546-.13208c.19811,0,.6494.02202,1.38686.06604.14309-1.04564.22015-2.57558.22015-4.62284-2.14633-.91356-4.71089-1.71705-7.68274-2.37747-1.71705-.38524-3.1149-.91356-4.19358-1.629l.34121-11.75524-.28619-13.86853c0-1.66202.06604-3.11492.17611-4.31465,1.83814-.08806,3.13694-.13208,3.8964-.13208,2.79573,0,4.76592.44026,5.91063,1.32081.77049.53934,2.1023,2.85075,4.01746,6.93427,4.09452,8.83843,6.96727,15.26638,8.66232,19.31688.6494,1.54094,1.77207,3.88539,3.37909,7.0113l1.94819,4.11654c.61638-.07706,1.43087-.18711,2.4655-.30819,2.25637-.29719,3.5992-.44026,4.01746-.44026l5.73452.06604c1.80513,0,3.31305.11007,4.53478.31919h2.35546l2.98282.44026,1.1557-.07706h1.54097c.03305-.57236.06604-1.05666.06604-1.43088,0-.53934-.12106-1.16671-.34121-1.87115-.91358-.71543-2.24539-1.41987-3.96244-2.1243-2.22335-.88054-3.68727-1.68403-4.39169-2.41048-.71543-.72645-2.22335-3.23599-4.51278-7.53964l-9.14662-16.19096c-.9906-1.75007-2.28939-3.87439-3.88539-6.37291-.75947-1.17773-1.37585-2.19035-1.83814-3.05988,5.18418-1.75007,9.03655-4.34767,11.52409-7.79279,2.49852-3.43411,3.75331-7.25346,3.75331-11.46905,0-5.62446-2.31143-10.61052-6.93425-14.96921-4.63384-4.34767-10.87469-6.527-18.70049-6.527-4.97505,0-9.69696.25315-14.1657.75947l-7.16542.36323-3.03788.18711c-.23113,0-1.72807-.12108-4.46874-.36323-2.68565.03302-4.45773.06604-5.33829.06604-1.60698,0-3.35705.17611-5.27225.50632l-.23113.68241.11007,3.75331c1.04566.20913,3.10392.41826,6.19681.62739l3.37909.74845c.18713,2.41048.28619,7.9689.28619,16.63122,0,3.96244-.04404,8.21106-.17611,12.75684l-.11007,3.37909.11007,5.81157-.22015,7.49561.04404,13.94557c0,3.42311-.03302,5.41533-.11007,6.0097-.03302.36323-.15411.9796-.34121,1.81611-1.57396.62739-3.33505,1.06766-5.28323,1.33183s-3.42309.69343-4.41372,1.28779c-.12106.83651-.17611,1.48592-.17611,1.93718h0v-.03302ZM352.48788,255.12852c.26415,0,1.91517-.18711,4.94203-.56134,1.91517-.24215,3.91841-.38524,6.0207-.38524,7.64972,0,11.93133.02202,12.8559.07706l8.13402.4953,1.79411-.06604,1.07868.06604c.12106-.9686.18713-1.76109.18713-2.39947,0-.58336-.08804-1.43088-.23113-2.52054l-1.55196-.38524c-1.29879-.41826-2.80671-.68241-4.52376-.82551l-1.1557-.12108c-2.45452-.50632-3.88539-1.00162-4.30365-1.49692-.6494-.79249-.9906-2.91679-1.03464-6.38393l-.29717-18.74452c0-2.28941.13208-4.31465.40724-6.06472,1.87116-.29719,3.52218-.44026,4.93104-.44026,9.69696,0,15.45351.50632,17.29162,1.50792,1.03464.53934,1.9812,2.4545,2.85075,5.74553.42928,1.49692.80351,2.64162,1.1557,3.44512,1.19973.24215,1.94819.36323,2.26739.36323.41826,0,1.00162-.08806,1.73905-.24215.03302-.88054.04404-1.50792.04404-1.87115,0-5.75653-.01102-8.83843-.04404-9.25669l-.12106-1.38685c.08804-1.52994.14309-3.36807.17611-5.50338l.35222-9.99415c-1.26577-.12108-2.1023-.18711-2.52056-.18711-.19811,0-.56136.02202-1.08966.06604-.84751.03302-1.36483.06604-1.55196.06604-.18713,3.96244-.47328,6.44997-.88053,7.47359-.40724,1.01262-1.05664,1.86015-1.97022,2.52054-.5063.38524-1.83814.71543-4.00648,1.00162-3.16995.41826-5.5144.62739-7.04432.62739h-6.85723l-4.07252-.06604c-.22015-.03302-.51732-.18711-.85853-.44026-.25317-1.00162-.39623-3.67626-.39623-8.01292l.17611-8.53024-.17611-7.45159c0-1.50792.24215-2.72967.74845-3.69827.79249-.33021,1.40886-.53934,1.82713-.62739,1.94819-.36323,4.58984-.57236,7.9579-.62739l7.90285-.24215c5.16218,0,8.29911.38524,9.42179,1.15571s2.48754,3.25801,4.09452,7.47359c.6494,1.618,1.08966,2.56458,1.30981,2.80673.4623.38524,1.07868.56134,1.83814.56134.6494,0,1.66203-.09906,3.03788-.30819.23113-.67141.34121-1.629.34121-2.88377l-.85853-11.75522c-.07706-1.25477-.23113-2.49854-.45128-3.75331-.6494.03302-1.34283.09906-2.09128.18711s-1.34283.12108-1.80513.12108l-10.25831.38524h-2.41048l-1.14471.06604-2.80671-.06604-1.08966.06604c-4.85399.24215-9.52085.38524-13.97861.38524-8.90447,0-15.65162-.25315-20.23044-.75947l-7.56164-.30819v4.36969l1.37585.38524c1.4529.4953,2.56456.83651,3.32403.9906,3.13694.58336,4.99708,1.17773,5.5584,1.75007l.69343,20.93487-.12106,10.61052.23113,8.93749-.06604,6.06472.23113,14.41887v.38524c0,1.73907-.19811,3.45612-.57234,5.11814l-1.08966.74845c-1.94819.53934-3.8964,1.01262-5.84459,1.43088s-3.34607.72645-4.19358.94658l-.11007,4.5568c.91355.03302,2.61962.06604,5.09614.06604h0l-.02207-.01102ZM202.88391,178.74157c.95758.12108,1.80511.20913,2.52054.24215,2.03626.08806,4.12754.38524,6.30687.86953.72645.17611,1.29879.29719,1.72807.38524.75947.12108,1.33183.41826,1.71705.86953.07706.62739.11007,1.04564.11007,1.25477l.52832,7.75977-.06604,7.06634.28617,9.99415-.04402,7.05534.17611,23.57649-.06604,1.93718c.03302,1.70605.06604,2.91679.06604,3.63224,0,1.82713-.22013,3.35707-.63839,4.5568-1.52994.83651-4.28163,1.50792-8.25507,1.99222-2.17934.25315-3.63224.4953-4.35869.69343v4.31465l6.94527-.25315h2.41048c6.69212-.41826,12.33859-.62739,16.93941-.62739,9.21267,0,17.10451.14309,23.65355.44026,9.28971.41826,15.01325.62739,17.15954.62739,1.4529,0,3.43411-.06604,5.92165-.18711l1.01264-7.13238,2.08029-11.81026.34121-1.87115c.07706-.71543.17611-1.59598.28619-2.63062-.84751-.03302-1.4749-.06604-1.90418-.06604-.75947,0-1.73905.06604-2.91679.19811-1.72807,5.0411-3.88539,8.95951-6.483,11.75524-1.94819,2.16833-4.20459,3.5662-6.76915,4.19358-3.70927.86953-8.22206,1.30981-13.53831,1.30981-8.02394,0-12.83389-.44026-14.39684-1.30981-1.03464-.58336-1.54094-1.66202-1.54094-3.25801l.11007-13.50531c-.14309-3.28001-.23113-7.41857-.23113-12.37161v-2.1243c2.91679-.33021,7.26447-.50632,13.05401-.50632,4.89802,0,7.74877.14309,8.50824.44026,1.07868.36323,1.83814.93558,2.30041,1.68403.61638.9686,1.29879,3.37909,2.06928,7.25346.41826,2.08028.71543,3.46712.85853,4.12754h4.0835v-1.37585c0-1.21075-.06604-3.04888-.18713-5.5364-.11007-2.47652-.17611-4.28163-.17611-5.40433,0-.71543.03302-1.69503.08804-2.9388.06604-1.25477.08804-4.0725.08804-8.44219,0-1.91518-.07706-4.73291-.22015-8.43119l-3.33505-.07706-.74845.07706c-.9906,5.2062-1.66203,8.26608-2.01422,9.19066-.53932,1.28779-1.1557,2.19035-1.83814,2.70767-.68241.52832-2.48754.93558-5.40433,1.22175-2.9058.29719-7.79278.44026-14.66102.44026-.68241,0-1.50792-.06604-2.47652-.19811v-7.86983l-.04404-10.51147c0-7.1654.04404-11.27093.17611-12.31657,3.66524-.15409,7.82579-.24215,12.50367-.24215,4.09452,0,7.91387.17611,11.46907.50632,1.94819.15409,3.12592.26417,3.50014.30819,1.48592.04402,2.70766.20913,3.66524.50632,1.57396,1.9592,2.79573,3.87439,3.67626,5.74553l2.28939,4.44673c.57234,1.618,1.03464,2.85075,1.37585,3.68727,1.00162.08806,1.65101.12108,1.9592.12108l2.34445-.12108c.04404-.50632.06604-.88054.06604-1.12269l-.11007-2.56458v-12.87791c0-1.41987-.34121-2.55358-1.03464-3.37909-4.55682-.62739-8.00191-.93558-10.33537-.93558l-10.37937.12108c-6.89025,0-14.59498.18711-23.11421.56134-5.7015.24215-9.23468.36323-10.61052.36323-3.98444,0-7.47359-.22013-10.50045-.68241-1.607-.24215-3.48914-.42926-5.66848-.56134l-.29719,5.00808h-.01095ZM134.61994,178.23525c5.5474,0,10.46743,1.33183,14.73806,4.01746,4.29263,2.68565,7.66072,6.69212,10.12622,12.01939,2.47652,5.31627,3.69827,12.1845,3.69827,20.58265,0,5.11814-.56134,10.0822-1.71705,14.89215-1.15571,4.79895-2.81773,8.51924-5.01908,11.13884-2.19035,2.61962-5.17318,4.7219-8.90447,6.29587-1.80511.79249-4.58982,1.18873-8.38715,1.18873-4.96405,0-8.87145-1.4529-11.7002-4.36969-1.9482-2.03626-2.91679-5.91063-2.91679-11.60112l.17611-6.13078-.17611-9.92811.11007-5.93265c0-2.24537-.03302-4.86499-.11007-7.86983v-9.23468l-.12108-10.61052c0-.55034.03302-1.4529.12108-2.75169,2.82875-1.1447,6.1858-1.70605,10.0822-1.70605h0l-.00002.00002ZM96.83371,254.56716c.61638-.03302,1.52994-.06604,2.75169-.06604,1.98122-.03302,3.5882-.08806,4.82097-.15409,3.66526-.26417,5.62446-.40724,5.84459-.40724l6.37291.06604,4.82097-.11007,1.37585.11007,4.64486-.11007,3.44512.17611,11.76624.50632c7.60568,0,13.62638-1.28779,18.06211-3.87439,6.30687-3.63224,11.14986-8.44219,14.50691-14.46289,3.36807-6.0207,5.0521-13.23014,5.0521-21.65031,0-6.6591-1.25477-12.82288-3.75331-18.45835-2.50954-5.64648-6.26285-10.61052-11.27093-14.90315-3.75331-3.21397-8.6073-5.62446-14.57296-7.24245-3.92942-1.04564-10.14824-1.57396-18.63445-1.57396-10.17026,0-18.73352.62739-25.70081,1.87115-4.20459.75947-7.44057,1.52994-9.69696,2.31143l.06604,5.50338c.4953-.08806.85853-.14309,1.08968-.18711,1.33183-.25315,2.83975-.41826,4.52378-.50632,1.29879-.24215,2.4545-.38524,3.44512-.38524,1.22175,0,1.9702.14309,2.24537.44026.52832.58336.79249,1.41987.79249,2.49854v2.49854l.17611,21.2981-.04402,8.31011.04402,6.85721c-.22013,12.2065-.35222,18.55741-.39624,19.05271-.19811,1.99222-.63839,3.35707-1.32081,4.0615-1.11168,1.12269-3.44512,2.02524-7.0003,2.69665-1.80511.33021-2.99384.57236-3.55518.74845,0,2.4545.03302,4.13854.11007,5.06312h0l-.01102.022Z"/>
</svg>