<?xml version="1.0" encoding="UTF-8"?>
<svg id="MPI-SWS-LOGO" xmlns="http://www.w3.org/2000/svg" viewBox="0 0 1532.08301 300">
	<g id="MINERVA">
		<path d="M150.00715,0C67.28835,0,0,67.29025,0,149.99523c0,82.71642,67.28835,150.00477,150.00715,150.00477,82.70927,0,150.00715-67.28835,150.00715-150.00477C300.01429,67.29025,232.71641,0,150.00715,0ZM150.00715,295.81224c-80.40371,0-145.80985-65.41091-145.80985-145.817C4.1973,69.60106,69.60344,4.19253,150.00715,4.19253c80.39417,0,145.81033,65.40853,145.81033,145.8027,0,80.40609-65.41615,145.817-145.81033,145.817Z" style="fill:#5397cc;"/>
		<path d="M238.02072,138.53228c-2.0772-4.34175-.6541-7.18842-1.27054-10.36262-.4553-2.34084-3.93985-10.05416-6.16055-15.39518-1.04551-2.51437,5.37677-1.89746.63265-10.97905-.13587-.27079,6.5963-2.75609-.13587-7.86159-3.76679-2.85668-6.41513-6.3708-8.49376-9.53307-.28939-.44052-.56495-1.31058.04481-1.85265,3.80641-3.38301,3.8855-8.25205-.24791-10.74163-2.9825-1.79639-6.40655.02527-9.55643,2.06671-1.03693.67269-1.55849,1.0846-2.6431.64409-.55065-.22407-1.61332-.97304-2.56872-1.63096,3.8855-3.75535,4.6402-7.4616,4.33508-8.07708-.20739-.41716-6.58724-1.84883-14.4884,1.41976-.17306-.09773-.35847-.19976-.5587-.3075,3.25329-5.6285,1.42734-9.59839,1.18325-9.87204-.00334-.00429-.01192-.00667-.01669-.01049,5.92122-8.26826,11.80101-13.77042,17.61015-19.05232.00286-.00238.12729-.13921.13015-.14207.37854-.38331.5187-.81095-.20453-1.26243-.60972-.38426-.77948-.47437-1.52417-.88103-19.47472-10.84175-41.66976-16.5408-64.0803-16.5408-72.69802,0-131.83729,59.14881-131.83729,131.83491,0,42.11791,21.37122,82.74073,56.29404,107.97553,2.32797,1.68245,3.94081,2.32367,3.94081,2.32367.57877.20071,1.17805.19737,1.54276-.28081l.51632-.67746c.33229-.42812.46245-.83765.46245-1.21285,0-.96256-1.39401-1.82499-3.02736-4.24736-4.72124-7.00297-6.80797-14.96515-6.80797-21.6363,0-7.29331,2.22213-13.9306,6.48998-19.46566,5.26235,5.48357,16.74009,15.5649,16.49075,24.73564-.27985,10.30064-9.91495,9.79242-7.8368,17.51862,1.30439,4.84854,4.93153,2.85096,5.55746,6.5286,1.0846,6.3708,9.65226,10.44319,13.3852,9.88348.90344-.1354,1.67339.61453,3.46024,2.42856,2.5487,2.58684,8.81747,2.23643,11.59978,1.72774,2.64405-.48295,5.96604,1.93179,11.49541,1.32202,6.9214-.76375,8.68251-1.29819,11.63692-1.34109,5.00062-.07199,32.20015-.47723,51.53708,2.55156,3.33386.52204,4.39086-.9802,2.89716-3.58134-7.00821-12.20525-7.9793-22.5693-3.93938-35.62221,7.14265.48104,17.40992,2.41283,30.92961-5.71336,4.79843-2.88433,7.47967-9.02915,7.24844-13.60689-.15399-2.96967-1.45313-6.73122-.68361-9.62651,1.03355-3.88932,1.78919-3.79826,2.91194-4.58728,5.16271-3.63187,1.43501-6.51239.64027-6.80511,1.55897-.63551,3.2705-4.02567,1.46839-6.55005-.92394-.98401-3.7358-8.8866-.49344-10.53234,3.50129-1.77732,7.49402-2.53154,11.5173-4.29789,2.76328-1.15564,4.97063-4.37846,3.39445-8.65919-1.89412-5.14555-12.45554-29.34104-12.77735-30.01468ZM92.46975,255.9093c-1.01166.19976-4.2497.32419-3.52365-3.9308.44814-2.62784,3.29815-3.7277,4.74365-2.23643-.30798,2.04001-1.01166,4.03377-1.22,6.16722ZM216.75295,75.96279c1.70538-1.07316,3.53938-1.52989,4.6197-.46292,3.74963,3.70482-4.06667,5.78344-2.43952,8.62963,2.66741,4.66833,6.91524,9.13594,10.66249,12.01836,1.76206,1.3554,2.0176,4.40802-4.71457,5.80203-6.77651,1.40307-33.76098,8.51378-47.99861,23.5986-17.82612,18.88689-29.15654,43.35031-30.70311,39.98684-1.55802-3.38873-5.12934-3.93604-4.57107-4.89812,25.59379-44.10119,65.70602-78.73604,75.14469-84.67443ZM228.4886,106.94623c-1.46934,4.20493-13.09153,7.94025-12.54088,4.98584.24791-1.33299.02765-3.08886.91393-3.24046,1.2877-.22026,4.96105-1.50271,10.67059-2.96442.57115-.14636,1.32107.1764.95636,1.21905ZM199.00788,114.58184c-.29463-1.71916,12.20048-5.92122,12.63432-4.67786.80189,2.29459-2.5816,8.45848-6.76507,9.99886-4.7508,1.74967-6.7274,1.23049-6.54672.55255.33086-1.24145.9483-4.29217.67746-5.87355ZM170.00867,179.73579c-5.7453,3.52174-8.86276-3.21043-9.6761-4.38514-.35136-.50726-1.26529-1.98804-.76804-4.51815.39093-1.99138.72275-4.69884-.58735-13.28318-.57639-3.77537,7.23423-13.1392,8.99101-14.77445,1.8269-1.70009,4.48049.84671,4.65307,3.61233.328,5.25473-2.62164,8.01939-5.63327,10.26202-3.69623,2.75275-4.39849,6.33599-3.69623,7.29331.27461.37425,1.93179.38474,2.66121-1.16851,2.22689-4.73984,8.59006-7.12597,9.60554-9.60744,1.58662-3.87502.42669-6.36508.27127-7.99699-.1354-1.4231,1.25576-1.78352,2.30413-1.62667,1.3554.20357,1.95753,2.04239,2.6431,3.82925,4.11344,10.7197-6.23778,17.1992-7.90593,19.73788-.769,1.16994,1.60426,9.8873-2.8624,12.62574ZM178.67454,138.16423c-3.08027,2.09197-7.51976-.74277-6.63249-2.0095,5.71951-8.16528,13.3432-13.84717,16.39344-15.74463,4.90193-3.04976,5.42159-3.2643,5.67808-1.54038.15494,1.04027.20739,6.37842-3.74296,10.71589-3.27479,3.59612-6.56197,3.29338-8.2501,3.67144-1.13995.25554-1.07225,3.29481-3.44599,4.90718ZM151.16088,174.76329c-1.41308-.30989-1.94323-3.07217-1.65527-4.16393.63936-2.42665,4.36607-7.4473,5.71098-9.20745.33563-.43909,1.02072-.03433,1.09462.49487.81338,5.82826-.00524,14.00545-5.15032,12.87651ZM197.11948,68.85447c5.16367-2.32224,10.16095-2.36181,10.69634-2.29793,1.17233.13969-2.60972,6.8628-9.35,9.75667-6.94671,2.98159-12.13517,3.52317-12.72538,3.2314-.88866-.43956,5.88646-8.21581,11.37904-10.69014ZM78.13486,180.64304c-2.06099-2.37183-3.97513-3.67192-4.17298-3.53366-.57349.40238-3.91073,6.10715-5.06403,12.77258-6.50381-12.43314-10.10517-25.00119-10.69205-39.88672-1.99376-50.57591,40.36395-91.30267,92.05116-91.12198,11.79143.041,21.48564,2.22117,32.07519,6.52002-2.36944,2.96395-4.09146,6.51287-5.25854,9.48778-.05387-2.74178-.77281-4.87094-.57258-6.58343.12348-1.05362-7.32191,1.26481-13.93585,11.79286-1.53275,2.43952-2.48529,5.14031-3.07884,7.63037-.13683-3.95177-1.06315-7.02966-1.33537-6.95529-.67698.1845-8.22583,3.29767-12.16044,12.51847-.68986,1.61666-1.19378,3.2786-1.56231,4.89764-.32844-2.81187-1.05309-4.66308-1.28341-4.65307-.49677.0205-8.40651,3.27336-12.30342,12.74636-.90634,2.20353-1.38643,4.4557-1.61193,6.54815-.70082-3.29672-1.97708-5.31623-2.38136-4.80372-2.73129,3.46358-8.06421,4.99967-10.89896,13.73085-.66554,2.0505-.93157,4.09861-.96399,6.00942-1.17614-2.95441-2.82569-4.65641-3.20709-4.57679-.77138.16066-8.82891,7.81868-10.03413,15.53916-.47484,3.04452-.25649,5.87355.21501,8.24633-1.54038-2.48768-3.58801-4.31076-4.41803-6.84564-1.26577.67746-8.09043,7.09212-8.30973,15.30889-.08486,3.19565.3905,6.19821,1.04841,8.73023-2.26889-4.12054-5.48738-6.05185-5.84308-5.83445-.59069.36138-5.68428,5.87212-6.86805,15.76561-.27747,2.31748.00576,4.53817.56638,6.55005ZM183.96216,66.82495c4.0681-4.82089,10.97238-8.69971,11.74757-8.22297.79188.48724-1.15993,7.93549-5.61563,12.3211-4.50051,4.43043-11.45961,8.74167-12.27056,8.6897-.81047-.05244,2.47909-8.45038,6.13862-12.78784ZM170.76956,85.44009c-3.94605,3.19899-5.74049,5.32529-8.04418,9.07492-.78564,1.27864-2.69888-7.10451,2.43142-15.15013,3.14321-4.92958,9.40101-9.35048,9.26514-8.76312-.45339,1.96468,3.03451,9.41627-3.65237,14.83833ZM156.29785,96.16932c-4.83328,7.20511-5.10741,4.74318-10.39551,11.79-.29034.3876-.39475-9.19601,1.49127-13.41619,2.97587-6.65732,8.13572-10.57048,8.90424-10.70587.76804-.1354,2.66646,8.35693,0,12.33207ZM140.47884,110.57954c-2.4862,4.33651-4.74599,3.34296-8.88231,9.49636-.45673.67937-1.55086-5.09073.92728-12.88414,1.90986-6.00656,7.8225-9.74332,8.45228-9.89302.94873-.22598,2.45764,8.12571-.49725,13.2808ZM125.74444,125.8479c-2.53154,5.51122-4.1582,5.69191-7.09641,9.12497-.50535.59069-2.7046-5.23899-.57448-12.56567,1.70438-5.86497,5.6366-8.03322,7.53502-10.02079.7504-.78521,2.82474,7.60653.13587,13.46148ZM113.7666,135.28896c0,1.68245-.20734,2.63928-.68843,4.28454-1.79973,6.20441-5.4583,8.81556-7.44682,11.61647-.7966-1.83405-2.26217-4.43615-2.27266-8.3698-.01955-7.49688,4.54818-13.88674,7.40963-15.90387,1.0846-.04529,2.99827,4.51624,2.99827,8.37267ZM101.56326,153.5842c-.1354,8.71831-5.61134,13.83049-7.24559,15.45048-1.01647-1.72821-3.01305-6.17485-3.14992-10.8427-.26317-8.98719,3.45309-12.17665,5.06212-13.91344.76852,2.57492,5.40681,4.61302,5.33339,9.30566ZM84.29446,162.52849c2.51056,1.26481,5.54221,4.92386,5.82635,11.6999.2851,6.80321-4.58485,12.55709-6.48951,13.46148-1.32632-5.19513-3.84017-6.28546-3.79301-11.44007.05101-5.63565,2.90769-11.8248,4.45617-13.72131ZM94.69331,180.46187c6.54052-2.84571,13.68412-2.40615,13.98352-2.12916.29892.27699-2.08816,8.32165-8.44894,11.73613-6.35125,3.40113-13.51726,3.71817-14.16751,2.90626-.36142-.45196,2.09293-9.66704,8.63293-12.51323ZM94.19606,175.62859c.40714-2.16825,4.28693-9.35667,10.12233-11.95448h0c5.84399-2.60591,12.61239-2.41044,13.38044-2.09436.76852.31608-2.42951,7.9803-8.31641,10.79646-6.58486,3.15036-9.2198,1.31011-15.18636,3.25238ZM104.00421,158.77886c.26936-.66125,5.0307-9.21174,10.62149-11.83529,5.54364-2.59733,12.24196-2.04621,12.70012-1.89698.45863.14922-2.54727,7.70855-8.89137,10.8551-6.27116,3.11746-14.6996,3.53843-14.43024,2.87718ZM116.74962,141.70361c-.45577-.3466,6.29595-9.18409,11.93255-11.79,4.95581-2.29126,11.43482-1.80688,11.97736-1.4455.54206.36138-2.64024,7.79914-9.17551,10.66058-6.23111,2.72939-14.27815,2.92152-14.7344,2.57492ZM132.02656,124.80906c-.37468-.18498,4.78322-8.97385,10.57624-11.20312,5.53549-2.12487,11.01715-.20214,12.70059-.09011,1.35583.09011-1.89846,6.45947-9.49164,9.26037-6.33075,2.33512-12.81358,2.51199-13.7852,2.03286ZM149.17284,108.54048c.10155-.40857,5.76962-8.39269,11.60931-10.41696,5.55746-1.92034,12.35733-.63217,13.08676-.3261s-3.93509,7.27042-11.07345,9.41388c-6.42276,1.9294-13.72465,1.73775-13.62262,1.32918ZM166.48884,94.46924c-.74754-.52204,6.09476-8.17577,11.66557-10.29492,5.44686-2.07004,11.33089-1.68769,11.8043-1.41833.47389.26936-3.56751,6.89999-10.13807,9.56311-6.17962,2.50293-12.58422,2.67265-13.33181,2.15014ZM71.73165,250.48724c-30.89047-24.60454-49.37403-61.75329-49.37403-100.492,0-70.37816,57.25711-127.64238,127.64953-127.64238,20.53167,0,41.13295,5.14174,59.21179,14.5623.36276.18927.42235.68461.1139.95397-5.31337,4.63924-12.68724,13.73752-14.54418,16.27907-14.05408-6.582-29.10028-9.94355-44.7815-9.94355-58.33543,0-105.80299,47.4575-105.80299,105.79059,0,26.02954,8.82272,49.77497,25.46173,68.83015-.95779,2.2145-2.65692,7.06161-2.65692,13.47722,0,5.30908.98306,11.41766,4.72268,18.18464ZM71.9376,214.98946c-.02288.01859-.04143.03862-.06341.05721-15.36848-18.10168-23.47321-40.52557-23.47321-65.05144,0-56.02563,45.57625-101.59902,101.60616-101.59902,14.78303,0,28.98777,3.08933,42.28048,9.18314-1.75158.81381-3.76393,2.00616-5.8397,3.70768-11.69465-4.95438-23.47035-7.27853-36.44078-7.27853-52.93057,0-95.9986,43.06092-95.9986,95.98673,0,22.95594,7.16216,43.12814,21.1924,60.05607-.81333,1.2324-1.95372,2.9649-3.26335,4.93817ZM76.99686,207.01679c-1.8598-1.76349-5.88213-6.20679-6.26873-11.93064-.01907-.28271-.02817-.55589-.02769-.83383-.01621-6.1534,2.7046-12.20906,3.38301-12.887.67746-.67746,7.62274,4.72315,7.72858,12.46794.09154,6.7131-2.98302,10.57048-4.81516,13.18354ZM88.456,196.72426c5.51551-2.61735,13.7399-1.98757,13.28795-1.62619s-2.61831,8.35312-8.83559,11.47392c-6.2025,3.11269-10.3116,2.27695-12.54279,1.85217,3.34487-3.65905,2.64167-9.10543,8.09043-11.6999ZM95.91521,263.08199c-.93443-3.76441-.56161-8.95048.72275-10.34688,2.4758-1.20761,7.00344-1.67148,7.0812-.22693.12439,2.30603-1.55567,7.77482.41902,14.59472-.45239,1.07364-6.62824.60976-8.22297-4.0209ZM96.32522,247.29397c-.48533-2.83523,2.2412-5.55699,2.18399-11.74328-.07056-7.58746-9.42771-17.99251-15.76466-24.67986,2.97257-.00095,6.86852-.70702,11.24174-2.73225,9.43009-4.3675,11.28322-14.39591,11.55449-14.80258.12586-.18879-2.10628-.63026-5.3229-.67365.34707-.16829.69558-.34278,1.04742-.53158,9.227-4.94722,11.64269-15.64404,11.20265-15.88003-.17497-.0944-2.47337-.45387-5.69381-.37186.90205-.30178,1.83262-.64218,2.79137-1.02358,9.76048-3.87978,12.48987-14.74298,12.14232-15.0934-.15304-.15399-2.10437-.54397-4.94818-.6193.86435-.33515,1.74919-.71989,2.65263-1.16851,8.91425-4.42947,12.00215-14.39257,11.53971-14.72201-.20166-.1435-2.0114-.49439-4.64687-.53348,1.98471-.43432,4.15344-1.09748,6.43277-2.09436,9.55119-4.18395,12.63671-13.32132,12.22289-13.70987-.17592-.16543-1.79496-.61215-4.22781-.8119,1.90461-.42764,3.98562-1.01023,6.20827-1.76969,9.44721-3.22807,13.26316-12.25579,12.7015-12.30775-1.2753-.11776-3.03403-.73753-5.30908-1.13514,2.57254-.16543,5.57129-.63646,9.33141-1.90747,10.20386-3.4488,13.82-9.59362,14.00164-12.25722.01192-.17354-1.21948-.71179-3.20804-1.1461,2.33941-.42574,4.6874-1.00356,6.62204-1.78876,9.52878-3.85928,13.49486-13.22502,13.80856-13.99735,1.73441-.56447,3.59807-1.26911,5.55365-2.15491.99259-.45005,1.90271-.92585,2.74131-1.4188.46483.35375,1.20713.88532,2.31319,1.59663,1.44026.92489,1.94943,1.14277,1.23621,1.75015-32.42846,27.6276-56.72645,62.5199-67.32978,79.47786-.29801.47627-.85724.39141-1.75686.33182-11.3585-.75326-17.79704,12.76734-12.71394,25.44075-.64456,2.5773-6.03373,7.55409-6.4404,7.91546s-1.49365,1.94371.35184,1.7778c2.65267-.23885,6.04236-4.48811,7.66231-6.39892.67321.83717,3.17086,2.91723,1.96754,4.09813-9.65226,9.47109-19.20917,14.57088-19.95528,14.93511-3.61276,1.76492,6.03087,2.98493,22.46584-11.87486.96737-.87436,2.11438,3.42926,3.58181,5.27141-2.82283,9.31758,4.13532,27.2996,3.05119,32.94145-.18975.9883-.77805,3.77394-4.0619,3.84164-16.28622.33468-17.88524-.41239-26.16923,2.02952-3.86691,1.13991-2.85001,3.69147-.04481,2.92867,3.1761-.86339,6.51001-2.15204,24.14447-1.05123,4.30647.26889,9.23272-.87197,9.26466-8.14859.02908-6.59725-5.21182-26.26934-3.44117-28.96107,2.34084,1.76111,4.03187,1.83024,4.92434,1.98709-.23408,6.41561,10.09754,27.14799,5.49644,38.58377-1.70958,4.24831-9.20884,3.93175-22.04058,2.66074-21.83653-2.16253-28.91673,2.55871-29.36487-.05864ZM146.47921,261.39811c-8.49376,2.94345-11.84387-6.99105-10.44652-9.12974.84003-1.28579,6.20155,1.46076,10.37501-1.23001,3.21519-2.0729,4.99013,8.6549.07151,10.35975ZM107.92595,267.59776c-1.18997-5.2552-1.66433-14.3654.51966-16.39349.43198-.40095,6.97007-1.33776,6.85088.1559-.50202,6.27545-3.03784,13.28127,1.73966,20.26135,1.7859,2.60925-7.51452,3.02593-9.1102-4.02376ZM124.12683,273.60432c-2.28168-.5659-8.57528-10.58669-3.45214-22.54069.54206-1.26481,8.39412-.47818,9.70904-.08105,1.31483.39713-1.0794,9.79481,9.70847,13.95826,1.10272.42526-.04624,12.61049-15.96537,8.66348ZM191.62161,240.2152c-3.64808,12.62527-5.48595,17.66546-.00667,31.37628.72847,1.82261,1.27673,3.19565-.32176,2.92104-11.03631-1.89317-13.4191-3.70482-48.07302-.76804-2.4934.2112.81333-4.83423.40667-8.26826,3.16275-.40619,8.22297-1.85217,9.29565-7.00583,1.30152-6.25495-3.05787-10.84509-2.5978-11.7428,4.91385-9.57979-.31751-20.19747-4.47143-37.99022-.38903-1.66767.57544-2.39566,1.30534-1.60569,22.26656,24.09728,36.45365,28.8867,44.12121,31.16317.76189.22598.61119,1.09271.34183,1.92034ZM248.56117,174.40049c-4.6545,4.11291-11.8043,4.45188-14.69388,7.08211-1.50796,1.37304-2.18732,3.5289-.5597,7.38055.93681,2.21879,1.58567,2.49292-1.6076,3.3463-5.1846,1.38543-5.89548,8.19436-12.49607,6.9448-2.64405-.50059-.74659,1.19378.20314,1.28341,3.77962.35756,5.27518-.70654,6.60007-1.94752,1.32441-1.24098,3.09172-3.47407,5.12124-4.24307,2.0915-.79188,4.20826-.73896,4.24502.82811.02808,1.19473-2.61501,3.09219-3.72584,3.60708,1.34825.70511,5.48214,2.80614,1.9571,5.20038-2.74946,1.8679-6.53532-.72037-7.0812-1.03884-.81376-.47437-2.3723-.23742-1.85598.39475,2.04049,2.49626,7.51452,1.84168,6.53241,3.16323-5.05159,6.79272-.93724,10.75927-2.47385,17.58679-1.55897,6.92383-11.02959,10.71255-18.32194,12.0279-24.80382,4.47477-48.93065-16.62519-63.07245-32.52906,1.28774-3.01591,1.12274-6.9572-.16972-5.55699-1.21952,1.32107-1.01643,3.52413-3.96464,4.26833-5.6838,1.43549-8.13143-8.4375-9.89445-10.16476-6.91-6.76888-9.64845-16.32913-5.52266-24.69226,4.16731-8.44799,12.8255-6.75506,16.2815-1.64478,4.29785,6.35554,2.3098,9.97025,4.74981,11.86771,3.42878,2.66693,6.8771.287,7.80486.03385,2.60925-.71131,2.40949,6.18629,11.32326,5.86687,9.58456-.34326,8.49996-15.25311,9.85535-16.57465,12.30108-11.99357,6.02039-22.69897,3.78634-25.18617-.6007-.66888,1.36446-5.07404,2.08911-5.23423,7.22418-1.59616,11.30515-6.21061,13.50773-11.09013,0,0,11.99548-.20357,16.26481-8.84417,1.14129-2.30985,4.67543,2.22689,12.6872-4.06953.90153-.70845,1.75301-.37186,2.09102.45768,5.14698,12.62527,7.31571,16.11554,6.91863,22.55213-.28896,4.6812,12.48982,30.66211,13.42139,32.90998,1.03841,2.50293,1.19426,4.95914,0,6.01419Z" style="fill:#5397cc;"/>
		<path d="M219.69163,128.6302c-6.98342.2584-15.0924,8.81366-17.74269,10.00029-2.7804,1.24527-1.78924,2.03238-.17401,1.4436,3.47884-1.26863,8.43226-6.57818,15.27699-9.05203,5.40343-1.95276,5.05159,2.49483,7.08254,2.2493.94873-.11442-.40667-4.79037-4.44282-4.64115Z" style="fill:#5397cc;"/>
		<path d="M221.27115,135.47632c-.57644.1373.60972,3.11937-2.42622,3.30625-6.56674.40476-11.76616,6.62014-15.76799,8.48565-4.00135,1.866-4.83519,1.83548-5.43065,1.99519-.53539.1435-.33372.82859.10632.88723,16.74104,2.23691,23.17191,1.62524,23.31493,1.01691.27127-1.1523-.93157-1.72821-.68223-2.46718.62931-1.86504.94349-5.39823.22646-7.82393-.30655-1.14563,2.47862-.37854,2.47862-1.92273,0-.8324-.84051-3.71149-1.81923-3.47741ZM218.69523,148.69371c-.31895,1.30677-7.79294.71179-11.85961.35613-.96637-.08486-2.59161-.23313.50821-2.08435,2.43952-1.45694,5.79441-3.91363,10.18288-4.76272.35804-.06913,1.06172.04481,1.24193.86149.45196,2.05431.25411,4.29265-.07342,5.62945Z" style="fill:#5397cc;"/>
		<path d="M240.55178,172.5364c-1.27816-.01859-6.4342,2.33988-8.3698,3.57133-1.11841.71131-6.35935,3.94176-5.9832-1.16947.13158-1.79162,1.29394-6.23492,1.26577-7.44634-.04334-1.8474-1.52369-1.11798-1.55134-.02527-.06388,2.56634-.57925,4.51577-1.10701,7.52262-.45148,2.5754,1.78495,5.76056,5.26379,3.90839,2.88528-1.53609,6.82228-4.17918,10.31303-4.84758.89009-.1702,1.05028-1.50081.16877-1.51368Z" style="fill:#5397cc;"/>
		<path d="M143.59249,190.82973c-.99116-.37282-.7156,1.67196-2.05574,1.44646-1.75491-.29558-.28314-1.87458-2.56825-4.29455-1.13657-1.20284-3.9923-1.71105-6.09953-5.08262-3.33486-5.33577-.47007-17.22637,4.40516-15.51961,2.71079.94873,2.23643,7.25135,1.4231,11.52112-.50059,2.62975,3.59135,3.92889,3.96178,3.00972.62311-1.54562-1.50462-1.39735-1.99233-2.80853-.74945-2.16682,5.01115-10.84175-2.51671-13.35374-5.49839-1.83453-9.11453,5.08596-8.45276,12.74255.5578,6.45709,4.85088,9.12307,7.30566,10.03366,3.31484,1.22954.80189,5.76628,5.27141,5.78726,1.97808.00906,2.38756-3.0798,1.31821-3.4817Z" style="fill:#5397cc;"/>
		<path d="M187.57401,47.71637c.23551.08629.49963.01287.65505-.18403l9.29708-11.76426c.23933-.30321.12443-.75422-.23361-.90106-.52109-.21406-1.04594-.42335-1.57566-.62931-.23837-.09297-.51155-.01859-.67079.18259l-9.33999,11.81146c-.24743.31322-.11299.77472.26364.90773.53587.18832,1.07082.38092,1.60426.57687Z" style="fill:#5397cc;"/>
		<path d="M170.32142,42.92219c.53539.10155,1.06749.20834,1.59997.3199.27556.05769.55303-.08915.65887-.35041l5.44304-13.46816c.13444-.33229-.06055-.70797-.41048-.78568-.60356-.13492-1.20474-.26126-1.80922-.3876-.16548-.03433-.33139.05149-.39479.20834-.68986,1.70867-4.48001,11.09586-5.52266,13.67793-.13726.34088.0739.71751.43527.78568Z" style="fill:#5397cc;"/>
		<path d="M151.15091,41.03998c.54011.00429,1.07979.01335,1.61709.02765.30512.0081.56304-.22073.59165-.5249l1.34491-14.2977c.03151-.3342-.22646-.62692-.56256-.63694-.54492-.01621-1.08885-.03004-1.6343-.04195-.30512-.0062-.56399.22503-.59212.52919l-1.33919,14.31153c-.03194.33897.23361.63026.57453.63312Z" style="fill:#5397cc;"/>
		<path d="M132.51857,42.43876c.53301-.08486,1.06506-.16686,1.59949-.24553.328-.04863.55017-.35899.48724-.68413l-2.72414-14.09365c-.05912-.30607-.34993-.51346-.65835-.46721-.53829.08057-1.07559.16639-1.61193.25554-.32276.0534-.53777.36471-.4758.68604l2.72081,14.08698c.05912.30798.35279.51155.66268.46197Z" style="fill:#5397cc;"/>
		<path d="M113.49251,46.791c.13059.26174.43523.38426.71127.28796.51398-.17878,1.02787-.35422,1.54376-.52681.33511-.11204.49387-.49296.33654-.80904l-6.45184-12.9485c-.13111-.26269-.43813-.3876-.71465-.29129-.5187.18069-1.03311.36471-1.548.5516-.32657.11823-.47723.49677-.32228.80761l6.44521,12.92848Z" style="fill:#5397cc;"/>
		<path d="M95.72022,55.00682c.18164.20739.48247.25744.72227.12062.47627-.27175.95636-.53968,1.43931-.80237.32705-.1783.40571-.61119.16066-.89152l-9.64892-11.02244c-.18403-.21072-.49292-.26078-.73419-.11966-.47675.28033-.95016.56256-1.42357.84766-.31036.18689-.37564.61024-.13683.88294l9.62127,10.98477Z" style="fill:#5397cc;"/>
		<path d="M79.2023,66.67143c.21501.1497.50301.13587.70325-.03242.42951-.36042.86144-.71846,1.29576-1.07364.2994-.24457.28228-.70607-.03528-.9268l-12.19476-8.47135c-.21978-.15256-.51584-.13635-.71655.03957-.4224.369-.84242.74087-1.25953,1.11607-.27894.25077-.24938.69796.05907.91202l12.14804,8.43655Z" style="fill:#5397cc;"/>
		<path d="M64.80448,81.50691c.23504.09154.50154.01955.65982-.17687.35613-.44052.71655-.87722,1.08079-1.30963.25697-.30512.14021-.76995-.23166-.91488l-14.02171-5.45973c-.24028-.09392-.51537-.01907-.67365.18498-.3466.44719-.68934.8982-1.0293,1.35015-.2317.30798-.10393.75279.25554.89247l13.96016,5.43351Z" style="fill:#5397cc;"/>
		<path d="M38.30964,96.83582l15.02856,2.09817c.24128.03385.4758-.08725.59022-.30226.27032-.50869.54683-1.01452.82621-1.51749.19833-.35756-.02193-.80094-.42665-.85719l-15.10488-2.10199c-.24743-.03433-.4901.09249-.60166.31608-.25502.51012-.5077,1.0212-.75708,1.53418-.17211.35518.05483.77567.44528.8305Z" style="fill:#5397cc;"/>
		<path d="M30.08953,119.61727l15.32323-1.46743c.23309-.02241.42951-.18212.49911-.40571.17354-.55732.35089-1.11607.53253-1.67005.13063-.39952-.18832-.80189-.6069-.76232l-15.41234,1.47077c-.24076.02288-.44338.19261-.50774.42621-.15351.5597-.30321,1.12084-.44862,1.68388-.10107.38998.2193.76328.62073.72466Z" style="fill:#5397cc;"/>
		<path d="M41.71696,137.82812c.06627-.59451.13683-1.19044.21263-1.78542.05483-.4286-.35708-.76518-.76518-.62359l-14.93464,5.1937c-.22026.07676-.37472.27747-.39093.51012-.041.58688-.07819,1.17471-.11061,1.76349-.02288.41286.38331.71703.77424.58116l14.82975-5.15652c.2112-.07342.36042-.26078.38474-.48295Z" style="fill:#5397cc;"/>
		<path d="M41.34367,158.2182c-.04525-.61453-.08629-1.23049-.12252-1.84788-.02574-.44719-.52252-.70082-.89724-.45482l-13.5268,8.88374c-.18689.12252-.28744.34231-.2584.56399.07723.59594.15828,1.18997.24505,1.78399.0615.42049.54254.63503.89772.4019l13.40332-8.8046c.17592-.11537.27461-.31656.25887-.52633Z" style="fill:#5397cc;"/>
		<path d="M44.72859,178.60065c-.16496-.62311-.31942-1.24908-.47007-1.87553-.10913-.45482-.68223-.60166-.99641-.25601l-11.00285,12.11705c-.14354.1578-.18931.38092-.12018.58211.20071.58259.40333,1.16422.61123,1.74442.14779.41286.68552.51727.98015.19308l10.86845-11.96735c.1321-.14541.18021-.34755.12968-.53777Z" style="fill:#5397cc;"/>
		<path d="M50.35232,196.68898l-7.75909,14.76062c-.0934.1783-.08963.39189.01192.5659.32038.54969.64552,1.09938.97638,1.64526.23413.38712.8038.3671,1.01404-.03337l7.67613-14.6033c.08729-.16591.08915-.36376.00524-.5311-.29844-.59594-.59689-1.19092-.88771-1.79067-.20782-.42764-.81572-.43432-1.03693-.01335Z" style="fill:#5397cc;"/>
		<path d="M61.26558,213.27937c-.29082-.39904-.91726-.27222-1.03359.20786l-4.15534,17.13722c-.04434.18307.00191.37711.12495.52013.43189.50202.86859.99974,1.30768,1.49556.31179.35184.89104.20739,1.00165-.24934l4.10624-16.94127c.041-.16925.00381-.34755-.10107-.48628-.42145-.55684-.83908-1.11845-1.25051-1.68388Z" style="fill:#5397cc;"/>
	</g>
	<g id="MAX_PLANCK_INSIITUTE">
		<path id="M" d="M395.19629,78.52783l15.8877,44.85938,15.80273-44.85938h16.7373v61.85156h-12.78662v-16.90723l1.27441-29.18408-16.69482,46.09131h-8.75098l-16.65234-46.04883,1.27441,29.1416v16.90723h-12.74414v-61.85156h16.65234Z" style="fill:#5397cc;"/>
		<path id="A" d="M498.78955,127.63525h-22.34473l-4.24805,12.74414h-13.55127l23.02441-61.85156h11.80957l23.15186,61.85156h-13.55127l-4.29053-12.74414ZM479.88574,117.3125h15.46289l-7.77393-23.15186-7.68896,23.15186Z" style="fill:#5397cc;"/>
		<path id="X" d="M552.89307,99.85303l11.59717-21.3252h14.65576l-18.01172,30.6709,18.479,31.18066h-14.82568l-11.89453-21.66504-11.89453,21.66504h-14.82568l18.479-31.18066-18.01172-30.6709h14.65576l11.59717,21.3252Z" style="fill:#5397cc;"/>
		<path id="P" d="M637.14111,118.58691v21.79248h-12.74414v-61.85156h24.12891c4.64453,0,8.72949.84961,12.25586,2.54883,3.52539,1.69922,6.2373,4.11377,8.13477,7.24316,1.89697,3.12939,2.84619,6.69043,2.84619,10.68359,0,6.06055-2.07471,10.83984-6.22314,14.33691-4.14941,3.49805-9.8916,5.24658-17.22607,5.24658h-11.17236ZM637.14111,108.26416h11.38477c3.37012,0,5.93994-.79248,7.70996-2.37891,1.77002-1.58594,2.65527-3.85107,2.65527-6.79688,0-3.03027-.89209-5.47998-2.67627-7.34912s-4.24805-2.83154-7.3916-2.88867h-11.68213v19.41357Z" style="fill:#5397cc;"/>
		<path id="L" d="M701.60986,130.1416h27.06006v10.23779h-39.8042v-61.85156h12.74414v51.61377Z" style="fill:#5397cc;"/>
		<path id="A2" d="M780.05469,127.63525h-22.34521l-4.24805,12.74414h-13.55127l23.02441-61.85156h11.80957l23.15234,61.85156h-13.55078l-4.29102-12.74414ZM761.15039,117.3125h15.46289l-7.77344-23.15186-7.68945,23.15186Z" style="fill:#5397cc;"/>
		<path id="N" d="M862.32324,140.37939h-12.74414l-24.80859-40.69629v40.69629h-12.74414v-61.85156h12.74414l24.85059,40.78125v-40.78125h12.70215v61.85156Z" style="fill:#5397cc;"/>
		<path id="C" d="M930.36035,119.77637c-.48242,6.65527-2.93848,11.89453-7.37109,15.71777s-10.27344,5.73486-17.52344,5.73486c-7.92969,0-14.16699-2.66895-18.71191-8.00781-4.5459-5.33789-6.81836-12.66553-6.81836-21.9834v-3.78076c0-5.94727,1.04785-11.18652,3.14355-15.71777,2.0957-4.53076,5.09082-8.00732,8.98438-10.4292,3.89355-2.4209,8.41797-3.63184,13.57227-3.63184,7.13672,0,12.88574,1.91162,17.24805,5.73486,4.36035,3.82324,6.88086,9.19043,7.56055,16.1001h-12.74414c-.31152-3.99316-1.42285-6.88867-3.33398-8.6875-1.91211-1.79785-4.82227-2.69727-8.73047-2.69727-4.24805,0-7.42676,1.52246-9.53613,4.56641-2.11035,3.04492-3.19336,7.76758-3.25,14.16748v4.67285c0,6.68408,1.0127,11.56934,3.03711,14.65576,2.02441,3.08691,5.21777,4.63037,9.5791,4.63037,3.93652,0,6.875-.89893,8.81543-2.69775,1.93945-1.79785,3.05078-4.58057,3.33496-8.34717h12.74414Z" style="fill:#5397cc;"/>
		<path id="K" d="M966.45215,115.5708l-6.62695,7.13672v17.67188h-12.74414v-61.85156h12.74414v28.03711l5.60742-7.68896,15.76074-20.34814h15.6748l-21.96191,27.48486,22.59961,34.3667h-15.16602l-15.8877-24.80859Z" style="fill:#5397cc;"/>
		<path id="I" d="M1054.22559,140.37939h-12.74414v-61.85156h12.74414v61.85156Z" style="fill:#5397cc;"/>
		<path id="N2" d="M1124.68359,140.37939h-12.74414l-24.80859-40.69629v40.69629h-12.74414v-61.85156h12.74414l24.85059,40.78125v-40.78125h12.70215v61.85156Z" style="fill:#5397cc;"/>
		<path id="S" d="M1176.23926,124.15186c0-2.40674-.84961-4.25488-2.54883-5.54395-1.69922-1.28809-4.75781-2.64746-9.17578-4.07812-4.41797-1.42969-7.91602-2.83887-10.49316-4.22656-7.02344-3.79492-10.53516-8.90625-10.53516-15.33545,0-3.34131.94141-6.32227,2.8252-8.94189,1.88281-2.61963,4.58789-4.66602,8.11328-6.13867,3.52637-1.47217,7.4834-2.20898,11.87305-2.20898,4.41797,0,8.35449.80029,11.81055,2.40039,3.4541,1.6001,6.1377,3.85889,8.0498,6.77539,1.91113,2.91699,2.86719,6.23047,2.86719,9.94043h-12.74414c0-2.83154-.8916-5.03418-2.67676-6.60547-1.7832-1.57227-4.29004-2.35791-7.51855-2.35791-3.11523,0-5.53711.65869-7.26465,1.9751-1.72754,1.31738-2.59082,3.05225-2.59082,5.2041,0,2.01123,1.0127,3.6958,3.03711,5.05518s5.00586,2.63379,8.94238,3.82324c7.25,2.18115,12.53125,4.88525,15.8457,8.11377,3.3125,3.22852,4.96973,7.25,4.96973,12.06445,0,5.35254-2.02539,9.55127-6.0752,12.5957s-9.50098,4.56641-16.35449,4.56641c-4.75781,0-9.09082-.87109-12.99902-2.6123-3.9082-1.74219-6.88867-4.12744-8.94238-7.1582-2.05371-3.03027-3.0791-6.54199-3.0791-10.53516h12.78613c0,6.8252,4.07812,10.23779,12.23438,10.23779,3.03027,0,5.39551-.61572,7.09473-1.84814,1.69922-1.23145,2.54883-2.95215,2.54883-5.16113Z" style="fill:#5397cc;"/>
		<path id="T" d="M1252.55957,88.85059h-18.94629v51.52881h-12.74414v-51.52881h-18.69141v-10.32275h50.38184v10.32275Z" style="fill:#5397cc;"/>
		<path id="I2" d="M1281.72754,140.37939h-12.74414v-61.85156h12.74414v61.85156Z" style="fill:#5397cc;"/>
		<path id="T2" d="M1347.21484,88.85059h-18.94629v51.52881h-12.74414v-51.52881h-18.69141v-10.32275h50.38184v10.32275Z" style="fill:#5397cc;"/>
		<path id="U" d="M1409.64453,78.52783v40.73877c0,6.76904-2.11719,12.12158-6.35059,16.05762-4.23438,3.93652-10.01855,5.90479-17.35352,5.90479-7.22168,0-12.95605-1.91162-17.2041-5.73486s-6.41504-9.07617-6.5-15.76025v-41.20605h12.74414v40.82373c0,4.05029.96973,7.00244,2.91016,8.85693,1.93945,1.85547,4.62305,2.78271,8.0498,2.78271,7.16504,0,10.80371-3.76611,10.91699-11.2998v-41.16357h12.78711Z" style="fill:#5397cc;"/>
		<path id="T3" d="M1475.00488,88.85059h-18.94629v51.52881h-12.74414v-51.52881h-18.69141v-10.32275h50.38184v10.32275Z" style="fill:#5397cc;"/>
		<path id="E" d="M1527.83496,113.57422h-24.46875v16.56738h28.7168v10.23779h-41.46094v-61.85156h41.37598v10.32275h-28.63184v14.74072h24.46875v9.98291Z" style="fill:#5397cc;"/>
	</g>
	<g id="FOR_SOFTWARE_SYSTEMS">
		<path id="F" d="M406.11035,199.40039h-20.97363v22.07129h-6.59033v-49.97852h30.96191v5.38867h-24.37158v17.12891h20.97363v5.38965Z" style="fill:#5397cc;"/>
		<path id="O" d="M456.33398,198.0957c0,4.89746-.82373,9.1709-2.47168,12.82031-1.64746,3.65039-3.98193,6.43652-7.00244,8.3584-3.02051,1.92285-6.54492,2.88379-10.57227,2.88379-3.93652,0-7.42627-.9668-10.46973-2.90039-3.04395-1.93359-5.40625-4.69141-7.08838-8.27246s-2.5459-7.72949-2.5918-12.44336v-3.60449c0-4.80566.83545-9.0498,2.50586-12.73535,1.67041-3.68359,4.03369-6.50488,7.08838-8.46094,3.05518-1.95703,6.55029-2.93457,10.48682-2.93457,4.00439,0,7.53467.9668,10.58936,2.90039,3.05518,1.93359,5.40674,4.73633,7.0542,8.41016,1.64795,3.67285,2.47168,7.94629,2.47168,12.82031v3.1582ZM449.77734,194.86914c0-5.92676-1.18994-10.47461-3.56982-13.64453-2.38037-3.16992-5.70996-4.75488-9.98877-4.75488-4.16553,0-7.44336,1.58496-9.83447,4.75488-2.3916,3.16992-3.62158,7.56836-3.68994,13.19824v3.67285c0,5.74414,1.20654,10.25781,3.62109,13.54199,2.41406,3.2832,5.73779,4.92578,9.97217,4.92578,4.25635,0,7.55176-1.55078,9.88574-4.65137s3.53564-7.5459,3.604-13.33594v-3.70703Z" style="fill:#5397cc;"/>
		<path id="R" d="M485.8999,201.25391h-11.73975v20.21777h-6.625v-49.97852h16.54541c5.62939,0,9.95996,1.28125,12.99268,3.84375,3.03174,2.56348,4.54785,6.29395,4.54785,11.19043,0,3.1123-.84082,5.82422-2.52295,8.13574-1.68164,2.31152-4.02197,4.03906-7.01953,5.18359l11.73975,21.21289v.41211h-7.07129l-10.84717-20.21777ZM474.16016,195.86426h10.12646c3.27197,0,5.875-.84766,7.80908-2.54395,1.93359-1.69727,2.90039-3.9668,2.90039-6.80957,0-3.09473-.92139-5.4668-2.76318-7.11816-1.84229-1.65039-4.50244-2.4873-7.98047-2.51074h-10.09229v18.98242Z" style="fill:#5397cc;"/>
		<path id="S2" d="M548.46729,199.19434c-5.65234-1.625-9.76562-3.62207-12.33984-5.99023-2.57471-2.36816-3.86182-5.29199-3.86182-8.77051,0-3.93555,1.57324-7.19141,4.71973-9.76562,3.146-2.57422,7.23682-3.86133,12.27148-3.86133,3.43262,0,6.49316.66406,9.18262,1.99023,2.68848,1.32812,4.771,3.1582,6.24707,5.49219,1.47607,2.33496,2.21387,4.88672,2.21387,7.65527h-6.62451c0-3.03125-.96143-5.41406-2.88379-7.14844-1.92188-1.7334-4.63379-2.60059-8.13525-2.60059-3.24951,0-5.78369.7168-7.60303,2.14941-1.81934,1.43359-2.729,3.42188-2.729,5.96582,0,2.04102.86328,3.7666,2.5918,5.17578,1.72754,1.41016,4.66797,2.7002,8.82178,3.86914,4.15332,1.16895,7.40234,2.45703,9.74854,3.86523,2.34521,1.40723,4.08496,3.04883,5.21777,4.92578,1.13232,1.87598,1.69873,4.08398,1.69873,6.62402,0,4.05078-1.57861,7.29492-4.73682,9.73242-3.1582,2.43652-7.37988,3.65527-12.6665,3.65527-3.43262,0-6.63672-.6582-9.61133-1.97363-2.9751-1.31543-5.26904-3.11816-6.88232-5.40625s-2.41992-4.88574-2.41992-7.79199h6.625c0,3.02051,1.11572,5.40625,3.34668,7.15625,2.23145,1.75098,5.21191,2.62598,8.94189,2.62598,3.47852,0,6.14453-.70898,7.99805-2.12793s2.78076-3.35156,2.78076-5.80078c0-2.44824-.8584-4.34277-2.57471-5.68164-1.71631-1.33789-4.82861-2.66016-9.33691-3.96387Z" style="fill:#5397cc;"/>
		<path id="O2" d="M615.51709,198.0957c0,4.89746-.82373,9.1709-2.47168,12.82031-1.64746,3.65039-3.98193,6.43652-7.00244,8.3584-3.02051,1.92285-6.54492,2.88379-10.57227,2.88379-3.93652,0-7.42627-.9668-10.46973-2.90039-3.04395-1.93359-5.40625-4.69141-7.08838-8.27246s-2.5459-7.72949-2.5918-12.44336v-3.60449c0-4.80566.83545-9.0498,2.50586-12.73535,1.67041-3.68359,4.03369-6.50488,7.08838-8.46094,3.05518-1.95703,6.55029-2.93457,10.48682-2.93457,4.00439,0,7.53467.9668,10.58936,2.90039,3.05518,1.93359,5.40674,4.73633,7.0542,8.41016,1.64795,3.67285,2.47168,7.94629,2.47168,12.82031v3.1582ZM608.96045,194.86914c0-5.92676-1.18994-10.47461-3.56982-13.64453-2.38037-3.16992-5.70996-4.75488-9.98877-4.75488-4.16553,0-7.44336,1.58496-9.83447,4.75488-2.3916,3.16992-3.62158,7.56836-3.68994,13.19824v3.67285c0,5.74414,1.20654,10.25781,3.62109,13.54199,2.41406,3.2832,5.73779,4.92578,9.97217,4.92578,4.25635,0,7.55176-1.55078,9.88574-4.65137s3.53564-7.5459,3.604-13.33594v-3.70703Z" style="fill:#5397cc;"/>
		<path id="F2" d="M654.31689,199.40039h-20.97363v22.07129h-6.59033v-49.97852h30.96191v5.38867h-24.37158v17.12891h20.97363v5.38965Z" style="fill:#5397cc;"/>
		<path id="T4" d="M703.78369,176.88184h-16.06445v44.58984h-6.55615v-44.58984h-16.03027v-5.38867h38.65088v5.38867Z" style="fill:#5397cc;"/>
		<path id="W" d="M725.66064,205.71582l.96094,6.59082,1.40771-5.93848,9.88574-34.875h5.56104l9.64551,34.875,1.37305,6.04102,1.06396-6.72754,7.75781-34.18848h6.625l-12.11719,49.97852h-6.00684l-10.29785-36.41992-.78955-3.81055-.78955,3.81055-10.67578,36.41992h-6.00684l-12.08301-49.97852h6.59082l7.89502,34.22266Z" style="fill:#5397cc;"/>
		<path id="A3" d="M803.08691,208.39355h-20.93945l-4.70215,13.07812h-6.79688l19.08496-49.97852h5.76758l19.11914,49.97852h-6.76172l-4.77148-13.07812ZM784.13867,203.00391h16.99121l-8.5127-23.37598-8.47852,23.37598Z" style="fill:#5397cc;"/>
		<path id="R2" d="M841.7168,201.25391h-11.73926v20.21777h-6.625v-49.97852h16.54492c5.62988,0,9.95996,1.28125,12.99316,3.84375,3.03125,2.56348,4.54785,6.29395,4.54785,11.19043,0,3.1123-.84082,5.82422-2.52344,8.13574-1.68164,2.31152-4.02148,4.03906-7.01953,5.18359l11.74023,21.21289v.41211h-7.07129l-10.84766-20.21777ZM829.97754,195.86426h10.12598c3.27246,0,5.875-.84766,7.80957-2.54395,1.93359-1.69727,2.90039-3.9668,2.90039-6.80957,0-3.09473-.92188-5.4668-2.76367-7.11816-1.8418-1.65039-4.50195-2.4873-7.98047-2.51074h-10.0918v18.98242Z" style="fill:#5397cc;"/>
		<path id="E2" d="M896.79297,198.37012h-21.66016v17.71191h25.16113v5.38965h-31.75195v-49.97852h31.4082v5.38867h-24.81738v16.09863h21.66016v5.38965Z" style="fill:#5397cc;"/>
		<path id="S3" d="M946.11035,199.19434c-5.65234-1.625-9.76562-3.62207-12.33984-5.99023-2.5752-2.36816-3.8623-5.29199-3.8623-8.77051,0-3.93555,1.57324-7.19141,4.71973-9.76562s7.2373-3.86133,12.27148-3.86133c3.43262,0,6.49316.66406,9.18262,1.99023,2.68848,1.32812,4.77148,3.1582,6.24707,5.49219,1.47656,2.33496,2.21387,4.88672,2.21387,7.65527h-6.62402c0-3.03125-.96191-5.41406-2.88379-7.14844-1.92188-1.7334-4.63379-2.60059-8.13574-2.60059-3.24902,0-5.7832.7168-7.60254,2.14941-1.81934,1.43359-2.72949,3.42188-2.72949,5.96582,0,2.04102.86328,3.7666,2.5918,5.17578,1.72754,1.41016,4.66797,2.7002,8.82227,3.86914,4.15332,1.16895,7.40234,2.45703,9.74805,3.86523,2.3457,1.40723,4.08496,3.04883,5.21777,4.92578,1.13281,1.87598,1.69922,4.08398,1.69922,6.62402,0,4.05078-1.5791,7.29492-4.7373,9.73242-3.1582,2.43652-7.37988,3.65527-12.66602,3.65527-3.43262,0-6.63672-.6582-9.61133-1.97363-2.97559-1.31543-5.26953-3.11816-6.88281-5.40625s-2.41992-4.88574-2.41992-7.79199h6.625c0,3.02051,1.11621,5.40625,3.34668,7.15625,2.23145,1.75098,5.21191,2.62598,8.94238,2.62598,3.47852,0,6.14453-.70898,7.99805-2.12793s2.78027-3.35156,2.78027-5.80078c0-2.44824-.8584-4.34277-2.57422-5.68164-1.7168-1.33789-4.8291-2.66016-9.33691-3.96387Z" style="fill:#5397cc;"/>
		<path id="Y" d="M989.44922,196.58496l13.04395-25.0918h7.4834l-17.23145,31.33984v18.63867h-6.59082v-18.63867l-17.23242-31.33984h7.55176l12.97559,25.0918Z" style="fill:#5397cc;"/>
		<path id="S4" d="M1031.64746,199.19434c-5.65234-1.625-9.76562-3.62207-12.33984-5.99023s-3.86133-5.29199-3.86133-8.77051c0-3.93555,1.57324-7.19141,4.71973-9.76562,3.14551-2.57422,7.23633-3.86133,12.27148-3.86133,3.43262,0,6.49316.66406,9.18262,1.99023,2.68848,1.32812,4.77051,3.1582,6.24707,5.49219,1.47559,2.33496,2.21387,4.88672,2.21387,7.65527h-6.625c0-3.03125-.96094-5.41406-2.88379-7.14844-1.92188-1.7334-4.63379-2.60059-8.13477-2.60059-3.25,0-5.78418.7168-7.60352,2.14941-1.81934,1.43359-2.72852,3.42188-2.72852,5.96582,0,2.04102.86328,3.7666,2.5918,5.17578,1.72754,1.41016,4.66797,2.7002,8.82129,3.86914s7.40234,2.45703,9.74902,3.86523c2.34473,1.40723,4.08496,3.04883,5.21777,4.92578,1.13184,1.87598,1.69824,4.08398,1.69824,6.62402,0,4.05078-1.57812,7.29492-4.73633,9.73242-3.1582,2.43652-7.37988,3.65527-12.66699,3.65527-3.43262,0-6.63672-.6582-9.61133-1.97363s-5.26855-3.11816-6.88184-5.40625-2.41992-4.88574-2.41992-7.79199h6.625c0,3.02051,1.11523,5.40625,3.34668,7.15625,2.23145,1.75098,5.21191,2.62598,8.94141,2.62598,3.47852,0,6.14453-.70898,7.99805-2.12793s2.78125-3.35156,2.78125-5.80078c0-2.44824-.8584-4.34277-2.5752-5.68164-1.71582-1.33789-4.82812-2.66016-9.33691-3.96387Z" style="fill:#5397cc;"/>
		<path id="T5" d="M1095.08594,176.88184h-16.06445v44.58984h-6.55566v-44.58984h-16.03027v-5.38867h38.65039v5.38867Z" style="fill:#5397cc;"/>
		<path id="E3" d="M1132.39648,198.37012h-21.66016v17.71191h25.16113v5.38965h-31.75098v-49.97852h31.4082v5.38867h-24.81836v16.09863h21.66016v5.38965Z" style="fill:#5397cc;"/>
		<path id="M2" d="M1153.84473,171.49316l16.33887,40.7793,16.33984-40.7793h8.54688v49.97852h-6.59082v-19.46289l.61816-21.00781-16.4082,40.4707h-5.0459l-16.37305-40.36719.65137,20.9043v19.46289h-6.58984v-49.97852h8.5127Z" style="fill:#5397cc;"/>
		<path id="S5" d="M1222.78223,199.19434c-5.65234-1.625-9.76562-3.62207-12.33984-5.99023s-3.86133-5.29199-3.86133-8.77051c0-3.93555,1.57324-7.19141,4.71973-9.76562,3.14551-2.57422,7.23633-3.86133,12.27148-3.86133,3.43262,0,6.49316.66406,9.18262,1.99023,2.68848,1.32812,4.77051,3.1582,6.24707,5.49219,1.47559,2.33496,2.21387,4.88672,2.21387,7.65527h-6.625c0-3.03125-.96094-5.41406-2.88379-7.14844-1.92188-1.7334-4.63379-2.60059-8.13477-2.60059-3.25,0-5.78418.7168-7.60352,2.14941-1.81934,1.43359-2.72852,3.42188-2.72852,5.96582,0,2.04102.86328,3.7666,2.5918,5.17578,1.72754,1.41016,4.66797,2.7002,8.82129,3.86914s7.40234,2.45703,9.74902,3.86523c2.34473,1.40723,4.08496,3.04883,5.21777,4.92578,1.13184,1.87598,1.69824,4.08398,1.69824,6.62402,0,4.05078-1.57812,7.29492-4.73633,9.73242-3.1582,2.43652-7.37988,3.65527-12.66699,3.65527-3.43262,0-6.63672-.6582-9.61133-1.97363s-5.26855-3.11816-6.88184-5.40625-2.41992-4.88574-2.41992-7.79199h6.625c0,3.02051,1.11523,5.40625,3.34668,7.15625,2.23145,1.75098,5.21191,2.62598,8.94141,2.62598,3.47852,0,6.14453-.70898,7.99805-2.12793s2.78125-3.35156,2.78125-5.80078c0-2.44824-.8584-4.34277-2.5752-5.68164-1.71582-1.33789-4.82812-2.66016-9.33691-3.96387Z" style="fill:#5397cc;"/>
	</g>
</svg>