<?xml version="1.0" encoding="UTF-8"?>
<svg id="Calque_1" xmlns="http://www.w3.org/2000/svg" version="1.1" viewBox="0 0 2500 811.90789">
  <!-- Generator: Adobe Illustrator 29.1.0, SVG Export Plug-In . SVG Version: 2.1.0 Build 142)  -->
  <defs>
    <style>
      .st0, .st1, .st2, .st3, .st4 {
        fill-rule: evenodd;
      }

      .st0, .st4 {
        fill: #1c4882;
      }

      .st5 {
        stroke-width: 8.62489px;
      }

      .st5, .st6 {
        fill: none;
      }

      .st5, .st6, .st2, .st3, .st4 {
        stroke-miterlimit: 33.88999;
      }

      .st5, .st6, .st2, .st4 {
        stroke: #1c4882;
      }

      .st1, .st2 {
        fill: #fff;
      }

      .st6, .st2, .st3, .st4 {
        stroke-width: 4.34487px;
      }

      .st3 {
        fill: #900d35;
        stroke: #900d35;
      }
    </style>
  </defs>
  <path class="st0" d="M956.4683,503.18825c0,70.77602,16.91258,90.7365,64.69317,90.7365v16.95147h-205.03904v-16.95147c39.81722,0,64.69322-12.96976,64.69322-88.73917V147.28492c0-69.79026-16.92555-90.72354-64.69317-90.72354v-16.95147h208.02208c157.2584,0,220.96591,83.74578,220.96591,162.49817,0,94.71821-71.67093,147.54404-201.04432,147.54404-24.88896,0-45.78325-.99872-87.5848-5.97904v159.51518h-.01306ZM956.4683,317.77253c25.87472,8.96213,40.80283,9.97371,70.67222,9.97371,84.58885,0,138.34848-45.86113,138.34848-123.62777,0-60.81527-33.83813-142.56361-138.34848-142.56361h-70.67222v256.21767ZM1258.05421,395.5262c-1.98437,158.5035,92.55226,198.39845,140.33285,198.39845,48.79227,0,73.66827-16.95147,124.43195-73.78503v25.9136c-42.81323,54.84919-83.61605,75.79533-145.32624,75.79533-110.47643,0-190.09781-76.78098-190.09781-183.45728,0-106.66333,77.62405-190.40911,177.18-190.40911,81.59279,0,157.23247,65.79559,152.26501,147.54404h-258.78575ZM1450.1364,378.57473c2.98309-77.76674-49.752-109.65938-94.53663-109.65938-58.71413,0-93.5769,43.86379-97.54565,109.65938h192.08228ZM1899.007,534.09525c0,45.87409,9.98677,59.82951,59.72571,59.82951v16.95147h-188.10038v-16.95147c47.78069,0,60.72453-10.97243,60.72453-43.87676v-184.43007c0-56.83346-40.80283-80.74973-78.62267-80.74973-34.86277,0-65.70475,21.9319-100.5416,68.79164v172.45892c0,53.85047,6.9648,67.81885,59.72571,67.81885v16.95147h-186.14203v-16.95147c46.78197,0,58.74006-4.00763,58.74006-67.81895v-198.38539c0-42.86508-10.97243-51.84017-58.74006-51.84017v-16.95147l109.47781-10.97243h16.92555v70.78898c41.82747-47.85846,82.6303-70.78898,127.41494-70.78898,58.71403,0,119.41263,41.87932,119.41263,126.61086v159.51508l-.0002.0001Z"/>
  <path class="st0" d="M2329.99223,534.09525c0,45.87409,9.93492,59.82951,59.71285,59.82951v16.95147h-188.11344v-16.95147c47.78069,0,60.72453-10.97243,60.72453-43.87676v-184.43007c0-56.83346-40.80283-80.74973-78.62267-80.74973-34.86277,0-65.67883,21.9319-100.5416,68.79164v172.45892c0,53.85047,6.9648,67.81885,59.72571,67.81885v16.95147h-186.14213v-16.95147c46.78187,0,58.71403-4.00763,58.71403-67.81895v-198.38539c0-42.86508-10.94641-51.84017-58.71403-51.84017v-16.95147l109.47771-10.97243h16.92545v70.78898c41.80165-47.85846,82.60447-70.78898,127.41504-70.78898,58.71403,0,119.43856,41.87932,119.43856,126.61086v159.51518ZM836.35529,712.24793c0,15.83609,4.29301,27.91094,21.11476,27.91094,15.47294,0,23.60497-10.38881,23.60497-28.49455v-31.43876c0-2.38641-.45399-4.28005-.67445-6.10877-.55769-4.07254-4.40967-5.65478-9.71436-6.21247v-2.9441h26.63991v2.9441c-5.42135.55769-9.14371,2.12706-9.71436,6.21247-.23343,1.82872-.67445,3.72236-.67445,6.10877v31.89265c0,24.31831-15.47294,33.35822-30.02504,33.35822-24.05896,0-31.51653-12.20457-31.51653-32.68376v-33.72137c0-10.51844.45394-9.93482-9.71436-11.16697v-2.9441h30.37523v2.9441c-10.16825,1.24511-9.71436.66149-9.71436,11.16697v33.17664h.01306ZM961.25408,744.14058c-13.85172-16.41971-28.2352-33.61767-42.42415-50.36164v38.58503c0,1.82872.35019,3.29429.53177,4.70801.44093,3.13864,3.39809,4.35782,9.14371,4.78589v2.28271h-21.34828v-2.28271c4.17625-.42797,7.05554-1.64715,7.4836-4.78589.18158-1.41372.53177-2.89225.53177-4.70801v-41.11413c-2.43836-3.13864-5.13608-5.92719-10.10344-5.92719v-2.28271h15.84905c12.98273,15.81017,26.48426,31.86672,39.46698,47.65096h.16861v-35.87435c0-1.82872-.35019-3.32022-.53177-4.70801-.44093-3.13864-3.39809-4.35782-9.14371-4.78589v-2.28271h21.34828v2.28271c-4.09847.42797-7.05554,1.64715-7.4836,4.78589-.18158,1.38779-.53177,2.89225-.53177,4.70801v49.32403h-2.95707ZM1005.94788,733.22c0,8.1061-.33723,7.67814,7.49656,8.63787v2.28271h-23.43635v-2.28271c7.83369-.95973,7.49656-.53177,7.49656-8.63787v-39.25948c0-8.13203.35019-7.67814-7.49656-8.63787v-2.28271h23.43635v2.28271c-7.83369.95973-7.49656.50584-7.49656,8.63787v39.25948ZM1050.55094,685.32265c-4.78589,0-8.27472,1.38779-5.40839,9.77917,3.39809,10.28501,8.45629,25.27804,12.98273,38.5591,5.577-13.34588,10.89455-26.76963,16.28998-40.12847,2.17891-5.49923-.09084-8.2099-6.01793-8.2099v-2.28271h18.81908v2.28271c-2.51614,0-5.39543.85603-7.23711,5.21385-7.31499,17.9112-14.72071,35.7187-22.0356,53.60408h-4.44866c-5.31765-15.09683-11.24474-31.9445-16.54943-46.78197-3.21652-9.32528-5.92719-12.03596-10.10344-12.03596v-2.28271h23.70877v2.28281ZM1100.65313,741.85787c7.83369-.95973,7.49656-.53177,7.49656-8.63787v-39.25948c0-8.13203.35019-7.67814-7.49656-8.63787v-2.28271h38.93522v14.05922h-2.26975c-.86899-6.45896-2.60688-11.27077-8.88426-11.27077h-11.85438v24.9798h7.31499c5.48617,0,7.83369-2.17891,8.01527-7.60026h2.26975v18.59862h-2.26975c-.18158-5.13608-2.17891-8.2099-8.01527-8.2099h-7.31499v19.72706c0,7.41869,3.41105,8.0023,11.24474,8.0023,12.63254,0,12.023-3.56671,16.03063-12.89199h2.26975l-2.61994,15.70637h-42.86508v-2.28271h.01296l.0001.0002ZM1159.4581,683.03994h25.35591c8.80648,0,17.6,4.63024,17.6,14.85034,0,8.98806-5.48617,15.1746-12.19161,17.8075l8.54703,12.99569c4.34486,6.38108,9.23445,12.48985,12.26939,14.31857v1.14131h-8.96213c-5.13608,0-7.93749-9.51982-18.46899-27.05491h-8.19694v16.13443c0,8.1061-.35019,7.67814,7.49656,8.63787v2.28271h-23.43635v-2.28271c7.83369-.95973,7.49656-.53177,7.49656-8.63787v-39.25948c0-8.13203.33723-7.67814-7.49656-8.63787v-2.29567h-.01296l.0001.0001ZM1175.39789,714.29712h7.23711c7.57434,0,11.07613-5.77154,11.07613-15.62859,0-9.51982-5.22681-12.84004-11.59493-12.84004h-6.71831v28.46863ZM1254.16325,696.03573c-.70038-6.10877-4.00763-10.99835-10.97243-10.99835-5.0582,0-9.58464,2.6329-9.58464,9.09176,0,6.10877,6.10877,9.77917,14.82441,16.31601,9.22148,6.88692,12.20457,11.34854,12.20457,18.59862,0,10.38881-10.64817,16.13443-21.10179,16.13443-5.56404,0-10.36289-1.0376-14.88932-2.78845-.35019-.18158-.60954-.53177-.60954-1.21918v-12.56772h2.26975c.95973,9.67547,7.31499,13.52746,14.03329,13.52746,6.09462.11468,11.12828-4.73305,11.24296-10.82766.00158-.08718.00218-.17435.00178-.26153,0-5.6808-3.0479-10.28501-16.12137-18.94881-4.70801-3.13864-10.5314-6.53673-10.5314-16.05656,0-7.84675,8.70268-14.03329,18.72834-14.03329,3.74828,0,8.71564.42797,12.19161,1.64715.53177.18158.60954.53177.60954.95973v11.42632h-2.29567l-.0001.0001ZM1292.24253,733.22c0,8.1061-.35019,7.67814,7.49656,8.63787v2.28271h-23.43635v-2.28271c7.83369-.95973,7.47054-.53177,7.47054-8.63787v-39.25948c0-8.13203.35019-7.67814-7.47054-8.63787v-2.28271h23.43635v2.28271c-7.84675.95973-7.49656.50584-7.49656,8.63787v39.25948ZM1342.77269,733.22c0,8.1061-.35019,7.67814,7.49656,8.63787v2.28271h-23.46228v-2.28271c7.84675-.95973,7.49656-.53177,7.49656-8.63787v-47.39151h-7.83369c-7.57434,0-9.32528,4.81181-12.20457,10.55743h-2.17891l2.36049-13.34588h48.18263l2.36049,13.34588h-2.17891c-2.89225-5.74562-4.60431-10.55743-12.20457-10.55743h-7.83369v47.39151h-.0001ZM1390.34577,741.85787c7.83369-.95973,7.49656-.53177,7.49656-8.63787v-13.42375l-13.42375-26.62695c-2.89225-5.6808-5.31765-7.84675-9.32528-7.84675v-2.28271h22.21717v2.28271c-6.61461,0-6.00497,3.32022-3.85198,7.84675l10.55743,21.89301,12.01003-21.89301c2.97003-5.31765.18158-7.84675-4.96746-7.84675v-2.28271h17.96315v2.28271c-2.45132,0-4.78589,1.14131-7.14637,5.31765l-14.53913,26.44537c-.88195,1.75095-1.06353,4.17625-1.06353,6.35516v9.77917c0,8.1061-.32426,7.67814,7.49656,8.63787v2.28271h-23.43635v-2.28271h.01296v.0001ZM1468.69613,723.22027c0-14.82441,12.76226-36.98973,31.62033-36.98973,15.01895,0,18.28742,10.18131,18.28742,20.36253,0,12.438-9.93482,38.88337-31.49061,38.88337-14.46126.01296-18.41704-11.64688-18.41704-22.25616h-.0001ZM1508.21496,701.15874c0-11.75058-7.12045-12.20457-8.92324-12.20457-12.17865,0-20.21984,21.9319-20.21984,36.65251,0,5.84932,1.01168,16.48462,9.37713,16.48462,12.87893,0,19.76595-21.25744,19.76595-40.93255ZM1575.39845,689.95289l-2.71068,2.38641h-14.79849c-5.52515,26.89926-14.56506,62.77361-20.99809,79.94565h-5.07116l16.13443-79.94565h-10.71298l1.01168-4.75986h10.60928c5.97904-24.08488,25.83573-26.57509,30.59569-26.57509,2.58095,0,8.0023.45399,9.7014,2.02326l-1.34881,7.47054-2.8404,1.36187c-1.56937-3.06087-5.18793-6.56266-9.93482-6.56266-6.78322,0-11.85438,4.63024-14.56506,16.84777l-1.24511,5.42135h16.58832l-.415,2.38641h-.0002ZM1644.26787,730.00349c0,10.51844-.45399,9.96075,9.7014,11.19289v2.9441h-30.3492v-2.9441c10.15529-1.24511,9.7014-.68742,9.7014-11.19289v-50.91933c0-10.51844.45399-9.93482-9.7014-11.16697v-2.9441h29.55809c18.7414,0,28.01474,7.44461,28.01474,21.02402,0,16.28998-14.69469,25.10943-31.97042,24.08488v-2.28271c14.137.23343,20.67373-8.23583,20.67373-20.67383,0-12.69735-6.10867-18.57269-18.74131-18.57269h-6.88692v61.45073h-.0001ZM1696.75656,741.85787c7.84665-.95973,7.49656-.53177,7.49656-8.63787v-39.25948c0-8.13203.35009-7.67814-7.49656-8.63787v-2.28271h38.96114v14.05922h-2.28261c-.85593-6.45896-2.60697-11.27077-8.87139-11.27077h-11.85438v24.9798h7.31489c5.4732,0,7.83379-2.17891,8.0024-7.60026h2.25669v18.59862h-2.25669c-.18167-5.13608-2.17891-8.2099-8.0024-8.2099h-7.31489v19.72706c0,7.41869,3.39799,8.0023,11.21892,8.0023,12.6456,0,12.03586-3.56671,16.03053-12.89199h2.28261l-2.60697,15.70637h-42.8911v-2.28271h.01306l.0002.0002ZM1811.43516,744.14058c-13.85162-16.41971-28.24807-33.61767-42.42405-50.36164v38.58503c0,1.82872.32416,3.29429.50584,4.70801.45399,3.13864,3.39799,4.35782,9.14371,4.78589v2.28271h-21.33532v-2.28271c4.17634-.42797,7.04257-1.64715,7.47064-4.78589.18167-1.41372.53177-2.89225.53177-4.70801v-41.11413c-2.43836-3.13864-5.13598-5.92719-10.10354-5.92719v-2.28271h15.86212c12.99569,15.81017,26.49722,31.86672,39.46698,47.65096h.18167v-35.87435c0-1.82872-.35009-3.32022-.53177-4.70801-.42806-3.13864-3.39799-4.35782-9.14371-4.78589v-2.28271h21.34818v2.28271c-4.09837.42797-7.0685,1.64715-7.49656,4.78589-.18167,1.38779-.53177,2.89225-.53177,4.70801v49.32403h-2.9442ZM1889.48728,744.14058c-13.85162-16.41971-28.22214-33.61767-42.42405-50.36164v38.58503c0,1.82872.35009,3.29429.53177,4.70801.42806,3.13864,3.39799,4.35782,9.14371,4.78589v2.28271h-21.33532v-2.28271c4.15042-.42797,7.04257-1.64715,7.47064-4.78589.18167-1.41372.53177-2.89225.53177-4.70801v-41.11413c-2.43836-3.13864-5.13598-5.92719-10.10354-5.92719v-2.28271h15.86212c12.96976,15.81017,26.47129,31.86672,39.46698,47.65096h.18167v-35.87435c0-1.82872-.35009-3.32022-.53177-4.70801-.42806-3.13864-3.39799-4.35782-9.14371-4.78589v-2.28271h21.34818v2.28271c-4.09837.42797-7.0685,1.64715-7.49656,4.78589-.18167,1.38779-.53177,2.89225-.53177,4.70801v49.32403h-2.97013ZM1946.20407,696.03573c-.68732-6.10877-4.00773-10.99835-10.97233-10.99835-5.07126,0-9.57177,2.6329-9.57177,9.09176,0,6.10877,6.08274,9.77917,14.79859,16.31601,9.24741,6.88692,12.20447,11.34854,12.20447,18.59862,0,10.38881-10.6353,16.13443-21.10179,16.13443-5.5769,0-10.36279-1.0376-14.88922-2.78845-.32416-.18158-.60954-.53177-.60954-1.21918v-12.56772h2.28261c.9339,9.67547,7.31489,13.52746,14.00737,13.52746,6.09462.11468,11.12828-4.73295,11.24306-10.82756.00158-.08728.00218-.17445.00178-.26163,0-5.6808-3.03484-10.28501-16.1085-18.94881-4.70811-3.13864-10.55733-6.53673-10.55733-16.05656,0-7.84675,8.74157-14.03329,18.7414-14.03329,3.74828,0,8.71564.42797,12.17855,1.64715.53177.18158.63547.53177.63547.95973v11.42632h-2.28261l-.0002.0001ZM1981.31323,741.85787c7.84665-.95973,7.49656-.53177,7.49656-8.63787v-13.42375l-13.42375-26.62695c-2.86623-5.6808-5.29173-7.84675-9.32518-7.84675v-2.28271h22.21717v2.28271c-6.61451,0-6.00497,3.32022-3.82606,7.84675l10.5314,21.89301,12.03586-21.89301c2.97013-5.31765.18167-7.84675-4.96736-7.84675v-2.28271h17.96305v2.28271c-2.45123,0-4.81181,1.14131-7.1722,5.31765l-14.53913,26.44537c-.85593,1.75095-1.0376,4.17625-1.0376,6.35516v9.77917c0,8.1061-.35009,7.67814,7.47064,8.63787v2.28271h-23.43645v-2.28271h.01306v.0001ZM2034.28175,741.85787c7.84665-.95973,7.49656-.53177,7.49656-8.63787v-39.25948c0-8.13203.35009-7.67814-7.49656-8.63787v-2.28271h23.43645v2.28271c-7.83379.95973-7.47064.50584-7.47064,8.63787v40.66024c0,6.13469,3.39799,6.71831,11.14094,6.71831,12.6456,0,12.11383-3.56671,16.1085-12.89199h2.17891l-2.60697,15.70637h-42.7872v-2.29567.0001ZM2110.08984,685.32265c-4.78589,0-8.28778,1.38779-5.42135,9.77917,3.42412,10.28501,8.45619,25.27804,12.99569,38.5591,5.5769-13.34588,10.89455-26.76963,16.28998-40.12847,2.17891-5.49923-.1037-8.2099-6.00497-8.2099v-2.28271h18.79326v2.28271c-2.50308,0-5.39543.85603-7.22425,5.21385-7.31489,17.9112-14.72061,35.7187-22.0357,53.60408h-4.46152c-5.45975-15.61246-10.97213-31.20642-16.53637-46.78197-3.21652-9.32528-5.92719-12.03596-10.10354-12.03596v-2.28271h23.70877v2.28281ZM2161.2426,723.90768l-4.03366,11.67281c-1.14131,3.39809.53177,6.27738,4.35782,6.27738v2.28271h-15.86212v-2.28271c2.36059,0,4.88959-1.46557,6.27728-4.35782,3.74828-7.67814,13.92959-36.22454,21.17957-55.49761h4.86366c5.92719,17.53509,14.82451,44.40852,17.78158,52.1774,1.89353,4.88959,3.29429,7.67814,7.0685,7.67814v2.28271h-20.31058v-2.28271c5.49913,0,6.00497-2.89225,4.60421-6.71831l-3.74828-11.24474h-22.17838v.01296l.0004-.0002ZM2182.31846,720.56144l-9.24741-28.35187h-.18167l-10.36279,28.35187h19.79187ZM2269.96827,744.14058c-13.85162-16.41971-28.24807-33.61767-42.42405-50.36164v38.58503c0,1.82872.35009,3.29429.53177,4.70801.42806,3.13864,3.37207,4.35782,9.11778,4.78589v2.28271h-21.33532v-2.28271c4.17634-.42797,7.0685-1.64715,7.49656-4.78589.18167-1.41372.50584-2.89225.50584-4.70801v-41.11413c-2.43836-3.13864-5.12311-5.92719-10.07741-5.92719v-2.28271h15.83599c12.99569,15.81017,26.49722,31.86672,39.46698,47.65096h.18167v-35.87435c0-1.82872-.32416-3.32022-.50584-4.70801-.45399-3.13864-3.42412-4.35782-9.16963-4.78589v-2.28271h21.34818v2.28271c-4.09837.42797-7.04257,1.64715-7.47064,4.78589-.18167,1.38779-.53177,2.89225-.53177,4.70801v49.32403h-2.97013ZM2311.17324,733.22c0,8.1061-.35009,7.67814,7.49656,8.63787v2.28271h-23.46238v-2.28271c7.84665-.95973,7.49656-.53177,7.49656-8.63787v-39.25948c0-8.13203.35009-7.67814-7.49656-8.63787v-2.28271h23.46238v2.28271c-7.84665.95973-7.49656.50584-7.49656,8.63787v39.25948ZM2347.57926,723.90768l-4.00773,11.67281c-1.11538,3.39809.53177,6.27738,4.35782,6.27738v2.28271h-15.86212v-2.28271c2.36059,0,4.88959-1.46557,6.27728-4.35782,3.74828-7.67814,13.92959-36.22454,21.15364-55.49761h4.88959c5.92719,17.53509,14.82451,44.40852,17.78158,52.1774,1.89353,4.88959,3.29429,7.67814,7.04257,7.67814v2.28271h-20.28465v-2.28271c5.49913,0,6.00497-2.89225,4.60421-6.71831l-3.74828-11.24474h-22.20431v.01296l.0004-.0002ZM2368.68106,720.56144l-9.24741-28.35187h-.18167l-10.36279,28.35187h19.79187Z"/>
  <path class="st1" d="M110.55428,41.04955h625.02598v312.97335c-4.22815,255.10229-289.65376,389.18378-325.55406,387.97756-37.33995-1.29696-300.31491-132.4861-299.53671-389.30044.02594-4.61727.06485-311.65047.06485-311.65047h-.00006Z"/>
  <path class="st3" d="M110.5024,231.25116c.90788.89492.03891-190.14976.03891-190.14976h624.57199v190.16272l-624.6109-.01296Z"/>
  <path class="st4" d="M145.49483,509.62129c24.03297,50.5821,53.73373,91.32012,95.41856,125.94937l181.86203-184.15766,175.0659,179.85169c36.0819-33.05998,71.22996-73.08465,96.41721-120.47616L422.56792,248.96792,146.73993,510.17898l-1.24509-.55769h-.00001Z"/>
  <path class="st6" d="M110.5024,232.53525l624.57197-.07778"/>
  <path class="st2" d="M578.6201,88.35032h17.00337c12.46392-2.85336,17.00337-10.09048,29.7786-10.09048,9.19556,0,13.52746,6.12173,20.27174,6.12173,5.69372,0,14.46131-6.51081,24.07187-6.51081,9.83107,0,14.68177,5.91423,21.12777,8.65083,5.70668,2.43836,13.19023,2.3216,21.11476,2.3216-.22046,5.70673,0,9.09176,0,13.87764,0,4.88959,6.54975,2.95707,6.54975,10.90762,0,8.35249-8.45629,6.71831-8.45629,10.07751l-.31125,31.0756c.42801,3.86494,8.23578,4.37078,8.23578,10.28501,0,8.76759-8.70273,5.71969-8.13203,12.6455.41505,5.09709,0,15.88794,0,15.88794-16.79582,0-124.76912.98566-130.0608.79112.31125-11.51716,2.11405-10.81678,2.50317-16.36786.31125-4.48755-9.71436-7.23711-9.71436-14.77256,0-5.20089,6.01798-4.88959,6.53678-9.77917v-30.9718c-.29829-4.07254-9.3901-6.10877-9.07885-11.9192.37611-6.95183,8.44333-6.05692,8.44333-10.70002,0-2.04919.22046-9.58464.11671-11.53012l-.00005-.0001Z"/>
  <path class="st6" d="M592.44589,88.86912s.22046,69.27156,0,85.58746c0,0,100.74915.19454,105.17184-.2075,0-18.44297-.10375-85.8858-.10375-85.8858M645.14209,84.58908v90.06205"/>
  <path class="st4" d="M646.73734,163.54907c4.43565.2075,12.56772,3.20355,20.47924,5.60293,10.24613,3.09975,21.10179.9338,29.14308,2.54206,2.5291.5188-49.62232.92084-49.62232.92084.19454-10.09048,0-9.06583,0-9.06583ZM639.22781,176.89495c0-2.25679,2.63285-4.07254,5.86233-4.07254,3.24244,0,5.86233,1.82872,5.86233,4.07254s-2.61989,4.07254-5.86233,4.07254-5.86233-1.82872-5.86233-4.07254ZM642.21085,163.54907c-4.43565.2075-12.56772,3.20355-20.47924,5.60293-10.24613,3.09975-21.10179.9338-29.14308,2.54206-2.5291.5188,49.62232.92084,49.62232.92084-.2075-10.09048,0-9.06583,0-9.06583Z"/>
  <path class="st2" d="M296.11269,202.66587c1.68606,6.62757,6.6535,11.01132,14.78552,11.01132,15.0968,0,29.67482-11.20586,38.4294-17.52213,6.861-4.88959,13.94251-10.09048,13.94251-20.79049l-1.27103,4.07254s11.82843-11.8155,40.97149-2.43836c8.09314,2.60688,42.77429,22.10051,50.2708,25.26508,6.43298,2.74956,29.01336,18.97473,64.3041,12.71041,0,0,53.87639-7.41869,41.84048-62.99418-8.61194-39.71337-5.94015-42.54081-2.65883-55.27715-1.27103-.60954-32.95618-7.74295-32.10015,36.27639-13.73501,1.42668-31.25713,11.8155-19.85669,39.12976,4.6432-6.93887,10.88164-14.26672,19.42872-14.26672,5.38246,0,11.06322,7.74295,11.40044,13.43672.84302,13.86468-13.08648,19.97345-30.40115,17.12009-8.78051-1.43964-16.87365-11.19289-28.97447-19.96049,2.11405-1.02464,4.04657-8.15795,4.04657-11.01132,0-7.02961-6.01798-10.28501-10.12936-12.63254.84302-2.43836,2.51614-5.69377,2.51614-8.14499,0-5.60293-7.91156-5.20089-10.97243-7.32795,1.25807-1.73798,1.25807-.71334,1.25807-3.2554,0-8.15795,1.27103-12.6455-15.20058-12.21754,1.37478-8.05425-.32426-13.24218-5.91423-15.4859l-12.25642-1.63418c-7.60026-1.41372-.01296-3.95578-7.02961-10.72604-6.26442-6.05692-16.5624,0-16.5624,0,0-5.60293-3.86499-10.05159-10.62224-10.05159-3.57964,0-8.02828.3113-10.55738,1.63418l-5.07119,4.07254c-6.32926,0-7.92453-5.70673-15.21354-5.70673s-10.23314,5.70673-13.0865,9.37713c-4.95445-2.34752-5.60293-6.52377-12.24346-6.52377-3.90391,0-5.07119,4.17625-6.75725,6.10877-4.3319,4.78589-4.03361,9.75325-10.77787,12.19161l-2.51614-4.42273c-.08114-.27894-.15466-.56007-.22049-.84307-9.93485,4.79885-32.33362,55.92558-32.33362,66.41819,0,9.99974,8.66379,5.61589,8.66379,16.31601,0,6.31627-9.28635,10.90762-9.28635,16.30294,0,6.82211,7.92453,10.18131,14.78552,10.18131l-4.63021,1.60826Z"/>
  <path class="st4" d="M319.43233,159.69699s10.98539,4.24116,10.98539,6.52377c0,3.09975-7.09447,6.51081-11.82843,10.59632h-5.9142c2.11407-6.92581,0-4.39671,0-10.59632.01296-4.65616,4.90257-6.52377,6.75725-6.52377Z"/>
  <path class="st6" d="M359.57377,140.94272c5.69372-2.74956,3.06087-9.77917,12.24346-9.77917,8.11907,0,11.19292,5.70673,18.58568,5.70673,4.95445,0,8.44333-4.88959,15.20058-4.88959,6.00499,0,13.94251,8.14499,12.67148,17.93723,0,0,21.11476-6.93887,20.27174,15.88794,16.88666-5.69377,15.20058,8.24879,16.88666,15.08386,1.69905,6.52377,12.68444,1.21918,10.98539,15.0709"/>
  <path class="st2" d="M134.13331,88.89505h17.00336c12.45097-2.85336,17.00336-10.07751,29.77857-10.07751,9.1826,0,13.51449,6.12173,20.27174,6.12173,5.69373,0,14.47425-6.52377,24.07189-6.52377,9.81811,0,14.68177,5.91423,21.11478,8.65083,5.69372,2.45132,13.20322,2.3216,21.11478,2.3216-.22049,5.69377,0,9.09176,0,13.87764,0,4.88959,6.54972,2.95707,6.54972,10.89455,0,8.36545-8.45629,6.73127-8.45629,10.07751l-.31128,31.08857c.41503,3.86494,8.2358,4.37078,8.2358,10.27205,0,8.76759-8.70271,5.73265-8.13205,12.6455.41503,5.09709,0,15.9009,0,15.9009-16.78288,0-122.48646.1038-127.77812-.1038.32424-11.50419-.18158-9.93482.22049-15.4859.31128-4.48755-9.72732-7.22415-9.72732-14.77256,0-5.20089,6.01797-4.88959,6.54973-9.77917v-30.9718c-.31128-4.07254-9.40308-6.10877-9.07883-11.9192.37613-6.93887,8.45629-6.05692,8.45629-10.70002.01298-2.03622.23345-9.57167.11673-11.51716h.00001Z"/>
  <path class="st6" d="M147.97205,89.41385s.22049,69.28452,0,85.58746c0,0,100.74913.19454,105.17184-.22046,0-18.43-.10375-85.8858-.10375-85.8858M200.66823,85.13381v90.06205"/>
  <path class="st4" d="M202.25051,164.0938c4.43566.2075,12.58066,3.20355,20.49223,5.60293,10.23314,3.11272,21.10182.9338,29.14306,2.55503,2.54206.50584-49.63529.90788-49.63529.90788.20751-10.09048,0-9.06583,0-9.06583ZM194.75398,177.43968c0-2.24372,2.61989-4.07254,5.86233-4.07254s5.86233,1.82872,5.86233,4.07254-2.61989,4.07254-5.86233,4.07254-5.86233-1.82872-5.86233-4.07254ZM197.73704,164.0938c-4.43566.2075-12.58068,3.20355-20.49223,5.60293-10.24611,3.11272-21.10181.9338-29.14306,2.55503-2.5291.50584,49.63529.90788,49.63529.90788-.20751-10.09048,0-9.06583,0-9.06583Z"/>
  <path class="st2" d="M217.87907,488.77884c0-29.05225,24.4091-52.61833,54.5249-52.61833s54.53786,23.55312,54.53786,52.61833-24.42206,52.61833-54.53786,52.61833c-30.10284-.01296-54.5249-23.56608-54.5249-52.61833ZM367.80955,362.40141c0-29.06521,24.4091-52.61833,54.5249-52.61833s54.52487,23.54015,54.52487,52.61833-24.4091,52.60536-54.52487,52.60536-54.5249-23.54015-54.5249-52.60536ZM509.24484,488.77884c0-29.05225,24.42206-52.61833,54.55085-52.61833,30.11578,0,54.52487,23.55312,54.52487,52.61833s-24.4091,52.61833-54.52487,52.61833c-30.12874-.01296-54.55085-23.56608-54.55085-52.61833Z"/>
  <path class="st6" d="M477.04089,166.27271c-13.94251-15.36914-26.22486-33.3971-28.35192-34.30498-6.861-2.85336-23.22885-35.44639-67.15744-37.89761-11.15401-.6225-53.16308,3.46291-54.60272,14.22783M363.54246,178.12719c.17514-1.11113.2619-2.23432.2594-3.3592,0-1.75095-10.298-.76519-12.73631-1.4915-1.68606-.5188,4.52646-2.99605,3.44997-2.99605,6.34222-2.45132,22.56739-9.61056,16.8996-15.08386-5.48621-5.29163-8.76757-10.90762-11.82843-14.26672-4.1244-4.48755-8.97507-6.93887-16.48457-6.93887-6.44597,0-16.87367,11.19289-21.20557,14.25376,3.16462-3.06087,12.33425-10.99835,12.33425-17.52213,0-14.66876-11.7117-27.4051-14.78552-39.51884M300.39269,200.43511c11.62091,0,18.15767-.80408,23.65684-3.65744,6.00499-3.16467,16.8996-9.98668,19.4287-15.9009"/>
  <path class="st5" d="M110.35973,41.1015h625.02594M735.38567,41.1015v312.98631c-4.22815,255.11525-289.65376,389.19664-325.55406,387.9646-37.33995-1.27103-300.31491-132.4862-299.53671-389.28748l.06485-311.65047"/>
</svg>