<?xml version="1.0" encoding="UTF-8"?>
<svg id="contenu" xmlns="http://www.w3.org/2000/svg" version="1.1" viewBox="0 0 397.08447 121.5159">
  <!-- Generator: Adobe Illustrator 29.1.0, SVG Export Plug-In . SVG Version: 2.1.0 Build 142)  -->
  <defs>
    <style>
      .st0 {
        fill: #8a1739;
      }
    </style>
  </defs>
  <g>
    <path class="st0" d="M97.42008,26.44749h17.97219v1.62992h-5.581v33.39439c0,9.60454-1.69007,19.83032-5.79373,26.46847l-3.39102-4.63705c3.37166-7.77744,2.39257-17.53358,2.4599-21.83142V28.0774h-5.66633v-1.62992Z"/>
    <path class="st0" d="M68.94255,30.74869h.69601c1.8689,18.69066,5.73412,34.78289,18.89426,53.18965,8.18675,11.45153,19.19337,27.74986,19.19337,27.74986h11.43582s-16.52814-20.90952-22.86885-30.38585c-14.96606-22.36835-20.11829-40.44382-20.96133-77.25154v-1.24154h-9.61778v1.24154c.30168,30.48286-3.15194,43.76295-7.79096,55.12462-3.19794,7.83196-9.50914,17.84165-17.18632,25.58644.00576,1.36494.67936,4.4261,1.27097,6.42321,5.31352-6.92081,14.16297-10.73575,21.92851-10.73575,5.64967,0,10.84214,1.46061,15.48457,5.68508,1.84453,1.67879,5.0304,5.46735,10.33905,14.23684-5.68449,5.97613-13.62925,9.9708-23.09379,9.9708-13.24755,0-19.28703-4.9237-23.78835-11.32858-4.11425-5.85452-6.23419-14.55963-6.23419-28.06058V28.07738h5.09349v-1.6305H4.92897v1.6305h5.27479v31.36987c0,17.82288,3.85455,27.74584,10.10383,36.35572,6.37447,8.7829,19.66034,18.62047,44.40223,18.62047,13.06775,0,22.06002-5.71325,27.03369-10.74201,1.3263,2.27385,2.98853,5.15931,4.5424,8.00677h8.61378s-5.75111-8.68231-14.33337-21.05304c-9.12693-13.15535-17.91964-14.87393-26.61811-14.87393-4.60979,0-10.04765,2.14286-13.18512,4.36664l-.26311-.26244c5.7216-6.539,9.38825-14.33162,11.67692-20.16737,2.41402-6.15586,6.31327-19.09929,6.76567-28.94938Z"/>
  </g>
  <g>
    <path d="M171.78561,65.08534c10.17383,0,15.77734-4.80371,15.77734-13.52637v-25.17578h-5.69336v25.0708c0,5.94727-3.4502,9.09082-9.97656,9.09082-6.52832,0-9.97852-3.14355-9.97852-9.09082v-25.0708h-6.11719v25.17578c0,8.72266,5.67773,13.52637,15.98828,13.52637Z"/>
    <path d="M218.72702,64.56093v-21.18799c0-3.99414-2.96875-6.28467-8.14453-6.28467-4.94824,0-9.02637,1.89111-10.87891,3.73096v-3.375l-5.37695.23193v26.88477h5.64062v-20.10938c1.70605-2.30127,5.41797-3.50488,8.23047-3.50488,3.29004,0,4.88867,1.1543,4.88867,3.52832v20.08594h5.64062Z"/>
    <rect x="225.06686" y="28.32509" width="5.58789" height="5.17041"/>
    <polygon points="225.06686 64.56093 230.65475 64.56093 230.65475 37.50282 225.06686 37.61806 225.06686 64.56093"/>
    <polygon points="250.13229 64.56093 260.5278 37.95399 260.66159 37.61317 255.77585 37.61317 247.76315 59.1205 239.96725 37.77724 239.90768 37.61317 233.9653 37.61317 244.2778 64.56093 250.13229 64.56093"/>
    <path d="M285.9321,62.01552v-4.18164l-.42578.42139c-1.54395,1.52881-5.07422,3.07666-8.83398,3.07666-6.41016,0-9.66016-3.41162-9.66016-10.14014v-.2749h19.32031l.02246-.2251c.05371-.53711.05371-1.65186.05371-2.07129,0-7.3291-4.37891-11.53223-12.01367-11.53223-6.48145,0-13.02148,4.34473-13.02148,14.05078,0,8.60254,5.35449,13.94629,13.97461,13.94629,6.13184,0,9.37988-2.09473,10.49121-2.99463l.09277-.0752ZM267.27096,47.63564c1.13379-6.40527,4.93652-7.37109,7.12402-7.37109,5.69727,0,6.55371,4.96289,6.63281,7.37109h-13.75684Z"/>
    <path d="M296.95749,45.78456c1.26367-2.98535,4.25391-4.05078,6.63867-4.05078,1.3877,0,2.69727.23779,3.25977.59131l.38281.24121v-4.5542l-.08496-.07471c-.60254-.52832-1.6748-.79639-3.18652-.79639-2.76758,0-5.5459,1.68555-7.32812,4.42236v-4.11914l-5.32227.23193v26.88477h5.64062v-18.77637Z"/>
    <path d="M320.15671,48.80312c-3.42871-1.13184-5.49805-1.81543-5.49805-4.48584,0-2.2085,2.05664-3.58057,5.36719-3.58057,2.58887,0,5.39648.93262,7.03125,1.85693l.37305.21094v-3.8208l-.11816-.07373c-1.34863-.84033-4.21875-1.82178-7.87012-1.82178-6.07031,0-9.8418,2.99121-9.8418,7.80664,0,4.68164,3.64746,6.5625,7.58594,7.89648l.77637.27588c3.29395,1.16553,5.46973,1.93506,5.46973,4.63135,0,2.58594-1.89453,3.84277-5.79102,3.84277-3.11426,0-6.31934-1.42236-8.11328-2.83252l-.4043-.31738v4.03809l.08496.07422c1.45801,1.28271,5.00488,2.58154,8.96191,2.58154,6.69238,0,10.53125-2.86426,10.53125-7.85889,0-5.1748-4.04199-6.93701-8.54492-8.42334Z"/>
    <rect x="333.97897" y="28.32509" width="5.58789" height="5.17041"/>
    <polygon points="339.56686 37.50282 333.97897 37.61806 333.97897 64.56093 339.56686 64.56093 339.56686 37.50282"/>
    <path d="M355.16257,65.08534c3.08691,0,5.72852-.95801,6.74316-1.9043l.0791-.07422v-3.79395l-.41113.3457c-1.05664.88916-2.82422,1.46338-4.50293,1.46338-2.50488,0-3.67188-1.021-3.67188-3.21338v-16.64697h7.94922v-3.64844h-7.94922v-7.21484l-5.48047,2.36768v4.82959l-3.81641.57715v3.08887h3.76367v17.69629c0,3.95166,2.5918,6.12744,7.29688,6.12744Z"/>
    <polygon points="383.04636 25.07167 377.2612 25.07167 373.53659 33.28554 377.23288 33.28554 383.04636 25.07167"/>
    <path d="M376.57468,37.08827c-6.48145,0-13.02148,4.34473-13.02148,14.05078,0,8.60254,5.35449,13.94629,13.97461,13.94629,6.13574,0,9.38086-2.09473,10.49121-2.99463l.09277-.0752v-4.18262l-.42578.42236c-1.54199,1.52881-5.07129,3.07666-8.83203,3.07666-6.41016,0-9.66016-3.41162-9.66016-10.14014v-.2749h19.31738l.02344-.22412c.05566-.5376.05566-1.65234.05566-2.07227,0-7.3291-4.37988-11.53223-12.01562-11.53223ZM376.57468,40.26454c5.69727,0,6.55371,4.96289,6.63281,7.37109h-13.75684c1.13574-6.40527,4.9375-7.37109,7.12402-7.37109Z"/>
    <path d="M169.40085,73.49687h-13.60352v38.17676h6.11719v-15.27051h7.27539c7.96582,0,12.91406-4.39844,12.91406-11.47949,0-7.15527-4.74902-11.42676-12.70312-11.42676ZM161.91452,77.45976h6.10938c5.32422,0,7.80469,2.37207,7.80469,7.46387,0,4.95312-2.62598,7.46387-7.80469,7.46387h-6.10938v-14.92773Z"/>
    <path d="M207.08444,108.75956c-1.31152,0-1.97656-.69238-1.97656-2.05859v-16.79199c0-3.83984-3.25391-5.70703-9.94727-5.70703-4.25,0-7.80957,1.22266-9.31836,2.3584l-.09961.0752v3.5459l.37402-.21289c2.25293-1.28223,4.86621-1.96094,7.55957-1.96094,4.18945,0,5.89844.80957,5.89844,2.79297v1.46973c0,2.04102-2.30371,2.90625-6.71777,4.37988l-.28809.09082c-4.18945,1.30957-8.52148,2.66406-8.52148,8.28027,0,4.29297,3.31641,7.17676,8.25195,7.17676,4.59668,0,6.88965-1.83398,8.02246-3.49414.4082,2.16699,2.27148,3.49414,4.95996,3.49414,1.92676,0,3.58008-.54004,4.42285-1.44336l.06738-.07227v-2.76758l-.3877.25684c-.42871.2832-1.33105.58789-2.2998.58789ZM193.88913,108.86503c-1.70801,0-4.57227-.54004-4.57227-4.1582,0-3.49219,2.70508-4.40918,5.0918-5.21777.21094-.07129.41895-.14258.62207-.21387,2.14746-.75879,3.73828-1.61328,4.54395-2.42383v8.83691c-1.2168,2.01953-3.28516,3.17676-5.68555,3.17676Z"/>
    <path d="M225.68796,84.2537c-2.7666,0-5.54492,1.68555-7.32812,4.42285v-4.11816l-5.32227.23145v26.88379h5.64062v-18.77637c1.26367-2.98438,4.25391-4.0498,6.63867-4.0498,1.3877,0,2.69727.2373,3.25977.59082l.38281.24023v-4.55273l-.08496-.07422c-.60352-.5293-1.6748-.79785-3.18652-.79785Z"/>
    <rect x="232.53952" y="75.43827" width="5.58789" height="5.16992"/>
    <polygon points="232.53952 111.67362 238.12741 111.67362 238.12741 84.61601 232.53952 84.73124 232.53952 111.67362"/>
    <path d="M254.80905,95.91581c-3.42871-1.13184-5.49805-1.81445-5.49805-4.48535,0-2.20801,2.05664-3.58008,5.36719-3.58008,2.59082,0,5.39844.93262,7.03125,1.85645l.37305.21094v-3.82031l-.11816-.07324c-1.34766-.84082-4.21777-1.82227-7.87012-1.82227-6.07031,0-9.8418,2.99121-9.8418,7.80566,0,4.68066,3.64746,6.5625,7.58594,7.89746l.77539.27539c3.29395,1.16504,5.4707,1.93457,5.4707,4.63086,0,2.58691-1.89453,3.84375-5.79102,3.84375-3.11426,0-6.31934-1.42285-8.11328-2.83301l-.4043-.31836v4.03906l.08496.07422c1.45703,1.28223,5.00391,2.58105,8.96191,2.58105,6.69238,0,10.53125-2.86426,10.53125-7.8584,0-5.17383-4.04199-6.9375-8.54492-8.42383Z"/>
    <path d="M300.78561,107.86796c-8.82129,0-14.74805-6.1416-14.74805-15.2832,0-9.2832,5.85059-15.28223,14.90625-15.28223,4.13867,0,7.53809,1.09766,10.3916,3.35742l.40527.32031v-4.79492l-.10938-.07422c-2.15723-1.46094-5.38184-3.13867-11.2168-3.13867-12.35254,0-20.65234,7.88184-20.65234,19.6123,0,11.73145,8.08691,19.61328,20.12305,19.61328,5.1875,0,9.24121-1.16699,12.3916-3.56641l.09863-.0752v-4.9541l-.4082.33398c-3.28516,2.68262-6.83789,3.93164-11.18164,3.93164Z"/>
    <rect x="318.60983" y="75.43827" width="5.58789" height="5.16992"/>
    <polygon points="318.60983 111.67362 324.19772 111.67362 324.19772 84.61601 318.60983 84.73124 318.60983 111.67362"/>
    <path d="M341.70163,108.23515c-2.50488,0-3.67188-1.02148-3.67188-3.21387v-16.64648h7.94922v-3.64844h-7.94922v-7.21387l-5.48242,2.36719v4.8291l-3.81445.57715v3.08887h3.76172v17.69629c0,3.95117,2.5918,6.12695,7.29883,6.12695,3.08398,0,5.72559-.95703,6.74121-1.90332l.0791-.07422v-3.79395l-.41113.3457c-1.05469.88867-2.82129,1.46289-4.50098,1.46289Z"/>
    <polygon points="361.86374 80.39823 367.67721 72.18534 361.89206 72.18534 358.16745 80.39823 361.86374 80.39823"/>
    <path d="M361.20554,84.20194c-6.48145,0-13.02148,4.34473-13.02148,14.05078,0,8.60156,5.35449,13.94531,13.97461,13.94531,6.13184,0,9.37988-2.09375,10.49121-2.99414l.09277-.0752v-4.18164l-.42578.42188c-1.54395,1.52832-5.07422,3.07617-8.83398,3.07617-6.41016,0-9.66016-3.41211-9.66016-10.14062v-.27441h19.32031l.02246-.22461c.05371-.53711.05371-1.65234.05371-2.07227,0-7.32812-4.37891-11.53125-12.01367-11.53125ZM361.20554,87.37772c5.69727,0,6.55371,4.96289,6.63281,7.37109h-13.75684c1.13379-6.40527,4.93652-7.37109,7.12402-7.37109Z"/>
  </g>
</svg>