<?xml version="1.0" encoding="UTF-8"?>
<svg id="Layer_1" xmlns="http://www.w3.org/2000/svg" version="1.1" viewBox="0 0 46 40">
  <!-- Generator: Adobe Illustrator 29.1.0, SVG Export Plug-In . SVG Version: 2.1.0 Build 142)  -->
  <defs>
    <style>
      .st0 {
        fill: #ff540a;
      }
    </style>
  </defs>
  <path class="st0" d="M39.4,26.6c-2-1.4-4.2-2.2-6.6-2.2s-6,1.3-8.6,4l-11.4,11.6c-2.9-2-5.2-4.6-7-7.8-1.7-3.2-2.6-6.6-2.6-10.3s.4-5,1.3-7.6h16.3v-2.4H3.9c-1-1.5-1.9-3.1-2.5-4.8h19.4v-2.4H.7C.3,3.2,0,1.6,0,0h24.6c3.9,0,7.5,1,10.7,3,3.3,2,5.9,4.6,7.8,7.9,1.9,3.3,2.9,7,2.9,10.9s-.8,7.1-2.5,10.3c-.8-2.3-2.2-4.2-4.1-5.7ZM37.1,16.4c.5-.5.7-1.1.7-1.7s-.2-1.3-.7-1.7c-.5-.5-1-.7-1.7-.7s-1.2.2-1.7.7c-.5.5-.7,1.1-.7,1.7s.2,1.3.7,1.7c.5.5,1,.7,1.7.7s1.2-.2,1.7-.7Z"/>
</svg>