<?xml version="1.0" encoding="UTF-8"?>
<svg id="Calque_1" xmlns="http://www.w3.org/2000/svg" version="1.1" viewBox="0 0 815.5 148.5">
  <!-- Generator: Adobe Illustrator 29.1.0, SVG Export Plug-In . SVG Version: 2.1.0 Build 142)  -->
  <defs>
    <style>
      .st0 {
        fill: #fffdfd;
      }

      .st1 {
        fill: #ff540a;
      }
    </style>
  </defs>
  <path class="st1" d="M144.5,97.8c-7.2-5.2-15.4-7.8-24.4-7.8s-22.1,4.8-31.7,14.4l-41.8,41.8c-10.7-7.1-19.2-16.5-25.5-28-6.3-11.5-9.5-24-9.5-37.3s1.6-18.2,4.9-27.4h59.9v-8.7H14.4c-3.9-5.4-6.9-11.1-9.3-17.3h71.3v-8.6H2.5C1.1,13.6.3,8,0,2.1l90.2.2c14.3,0,27.4,3.5,39.4,10.6,12,7.1,21.6,16.6,28.6,28.6,7.1,12,10.6,25.2,10.6,39.5s-3.1,25.8-9.3,37.3c-2.9-8.4-7.9-15.2-15.1-20.4h0ZM136.1,61.3c1.7-1.7,2.6-3.8,2.6-6.3s-.9-4.6-2.6-6.3c-1.7-1.7-3.8-2.6-6.3-2.6s-4.6.9-6.3,2.6c-1.7,1.7-2.6,3.8-2.6,6.3s.9,4.6,2.6,6.3c1.7,1.7,3.8,2.6,6.3,2.6s4.6-.9,6.3-2.6Z"/>
  <g>
    <path class="st0" d="M297.8,87.3c6.7-4.1,11.9-9.6,15.7-16.5,3.8-6.9,5.7-14.4,5.7-22.7s-2-16.3-6-23.3c-4-7-9.5-12.6-16.7-16.7-7.1-4.1-15.2-6.2-24.3-6.2h-67.6v144.2h26.8v-52.1h14.6l52.1,52.1h37.9l-53.3-53.3c5.5-.9,10.5-2.8,15-5.7h0ZM231.3,69.4V28.2h40.4c3.7,0,7.1.8,10.3,2.5,3.2,1.7,5.7,4,7.5,7.2,1.9,3.2,2.8,6.8,2.8,10.9s-.9,7.8-2.8,10.9c-1.9,3.2-4.4,5.6-7.5,7.2s-6.6,2.5-10.3,2.5h-40.4,0Z"/>
    <path class="st0" d="M450,9.8C438.7,3.3,426.1,0,412.4,0s-26.3,3.3-37.6,9.8c-11.3,6.5-20.3,15.4-26.8,26.8-6.5,11.3-9.8,23.9-9.8,37.6s3.3,26.3,9.8,37.6c6.5,11.3,15.5,20.3,26.8,26.8s23.9,9.8,37.6,9.8,26.3-3.3,37.6-9.8,20.2-15.4,26.8-26.8c6.5-11.3,9.8-23.9,9.8-37.6s-3.3-26.3-9.8-37.6c-6.5-11.3-15.5-20.2-26.8-26.8ZM453.6,98.3c-4.1,7.3-9.8,13-17,17.1-7.2,4.1-15.3,6.2-24.2,6.2s-16.8-2.1-24.1-6.2-13-9.8-17.1-17-6.2-15.3-6.2-24.2,2.1-16.8,6.2-24.1,9.8-13,17-17.1,15.3-6.2,24.2-6.2,16.8,2.1,24.1,6.2c7.3,4.1,13,9.8,17.1,17,4.1,7.2,6.2,15.3,6.2,24.2s-2.1,16.8-6.2,24.1h0Z"/>
    <path class="st0" d="M614.8,104c-4.2,5.4-9.5,9.6-16.1,12.8s-13.7,4.7-21.5,4.7-17-2-24.2-6.1c-7.2-4.1-12.9-9.6-17-16.6s-6.2-14.6-6.2-22.9,2.1-17.1,6.2-24.6c4.1-7.5,9.8-13.5,17-17.9,7.2-4.5,15.3-6.7,24.2-6.7s15,1.5,21.5,4.6c6.5,3.1,11.8,7.3,16,12.6s6.9,11.2,8.5,17.6h27.4c-1.7-11.5-5.9-22-12.7-31.4-6.8-9.4-15.5-16.8-26.1-22.1C601.2,2.7,589.7,0,577.2,0s-26.3,3.4-37.6,10.3c-11.3,6.9-20.3,16.1-26.8,27.8-6.5,11.7-9.8,24.4-9.8,38.1s3.3,25.1,9.8,36.2c6.5,11.1,15.5,19.8,26.8,26.3,11.3,6.5,23.9,9.7,37.6,9.7s24.1-2.7,34.7-8.1c10.6-5.4,19.4-12.9,26.2-22.3s11-20,12.7-31.5h-27.4c-1.5,6.5-4.4,12.4-8.5,17.7h0Z"/>
    <path class="st0" d="M805.7,111.8c6.5-11.3,9.8-23.9,9.8-37.6s-3.3-26.3-9.8-37.6c-6.5-11.3-15.5-20.2-26.8-26.8C767.6,3.3,755.1,0,741.4,0s-26.3,3.3-37.6,9.8c-11.3,6.5-20.3,15.4-26.8,26.8-6.5,11.3-9.8,23.9-9.8,37.6s3.3,26.3,9.8,37.6c6.5,11.3,15.5,20.3,26.8,26.8s23.9,9.8,37.6,9.8,26.3-3.3,37.6-9.8c.6-.4,1.2-.7,1.8-1.1l11.1,11.1,19-18.8-10.2-10.2c1.9-2.5,3.6-5.1,5.2-7.8h0ZM741.4,121.5c-8.8,0-16.8-2.1-24.1-6.2-7.3-4.1-13-9.8-17.1-17s-6.2-15.3-6.2-24.2,2.1-16.8,6.2-24.1,9.8-13,17-17.1,15.3-6.2,24.2-6.2,16.8,2.1,24.1,6.2c7.3,4.1,13,9.8,17.1,17,4.1,7.2,6.2,15.3,6.2,24.2s-2.1,16.8-6.2,24.1c-.4.7-.8,1.4-1.2,2.1l-30.9-30.9-19,18.8,29.5,29.5c-6,2.6-12.5,3.9-19.6,3.9h0Z"/>
  </g>
</svg>