<?xml version="1.0" encoding="UTF-8"?>
<svg id="Calque_1" xmlns="http://www.w3.org/2000/svg" xmlns:xlink="http://www.w3.org/1999/xlink" version="1.1" viewBox="0 0 1440 430">
  <!-- Generator: Adobe Illustrator 29.1.0, SVG Export Plug-In . SVG Version: 2.1.0 Build 142)  -->
  <defs>
    <style>
      .st0, .st1 {
        fill: none;
      }

      .st2 {
        fill: url(#Dégradé_sans_nom_22);
        stroke: #000;
      }

      .st2, .st1 {
        stroke-miterlimit: 10;
      }

      .st1 {
        stroke: #a6a8b1;
        stroke-dasharray: 1 3;
      }

      .st3 {
        clip-path: url(#clippath);
      }
    </style>
    <clipPath id="clippath">
      <rect class="st0" y="0" width="1440" height="430"/>
    </clipPath>
    <linearGradient id="Dégradé_sans_nom_22" data-name="Dégradé sans nom 22" x1="-33.99043" y1="224.29999" x2="1450.20955" y2="224.29999" gradientUnits="userSpaceOnUse">
      <stop offset="0" stop-color="#fff"/>
      <stop offset="1" stop-color="#f1dad1"/>
    </linearGradient>
  </defs>
  <g class="st3">
    <g>
      <rect class="st2" x="-33.99043" y="-32.7" width="1484.19997" height="513.99999"/>
      <path class="st1" d="M591.59998-668.40002v97.29999H-210.10001c26.2,69.5,61,134.39999,104.3,194.60001h697.50002v97.30002H-82.7c-37.1,103.5-55.59999,206.2-55.59999,308.20001,0,149.89999,35.5,289.70001,106.6,419.39999,71,129.80002,166.8,234.80002,287.3,315.10001l470.39999-470.39999c108.09998-108.10001,227.09998-162.2,356.80005-162.2s193.5,29.39999,274.59998,88.09999c81.09998,58.70001,137.90002,135.20001,170.30005,229.39999,69.5-129.80002,104.30005-269.60001,104.30005-419.39999s-39.80005-308.5-119.30005-443.70001c-79.59998-135.20001-186.90002-242.5-322.09998-322.10004-135.19995-79.5-283.09998-119.29999-443.79999-119.29999l-1014.90002-2.29999c3.10001,66.40002,12.3,129.79999,27.8,190h831.90001-.00012ZM1121.09998-333.60001c19.30005-19.29999,42.90002-29,70.69995-29s51.30005,9.70001,70.69995,29c19.30005,19.29999,29,42.89999,29,70.69998s-9.69995,51.39999-29,70.7-42.90002,29-70.69995,29-51.40002-9.60001-70.69995-29c-19.30005-19.3-29-42.90001-29-70.7s9.59998-51.29999,29-70.70001h0v.00003Z"/>
    </g>
  </g>
</svg>