<?xml version="1.0" encoding="UTF-8"?>
<svg id="Calque_1" xmlns="http://www.w3.org/2000/svg" version="1.1" viewBox="0 0 61 42">
  <!-- Generator: Adobe Illustrator 29.1.0, SVG Export Plug-In . SVG Version: 2.1.0 Build 142)  -->
  <defs>
    <style>
      .st0 {
        fill: #fff;
      }
    </style>
  </defs>
  <path class="st0" d="M28.2,5.3v2.5H7.9c.7,1.8,1.5,3.4,2.6,4.9h17.6v2.5H11.2c-.9,2.6-1.4,5.2-1.4,7.8,0,3.8.9,7.3,2.7,10.6,1.8,3.3,4.2,5.9,7.3,8l11.9-11.9c2.7-2.7,5.7-4.1,9-4.1s4.9.7,6.9,2.2c2.1,1.5,3.5,3.4,4.3,5.8,1.8-3.3,2.6-6.8,2.6-10.6s-1-7.8-3-11.2c-2-3.4-4.7-6.1-8.1-8.1-3.4-2-7.2-3-11.2-3H6.5c0,1.6.3,3.2.7,4.7h21ZM41.6,13.8c.5-.5,1.1-.7,1.8-.7s1.3.2,1.8.7c.5.5.7,1.1.7,1.8s-.2,1.3-.7,1.8c-.5.5-1.1.7-1.8.7s-1.3-.2-1.8-.7c-.5-.5-.7-1.1-.7-1.8s.2-1.3.7-1.8Z"/>
</svg>