<?xml version="1.0" encoding="UTF-8"?>
<svg id="Ebene_1" xmlns="http://www.w3.org/2000/svg" version="1.1" viewBox="0 0 619.2385 158.99943">
  <!-- Generator: Adobe Illustrator 29.1.0, SVG Export Plug-In . SVG Version: 2.1.0 Build 142)  -->
  <defs>
    <style>
      .st0 {
        fill: #fff;
      }

      .st1 {
        fill: #a9a9a9;
      }
    </style>
  </defs>
  <path class="st1" d="M122.89162,45.92929c10.9585,0,19.8428-8.8833,19.8428-19.8418,0-10.9595-8.8843-19.84331-19.8428-19.84331-10.9595,0-19.8423,8.88381-19.8423,19.84331,0,10.9585,8.8828,19.8418,19.8423,19.8418h0Z"/>
  <path class="st0" d="M148.41902,45.92929c-5.9029,7.6196-15.1578,12.46189-25.5425,12.46189-17.8233,0-32.272-14.44829-32.272-32.272,0-6.45309,1.894-12.46389,5.1563-17.50629-5.816-1.544-11.9214-2.36871-18.2227-2.36871C38.39853,6.24418,6.67143,37.97169,6.67143,77.11039s31.7266,70.8662,70.8662,70.8662h9.9209v-53.6816c-2.918,1.6875-6.3086,2.65819-9.9209,2.65819h0c-10.9595,0-19.8428-8.88379-19.8428-19.84179,0-10.9595,8.8833-19.8438,19.8428-19.8438,10.958,0,19.8423,8.8828,19.8423,19.8428v70.8662h51.0234l.0157-102.0473h0Z"/>
  <path class="st0" d="M199.03032,147.93949l5.9023-17.708h36.7979l6.0283,17.708h28.3818l-35.7924-90.6719h-30.6421l-35.791,90.6719h25.1152ZM211.33992,112.65039l12.3056-37.67621h.3775l11.5522,37.67621h-24.2353Z"/>
  <path class="st0" d="M319.94582,96.82618c10.1738,0,11.3037,11.55471,11.3037,19.34091,0,8.16209-1.7588,19.8417-12.1806,19.8417-8.6661,0-10.8023-11.67961-10.8023-18.7119,0-8.415.8794-20.47071,11.6792-20.47071h0ZM284.40632,147.93949h23.2324l.6279-9.2939h.5025c1.6337,6.4052,10.2998,11.1767,17.5839,11.1767,20.8457,0,29.3848-15.1953,29.3848-34.41011,0-17.833-8.665-32.39939-28.0039-32.39939-7.1611,0-14.8193,2.8876-19.2153,8.539h-.252v-34.2842h-23.8603v90.6719h0Z"/>
  <path class="st0" d="M425.19872,104.36039c-1.0039-17.4541-14.81929-21.3476-29.7636-21.3476-12.5586,0-29.1358,4.2695-29.1358,19.8418,0,22.8564,37.2959,16.2001,37.2959,27.3769,0,4.0195-3.3877,5.7773-8.0351,5.7773-2.2608,0-4.2715-1.2568-5.6514-2.88861-1.3799-1.63279-2.0107-3.76759-1.6328-5.65239h-22.60249c-.127,19.2159,14.94229,22.3545,30.39059,22.3545,14.44041,0,30.1387-4.2695,30.1387-20.9717,0-10.2988-5.1485-14.9453-12.6836-17.332-14.9454-4.6445-24.6143-4.3945-24.6143-9.041,0-3.6426,2.1338-5.65141,5.6514-5.65141,3.2656,0,5.2744.87991,6.53121,2.26081,1.12989,1.2549,1.50489,3.1396,1.50489,5.2734h22.6064Z"/>
  <polygon class="st0" points="464.34912 147.93949 464.34912 57.26759 439.23002 57.26759 439.23002 147.93949 464.34912 147.93949 464.34912 147.93949 464.34912 147.93949"/>
  <path class="st0" d="M504.37451,84.89559h-24.2353c.6279,6.7812.7529,10.5498.7529,16.2002v46.8437h23.86131v-36.1689c0-.753-1.50681-13.6875,10.29689-13.6875,7.41111,0,8.917,6.6552,9.169,12.8095v37.0469h23.8603v-42.19731c0-13.93839-10.0469-22.72939-23.6103-22.72939-8.0372,0-14.3155,2.5107-19.71589,8.791l-.37891-6.9082h0Z"/>
  <path class="st0" d="M558.01121,84.89559v15.0703h12.3096v28.2568c-1.2568,19.3399,8.5381,21.5996,24.7393,21.5996,3.5166,0,7.4082-.251,12.8095-1.2558v-14.1914c-2.7636.3769-6.03018.3769-9.1669.3769-5.5264,0-4.5225-8.1621-4.5225-9.7959v-24.9902h13.8154v-15.0703h-13.8154v-18.5855l-23.8594,9.0415v9.544h-12.3096Z"/>
</svg>