<?xml version="1.0" encoding="UTF-8"?>
<svg id="Calque_1" xmlns="http://www.w3.org/2000/svg" version="1.1" viewBox="0 0 125 31">
  <!-- Generator: Adobe Illustrator 29.1.0, SVG Export Plug-In . SVG Version: 2.1.0 Build 142)  -->
  <defs>
    <style>
      .st0 {
        fill: #fff;
      }
    </style>
  </defs>
  <path class="st0" d="M20.1226,3.33595l-6.255,3.27687-6.25505-3.27687L13.8676.05908l6.255,3.27687Z"/>
  <path class="st0" d="M13.8676,20.4716l-6.25505-3.0696v-6.2349l6.25505-3.33263,6.2795,3.30583v6.2216l-6.2795,3.1097Z"/>
  <path class="st0" d="M6.65404,16.9052L0,13.557v-6.45791l6.42668-3.2568,6.36872,3.41284-6.13689,3.22787v6.4222h-.00447Z"/>
  <path class="st0" d="M21.1214,10.483l-6.1369-3.22787,6.3687-3.41284,6.4267,3.2568v6.45791l-6.6541,3.3459v-6.4222l-.0044.0023Z"/>
  <path class="st0" d="M0,14.6782v8.988l13.8788,7.0709,13.8988-7.0129v-9.046l-13.8899,7.0152L0,14.6782Z"/>
  <path class="st0" d="M113.708,23.1755l.022-14.29975,3.062-1.67653v9.76328l4.061-5.7692h3.728l-4.327,5.9911,4.61501,5.9911h-3.927l-4.15-5.7692v5.7692h-3.084Z"/>
  <path class="st0" d="M107.628,23.5083c-1.243,0-2.308-.2774-3.195-.8321-.888-.5548-1.568-1.3092-2.042-2.2633-.473-.9542-.71-2.0304-.71-3.2286,0-1.213.244-2.2966.732-3.2507.49599-.9542,1.19099-1.7049,2.086-2.2522.895-.5474,1.953-.821,3.173-.821,1.413,0,2.596.3587,3.551,1.0761.961.7101,1.575,1.6827,1.841,2.9179l-3.01701.7989c-.17799-.6214-.489-1.1058-.932-1.4535-.437-.3476-.932-.5214-1.487-.5214-.636,0-1.158.1553-1.564.466-.40701.3032-.707.7211-.899,1.2537-.192.5251-.289,1.1205-.289,1.7862,0,1.0429.23,1.8898.688,2.5407.466.6435,1.154.9652,2.064.9652.68,0,1.198-.1553,1.553-.4659.355-.3107.621-.7545.799-1.3314l3.084.6435c-.34,1.2722-.983,2.2522-1.93,2.9401-.94701.6878-2.116,1.0318-3.506,1.0318Z"/>
  <path class="st0" d="M95.3804,23.5083c-1.2056,0-2.2633-.27-3.173-.8099-.9098-.54-1.6199-1.2833-2.1302-2.2301-.503-.9541-.7544-2.0488-.7544-3.284,0-1.25.2588-2.3484.7766-3.2951.5177-.9541,1.2315-1.6975,2.1413-2.23.9097-.5326,1.9563-.7988,3.1397-.7988,1.2057,0,2.2634.2699,3.1731.8099.91721.5399,1.6305,1.2869,2.1415,2.2411.51.9467.765,2.0377.765,3.2729,0,1.2426-.259,2.341-.776,3.2951-.511.9468-1.2244,1.6901-2.1416,2.2301-.9097.5325-1.9637.7988-3.16199.7988ZM95.3804,20.6902c.969,0,1.6901-.3254,2.1635-.9763.4808-.6583.7212-1.5015.7212-2.5296,0-1.0651-.24409-1.9157-.7323-2.5518-.4808-.6361-1.1982-.9541-2.1524-.9541-.6582,0-1.1982.1479-1.6198.4438-.4216.2958-.7359.7063-.943,1.2315-.1997.5251-.2996,1.1353-.2996,1.8306,0,1.0725.2404,1.9268.7212,2.5629.48811.6287,1.2019.943,2.1412.943Z"/>
  <path class="st0" d="M76.6765,23.1755V7.19922h6.7456c.1553,0,.3624.0074.62131.02219.2663.00739.5029.02958.71.06657.9542.14792,1.7345.46227,2.341.94302.6139.48079,1.0651,1.0873,1.3536,1.8195.2884.7249.4327,1.5348.4327,2.4298,0,1.3387-.3329,2.4852-.9986,3.4393-.6656.9468-1.7085,1.5311-3.1287,1.753l-1.33131.0887h-3.7278v5.4142h-3.0178ZM85.6854,23.1755l-3.1509-6.5014,3.1065-.5991,3.4615,7.1005h-3.4171ZM79.6943,14.9433h3.5946c.1554,0,.3255-.0074.5104-.0222s.355-.0444.5103-.0887c.4069-.111.7212-.2959.9431-.5548.2219-.2663.3735-.5584.4549-.8765.0887-.3254.13309-.6324.13309-.9208,0-.2885-.0444-.5917-.13309-.9098-.08141-.3254-.233-.6176-.4549-.8765-.2219-.2662-.5362-.4548-.9431-.5658-.1553-.0444-.3254-.074-.5103-.0887-.1849-.0148-.355-.0223-.5104-.0223h-3.5946v4.9261Z"/>
  <path class="st0" d="M69.5616,23.5083c-1.2278,0-2.3114-.2626-3.2507-.7877-.932-.5326-1.6642-1.2611-2.1968-2.1857-.5251-.9319-.7877-1.997-.7877-3.1953,0-1.3091.2589-2.4482.7766-3.4171.5178-.969,1.23161-1.7197,2.1413-2.2522.9098-.54,1.9564-.8099,3.1398-.8099,1.2574,0,2.32619.2958,3.2064.8875.8801.5917,1.531,1.4238,1.9526,2.4963s.5696,2.3336.4438,3.7833h-2.9844v-1.1095c0-1.2204-.196-2.0968-.5881-2.6294-.3846-.5399-1.017-.8099-1.8972-.8099-1.0281,0-1.78619.3143-2.2744.943-.4807.6213-.7211,1.5422-.7211,2.7626,0,1.1169.2404,1.9823.7211,2.5962.4882.6065,1.202.9097,2.1413.9097.5917,0,1.0984-.1294,1.52-.3883.4216-.2589.7433-.6324.9652-1.1205l3.0178.8653c-.4512,1.0947-1.165,1.9453-2.1413,2.5518-.96889.6065-2.0303.9098-3.1842.9098ZM65.5897,18.0275v-2.2411h7.9438v2.2411h-7.9438Z"/>
  <path class="st0" d="M55.8986,23.5306c-.9393,0-1.7049-.159-2.2966-.477-.5917-.3181-1.054-.7212-1.3868-1.2094-.3254-.4881-.5584-.9948-.699-1.5199-.1405-.5326-.2256-1.017-.2551-1.4534-.0296-.4364-.0444-.7545-.0444-.9542v-6.7233h3.0621v5.6582c0,.2737.0148.625.0444,1.054.0296.4216.122.8469.2774,1.2759.1553.429.4068.7877.7544,1.0762.355.2885.8543.4327,1.4978.4327.2588,0,.5362-.0407.8321-.122.2958-.0814.5732-.2367.8321-.466.2588-.2367.4696-.5806.6324-1.0318.1701-.4586.2551-1.0577.2551-1.7974l1.7308.821c0,.9468-.1923,1.8344-.5769,2.6628-.3846.8284-.9652,1.4977-1.7419,2.0081-.7692.5104-1.7418.7655-2.9179.7655ZM59.7818,23.1756v-3.9719h-.3773v-8.0103h3.04v11.9822h-2.6627Z"/>
  <path class="st0" d="M46.6482,23.1754v-14.29982l3.0177-2.00937v16.30919h-3.0177Z"/>
  <path class="st0" d="M33.8511,23.1755V7.19922h6.3905c1.1391,0,2.0599.22929,2.7626.68787.7026.45118,1.2167,1.02071,1.5421,1.70855.3255.68786.4882,1.38316.4882,2.08586,0,.8949-.2034,1.6383-.6102,2.23-.3994.5917-.9504.9874-1.6531,1.1871v-.5547c.9985.2071,1.7456.6694,2.2411,1.3868.503.7175.7545,1.52.7545,2.4076,0,.9541-.1776,1.7936-.5326,2.5185-.3476.7248-.8802,1.2943-1.5976,1.7085-.7175.4068-1.6198.6102-2.7071.6102h-7.0784ZM36.9132,20.3353h3.7056c.4068,0,.7693-.085,1.0873-.2552.3181-.1775.5658-.4216.7433-.7322.185-.3181.2774-.6916.2774-1.1206,0-.3772-.0777-.7137-.233-1.0096-.1553-.2958-.392-.5288-.71-.699-.3107-.1775-.699-.2662-1.165-.2662h-3.7056v4.0828ZM36.9132,13.4344h3.284c.3403,0,.6435-.0591.9098-.1775.2663-.1183.4771-.2995.6324-.5436.1553-.2515.233-.5733.233-.9653,0-.4881-.1517-.8986-.4549-1.2315-.3033-.3328-.7434-.4993-1.3203-.4993h-3.284v3.4172Z"/>
</svg>