<?xml version="1.0" encoding="UTF-8"?>
<svg id="Calque_1" xmlns="http://www.w3.org/2000/svg" version="1.1" viewBox="0 0 350 110">
  <!-- Generator: Adobe Illustrator 29.1.0, SVG Export Plug-In . SVG Version: 2.1.0 Build 142)  -->
  <defs>
    <style>
      .st0 {
        fill: #fff;
      }

      .st1 {
        fill: #a8a8a8;
      }
    </style>
  </defs>
  <g>
    <path class="st0" d="M157.90001,4.49813v9.6h-20.7v13.7h19.5v9.6h-19.5v25.2h-11.7V4.49813h32.39999Z"/>
    <path class="st0" d="M162.3,30.69813c.60001-2.8,1.5-5.3,2.89999-7.2,1.39999-2,3.10001-3.4,5.3-4.4s4.89999-1.5,8.10001-1.5,6.2.4,8.39999,1.4,4,2.4,5.3,4.3c1.3,2,2.2,4.4,2.8,7.2s.8,6.3.8,10.1-.3,7.1-.89999,9.9c-.60001,2.8-1.5,5.3-2.89999,7.2-1.39999,2-3.10001,3.3-5.3,4.2s-4.89999,1.4-8.10001,1.4-6.2-.3-8.39999-1.2-4-2.3-5.3-4.2c-1.3-2-2.2-4.3-2.8-7.2s-.8-6.3-.8-10.1.3-7.1.89999-9.9h0ZM172.7,46.79813c0,1.9.39999,3.5.8,4.9.39999,1.4,1,2.4,1.8,3.2s1.89999,1.1,3.3,1.1c2.3,0,3.8-1.2,4.7-3.6s1.3-6.3,1.3-11.8-.39999-9.4-1.3-11.8-2.39999-3.6-4.7-3.6-2.39999.4-3.3,1.1-1.5,1.8-1.8,3.2c-.39999,1.4-.7,3-.8,4.9,0,1.9-.2,4-.2,6.2s0,4.3.2,6.2Z"/>
    <path class="st0" d="M210.90001,18.79813v5.9h.2c1.10001-2.1,2.5-3.8,4.10001-5s3.60001-2,5.89999-2,.7,0,1,0,.7,0,1,.2v10.7c-.60001,0-1.2,0-1.8-.2h-1.8c-1,0-2,.2-2.89999.4-1,.2-1.89999.7-2.7,1.4s-1.5,1.5-2,2.4c-.5,1-.7,2.3-.7,3.7v26.2h-11.2V18.79814s10.89999,0,10.89999,0Z"/>
    <path class="st0" d="M238.00002,18.79813v4.5h.20001c1.39999-2,3-3.4,4.70001-4.3,1.79999-.9,3.89999-1.3,6.29999-1.3s4.79999.6,6.60001,1.8,2.89999,2.9,3.5,5.2h.20001c.89999-2.4,2.29999-4.1,4.10001-5.3,2-1.1,4.20001-1.8,6.89999-1.8s6.5,1.1,8.29999,3.4c1.79999,2.3,2.60001,5.5,2.60001,9.8v31.8h-11.20001v-30.6c0-1.9-.29999-3.3-1-4.2-.70001-1-1.79999-1.5-3.39999-1.5s-3.29999.6-4.20001,1.8c-1.10001,1.2-1.60001,3.1-1.60001,5.7v28.8h-11.20001v-30.6c0-1.9-.29999-3.3-1-4.2-.70001-1-1.79999-1.5-3.39999-1.5s-3.20001.6-4.20001,1.8c-1.10001,1.2-1.5,3.1-1.5,5.7v28.8h-11.20001V18.89814h10.70001s-.19998-.1-.19998-.1Z"/>
    <path class="st0" d="M288.8,31.19813c0-2.5.39999-4.7,1.20001-6.4s1.89999-3.1,3.29999-4.1,3-1.8,4.89999-2.3,3.89999-.7,6-.7c3.29999,0,6.10001.3,8.10001,1s3.70001,1.5,4.79999,2.8,2,2.6,2.39999,4.2.70001,3.4.70001,5.4v23c0,2,0,3.7.20001,4.8.20001,1.1.60001,2.4,1.10001,3.7h-10.70001c-.39999-.7-.70001-1.5-.89999-2.3-.20001-.8-.29999-1.5-.5-2.3h-.20001c-1.29999,2.3-2.79999,3.7-4.5,4.4-1.70001.7-3.89999,1-6.70001,1s-3.60001-.3-5-1-2.39999-1.6-3.29999-2.8c-.79999-1.2-1.39999-2.5-1.79999-4.1-.39999-1.5-.60001-3-.60001-4.5s.20001-3.8.70001-5.3,1.10001-2.8,2-3.8,2-2,3.39999-2.6c1.39999-.7,3.10001-1.3,5-1.9l6.29999-1.7c1.70001-.4,2.79999-1.1,3.5-1.8s1-1.9,1-3.3-.39999-3-1.20001-3.9c-.79999-1-2.10001-1.5-4.10001-1.5s-3,.5-3.89999,1.5c-.89999,1.1-1.29999,2.4-1.29999,4.1v1.2h-10.10001v-1.1.2h0s.20001.10001.20001.10001ZM306.8,42.09813c-.89999.3-1.60001.7-2.39999.8-2.29999.5-3.89999,1.3-4.89999,2.4s-1.5,2.7-1.5,4.6.29999,3.1,1,4.3c.70001,1.2,1.70001,1.8,3.29999,1.8s1.5-.2,2.39999-.4,1.5-.7,2.29999-1.2c.70001-.6,1.20001-1.2,1.70001-2.1.39999-.9.70001-1.9.70001-3.1v-8.6c-.70001.6-1.5,1.1-2.39999,1.5h-.20001Z"/>
    <path class="st0" d="M339.59999,4.49813v58h-11.20001V4.49813h11.20001Z"/>
    <path class="st0" d="M122,79.29813h2.3l7,22.3,6.89999-22.3h2.3l-8,25.2h-2.39999l-8-25.2s-.10001,0-.10001,0Z"/>
    <path class="st0" d="M144.5,104.49813v-25.2h2.2v25.2s-2.2,0-2.2,0Z"/>
    <path class="st0" d="M154.8,82.49813h0v21.9h-2.2v-25.2h2.39999l13.39999,21.9h0v-21.9h2.2v25.2h-2.5l-13.3-21.9h.00002Z"/>
    <path class="st0" d="M175.8,104.49813v-25.2h9.8c.7,0,1.2,0,1.89999.2.60001.2,1.2.3,1.8.6.60001.2,1.10001.6,1.60001,1,.7.6,1.39999,1.4,1.89999,2.2.5.9.89999,1.8,1.10001,2.8.3,1,.5,2,.7,2.9,0,1,.2,1.9.2,2.8s0,1.7-.2,2.5c0,.9-.2,1.7-.5,2.5s-.5,1.6-.8,2.4-.8,1.5-1.3,2.1c-.60001.7-1.10001,1.1-1.8,1.5s-1.3.7-2,.9c-.7.2-1.39999.4-2.2.5-.7,0-1.5.2-2.3.2h-7.89999v.2h0v-.09999ZM178,102.49813h5.2c1,0,2,0,2.8-.2.89999-.2,1.8-.5,2.7-1,.7-.4,1.39999-1,1.89999-1.7s.89999-1.5,1.10001-2.4c.3-.8.5-1.7.7-2.7s.2-1.8.2-2.7,0-1.9-.2-2.8c0-1-.3-1.9-.7-2.7-.3-.8-.7-1.6-1.2-2.4s-1.2-1.3-2-1.8c-.7-.4-1.5-.7-2.39999-.7s-1.89999-.2-2.8-.2h-5.2v21.1h0l-.10001.19999Z"/>
    <path class="st0" d="M199.8,104.49813v-25.2h2.2v25.2s-2.2,0-2.2,0Z"/>
    <path class="st0" d="M224.40001,86.69814c-.5-2.1-1.3-3.7-2.5-4.6s-2.8-1.4-4.8-1.4-2.60001.3-3.60001.9-1.89999,1.4-2.5,2.4-1.10001,2.2-1.5,3.6c-.3,1.3-.5,2.8-.5,4.2s.2,2.8.39999,4.1.7,2.5,1.3,3.7c.7,1.1,1.5,2,2.5,2.6s2.39999,1,4,1,1.89999-.2,2.7-.5,1.5-.8,2.10001-1.5c.7-.7,1.10001-1.4,1.5-2.2s.7-1.8,1-2.8h2.3c-.2,1.2-.7,2.4-1.10001,3.4s-1.10001,2-2,2.8-1.8,1.5-2.89999,2-2.5.7-4.10001.7-3.3-.3-4.60001-1.1c-1.3-.7-2.3-1.7-3.10001-2.8-.8-1.2-1.39999-2.6-1.8-4.2-.3-1.6-.60001-3.3-.60001-5.1s.2-4.5.8-6.1c.60001-1.7,1.3-3,2.3-4.1s2.10001-1.8,3.39999-2.3c1.3-.5,2.8-.7,4.3-.7s2.3.2,3.3.5,2,.8,2.7,1.5c.8.7,1.5,1.5,2,2.5s.8,2.1,1.10001,3.4h-2.3l.20003.1Z"/>
    <path class="st0" d="M229.09999,104.49813l9.10001-25.2h2.39999l8.89999,25.2h-2.29999l-2.70001-7.9h-10.60001l-2.79999,7.9h-2.29999s.29999,0,.29999,0ZM234.8,94.49813h9.10001l-4.60001-13.2-4.60001,13.2h.10001Z"/>
    <path class="st0" d="M250.59999,79.29813h16.79999v2h-7.29999v23.2h-2.20001v-23.2h-7.29999v-2.00001Z"/>
    <path class="st0" d="M271.3,104.49813v-25.2h2.20001v25.2s-2.20001,0-2.20001,0Z"/>
    <path class="st0" d="M278.50002,91.89813c0-1.9.20001-3.6.70001-5.2s1.10001-3,2-4.2,2-2.1,3.29999-2.8,2.79999-1.1,4.60001-1.1,3.39999.3,4.70001,1.1c1.39999.7,2.5,1.6,3.39999,2.8s1.60001,2.6,2,4.2c.5,1.6.70001,3.3.70001,5.2s-.20001,3.5-.70001,5.1-1.10001,3-2,4.2-2,2.1-3.39999,2.8c-1.39999.7-2.89999,1.1-4.70001,1.1s-3.29999-.3-4.70001-1.1c-1.39999-.7-2.39999-1.6-3.39999-2.8-.89999-1.2-1.5-2.6-2-4.2s-.70001-3.3-.70001-5.1h.20001ZM289.40001,103.19814c1.5,0,2.79999-.3,3.89999-.9,1.10001-.7,2-1.5,2.70001-2.4.70001-1.1,1.20001-2.2,1.5-3.6s.5-2.8.5-4.2-.20001-3.3-.60001-4.7c-.39999-1.4-1-2.6-1.70001-3.6s-1.60001-1.7-2.79999-2.3c-1.10001-.5-2.29999-.7-3.60001-.7s-2.79999.3-3.79999,1-2,1.5-2.70001,2.5c-.70001,1.1-1.20001,2.2-1.5,3.6s-.5,2.8-.5,4.2.20001,2.9.5,4.2c.29999,1.4.79999,2.5,1.5,3.6s1.60001,1.9,2.70001,2.4,2.39999.9,3.89999.9h0Z"/>
    <path class="st0" d="M306.7,82.49813h0v21.9h-2.20001v-25.2h2.39999l13.39999,21.9h0v-21.9h2.20001v25.2h-2.5l-13.29999-21.9Z"/>
    <path class="st0" d="M328.59999,96.99813c0,1.1.29999,2,.70001,2.8.39999.8.89999,1.4,1.5,1.9s1.29999.8,2,1.1,1.60001.3,2.39999.3,2-.2,2.70001-.4,1.39999-.7,1.89999-1.1c.5-.5.79999-1.1,1.10001-1.6.20001-.7.29999-1.3.29999-2s-.20001-1.8-.70001-2.4c-.39999-.6-1-1.1-1.60001-1.5-.70001-.4-1.39999-.7-2.29999-.9-.79999-.2-1.70001-.5-2.60001-.7s-1.79999-.5-2.60001-.8-1.60001-.7-2.29999-1.2-1.20001-1.1-1.60001-2-.70001-1.8-.70001-3.1.20001-1.7.5-2.5.79999-1.5,1.5-2.2,1.5-1.1,2.39999-1.5c1-.4,2.10001-.6,3.39999-.6s2.39999.2,3.39999.6,1.79999,1,2.39999,1.6,1.10001,1.5,1.5,2.4.5,1.9.5,2.9h-2.10001c0-1-.20001-1.8-.5-2.5s-.70001-1.3-1.29999-1.7-1.10001-.7-1.89999-1c-.70001-.2-1.39999-.3-2.10001-.3-1.10001,0-2,.2-2.79999.5s-1.39999.8-1.79999,1.3c-.5.6-.70001,1.1-.89999,1.8-.20001.7-.20001,1.3,0,2,.20001.8.39999,1.5.89999,2s1.10001.9,1.70001,1.2c.70001.3,1.5.6,2.29999.7.79999.2,1.60001.4,2.5.7s1.70001.5,2.5.8,1.5.7,2.10001,1.2c.70001.5,1.10001,1.1,1.5,2,.39999.8.60001,1.8.60001,3,0,2.4-.70001,4.1-2.20001,5.4s-3.60001,2-6.29999,2-2.29999-.2-3.29999-.5-2-.8-2.70001-1.5-1.29999-1.5-1.79999-2.5c-.39999-1-.70001-2.2-.70001-3.6h2.5v-.10001Z"/>
  </g>
  <g>
    <path class="st0" d="M66.95296,44.19839l-3.37,16.77002h.08002l3.57996-16.77002s-.28998,0-.28998,0ZM45.70296,3.5284l3.21002,16.77997h16.88l3.58997-16.77997h-23.67999Z"/>
    <polygon class="st0" points="66.95296 44.19839 63.58297 60.96842 33.12294 60.96842 33.12294 105.04836 12.64296 105.04836 12.64296 3.5284 23.81295 3.5284 33.12294 44.07839 33.12294 44.19839 66.95296 44.19839"/>
    <path class="st1" d="M45.69296,3.48837h-21.89001l.01001.04004h21.89001l-.01001-.04004ZM75.08297,3.72836l-8.13,40.47003-3.37,16.77002-3.53003,17.58997-3.35999-17.58997h-19.69l10.10999,44.03998h26.31L96.73299,3.48837s-21.65002.23999-21.65002.23999Z"/>
    <polygon class="st1" points="53.48299 44.19839 33.15297 44.19839 33.12294 44.07839 23.81295 3.5284 45.70296 3.5284 48.91299 20.30837 53.48299 44.19839"/>
  </g>
</svg>