<?xml version="1.0" encoding="UTF-8"?>
<svg id="Calque_1" xmlns="http://www.w3.org/2000/svg" version="1.1" viewBox="0 0 1200 407.74683">
  <!-- Generator: Adobe Illustrator 29.1.0, SVG Export Plug-In . SVG Version: 2.1.0 Build 142)  -->
  <defs>
    <style>
      .st0 {
        fill: #fff;
      }
    </style>
  </defs>
  <path class="st0" d="M515.00322,214.06603c0,55.8625-43.70135,97.02665-97.33286,97.02665s-97.33286-41.16414-97.33286-97.02665c0-56.25621,43.70135-97.02665,97.33286-97.02665s97.33286,40.77044,97.33286,97.02665ZM472.3955,214.06603c0-34.90859-25.32842-58.79342-54.72514-58.79342s-54.72514,23.88482-54.72514,58.79342c0,34.55864,25.32842,58.79342,54.72514,58.79342s54.72514-24.27853,54.72514-58.79342Z"/>
  <path class="st0" d="M724.97973,214.06603c0,55.8625-43.70138,97.02665-97.33286,97.02665s-97.33286-41.16414-97.33286-97.02665c0-56.21245,43.70138-97.02665,97.33286-97.02665s97.33286,40.77044,97.33286,97.02665ZM682.37197,214.06603c0-34.90859-25.32839-58.79342-54.7251-58.79342s-54.7251,23.88482-54.7251,58.79342c0,34.55864,25.32839,58.79342,54.7251,58.79342s54.7251-24.27853,54.7251-58.79342Z"/>
  <path class="st0" d="M926.20722,122.90124v174.19302c0,71.65447-42.25779,100.91996-92.21469,100.91996-47.02599,0-75.32908-31.45274-86.00289-57.17485l37.09583-15.44202c6.60549,15.79199,22.79123,34.42741,48.86328,34.42741,31.97766,0,51.79419-19.72905,51.79419-56.86864v-13.95468h-1.48732c-9.5364,11.76743-27.9094,22.04752-51.09425,22.04752-48.51331,0-92.95835-42.25777-92.95835-96.63294,0-54.76887,44.44504-97.37661,92.95835-97.37661,23.14113,0,41.51413,10.2801,51.09425,21.69758h1.48732v-15.79199h40.46422l.00007-.04376ZM888.76142,214.416c0-34.16493-22.79123-59.14339-51.79419-59.14339-29.39672,0-54.02523,24.97845-54.02523,59.14339,0,33.81496,24.62852,58.44346,54.02523,58.44346,29.00303,0,51.79419-24.6285,51.79419-58.44346Z"/>
  <path class="st0" d="M992.9185,20.80016v284.34318h-41.55785V20.80015h41.55785Z"/>
  <path class="st0" d="M1154.8629,245.99995l33.07129,22.04754c-10.67382,15.79199-36.39596,43.00143-80.84094,43.00143-55.11886,0-96.28295-42.60772-96.28295-97.02665,0-57.69979,41.51413-97.02665,91.51475-97.02665,50.35059,0,74.97911,40.07052,83.02819,61.72435l4.4183,11.02377-129.70421,53.71898c9.93016,19.46658,25.37217,29.39672,47.02599,29.39672,21.6976,0,36.74586-10.6738,47.76971-26.85949h-.00013ZM1053.06802,211.09136l86.70276-36.00222c-4.7682-12.1174-19.11659-20.5602-36.0022-20.5602-21.65381,0-51.79419,19.11661-50.70056,56.56242Z"/>
  <path class="st0" d="M163.0301,188.8251v-41.16414h138.71573c1.35609,7.17419,2.05603,15.66076,2.05603,24.84722,0,30.88405-8.44281,69.07353-35.65227,96.28299-26.46579,27.55943-60.28075,42.25779-105.07575,42.25779-83.0282-.00003-152.84539-67.62996-152.84539-150.65817S80.04564,9.73265,163.07384,9.73265c45.93236,0,78.6537,18.02298,103.23846,41.5141l-29.04675,29.04675c-17.62927-16.53565-41.5141-29.39671-74.23545-29.39671-60.63072,0-108.05041,48.86328-108.05041,109.49401s47.4197,109.49399,108.05041,109.49399c39.32684,0,61.72435-15.79199,76.07274-30.14038,11.6362-11.6362,19.29159-28.25933,22.31-50.96305l-98.38273.04374Z"/>
</svg>