<?xml version="1.0" encoding="UTF-8"?>
<svg id="_图层_1" data-name="图层_1" xmlns="http://www.w3.org/2000/svg" version="1.1" viewBox="0 0 651.9685 178.58268">
  <!-- Generator: Adobe Illustrator 29.1.0, SVG Export Plug-In . SVG Version: 2.1.0 Build 142)  -->
  <defs>
    <style>
      .st0 {
        fill: #fff;
      }

      .st1 {
        fill: #9d9d9c;
      }
    </style>
  </defs>
  <path class="st0" d="M351.18187,14.23679v32.52064h-7.78602l.51184-23.17474.08515-3.26552-.28018,1.14528c-.41423,1.85252-.46294,2.07117-.82865,3.46037l-6.12872,21.83462h-6.99399l-5.89724-20.92063-1.42565-5.80001c.13405,2.58356.13405,3.13166.2681,6.21424l.41423,20.50639h-7.87117V14.23679h11.87982l4.98362,18.24038,1.14528,5.20283c.46294-2.25411.51184-2.4854.87736-4.00847l5.20283-19.43474h11.84338Z"/>
  <path class="st0" d="M357.40318,29.53143c.13405-1.66957.36571-3.64332,2.53448-5.34933,2.2054-1.75435,5.06878-2.12025,7.87117-2.12025,2.94871,0,10.08884.6946,10.08884,6.90884v14.01253c0,2.57092.14613,2.94871.6946,3.77718h-6.95737v-2.21767c-1.79117,1.34012-3.82608,2.86319-7.37179,2.86319-5.51964,0-7.88344-3.97203-7.88344-7.32307,0-3.8746,3.09503-6.09227,5.08105-6.9081,1.92522-.84111,6.49442-1.66957,9.47958-2.21767v-1.29178c-.08534-1.10884-.18276-2.94871-2.71724-2.94871-3.13129,0-3.54571,1.9373-3.72847,2.81485h-7.09142ZM366.38337,36.75634c-1.19417.46332-3.04614,1.14602-3.04614,2.9978,0,1.14528,1.01123,2.44896,2.68043,2.44896.86509,0,1.70583-.32871,2.43706-.79203,2.35153-1.47399,2.43687-3.69166,2.48558-6.1778l-4.55694,1.52307Z"/>
  <path class="st0" d="M385.59482,38.64605c1.92503,1.88896,4.33755,3.31461,7.00608,3.31461,1.69356,0,4.28884-.5481,4.28884-2.33964,0-.84037-.51166-1.15718-.92589-1.38921-1.06012-.5481-2.71724-.68196-4.10626-.92589-1.06012-.18295-2.15669-.40159-3.2289-.7184-1.47436-.42688-2.93644-1.02406-3.99657-2.08381-1.07221-1.05975-1.80325-2.71743-1.80325-4.50822,0-3.97203,3.39939-8.06602,10.13755-8.06602,5.66577,0,9.07743,2.43631,10.73455,3.58233l-4.37417,4.05681c-2.26638-1.75435-4.38645-2.38798-6.04356-2.38798-2.76595,0-3.39957,1.09694-3.39957,1.79154,0,1.38846,1.51098,1.65693,3.81381,2.08306,4.8373.86565,10.46645,2.15669,10.46645,7.87117,0,5.66614-5.71448,8.43191-11.38025,8.43191-6.67718,0-10.13755-3.22908-11.66062-4.65473l4.47178-4.05755Z"/>
  <path class="st0" d="M409.59598,38.64605c1.9373,1.88896,4.33755,3.31461,7.00608,3.31461,1.70583,0,4.28884-.5481,4.28884-2.33964,0-.84037-.51166-1.15718-.92589-1.38921-1.06012-.5481-2.71724-.68196-4.10626-.92589-1.06012-.18295-2.15669-.40159-3.21663-.7184-1.47436-.42688-2.94871-1.02406-4.00884-2.08381-1.05994-1.05975-1.80325-2.71743-1.80325-4.50822,0-3.97203,3.41166-8.06602,10.13755-8.06602,5.66577,0,9.07743,2.43631,10.73455,3.58233l-4.37417,4.05681c-2.2543-1.75435-4.37436-2.38798-6.03148-2.38798-2.76577,0-3.41166,1.09694-3.41166,1.79154,0,1.38846,1.51098,1.65693,3.82589,2.08306,4.8373.86565,10.45436,2.15669,10.45436,7.87117,0,5.66614-5.71448,8.43191-11.38025,8.43191-6.67718,0-10.12547-3.22908-11.64854-4.65473l4.4597-4.05755Z"/>
  <path class="st0" d="M432.26743,29.53143c.13405-1.66957.36571-3.64332,2.53448-5.34933,2.2054-1.75435,5.06878-2.12025,7.87117-2.12025,2.94871,0,10.08884.6946,10.08884,6.90884v14.01253c0,2.57092.13405,2.94871.6946,3.77718h-6.95737v-2.21767c-1.79117,1.34012-3.82608,2.86319-7.37179,2.86319-5.53172,0-7.88344-3.97203-7.88344-7.32307,0-3.8746,3.09503-6.09227,5.06878-6.9081,1.93749-.84111,6.50669-1.66957,9.50412-2.21767v-1.29178c-.09761-1.10884-.19503-2.94871-2.72951-2.94871-3.13129,0-3.54571,1.9373-3.72847,2.81485h-7.09142ZM441.24762,36.75634c-1.19417.46332-3.04614,1.14602-3.04614,2.9978,0,1.14528,1.0235,2.44896,2.68043,2.44896.86509,0,1.70583-.32871,2.43706-.79203,2.35153-1.47399,2.44896-3.69166,2.49785-6.1778l-4.56921,1.52307Z"/>
  <path class="st0" d="M480.22364,41.09278c-.87736,1.37731-1.83988,2.90037-3.77737,4.27694-1.83988,1.29178-4.19141,2.16933-6.90866,2.16933-4.61792,0-11.94081-2.76651-11.94081-12.57498,0-7.00552,4.05755-12.90295,12.07486-12.90295,2.66853,0,7.22547.73104,10.2716,5.76282l-5.25154,2.98516c-.41423-.86491-.87718-1.69337-2.02264-2.52184-.69442-.46332-1.57178-.84111-2.68062-.84111-3.81381,0-5.10522,4.387-5.10522,7.28663,0,3.18,1.57178,7.18921,5.33669,7.18921.36571,0,2.12025,0,3.59461-1.66957.60908-.6827.82847-1.2308,1.07221-1.9254l5.33688,2.76577Z"/>
  <path class="st0" d="M488.43356,14.18027v11.05192c1.01123-.99951,3.09485-3.1681,6.90847-3.1681,1.75473,0,3.69203.49976,5.11767,1.70602,2.12006,1.7908,2.48558,4.04491,2.48558,7.17657v15.81522h-7.05479v-12.58614c0-1.9254-.03663-2.85129-.31681-3.67976-.68233-2.16933-2.58319-2.40062-3.31424-2.40062-1.24288,0-2.30282.59718-2.9,1.38921-.92589,1.2308-.92589,3.21644-.92589,5.28761v11.9897h-7.09142V14.18027h7.09142Z"/>
  <path class="st0" d="M523.54092,22.70366h7.09123v24.05303h-7.09123v-2.3032c-.6946.78013-1.10884,1.2427-2.40043,1.88822-1.42565.74369-2.98516,1.10884-4.55712,1.10884-1.57178,0-4.4716-.23129-6.12872-2.53374-1.24288-1.7551-1.47436-3.18074-1.47436-7.09179v-15.12136h7.14013v14.93842c0,1.04785,0,2.10835.54828,2.85129.41423.5481,1.38902,1.19436,2.81467,1.19436.41423,0,1.38902,0,2.44914-.59718,1.5108-.92589,1.55951-2.12025,1.60841-3.41203v-14.97486Z"/>
  <path class="st0" d="M538.23299,38.64605c1.9373,1.88896,4.33755,3.31461,7.00608,3.31461,1.70583,0,4.27675-.5481,4.27675-2.33964,0-.84037-.49957-1.15718-.9138-1.38921-1.06012-.5481-2.71724-.68196-4.09399-.92589-1.07239-.18295-2.16896-.40159-3.2289-.7184-1.47436-.42688-2.94871-1.02406-4.00884-2.08381-1.05994-1.05975-1.80325-2.71743-1.80325-4.50822,0-3.97203,3.41166-8.06602,10.13755-8.06602,5.67804,0,9.07743,2.43631,10.73455,3.58233l-4.37417,4.05681c-2.26638-1.75435-4.37436-2.38798-6.03148-2.38798-2.76577,0-3.41166,1.09694-3.41166,1.79154,0,1.38846,1.51098,1.65693,3.82589,2.08306,4.8373.86565,10.45436,2.15669,10.45436,7.87117,0,5.66614-5.71448,8.43191-11.38025,8.43191-6.67718,0-10.13755-3.22908-11.66062-4.65473l4.47178-4.05755Z"/>
  <path class="st0" d="M583.48274,40.62648c-.84074,1.2427-1.66939,2.43706-2.91209,3.59423-2.07135,1.9373-5.20283,3.41203-9.06534,3.41203-7.1524,0-12.17246-4.56921-12.17246-12.44038,0-5.80001,2.86338-13.25694,12.34295-13.25694,1.43792,0,5.58062.12196,8.66338,3.44773,3.14356,3.35105,3.32632,8.05412,3.41166,10.77155h-17.18026c-.04871,2.99705,1.65712,5.99485,5.48301,5.99485,3.86252,0,5.20283-2.53448,6.08019-4.2405l5.34896,2.71743ZM576.42795,31.73126c-.13405-1.01067-.31681-2.33889-1.34031-3.41129-.87736-.86491-2.2054-1.32822-3.44829-1.32822-1.70583,0-2.9.82847-3.59442,1.57215-.9627,1.05975-1.19417,2.15669-1.42565,3.16736h9.80866Z"/>
  <path class="st0" d="M588.72833,15.75019h7.05479v7.50602h4.65454v4.33792h-4.70326v10.81989c-.04871,1.47399-.04871,2.71668,1.83988,2.71668l2.5343-.08478v5.51964c-1.52307.23129-2.43687.37779-3.72847.37779-2.44914,0-5.11749-.14651-6.64056-2.35228-.96252-1.42565-1.01123-3.13092-1.01123-5.44601v-11.60001h-3.50927v-4.33718h3.50927v-7.45768Z"/>
  <path class="st0" d="M603.19377,15.75019h7.05479v7.50602h4.64227v4.33792h-4.70326v10.81989c-.03644,1.47399-.03644,2.71668,1.85215,2.71668l2.5343-.08478v5.51964c-1.52307.23129-2.43687.37779-3.72847.37779-2.44914,0-5.11749-.14651-6.64056-2.35228-.96252-1.42565-1.01123-3.13092-1.01123-5.44601v-11.60001h-3.497v-4.33718h3.497v-7.45768Z"/>
  <path class="st0" d="M619.87557,38.64605c1.9373,1.88896,4.32546,3.31461,7.00608,3.31461,1.69356,0,4.27675-.5481,4.27675-2.33964,0-.84037-.51184-1.15718-.92607-1.38921-1.06012-.5481-2.70497-.68196-4.09399-.92589-1.06012-.18295-2.16877-.40159-3.2289-.7184-1.47436-.42688-2.94871-1.02406-3.99657-2.08381-1.07221-1.05975-1.80325-2.71743-1.80325-4.50822,0-3.97203,3.41166-8.06602,10.13755-8.06602,5.66577,0,9.07743,2.43631,10.73455,3.58233l-4.38645,4.05681c-2.25411-1.75435-4.37417-2.38798-6.03129-2.38798-2.76595,0-3.41166,1.09694-3.41166,1.79154,0,1.38846,1.52307,1.65693,3.82589,2.08306,4.8373.86565,10.46645,2.15669,10.46645,7.87117,0,5.66614-5.72675,8.43191-11.38025,8.43191-6.68945,0-10.13755-3.22908-11.66062-4.65473l4.47178-4.05755Z"/>
  <rect class="st0" x="315.2083" y="69.51347" width="8.10264" height="32.53254"/>
  <path class="st0" d="M336.9005,80.16082c.69442-.73104,1.14528-1.29104,2.40025-1.88822,1.09656-.46332,2.66834-.87755,4.36209-.87755,1.43773,0,3.04614.28037,4.28902.97497,2.5343,1.32822,3.18019,3.49681,3.18019,7.22565v16.44884h-7.04271v-13.54921c0-2.16859-.04871-2.94871-.32908-3.59423-.54828-1.29178-1.79117-1.83988-3.18019-1.83988-3.72847,0-3.72847,2.99705-3.72847,5.98221v13.00112h-7.09142v-24.0032h7.14031v2.1195Z"/>
  <path class="st0" d="M358.73753,93.93537c1.9373,1.87706,4.32546,3.31461,7.00608,3.31461,1.69356,0,4.28884-.5481,4.28884-2.35153,0-.82847-.52393-1.15792-.93816-1.37731-1.06012-.5481-2.71706-.69386-4.09399-.92589-1.06012-.18295-2.16877-.41423-3.21663-.73104-1.48663-.41423-2.96099-1.02331-4.00884-2.08306-1.05994-1.04785-1.80325-2.71743-1.80325-4.50897,0-3.95938,3.41166-8.06602,10.13755-8.06602,5.66577,0,9.07743,2.44896,10.73455,3.59498l-4.37417,4.05681c-2.26638-1.75435-4.38645-2.39987-6.04356-2.39987-2.76595,0-3.41166,1.10884-3.41166,1.80344,0,1.37656,1.52307,1.65693,3.82589,2.05852,4.8373.89019,10.45436,2.16933,10.45436,7.88381,0,5.67804-5.7024,8.43191-11.36817,8.43191-6.68945,0-10.13755-3.21718-11.66062-4.64283l4.47178-4.05755Z"/>
  <path class="st0" d="M382.36945,71.03729h7.05479v7.50602h4.64227v4.33792h-4.69098v10.81989c-.04871,1.47399-.04871,2.71668,1.83988,2.71668l2.5343-.08478v5.51964c-1.52307.24319-2.44914.37779-3.72847.37779-2.44914,0-5.11749-.13461-6.64056-2.35228-.96252-1.42565-1.01123-3.14356-1.01123-5.43411v-11.61191h-3.497v-4.32528h3.497v-7.46958Z"/>
  <path class="st0" d="M397.89259,69.46439h7.00608v5.4832h-7.00608v-5.4832ZM397.89259,77.94464h7.00608v24.10137h-7.00608v-24.10137Z"/>
  <path class="st0" d="M412.12897,71.03729h7.05479v7.50602h4.64227v4.33792h-4.69098v10.81989c-.04871,1.47399-.04871,2.71668,1.83988,2.71668l2.5343-.08478v5.51964c-1.5108.24319-2.43687.37779-3.72847.37779-2.44914,0-5.11749-.13461-6.64056-2.35228-.96252-1.42565-1.01123-3.14356-1.01123-5.43411v-11.61191h-3.497v-4.32528h3.497v-7.46958Z"/>
  <path class="st0" d="M441.9385,77.99372h7.09123v24.05303h-7.09123v-2.3032c-.6946.78013-1.10884,1.2427-2.40043,1.87632-1.42565.75558-2.98516,1.10884-4.55712,1.10884-1.57178,0-4.4716-.21939-6.12872-2.53448-1.24288-1.74246-1.47436-3.1681-1.47436-7.09104v-15.10947h7.14013v14.92652c0,1.05975,0,2.12025.54828,2.85129.4265.56,1.38902,1.21816,2.81467,1.21816.41423,0,1.38902,0,2.44914-.62098,1.5108-.91399,1.55951-2.10835,1.60841-3.40013v-14.97486Z"/>
  <path class="st0" d="M456.26636,71.03729h7.04252v7.50602h4.65454v4.33792h-4.69098v10.81989c-.04871,1.47399-.04871,2.71668,1.83988,2.71668l2.52221-.08478v5.51964c-1.51098.24319-2.43706.37779-3.71638.37779-2.44914,0-5.11749-.13461-6.64056-2.35228-.96252-1.42565-1.01123-3.14356-1.01123-5.43411v-11.61191h-3.50927v-4.32528h3.50927v-7.46958Z"/>
  <path class="st0" d="M494.17351,95.92771c-.82847,1.2308-1.65712,2.43706-2.89982,3.58233-2.07135,1.9373-5.20283,3.39939-9.07762,3.39939-7.14013,0-12.16019-4.54466-12.16019-12.42773,0-5.81265,2.86338-13.28149,12.35522-13.28149,1.42565,0,5.56835.14651,8.6632,3.46037,3.1192,3.37485,3.31424,8.06602,3.39957,10.78344h-17.18026c-.04871,2.99705,1.65712,5.99485,5.48301,5.99485,3.86252,0,5.20283-2.54638,6.08019-4.2405l5.33669,2.72933ZM487.13099,87.02058c-.13405-1.01067-.31681-2.35153-1.32822-3.41129-.88945-.87755-2.21749-1.32822-3.46037-1.32822-1.70583,0-2.9.82847-3.59442,1.55951-.9627,1.0605-1.19417,2.16933-1.42565,3.18h9.80866Z"/>
  <path class="st0" d="M535.23203,89.96409c0,6.09227-3.50927,12.76909-12.90351,12.76909-6.77461,0-12.95222-3.8746-12.95222-12.76909,0-7.37141,4.65454-13.2205,13.87829-12.70885,9.80847.56074,11.97743,8.33449,11.97743,12.70885M517.72288,85.22384c-.87736,1.38921-1.19417,3.04614-1.19417,4.70381,0,3.81362,1.83988,7.17657,5.79982,7.17657,3.82589,0,5.71448-3.08258,5.71448-6.84786,0-2.68024-.64571-4.75215-1.98601-6.04319-1.46209-1.38921-3.13148-1.42565-4.1427-1.34087-2.02264.14651-3.2289.82847-4.19141,2.35153"/>
  <path class="st0" d="M540.98928,75.59682c0-1.19362.09742-2.81411,1.01123-4.09399.87736-1.20626,2.86338-2.44896,6.17761-2.44896,1.42546,0,2.85111.23203,4.22804.41423v5.30025h-1.69374c-2.66834,0-2.81467.54884-2.76577,3.77718h4.7397v4.33792h-4.69098v19.16627h-7.05498v-19.16627h-3.77718v-4.33792h3.82608v-2.94871Z"/>
  <polygon class="st0" points="306.90691 124.75892 331.97042 124.75892 331.97042 131.20519 323.5387 131.20519 323.5387 157.31674 315.38734 157.31674 315.38734 131.20519 306.90691 131.20519 306.90691 124.75892"/>
  <path class="st0" d="M354.32785,151.19472c-.82865,1.25534-1.65712,2.4497-2.91209,3.59498-2.07135,1.9373-5.20283,3.41129-9.06534,3.41129-7.14013,0-12.17246-4.55656-12.17246-12.44038,0-5.8119,2.86338-13.25694,12.35522-13.25694,1.42565,0,5.56835.13461,8.65111,3.44847,3.14356,3.36295,3.32632,8.06602,3.41166,10.77155h-17.18026c-.04871,2.99705,1.65712,5.99411,5.48301,5.99411,3.87479,0,5.20283-2.53374,6.08019-4.22785l5.34896,2.70479ZM347.27306,142.31214c-.13405-1.02331-.32908-2.36343-1.32822-3.41129-.87736-.87755-2.21749-1.34012-3.46037-1.34012-1.70583,0-2.9.82847-3.59442,1.57141-.9627,1.0605-1.20626,2.15669-1.42565,3.18h9.80866Z"/>
  <path class="st0" d="M379.70966,151.65655c-.87736,1.38921-1.85215,2.90037-3.77737,4.28958-1.85196,1.29104-4.19141,2.16859-6.92074,2.16859-4.60583,0-11.92872-2.76577-11.92872-12.57424,0-7.01816,4.05755-12.90369,12.07486-12.90369,2.66853,0,7.23774.73104,10.2716,5.75092l-5.25154,2.9978c-.41423-.87755-.87718-1.70602-2.02264-2.53448-.69442-.46332-1.57178-.82847-2.66834-.82847-3.82608,0-5.11749,4.37436-5.11749,7.27399,0,3.19264,1.55951,7.20111,5.33669,7.20111.37779,0,2.12025,0,3.59461-1.66957.59699-.68196.82847-1.2427,1.05994-1.92466l5.34915,2.75313Z"/>
  <path class="st0" d="M387.91828,124.75892v11.05192c1.01123-1.01141,3.09485-3.18,6.90847-3.18,1.75473,0,3.69203.51166,5.11767,1.70527,2.12006,1.79154,2.48558,4.05755,2.48558,7.18921v15.79143h-7.04271v-12.56234c0-1.9373-.04871-2.86393-.3289-3.67976-.6946-2.16933-2.57092-2.41252-3.31424-2.41252-1.24288,0-2.30282.60908-2.91209,1.38846-.9138,1.24344-.9138,3.21718-.9138,5.30025v11.96591h-7.09142v-32.55782h7.09142Z"/>
  <path class="st0" d="M415.87938,135.44494c.69442-.73104,1.15736-1.29104,2.40025-1.88822,1.10884-.46332,2.66834-.87755,4.37436-.87755,1.42546,0,3.04614.26847,4.28884.96307,2.53448,1.34012,3.1681,3.50871,3.1681,7.23755v16.43694h-7.04271v-13.53731c0-2.15669-.04871-2.94871-.31681-3.59423-.56055-1.27914-1.80344-1.85178-3.18019-1.85178-3.72847,0-3.72847,3.00895-3.72847,5.99411v12.98922h-7.10369v-23.99131h7.14031v2.1195Z"/>
  <path class="st0" d="M460.66619,145.24747c0,6.09227-3.50927,12.76909-12.90351,12.76909-6.77461,0-12.93995-3.86196-12.93995-12.76909,0-7.35952,4.64227-13.2205,13.86602-12.70885,9.80847.54884,11.97743,8.34639,11.97743,12.70885M443.15703,140.50721c-.87736,1.37731-1.19417,3.04614-1.19417,4.70381,0,3.82552,1.83988,7.18847,5.79982,7.18847,3.82589,0,5.71448-3.09448,5.71448-6.85976,0-2.68024-.64571-4.75215-1.98601-6.04319-1.46209-1.37731-3.13148-1.42565-4.1427-1.34087-2.02264.14651-3.2289.82847-4.19141,2.35153"/>
  <rect class="st0" x="465.27313" y="124.79387" width="7.09142" height="32.52064"/>
  <path class="st0" d="M502.91368,145.24747c0,6.09227-3.50927,12.76909-12.90351,12.76909-6.77461,0-12.93995-3.86196-12.93995-12.76909,0-7.35952,4.65454-13.2205,13.85375-12.70885,9.82074.54884,11.9897,8.34639,11.9897,12.70885M485.40452,140.50721c-.86528,1.37731-1.20644,3.04614-1.20644,4.70381,0,3.82552,1.85215,7.18847,5.81209,7.18847,3.82589,0,5.71448-3.09448,5.71448-6.85976,0-2.68024-.64571-4.75215-1.98601-6.04319-1.47436-1.37731-3.13148-1.42565-4.1427-1.34087-2.02264.14651-3.2289.82847-4.19141,2.35153"/>
  <path class="st0" d="M522.12271,154.15459c-1.38921.91399-3.08276,2.02283-6.34829,2.02283-1.98601,0-3.92331-.51166-5.49509-1.55951-3.21681-2.08381-4.47178-5.8119-4.47178-9.95498,0-4.83693,2.26638-11.79486,10.23498-11.79486,3.67976,0,5.38559,1.60859,6.44571,2.6319v-2.27865h6.64056v23.13904c-.09761,2.61926-.18276,5.71448-3.69203,7.73731-2.43687,1.47399-6.03129,1.85178-8.20007,1.85178-4.80086,0-7.92007-1.66957-9.21166-3.0097-1.88859-1.87632-1.85196-4.32528-1.85196-5.61706h7.33516c.08515,1.07239.18276,2.58282,2.07135,3.46037.46294.23129,1.14528.46332,2.25411.46332,4.28902,0,4.28902-2.54712,4.28902-4.52087v-2.57092ZM513.14271,144.61385c0,2.02283.13386,6.21424,4.50822,6.21424,3.59442,0,4.42289-2.81411,4.42289-6.21424,0-1.14528-.08515-3.54515-.87718-4.70307-.54828-.87681-1.83988-1.83988-3.86252-1.75435-3.36295.14651-4.19141,3.04614-4.19141,6.45742"/>
  <path class="st0" d="M555.24276,133.27487l-8.46835,25.99033c-.56055,1.57141-1.06012,3.03349-2.26638,4.37362-1.65712,1.80344-3.27761,1.88896-5.11749,1.9373h-5.10522v-5.62896h2.48558c1.15755-.03644,2.94871-.03644,2.94871-1.74246,0-.60908-.18276-1.20626-.32908-1.70602l-7.17675-23.22382h7.55455l3.95994,17.22897,3.95994-17.22897h7.55455Z"/>
  <path class="st0" d="M211.26184,14.23159h79.49202v28.54861h-79.49202V14.23159ZM63.97504,14.23159h30.13248v97.52548h-30.13248V14.23159ZM113.13974,14.23159h30.13248v142.72968h-30.13248V14.23159ZM14.82261,14.23159h30.13248v142.72968H14.82261V14.23159ZM211.46896,59.42389h30.13248v97.53737h-30.13248V59.42389ZM162.09733,14.23159h30.32732v28.54861h-30.32732V14.23159Z"/>
  <rect class="st1" x="162.35315" y="59.29002" width="30.13248" height="97.53737"/>
</svg>