<?xml version="1.0" encoding="UTF-8"?>
<svg id="Calque_1" xmlns="http://www.w3.org/2000/svg" version="1.1" viewBox="0 0 1532.08301 300">
  <!-- Generator: Adobe Illustrator 29.1.0, SVG Export Plug-In . SVG Version: 2.1.0 Build 142)  -->
  <defs>
    <style>
      .st0 {
        fill: #fff;
      }
    </style>
  </defs>
  <g>
    <path class="st0" d="M150.007,0C67.288,0,0,67.29,0,149.995c0,82.71701,67.288,150.005,150.007,150.005,82.71001,0,150.007-67.28799,150.007-150.005C300.01401,67.29,232.716,0,150.007,0ZM150.007,295.81201c-80.404,0-145.81-65.41-145.81-145.817C4.19701,69.60101,69.603,4.19301,150.007,4.19301c80.394,0,145.81001,65.408,145.81001,145.802,0,80.40599-65.416,145.817-145.81,145.817h-.00002Z"/>
    <path class="st0" d="M238.02,138.532c-2.076-4.341-.653-7.188-1.27-10.362-.455-2.341-3.94-10.054-6.16-15.396-1.04601-2.514,5.37601-1.897.632-10.979-.136-.27,6.597-2.756-.136-7.861-3.76601-2.857-6.41499-6.371-8.493-9.533-.28999-.44-.565-1.31.04401-1.853,3.80701-3.383,3.886-8.252-.24699-10.742-2.983-1.796-6.407.026-9.55701,2.067-1.037.673-1.558,1.085-2.64301.644-.55-.224-1.61301-.973-2.569-1.63,3.886-3.756,4.64-7.462,4.33501-8.078-.207-.417-6.58701-1.849-14.48801,1.42-.173-.098-.358-.2-.55901-.307,3.254-5.629,1.42799-9.599,1.18401-9.873-.004-.004-.01199-.006-.017-.01,5.92101-8.268,11.8-13.77,17.61-19.052l.13-.142c.379-.384.519-.811-.20399-1.263-.61-.384-.78-.474-1.52499-.88-19.474-10.843-41.67-16.542-64.08-16.542-72.69702,0-131.83702,59.14999-131.83702,131.83499,0,42.118,21.371,82.741,56.294,107.97601,2.328,1.68201,3.94,2.323,3.94,2.323.58.20099,1.179.198,1.543-.28l.517-.67801c.332-.42801.462-.83701.462-1.21301,0-.96201-1.394-1.82501-3.027-4.24699-4.721-7.00301-6.808-14.965-6.808-21.636,0-7.29401,2.222-13.92999,6.49-19.466,5.262,5.48399,16.74,15.565,16.49,24.73599-.28,10.3-9.914,9.79199-7.836,17.51801,1.304,4.849,4.931,2.85101,5.557,6.52899,1.085,6.37,9.653,10.44299,13.385,9.883.904-.13501,1.674.61499,3.46,2.42899,2.55,2.58701,8.818,2.23599,11.6,1.728,2.645-.483,5.967,1.931,11.49599,1.32199,6.92101-.76401,8.68201-1.29901,11.63699-1.341,5-.07199,32.2-.478,51.537,2.55099,3.334.522,4.39-.98001,2.897-3.58099-7.008-12.20499-7.98-22.57001-3.94-35.62201,7.14301.48,17.41,2.412,30.92999-5.714,4.799-2.884,7.48-9.02901,7.24899-13.60699-.15401-2.97-1.453-6.73-.68401-9.62601,1.034-3.89,1.78999-3.798,2.912-4.58701,5.16299-3.632,1.435-6.513.64-6.806,1.56-.63499,3.27-4.02499,1.46899-6.55-.924-.98399-3.73601-8.886-.494-10.532,3.502-1.77699,7.494-2.53101,11.51801-4.298,2.763-1.155,4.97-4.37801,3.394-8.659-1.894-5.146-12.455-29.341-12.77699-30.015l-.00096.00008ZM92.47,255.91c-1.012.20001-4.25.32401-3.524-3.92999.448-2.62801,3.298-3.728,4.744-2.237-.308,2.03999-1.012,4.034-1.22,6.16699ZM216.75301,75.963c1.705-1.073,3.53999-1.53,4.62-.463,3.75,3.705-4.067,5.783-2.44,8.63,2.668,4.668,6.91499,9.135,10.66299,12.018,1.76199,1.355,2.017,4.408-4.715,5.802-6.776,1.403-33.75999,8.514-47.99901,23.598-17.826,18.887-29.15601,43.35-30.703,39.98701-1.558-3.388-5.129-3.936-4.57001-4.89799,25.593-44.101,65.705-78.736,75.144-84.674h.00003ZM228.48901,106.946c-1.47,4.205-13.092,7.94-12.541,4.986.248-1.333.02699-3.089.914-3.24,1.287-.22,4.96001-1.503,10.67-2.965.571-.146,1.321.177.957,1.22v-.00101ZM199.00801,114.582c-.295-1.72,12.2-5.921,12.634-4.678.802,2.295-2.58099,8.458-6.765,9.999-4.75,1.75-6.72701,1.23-6.547.552.33099-1.241.94901-4.292.67799-5.873ZM170.00801,179.73599c-5.745,3.522-8.862-3.21001-9.675-4.38499-.35201-.508-1.26601-1.98801-.76801-4.51801.39-1.992.722-4.7-.588-13.284-.576-3.77499,7.23399-13.13899,8.991-14.774,1.827-1.7,4.48.847,4.653,3.612.328,5.255-2.621,8.02-5.633,10.26199-3.696,2.75301-4.399,6.336-3.696,7.29401.274.37399,1.93201.384,2.661-1.16901,2.22701-4.74001,8.59-7.12601,9.606-9.60699,1.586-3.875.42599-6.36501.27-7.99699-.13499-1.424,1.257-1.784,2.30499-1.627,1.355.203,1.957,2.04201,2.64301,3.83,4.11301,10.71899-6.23801,17.198-7.90601,19.737-.769,1.17,1.604,9.88699-2.862,12.62601l-.00099-.00002ZM178.67502,138.164c-3.08,2.092-7.52-.743-6.633-2.00999,5.72-8.165,13.343-13.846,16.39301-15.744,4.90199-3.05,5.422-3.264,5.679-1.54.155,1.04.207,6.378-3.743,10.716-3.27499,3.59599-6.562,3.293-8.25,3.67101-1.14.256-1.073,3.295-3.446,4.907h-.00002ZM151.16101,174.76401c-1.41299-.31-1.94299-3.073-1.655-4.16499.63901-2.42599,4.366-7.44701,5.71001-9.207.336-.44,1.021-.034,1.095.495.814,5.828-.005,14.005-5.14999,12.87601l-.00002.00099ZM197.11902,68.854c5.164-2.322,10.161-2.361,10.69701-2.297,1.172.14-2.61,6.862-9.35001,9.756-6.94701,2.982-12.13499,3.523-12.726,3.232-.888-.44,5.88699-8.216,11.38-10.69l-.00101-.001ZM78.135,180.64301c-2.061-2.37199-3.975-3.672-4.173-3.534-.574.403-3.91,6.108-5.064,12.77299-6.504-12.433-10.105-25.00099-10.692-39.88701-1.994-50.576,40.364-91.302,92.051-91.122,11.791.041,21.48601,2.221,32.075,6.52-2.37,2.964-4.091,6.513-5.258,9.488-.054-2.742-.77299-4.87-.573-6.583.12399-1.054-7.32201,1.264-13.936,11.792-1.533,2.44-2.485,5.14-3.07899,7.63-.136-3.95-1.063-7.029-1.33501-6.954-.677.184-8.226,3.297-12.16,12.518-.66618,1.58273-1.18927,3.22195-1.563,4.898-.328-2.812-1.05299-4.663-1.283-4.653-.49699.02-8.407,3.273-12.304,12.746-.90601,2.204-1.386,4.456-1.612,6.548-.7-3.297-1.977-5.316-2.38-4.804-2.732,3.464-8.065,5-10.9,13.731-.665,2.05-.931,4.099-.964,6.01-1.176-2.955-2.826-4.657-3.207-4.577-.771.16-8.829,7.819-10.034,15.539-.475,3.045-.257,5.87399.215,8.246-1.54-2.487-3.588-4.31-4.418-6.845-1.266.677-8.09,7.092-8.31,15.30901-.085,3.19501.39,6.198,1.049,8.73-2.27-4.12-5.488-6.052-5.843-5.83501-.591.362-5.685,5.873-6.869,15.76601-.277,2.317.006,4.53799.567,6.55l.00002.00002ZM183.96201,66.825c4.06799-4.82,10.97299-8.7,11.748-8.223.79201.487-1.16,7.935-5.616,12.321-4.5,4.43-11.46001,8.742-12.27,8.69-.81-.053,2.479-8.45,6.138-12.788ZM170.77,85.44c-3.946,3.2-5.74001,5.325-8.045,9.075-.785,1.279-2.698-7.104,2.43201-15.15,3.14301-4.93,9.39999-9.35,9.265-8.763-.453,1.964,3.034,9.416-3.65199,14.838h-.00002ZM156.298,96.17c-4.83301,7.204-5.108,4.742-10.396,11.79-.28999.387-.394-9.197,1.492-13.417,2.97501-6.657,8.13499-10.57,8.90401-10.706.76801-.135,2.666,8.357,0,12.332l-.00002.001ZM140.478,110.58c-2.485,4.336-4.745,3.342-8.881,9.496-.457.68-1.55099-5.09.927-12.884,1.91-6.007,7.82201-9.744,8.452-9.893.94901-.226,2.45799,8.125-.49699,13.28l-.00101.001ZM125.744,125.848c-2.531,5.51099-4.158,5.69199-7.096,9.12499-.505.59-2.705-5.24001-.574-12.566,1.704-5.865,5.636-8.033,7.535-10.02.75-.786,2.82401,7.606.135,13.46v.00101ZM113.767,135.289c0,1.68201-.208,2.64-.689,4.285-1.8,6.20399-5.458,8.815-7.447,11.616-.796-1.834-2.262-4.436-2.272-8.37-.02-7.49699,4.548-13.88699,7.41-15.904,1.084-.045,2.998,4.51701,2.998,8.37299ZM101.563,153.584c-.135,8.71899-5.611,13.83-7.245,15.45-1.017-1.728-3.013-6.174-3.15-10.842-.263-8.987,3.453-12.177,5.062-13.91299.768,2.57401,5.407,4.61301,5.333,9.30501v-.00002ZM84.294,162.528c2.511,1.265,5.543,4.924,5.827,11.7.285,6.804-4.585,12.55701-6.49,13.46201-1.326-5.19501-3.84-6.286-3.793-11.44.051-5.636,2.908-11.825,4.45599-13.722ZM94.694,180.46201c6.54-2.84599,13.683-2.40601,13.983-2.13.299.278-2.088,8.32201-8.45,11.737-6.35,3.401-13.516,3.718-14.167,2.90601-.361-.452,2.093-9.66699,8.633-12.513h.00099ZM94.196,175.629c.407-2.16901,4.287-9.35699,10.122-11.955,5.844-2.606,12.613-2.41,13.38-2.09399.77.31599-2.429,7.98-8.316,10.79601-6.584,3.14999-9.22,1.31-15.186,3.25301v-.00002ZM104.004,158.77899c.27-.661,5.03-9.21201,10.622-11.83501,5.543-2.59801,12.242-2.047,12.7-1.897.458.149-2.547,7.70799-8.892,10.855-6.27,3.117-14.7,3.53799-14.43,2.877v.00002ZM116.75,141.70399c-.456-.347,6.296-9.18401,11.93201-11.78999,4.95599-2.292,11.435-1.80701,11.978-1.446.54201.36099-2.64,7.8-9.17599,10.66-6.231,2.73-14.278,2.922-14.734,2.576v-.00002ZM132.02701,124.80899c-.375-.185,4.783-8.974,10.576-11.203,5.535-2.125,11.017-.202,12.7-.09,1.356.09-1.89799,6.46-9.491,9.26-6.33099,2.335-12.814,2.512-13.785,2.033ZM149.173,108.53999c.101-.408,5.77-8.392,11.61-10.416,5.55701-1.92,12.356-.633,13.086-.327s-3.935,7.27-11.07401,9.414c-6.422,1.93-13.724,1.738-13.62199,1.33v-.001ZM166.489,94.46999c-.748-.523,6.095-8.177,11.66499-10.296,5.44701-2.07,11.33099-1.687,11.80499-1.418.474.27-3.56799,6.9-10.138,9.563-6.17999,2.503-12.58501,2.673-13.332,2.15l.00002.00099ZM71.732,250.48599c-30.89-24.604-49.374-61.75299-49.374-100.492,0-70.378,57.257-127.642,127.64999-127.642,20.53,0,41.132,5.142,59.20999,14.562.364.19.423.685.11501.954-5.314,4.64-12.687,13.738-14.54401,16.28-14.054-6.583-29.10001-9.944-44.782-9.944-58.335,0-105.803,47.457-105.803,105.79,0,26.03,8.823,49.77499,25.462,68.83-.958,2.215-2.657,7.062-2.657,13.478,0,5.30901.983,11.41701,4.723,18.18401h.00002ZM71.938,214.98799c-.023.02-.042.03999-.064.058-15.368-18.10201-23.473-40.526-23.473-65.052,0-56.025,45.576-101.599,101.606-101.599,14.783,0,28.98801,3.09,42.28,9.183-1.75101.814-3.763,2.007-5.84,3.708-11.694-4.954-23.47-7.278-36.44-7.278-52.93,0-95.998,43.06001-95.998,95.986,0,22.95599,7.162,43.12799,21.192,60.056-.813,1.233-1.954,2.965-3.263,4.938ZM76.997,207.01599c-1.86-1.76401-5.882-6.207-6.269-11.92999-.01872-.27794-.02806-.55644-.028-.83501-.016-6.153,2.705-12.209,3.383-12.88699.678-.677,7.623,4.72301,7.729,12.468.092,6.713-2.983,10.57001-4.815,13.18401v-.00002ZM88.456,196.72299c5.516-2.617,13.74-1.987,13.288-1.62601s-2.618,8.353-8.836,11.474c-6.202,3.11301-10.311,2.27699-12.542,1.85201,3.344-3.659,2.641-9.105,8.09-11.7ZM95.916,263.08099c-.935-3.76401-.562-8.95.722-10.347,2.476-1.207,7.003-1.67101,7.081-.22701.125,2.306-1.556,7.77499.42,14.595-.453,1.07401-6.63.60999-8.224-4.021h.001ZM96.326,247.293c-.486-2.83501,2.24-5.55701,2.183-11.743-.07-7.588-9.428-17.993-15.764-24.68001,2.972-.00101,6.868-.707,11.241-2.73199,9.43-4.368,11.284-14.396,11.555-14.80299.126-.189-2.106-.63-5.323-.674.347-.168.695-.342,1.047-.53101,9.227-4.94701,11.643-15.644,11.203-15.88-.175-.095-2.473-.45399-5.694-.37199.94-.31532,1.87103-.65678,2.792-1.024,9.76-3.88,12.49-14.743,12.142-15.093-.153-.15401-2.105-.54401-4.948-.62.864-.33501,1.749-.72,2.652-1.168,8.91499-4.42999,12.002-14.392,11.53999-14.722-.202-.14301-2.011-.494-4.647-.533,2.20799-.48512,4.36276-1.18686,6.433-2.095,9.55099-4.18401,12.63699-13.321,12.22301-13.71-.17599-.165-1.795-.612-4.228-.812,2.09969-.47782,4.17204-1.06868,6.20801-1.77,9.44701-3.227,13.263-12.255,12.702-12.307-1.276-.118-3.034-.738-5.31-1.135,2.573-.166,5.57201-.637,9.332-1.908,10.20399-3.448,13.82001-9.593,14.002-12.257.01199-.173-1.22-.712-3.20799-1.146,2.34-.426,4.687-1.003,6.62199-1.789,9.528-3.859,13.495-13.225,13.808-13.997,1.88969-.61525,3.74387-1.33469,5.554-2.155.993-.45,1.903-.926,2.741-1.419.74991.56225,1.5215,1.09499,2.313,1.597,1.44.925,1.95,1.143,1.237,1.75-32.429,27.628-56.72701,62.52-67.33,79.47799-.298.476-.85699.39101-1.757.332-11.359-.754-17.797,12.767-12.714,25.44-.645,2.578-6.034,7.55499-6.44,7.916s-1.494,1.944.351,1.778c2.653-.24001,6.043-4.48801,7.663-6.39999.673.838,3.17,2.918,1.967,4.099-9.652,9.47099-19.209,14.57001-19.955,14.935-3.613,1.765,6.03,2.985,22.466-11.875.967-.87399,2.114,3.42999,3.582,5.272-2.823,9.317,4.13499,27.3,3.05,32.94101-.189.98801-.77699,3.774-4.061,3.842-16.286.334-17.885-.41299-26.17,2.03-3.866,1.14-2.85,3.69-.044,2.92799,3.176-.86301,6.51-2.15199,24.144-1.05099,4.30701.269,9.233-.87199,9.265-8.149.03-6.597-5.21201-26.27-3.44099-28.961,2.34,1.761,4.032,1.83,4.924,1.987-.23399,6.416,10.09799,27.14799,5.49699,38.584-1.71001,4.248-9.21001,3.93201-22.04,2.66-21.837-2.162-28.918,2.56-29.366-.058l.001-.00002ZM146.479,261.397c-8.494,2.944-11.84399-6.99001-10.446-9.13.84-1.285,6.201,1.461,10.375-1.23,3.215-2.073,4.99001,8.65501.071,10.36ZM107.926,267.59702c-1.19-5.255-1.664-14.366.52-16.394.432-.39999,6.97-1.33701,6.85.15601-.502,6.27599-3.037,13.28099,1.74,20.26201,1.786,2.60901-7.514,3.02499-9.11-4.02399v-.00003ZM124.12601,273.60303c-2.28-.56601-8.574-10.586-3.451-22.54001.542-1.265,8.394-.479,9.70899-.08099,1.315.397-1.08,9.79401,9.70801,13.95801,1.103.42499-.04601,12.60999-15.965,8.66299h-.00101ZM191.62201,240.21402c-3.64799,12.625-5.48599,17.66599-.007,31.37601.728,1.823,1.27699,3.19601-.32201,2.922-11.036-1.89401-13.41901-3.70499-48.073-.76901-2.493.21201.813-4.83401.407-8.26801,3.16299-.40601,8.22301-1.85199,9.295-7.00601,1.302-6.255-3.05701-10.845-2.597-11.742,4.914-9.58-.31799-20.198-4.472-37.99001-.38901-1.668.576-2.396,1.306-1.606,22.26601,24.097,36.453,28.886,44.12,31.16299.763.226.612,1.093.343,1.92l.00002.00005ZM248.56201,174.39902c-4.655,4.11301-11.80499,4.452-14.69501,7.08301-1.508,1.373-2.187,3.528-.56,7.38.937,2.21899,1.586,2.493-1.60699,3.34599-5.185,1.386-5.895,8.19499-12.496,6.94501-2.644-.5-.74699,1.194.203,1.284,3.78.35699,5.27499-.707,6.60001-1.948,1.325-1.24001,3.092-3.474,5.121-4.243,2.092-.79201,4.209-.739,4.245.828.028,1.19501-2.61501,3.092-3.72501,3.60699,1.34801.705,5.48199,2.806,1.957,5.2-2.75,1.869-6.536-.72-7.082-1.03799-.813-.47501-2.37199-.23801-1.856.395,2.041,2.496,7.515,1.841,6.533,3.16299-5.052,6.793-.937,10.75999-2.474,17.58701-1.55901,6.923-11.03,10.71201-18.32201,12.02701-24.804,4.47501-48.93001-16.625-63.07201-32.52899,1.287-3.015,1.12199-6.957-.17-5.55701-1.22,1.321-1.017,3.52499-3.965,4.269-5.68401,1.435-8.131-8.438-9.894-10.16499-6.91-6.769-9.649-16.33-5.523-24.692,4.167-8.448,12.826-6.755,16.28201-1.645,4.298,6.355,2.31,9.97,4.75,11.868,3.42799,2.66701,6.877.287,7.804.034,2.61-.71201,2.41,6.186,11.32401,5.866,9.584-.343,8.5-15.25301,9.855-16.57401,12.30099-11.994,6.02-22.7,3.786-25.186-.60001-.67,1.36501-5.07401,2.09-5.235,7.224-1.59599,11.30501-6.21001,13.507-11.09,0,0,11.996-.203,16.265-8.844,1.14101-2.31,4.675,2.227,12.687-4.07.90199-.708,1.75301-.371,2.091.458,5.147,12.625,7.31599,16.116,6.91901,22.55199-.28999,4.68201,12.49001,30.662,13.42101,32.91,1.039,2.50301,1.194,4.96001,0,6.01399h.00099ZM0,0"/>
  </g>
  <path class="st0" d="M395.19601,78.528l15.888,44.86,15.80301-44.86h16.737v61.851h-12.78699v-16.907l1.27499-29.184-16.69501,46.091h-8.75101l-16.65201-46.048,1.27399,29.141v16.90701h-12.74399v-61.851h16.65201ZM498.79001,127.63499h-22.345l-4.24799,12.744h-13.55099l23.02399-61.851h11.81l23.15097,61.851h-13.54999l-4.29099-12.744ZM479.88602,117.312h15.46301l-7.77399-23.151-7.69,23.151h.00098ZM552.89301,99.853l11.59698-21.325h14.65601l-18.01202,30.67,18.47998,31.181h-14.82599l-11.89502-21.665-11.89294,21.66601h-14.82599l18.479-31.18-18.01202-30.671h14.65601l11.59698,21.325-.00098-.00101ZM637.14099,118.587v21.792h-12.74402v-61.851h24.12903c4.64398,0,8.72998.85,12.25598,2.549,3.52502,1.699,6.237,4.113,8.13501,7.243,1.896,3.13,2.84601,6.69,2.84601,10.683,0,6.061-2.07501,10.84-6.22302,14.337-4.15002,3.498-9.89203,5.247-17.22699,5.247,0,0-11.172,0-11.172,0ZM637.14099,108.264h11.38501c3.37,0,5.94-.792,7.71002-2.379,1.77002-1.586,2.65503-3.85,2.65503-6.797,0-3.03-.89203-5.48-2.67603-7.349s-4.24799-2.831-7.39203-2.888h-11.68201s0,19.413,0,19.41299ZM701.60999,130.142h27.06v10.237h-39.80402v-61.851h12.74402v51.614ZM780.05499,127.63499h-22.34601l-4.24799,12.744h-13.54999l23.02399-61.851h11.81l23.151,61.851h-13.54999l-4.29102-12.744ZM761.14996,117.312h15.46301l-7.77301-23.151-7.69,23.151ZM862.32294,140.38h-12.74292l-24.80798-40.697v40.69599h-12.745v-61.851h12.745l24.84998,40.781v-40.781h12.70203v61.851l-.0011.00101ZM930.35992,119.776c-.48199,6.656-2.93799,11.895-7.37,15.718s-10.27399,5.735-17.52399,5.735c-7.92999,0-14.16699-2.66901-18.71198-8.008-4.54602-5.338-6.81799-12.665-6.81799-21.983v-3.781c0-5.947,1.047-11.186,3.14301-15.718,2.09601-4.53,5.09003-8.007,8.98401-10.429,3.89398-2.42,8.41803-3.632,13.573-3.632,7.13599,0,12.88501,1.912,17.24799,5.735,4.35999,3.823,6.88,9.19,7.56,16.1h-12.74396c-.31097-3.993-1.42297-6.888-3.33398-8.687-1.91199-1.798-4.82202-2.698-8.72998-2.698-4.24799,0-7.427,1.523-9.53601,4.567-2.10999,3.045-3.19397,7.767-3.25,14.167v4.673c0,6.684,1.01202,11.57,3.03699,14.656,2.02399,3.087,5.21802,4.63,9.57898,4.63,3.93597,0,6.875-.899,8.815-2.69701,1.94-1.798,3.05103-4.581,3.33502-8.348h12.74402-.00012ZM966.4519,115.57l-6.62701,7.138v17.671h-12.74402v-61.851h12.74402v28.037l5.60797-7.689,15.76001-20.348h15.67499l-21.96198,27.485,22.59998,34.366h-15.16583l-15.888-24.808-.00012-.001ZM1054.22595,140.38h-12.745v-61.853h12.745v61.853ZM1124.68396,140.38h-12.745l-24.80798-40.697v40.69599h-12.74402v-61.851h12.74402l24.84998,40.781v-40.781h12.703v61.85201ZM1176.23999,124.15201c0-2.407-.84998-4.255-2.55005-5.544-1.69897-1.288-4.75696-2.648-9.17505-4.078-4.41797-1.43-7.91602-2.84-10.49402-4.227-7.02295-3.795-10.53503-8.906-10.53503-15.335,0-3.342.94202-6.322,2.82605-8.942,1.88196-2.62,4.58704-4.666,8.11304-6.139,3.526-1.472,7.48303-2.209,11.87305-2.209,4.41797,0,8.354.8,11.81006,2.4,3.45496,1.6,6.13794,3.86,8.05005,6.776,1.91101,2.917,2.86694,6.23,2.86694,9.94h-12.74402c0-2.831-.89099-5.034-2.67603-6.605-1.78406-1.572-4.29004-2.358-7.52002-2.358-3.11401,0-5.53601.659-7.26404,1.975-1.72705,1.318-2.58997,3.052-2.58997,5.204,0,2.012,1.01196,3.696,3.03699,5.055s5.005,2.634,8.94202,3.824c7.25,2.18,12.53101,4.885,15.84595,8.113,3.31201,3.229,4.96997,7.25,4.96997,12.065,0,5.352-2.026,9.551-6.07605,12.596s-9.5,4.56599-16.354,4.56599c-4.75806,0-9.09094-.871-13-2.612-3.90796-1.742-6.88794-4.12801-8.94202-7.158-2.05298-3.03-3.07898-6.542-3.07898-10.536h12.78601c0,6.826,4.078,10.238,12.23499,10.238,3.03003,0,5.39502-.616,7.09399-1.84801,1.69995-1.231,2.55005-2.952,2.55005-5.161l.00012.00002ZM1252.55994,88.85001h-18.94702v51.53h-12.74402v-51.53001h-18.69104v-10.321h50.38196v10.321h.00012ZM1281.72791,140.38h-12.745v-61.853h12.745v61.853ZM1347.21484,88.85001h-18.94604v51.53h-12.745v-51.53001h-18.69104v-10.321h50.38196v10.321h.00012ZM1409.6449,78.52801v40.739c0,6.769-2.11804,12.12099-6.35095,16.057-4.23401,3.937-10.01904,5.905-17.354,5.905-7.22095,0-12.95605-1.912-17.20398-5.735s-6.41504-9.076-6.5-15.76v-41.206h12.74402v40.82401c0,4.05.96997,7.002,2.91003,8.85699,1.93994,1.855,4.62402,2.782,8.05005,2.782,7.16504,0,10.80396-3.766,10.91699-11.3v-41.16299h12.78796-.00012ZM1475.00488,88.85001h-18.94604v51.53h-12.745v-51.53001h-18.69104v-10.321h50.38196v10.321h.00012ZM1527.83484,113.57401h-24.46899v16.56799h28.71704v10.237h-41.45996v-61.851h41.375v10.322h-28.63196v14.74h24.46899v9.983l-.00012.00101ZM406.10999,199.39999h-20.97299v22.07201h-6.59v-49.979h30.961v5.38899h-24.371v17.129h20.97299v5.39-.00099ZM456.33398,198.09599c0,4.897-.82401,9.17-2.47198,12.81999-1.647,3.64999-3.98199,6.437-7.00201,8.358-3.01999,1.923-6.54501,2.884-10.57199,2.884-3.93701,0-7.427-.967-10.47-2.89999-3.04401-1.93401-5.40601-4.692-7.08899-8.27299s-2.54501-7.73-2.591-12.44299v-3.605c0-4.80499.83499-9.05,2.50601-12.735,1.67001-3.683,4.03299-6.505,7.08801-8.46001,3.05499-1.95799,6.54999-2.935,10.487-2.935,4.004,0,7.534.966,10.59,2.89999,3.05399,1.93401,5.40601,4.73599,7.05301,8.41,1.64801,3.673,2.47198,7.946,2.47198,12.82001v3.159l-.00003-.00002ZM449.77698,194.86899c0-5.927-1.19-10.474-3.57001-13.644s-5.70999-4.755-9.98801-4.755c-4.16599,0-7.444,1.58501-9.83499,4.755s-3.621,7.56799-3.69,13.198v3.673c0,5.744,1.207,10.258,3.621,13.54201,2.414,3.283,5.73801,4.925,9.97299,4.925,4.25601,0,7.55099-1.55,9.88501-4.64999s3.53601-7.547,3.604-13.33701v-3.70702ZM485.89996,201.25398h-11.73999v20.218h-6.625v-49.979h16.54599c5.629,0,9.95999,1.28101,12.992,3.84399,3.03201,2.563,4.548,6.29401,4.548,11.19,0,3.11301-.84,5.825-2.52301,8.136-1.68201,2.312-4.022,4.03999-7.01999,5.18401l11.73999,21.213v.412h-7.07001l-10.84796-20.21799-.00003-.00002ZM474.15997,195.86398h10.12701c3.272,0,5.875-.847,7.80899-2.54401,1.93301-1.69701,2.89999-3.966,2.89999-6.81,0-3.09399-.92099-5.466-2.763-7.117-1.84201-1.64999-4.50299-2.48801-7.98001-2.511h-10.09296v18.98199l-.00003.00002ZM548.46698,199.19398c-5.65198-1.625-9.76501-3.62199-12.34003-5.99001-2.57397-2.368-3.86102-5.29199-3.86102-8.77,0-3.936,1.573-7.192,4.71997-9.76601,3.14502-2.57401,7.23602-3.86099,12.27002-3.86099,3.43298,0,6.49402.664,9.18298,1.99001,2.68903,1.328,4.771,3.158,6.24799,5.492,1.47601,2.33501,2.21301,4.88699,2.21301,7.655h-6.62402c0-3.03-.96198-5.414-2.88397-7.14799s-4.63397-2.60001-8.13501-2.60001c-3.25,0-5.784.716-7.60303,2.149-1.82001,1.433-2.72998,3.422-2.72998,5.966,0,2.03999.86401,3.76601,2.59302,5.175,1.72699,1.41,4.66803,2.7,8.82098,3.87,4.15399,1.168,7.40302,2.45599,9.74902,3.86501,2.34497,1.407,4.08502,3.049,5.21802,4.925,1.13202,1.87601,1.698,4.084,1.698,6.62399,0,4.05099-1.578,7.295-4.73602,9.733-3.159,2.436-7.38,3.655-12.66699,3.655-3.43201,0-6.63702-.658-9.61102-1.97301-2.97498-1.31599-5.27002-3.119-6.883-5.407s-2.41998-4.88499-2.41998-7.79199h6.62598c0,3.02,1.11499,5.407,3.34601,7.157,2.23199,1.75,5.21198,2.62601,8.94202,2.62601,3.479,0,6.14502-.71001,7.99799-2.12801s2.78003-3.35201,2.78003-5.80099c0-2.448-.85699-4.343-2.57397-5.68201-1.716-1.338-4.828-2.66-9.33698-3.964ZM615.51697,198.09598c0,4.897-.82397,9.17-2.47198,12.82001-1.64697,3.64999-3.98199,6.437-7.00201,8.358-3.02002,1.923-6.54498,2.884-10.57202,2.884-3.93701,0-7.427-.967-10.46997-2.89999-3.04401-1.93401-5.40601-4.692-7.08801-8.27299s-2.54602-7.73-2.59198-12.44299v-3.605c0-4.80499.83502-9.05,2.50598-12.735,1.66998-3.683,4.03302-6.505,7.08801-8.46001,3.05499-1.95799,6.54999-2.935,10.487-2.935,4.00403,0,7.53497.966,10.59003,2.89999,3.05402,1.93401,5.40601,4.73599,7.05298,8.41,1.64801,3.673,2.47198,7.946,2.47198,12.82001v3.159-.00003ZM608.95996,194.86897c0-5.927-1.19-10.474-3.57001-13.644s-5.71002-4.755-9.98798-4.755c-4.16602,0-7.44397,1.58501-9.83502,4.755-2.39099,3.17-3.62097,7.56799-3.69,13.198v3.673c0,5.744,1.20697,10.258,3.62201,13.54199,2.414,3.283,5.737,4.925,9.97198,4.925,4.25598,0,7.55103-1.55,9.88501-4.64999s3.53601-7.547,3.604-13.33701v-3.707ZM654.31696,199.39998h-20.974v22.07201h-6.59003v-49.979h30.96198v5.38901h-24.37201v17.129h20.974v5.39l.00006-.00101ZM703.78394,176.88197h-16.065v44.59h-6.55603v-44.59h-16.03003v-5.38899h38.65002v5.38901l.00104-.00002ZM725.65991,205.71597l.96198,6.59,1.40698-5.938,9.88599-34.875h5.56097l9.646,34.875,1.37299,6.041,1.06403-6.72701,7.75702-34.189h6.625l-12.117,49.979h-6.00702l-10.297-36.42-.78998-3.81-.78998,3.81-10.67499,36.42h-6.00702l-12.08301-49.979h6.59003l7.896,34.22301h-.00098ZM803.08691,208.39397h-20.94l-4.70203,13.078h-6.797l19.08502-49.979h5.76801l19.12,49.979h-6.763l-4.771-13.078ZM784.13892,203.00397h16.98999l-8.51202-23.37601-8.47803,23.37601h.00006ZM841.71692,201.25397h-11.73999v20.218h-6.62402v-49.979h16.54401c5.63,0,9.96002,1.28101,12.99402,3.84399,3.03003,2.563,4.547,6.29401,4.547,11.19,0,3.11301-.84003,5.825-2.52301,8.136-1.68201,2.312-4.021,4.03999-7.02002,5.18401l11.73999,21.213v.412h-7.07001l-10.84802-20.218h.00006ZM829.97693,195.86397h10.12701c3.27197,0,5.875-.847,7.81-2.54401,1.93298-1.69701,2.90002-3.966,2.90002-6.81,0-3.09399-.922-5.466-2.76398-7.117-1.84198-1.64999-4.50201-2.48801-7.97998-2.511h-10.09198v18.98199l-.0011.00002ZM896.79291,198.36996h-21.65997v17.71201h25.15997v5.39h-31.75098v-49.979h31.40802v5.38899h-24.81702v16.09799h21.65997v5.39001ZM946.10992,199.19397c-5.65198-1.625-9.76501-3.62199-12.34003-5.99001-2.57501-2.368-3.862-5.29201-3.862-8.77,0-3.936,1.573-7.192,4.71997-9.76601s7.237-3.86101,12.271-3.86101c3.43298,0,6.49402.664,9.18298,1.99001,2.68903,1.328,4.77197,3.158,6.24701,5.492,1.47699,2.33501,2.21399,4.88699,2.21399,7.655h-6.62402c0-3.03-.96198-5.414-2.88397-7.14799s-4.63397-2.60001-8.13599-2.60001c-3.24902,0-5.78302.716-7.60199,2.149-1.82001,1.433-2.72998,3.422-2.72998,5.966,0,2.03999.86401,3.76601,2.59198,5.175,1.72803,1.41,4.66803,2.7,8.82202,3.87,4.15399,1.168,7.40302,2.45599,9.74902,3.86501,2.34497,1.407,4.08398,3.049,5.21698,4.925s1.70001,4.084,1.70001,6.62399c0,4.05099-1.58002,7.295-4.73798,9.733-3.15802,2.436-7.38,3.655-12.66602,3.655-3.43201,0-6.63702-.658-9.61102-1.97301-2.97601-1.31599-5.27002-3.119-6.883-5.407s-2.41998-4.88499-2.41998-7.79199h6.625c0,3.02,1.11603,5.407,3.34698,7.157s5.21198,2.62601,8.94202,2.62601c3.479,0,6.14502-.71001,7.99799-2.12801s2.78003-3.35201,2.78003-5.80099c0-2.448-.85797-4.343-2.57397-5.68201-1.71698-1.338-4.82898-2.66-9.33698-3.964l-.00006.00002ZM989.44995,196.58498l13.04303-25.092h7.48401l-17.23199,31.34v18.63901h-6.59003v-18.63901l-17.23297-31.34h7.552l12.97498,25.092h.00098ZM1031.64697,199.19397c-5.65198-1.625-9.76501-3.62199-12.34003-5.99001s-3.85999-5.29201-3.85999-8.77c0-3.936,1.573-7.192,4.71899-9.76601s7.23602-3.86101,12.27106-3.86101c3.43298,0,6.49402.664,9.18298,1.99001,2.68896,1.328,4.77002,3.158,6.24695,5.492,1.46118,2.28458,2.2301,4.94315,2.21399,7.655h-6.625c0-3.03-.95996-5.414-2.88403-7.14799-1.922-1.73399-4.63403-2.60001-8.13403-2.60001-3.25,0-5.78503.716-7.604,2.149-1.82001,1.433-2.729,3.422-2.729,5.966,0,2.03999.86401,3.76601,2.59204,5.175,1.72803,1.41,4.66797,2.7,8.82202,3.87s7.40198,2.45599,9.74902,3.86501c2.34399,1.407,4.08496,3.049,5.21704,4.925,1.13196,1.87601,1.69897,4.084,1.69897,6.62399,0,4.05099-1.57898,7.295-4.73706,9.733-3.15796,2.436-7.38,3.655-12.66699,3.655-3.43201,0-6.63599-.658-9.61102-1.97301s-5.26898-3.119-6.88202-5.407-2.41998-4.88499-2.41998-7.79199h6.625c0,3.02,1.11499,5.407,3.34698,7.157,2.23096,1.75,5.21204,2.62601,8.94104,2.62601,3.479,0,6.14502-.71001,7.99805-2.12801s2.78198-3.35201,2.78198-5.80099c0-2.448-.85901-4.343-2.57605-5.68201-1.71497-1.338-4.828-2.66-9.33704-3.964l.00012.00002ZM1095.08594,176.88197h-16.06494v44.59h-6.55505v-44.59h-16.03003v-5.38899h38.65002v5.38901-.00002ZM1132.396,198.36998h-21.66003v17.71201h25.16101v5.39h-31.75v-49.979h31.40796v5.38901h-24.81897v16.09799h21.66003v5.39ZM1153.84497,171.49298l16.33899,40.78,16.33997-40.78h8.54602v49.979h-6.58997v-19.463l.61804-21.008-16.40906,40.47h-5.04504l-16.37305-40.367.65002,20.905v19.463h-6.58899v-49.979h8.51306ZM1222.78198,199.19398c-5.65198-1.625-9.76501-3.62199-12.33997-5.99001s-3.85999-5.29199-3.85999-8.77c0-3.936,1.57202-7.192,4.71899-9.76601,3.14502-2.57401,7.23596-3.86099,12.271-3.86099,3.43298,0,6.49304.664,9.18298,1.99001,2.68799,1.328,4.77002,3.158,6.24695,5.492,1.46118,2.28458,2.2301,4.94315,2.21399,7.655h-6.625c0-3.03-.96106-5.414-2.88403-7.14799-1.922-1.73399-4.63403-2.60001-8.13501-2.60001-3.25,0-5.78406.716-7.60303,2.149-1.81995,1.433-2.729,3.422-2.729,5.966,0,2.03999.86401,3.76601,2.59204,5.175,1.72803,1.41,4.66797,2.7,8.82104,3.87s7.40295,2.45599,9.75,3.86501c2.34399,1.407,4.08398,3.049,5.21704,4.925,1.13196,1.87601,1.698,4.084,1.698,6.62399,0,4.05099-1.578,7.295-4.73596,9.733-3.15796,2.436-7.38,3.655-12.66699,3.655-3.43298,0-6.63696-.658-9.61096-1.97301s-5.26904-3.119-6.88196-5.407-2.42004-4.88499-2.42004-7.79199h6.625c0,3.02,1.11499,5.407,3.34705,7.157,2.23096,1.75,5.21204,2.62601,8.94104,2.62601,3.479,0,6.14502-.71001,7.99805-2.12801s2.78101-3.35201,2.78101-5.80099c0-2.448-.85803-4.343-2.57495-5.68201-1.71594-1.338-4.828-2.66-9.33704-3.964h-.00024Z"/>
</svg>