<?xml version="1.0" encoding="UTF-8"?>
<svg id="Calque_1" xmlns="http://www.w3.org/2000/svg" version="1.1" viewBox="0 0 2500 811.90789">
  <!-- Generator: Adobe Illustrator 29.1.0, SVG Export Plug-In . SVG Version: 2.1.0 Build 142)  -->
  <defs>
    <style>
      .st0 {
        fill-rule: evenodd;
      }

      .st0, .st1 {
        fill: #fff;
      }
    </style>
  </defs>
  <g>
    <path class="st1" d="M130.49511,111.34738c-.05176.927,1.83545,2.35022,3.35193,3.4939,2.42065,1.82544,5.43311,4.09741,5.7207,7.85901.00842.11023.01257.2207.01257.33118v30.9718c0,.15698-.00842.31372-.02539.46973-.45984,4.22766-3.30859,6.3678-5.01074,7.64661-1.51367,1.13708-1.51367,1.23804-1.51367,1.66284,0,2.073,1.71545,3.71985,4.33264,5.99573,2.52698,2.19751,5.67188,4.93237,5.3844,9.07751-.18323,2.53003-.16516,3.41223-.1322,5.01355.02649,1.29028.05994,2.91809.01746,5.88123,7.92651.05005,26.38342.07532,55.11768.07532,19.00134,0,38.61438-.01099,52.30621-.01868,4.67383-.00269,8.65759-.00488,11.69202-.00623.07642-3.49866.12274-8.36304-.10858-11.20447-.49982-6.05444,3.55859-8.35352,5.73889-9.58875,1.87494-1.06213,2.37885-1.34766,2.37885-3.40942,0-.78357-.51141-1.29785-2.7359-2.75159-2.14105-1.39917-5.07336-3.31555-5.4751-7.05652-.01807-.16846-.02631-.33789-.0246-.50732l.31128-31.08862c-.00018-4.10779,3.67725-5.698,5.44452-6.46228,2.38715-1.03223,3.01154-1.39221,3.01154-3.57178,0-2.10132-.40308-2.36572-1.90271-3.34961-1.62402-1.06555-4.64703-3.04895-4.64703-7.54492,0-1.57605-.02496-3.02869-.04913-4.43359-.02783-1.61365-.05615-3.25854-.04669-5.10449-2.77808-.01868-5.37671-.08984-7.82825-.29626.02313,15.43616.09668,65.81262.09668,81.34961,0,1.12109-.85303,2.05811-1.96924,2.16309-2.05078.19214-23.49573.25818-46.52002.27246.14966.38892.23389.79883.23389,1.22363,0,2.41162-2.58643,4.37708-5.78735,4.37708s-5.78735-1.96545-5.78735-4.37708c0-.42371.08386-.83228.23291-1.22021-23.57495-.00049-45.82288-.04199-47.75146-.0459-.58057-.00098-1.13623-.23438-1.54346-.64795-.40723-.41406-.63232-.97314-.62451-1.55371.18835-13.89136.05322-66.98706.01123-81.7323h-7.3197c-.01807,1.26013-.04602,2.69446-.07764,4.24976-.026,1.27209-.04822,2.35266-.052,2.95007,0,4.57812-3.55383,6.64697-5.67725,7.88306-2.32739,1.35498-2.7179,1.77893-2.7854,3.02454Z"/>
    <path class="st1" d="M382.24889,91.90145c34.17383,1.90674,52.09668,21.57715,61.72559,32.14502,2.53516,2.78223,4.9292,5.40967,6.14502,5.91553,1.37012.58447,2.98828,2.55273,9.32324,10.72266,4.40088,5.67505,10.18518,13.13098,16.44049,20.33386.3717-1.35706.63861-2.73376.63861-3.59119,0-4.0238-3.16406-6.13806-7.63403-8.68555l-.30481-.17383c-1.81488-1.03625-2.63489-3.21777-1.95203-5.19287.26331-.76147.58344-1.55884.89307-2.32996.58435-1.4552,1.38458-3.44824,1.38458-4.39526,0-.06482-.00391-.10938-.00751-.13696-.4798-.52307-2.61871-1.13159-3.77905-1.46179-1.8399-.52344-3.74249-1.0647-5.32043-2.16125-.95819-.66589-1.60828-1.68921-1.80389-2.83948-.19568-1.15039.07959-2.33105.76379-3.27625.1546-.2135.2995-.4021.43274-.56799v-.13965c0-.57886.00616-1.13977.01215-1.68237.02277-2.05481.04852-4.38379-.46259-4.90063-.30566-.30908-1.81061-1.3175-8.34253-1.31763-.61945-.00012-1.26758.00879-1.94983.02649-.03772.00098-.0755.00146-.11316.00146-1.25848,0-2.45734-.54602-3.28375-1.5-.85114-.98254-1.21765-2.29456-.9989-3.57593,1.36261-7.98315-1.14301-9.79333-2.77417-10.52393l-11.68781-1.55835c-.07373-.00989-.14722-.02161-.22034-.03516-5.29297-.9845-7.46942-3.33801-7.27753-7.86938.0495-1.16931.08527-2.01416-1.97443-4.00159-1.04089-1.00647-2.33038-1.47375-4.0614-1.47375-3.61517-.00012-7.25964,2.07971-7.29602,2.10071-.67401.38916-1.42871.58435-2.18292.58435-.75,0-1.49951-.19287-2.16974-.57983-1.3443-.77612-2.1803-2.20593-2.1803-3.75818,0-3.57336-2.34662-5.70667-6.27734-5.70667-5.10101,0-7.38251.65051-8.23907,1l-4.66888,3.74951c-.77142.61951-1.7312.95715-2.72058.95715-4.39093,0-7.2066-1.91565-9.46899-3.45496-1.92126-1.30725-3.30945-2.25171-5.74457-2.25171-3.77594,0-5.67328,2.24292-8.34937,5.93689-.4234.58447-.86121,1.18872-1.30682,1.76196-.84497,1.08691-2.12372,1.67859-3.43219,1.67859-.62756,0-1.26178-.13611-1.85852-.41882-2.43182-1.15222-4.04663-2.61511-5.34412-3.79065-1.80713-1.63708-2.55505-2.3147-5.03894-2.3147-.41095,0-1.0448.97803-1.7702,2.15955-.50641.82495-1.03009,1.67798-1.7132,2.46082-.01733.0199-.03491.03967-.05261.0592-1.21564,1.34302-2.00073,2.77051-2.83191,4.28186-1.66199,3.02173-3.73035,6.75891-9.25641,8.90906.55682,1.32422,1.19989,2.59058,1.91193,3.82349,9.93408-10.13037,47.85059-13.40479,56.17969-12.94189Z"/>
    <path class="st1" d="M472.49206,168.05746c.0946-1.07434.59711-2.04321,1.35962-2.76343-6.81348-7.72803-13.11823-15.85498-17.84253-21.94678-3.30615-4.26416-6.72266-8.66992-7.70068-9.43506-2.0542-.9126-4.25195-3.32471-7.54541-6.93945-9.21094-10.10889-26.35596-28.92529-58.75635-30.7334-5.60596-.30811-19.13477.89502-31.20215,3.39258-14.16455,2.93213-20.66699,6.41064-22.33447,9.04102.24854.37744.5.75537.75293,1.13574,3.82324,5.75293,7.77637,11.70215,7.77637,20.91406,0,1.22119-.24854,2.45898-.68115,3.68994,2.56885-1.55957,5.09277-2.59424,7.38037-2.59424,6.97241,0,12.22076,1.96582,16.77399,6.31445.81995-.76013,1.33447-1.73755,1.92963-2.88916,1.43848-2.78564,3.22949-6.25244,10.01123-6.25244,4.69238,0,7.92041,1.70215,10.76855,3.2041,2.54639,1.34277,4.74512,2.50244,7.81738,2.50244,1.74756,0,3.42725-.88574,5.37207-1.91064,2.64844-1.39648,5.65039-2.979,9.82812-2.979,3.39746,0,7.17822,1.99463,10.11377,5.33594,2.99316,3.40625,4.68848,7.6582,4.85156,12.00488,3.56006-.62256,9.61084-.95264,14.23779,2.5293,3.63281,2.73389,5.61182,7.1792,5.90039,13.23828,4.36963-1.05029,7.79395-.7666,10.41455.85498,4.38525,2.71289,5.16357,8.33545,5.78906,12.85352.19189,1.38525.37305,2.69336.63232,3.74414.33447,1.28418,1.23877,1.72119,3.54736,2.5498,3.47754,1.24805,8.73242,3.13428,7.48486,13.30615l-4.3125-.5293c.8252-6.72559-1.46729-7.54883-4.64014-8.6875-2.37891-.854-5.33936-1.9165-6.2915-5.57129-.32031-1.29785-.5166-2.71533-.72412-4.21631-.52686-3.8042-1.12354-8.11621-3.77148-9.75439-1.96973-1.21924-5.19678-1.08545-9.59473.39795-.67676.22803-1.4209.10938-1.99365-.31787-.57178-.42676-.89746-1.10742-.87109-1.8208.22461-6.07812-1.17822-10.30615-4.16895-12.56543-5.0127-3.78906-13.17529-1.20264-13.25732-1.17725-.70752.23096-1.4873.08154-2.06055-.39453-.57275-.47607-.86377-1.21143-.76807-1.9502.53564-4.12646-.80127-8.36377-3.66748-11.62646-2.09131-2.38037-4.71631-3.85889-6.8501-3.85889-3.10254,0-5.38525,1.20361-7.80176,2.47754-2.24951,1.18604-4.57568,2.41211-7.39844,2.41211-4.14746,0-7.04346-1.52686-9.84375-3.00391-2.63574-1.38965-5.12549-2.70264-8.74219-2.70264-4.13574,0-4.89453,1.46875-6.15088,3.90137-.67523,1.30676-1.47961,2.82935-2.88684,4.12048.71234.89832,1.43652,1.85999,2.18567,2.86243,2.18164,2.91846,4.6543,6.22607,7.9585,9.41309,1.9126,1.84668,2.00098,3.78076,1.73828,5.07812-.58105,2.87305-4.08936,7.36084-17.20801,12.73779,2.83197.04004,5.18555.13342,6.69678.7522.43842-.23413.85791-.44141,1.23193-.61401,2.89227-1.33508,7.89178-2.92664,15.28479-2.92664,7.01715,0,14.96881,1.4137,23.63403,4.2019,4.77966,1.53955,16.20593,7.50488,31.82648,15.76416,8.18359,4.32703,15.91339,8.41418,18.80334,9.63416,1.10492.47229,2.41144,1.17041,4.06555,2.05432,7.67834,4.10327,21.97076,11.74097,42.63165,11.74097,4.97345,0,10.07324-.45764,15.15765-1.36011.05542-.00989.11096-.01868.16675-.02637.20679-.02917,21.59692-3.22424,32.8501-19.37744,6.91016-9.91907,8.70569-22.83618,5.33667-38.3927-7.40454-34.14551-6.73389-41.75781-3.86621-52.62341-.26727-.00916-.54437-.01416-.83026-.01416-3.92889-.00024-9.53693.94226-13.94153,5.43323-5.2439,5.34656-7.77753,14.4978-7.53052,27.19946.04388,2.25781-1.64905,4.17273-3.89514,4.40613-2.90131.30127-12.72345,1.88354-17.30121,9.59106-2.51971,4.24243-3.01074,9.63123-1.47699,16.0791,7.42694-8.35083,13.617-9.47363,17.90131-9.47363,7.91663,0,15.27051,9.63599,15.73773,17.52466.34875,5.73584-1.39099,10.81604-5.03168,14.68481-4.68683,4.98047-12.3783,7.72327-21.65765,7.72327-2.81366,0-5.75946-.25037-8.75562-.74414-7.06824-1.15881-13.17786-6.31128-20.2522-12.27722-3.29901-2.7821-6.71033-5.65894-10.565-8.45178-1.23743-.89661-1.91296-2.37732-1.77887-3.89966Z"/>
    <path class="st1" d="M251.53234,172.6882c.01099-.00024.02399-.00037.03491-.00061-.0058-17.76465-.07593-65.68262-.09705-79.81067-2.19312-.39734-4.25909-.97632-6.21838-1.81982-2.33307-.99243-4.41272-2.30225-6.42395-3.56885-4.02826-2.53687-7.5072-4.72791-12.97266-4.72791-4.57843,0-9.29077,1.90088-13.44836,3.578-3.13989,1.26648-6.13196,2.46252-8.96997,2.82434v74.87207c4.51746.43909,12.76697,3.60376,20.27625,6.08325,9.70728,3.2146,19.98651,1.18835,27.81921,2.57019Z"/>
    <path class="st1" d="M150.76598,172.72738c7.85767-1.45776,18.22339.63452,28.03137-2.60938,6.91492-2.2832,15.39954-5.2522,20.2948-6.05896v-75.01453c-2.90942-.50012-5.37964-1.72717-7.78149-2.9314-3.02625-1.51746-5.88464-2.95068-9.79907-2.95068-6.29846,0-10.12512,1.97961-14.96997,4.48584-3.75891,1.94446-8.01941,4.14844-13.83801,5.48193-.31836.07288-.64392.10974-.97058.10974h-.9812c.04004,14.05286.16406,62.79358.01416,79.48743Z"/>
    <path class="st1" d="M301.33922,196.71273c1.30463,0,2.48871.58276,3.29144,1.51538,9.48822-.18018,14.68384-1.13135,19.01471-3.37842,7.76318-4.09229,16.48193-10.26807,18.43164-14.82715l3.99512,1.70898c-3.26318,7.62939-17.57715,15.47314-20.41309,16.96826-5.40631,2.80493-11.71204,3.6709-20.2464,3.86108-.43823,1.18555-1.38312,2.16174-2.64783,2.60107l-.26031.09045c1.83929,2.71082,4.84851,4.07996,8.99005,4.07996,12.86755,0,25.8269-9.40308,34.4024-15.62537l1.4848-1.07544c6.61731-4.71606,11.01208-8.27722,11.95752-14.68591.1106-.74963.42853-1.448.87555-2.09229-1.1156-.04761-2.33893-.06189-3.2677-.07251-2.896-.03369-4.73047-.07227-5.90576-.42236-1.23584-.38037-1.75342-1.33691-1.83154-2.10791-.19141-1.8833,1.60889-2.86816,3.69385-4.00879.14307-.07812.30957-.16943.4624-.25439.23779-.32178.56689-.58057.9624-.7334,9.3042-3.5957,16.15967-7.87402,16.67139-10.40381.03613-.17822.10303-.51074-.49756-1.09082-3.55566-3.42969-6.25342-7.03809-8.4209-9.9375-1.30273-1.74268-2.42822-3.24805-3.50439-4.42871-4.01172-4.36475-8.46289-6.22998-14.87842-6.22998-3.9165,0-10.71924,5.96826-15.2207,9.91748-1.87158,1.6416-3.48779,3.05957-4.73145,3.93848-.92627.65527-2.20166.48633-2.92627-.38818-.72412-.87451-.65332-2.15869.1626-2.94775.31543-.30518.68945-.6582,1.10791-1.05225,3.16113-2.98047,10.56396-9.96045,10.56396-14.9082,0-7.8999-3.4248-13.05322-7.05029-18.50928-2.41095-3.62781-4.88763-7.37256-6.36884-11.9812-.29413-.2832-.55487-.60864-.76544-.97876l-.22607-.39734c-3.28186,4.12488-8.4046,12.39722-14.68774,25.89099-7.53339,16.17896-12.03516,29.74329-12.03516,33.51013,0,2.63062.54242,3.00378,2.33966,4.24011,2.51837,1.73254,6.32416,4.35071,6.32416,12.07593,0,4.93652-3.33643,8.68347-6.01727,11.69421-1.30182,1.46204-3.26904,3.67139-3.26904,4.60876,0,3.98145,6.23004,5.83643,10.44061,5.83643ZM313.27141,166.22079c.01294-4.65625,4.90259-6.5238,6.75726-6.5238,0,0,10.98535,4.24121,10.98535,6.5238,0,3.09973-7.09448,6.51074-11.82843,10.59631h-5.91418c2.11407-6.92578,0-4.39673,0-10.59631Z"/>
    <path class="st1" d="M573.27459,111.34738c-.05176.927,1.83545,2.35022,3.35193,3.4939,2.42065,1.82544,5.43311,4.09741,5.7207,7.85901.00842.11023.01257.2207.01257.33118v30.9718c0,.15698-.00842.31372-.02539.46973-.45984,4.22766-3.30859,6.3678-5.01074,7.64661-1.51367,1.13708-1.51367,1.23804-1.51367,1.66284,0,2.073,1.71545,3.71985,4.33264,5.99573,2.52698,2.19751,5.67188,4.93237,5.3844,9.07751-.18323,2.53003-.16516,3.41223-.1322,5.01355.02649,1.29028.05994,2.91809.01746,5.88123,7.92651.05005,26.38342.07532,55.11768.07532,19.00134,0,38.61438-.01099,52.30621-.01868,4.67383-.00269,8.65759-.00488,11.69202-.00623.07642-3.49866.12274-8.36304-.10858-11.20447-.49982-6.05444,3.55859-8.35352,5.73889-9.58875,1.87494-1.06213,2.37885-1.34766,2.37885-3.40942,0-.78357-.51141-1.29785-2.7359-2.75159-2.14105-1.39917-5.07336-3.31555-5.4751-7.05652-.01807-.16846-.02631-.33789-.0246-.50732l.31128-31.08862c-.00018-4.10779,3.67725-5.698,5.44452-6.46228,2.38715-1.03223,3.01154-1.39221,3.01154-3.57178,0-2.10132-.40308-2.36572-1.90271-3.34961-1.62402-1.06555-4.64703-3.04895-4.64703-7.54492,0-1.57605-.02496-3.02869-.04913-4.43359-.02783-1.61365-.05615-3.25854-.04669-5.10449-2.77808-.01868-5.37671-.08984-7.82825-.29626.02313,15.43616.09668,65.81262.09668,81.34961,0,1.12109-.85303,2.05811-1.96924,2.16309-2.05078.19214-23.49573.25818-46.52002.27246.14966.38892.23389.79883.23389,1.22363,0,2.41162-2.58643,4.37708-5.78735,4.37708s-5.78735-1.96545-5.78735-4.37708c0-.42371.08386-.83228.23291-1.22021-23.57495-.00049-45.82288-.04199-47.75146-.0459-.58057-.00098-1.13623-.23438-1.54346-.64795-.40723-.41406-.63232-.97314-.62451-1.55371.18835-13.89136.05322-66.98706.01123-81.7323h-7.3197c-.01807,1.26013-.04602,2.69446-.07764,4.24976-.026,1.27209-.04822,2.35266-.052,2.95007,0,4.57812-3.55383,6.64697-5.67725,7.88306-2.32739,1.35498-2.7179,1.77893-2.7854,3.02454Z"/>
    <path class="st1" d="M593.54546,172.72738c7.85767-1.45776,18.22339.63452,28.03137-2.60938,6.91492-2.2832,15.39954-5.2522,20.2948-6.05896v-75.01453c-2.90942-.50012-5.37964-1.72717-7.78149-2.9314-3.02625-1.51746-5.88464-2.95068-9.79907-2.95068-6.29846,0-10.12512,1.97961-14.96997,4.48584-3.75891,1.94446-8.01941,4.14844-13.83801,5.48193-.31836.07288-.64392.10974-.97058.10974h-.9812c.04004,14.05286.16406,62.79358.01416,79.48743Z"/>
    <path class="st1" d="M694.31182,172.6882c.01099-.00024.02399-.00037.03491-.00061-.0058-17.76465-.07593-65.68262-.09705-79.81067-2.19312-.39734-4.25909-.97632-6.21838-1.81982-2.33307-.99243-4.41272-2.30225-6.42395-3.56885-4.02826-2.53687-7.5072-4.72791-12.97266-4.72791-4.57843,0-9.29077,1.90088-13.44836,3.578-3.13989,1.26648-6.13196,2.46252-8.96997,2.82434v74.87207c4.51746.43909,12.76697,3.60376,20.27625,6.08325,9.70728,3.2146,19.98651,1.18835,27.81921,2.57019Z"/>
    <path class="st1" d="M740.23809,36.79574l-4.25629-.00659H110.95592l-3.99585.00171-.31665,4.32251-.06494,311.63867c-.41699,137.64844,74.19385,235.66211,136.85791,293.64545,69.4541,64.26758,145.53613,99.23926,166.84375,99.96484.18262.00684.36816.00977.56201.00977,22.02637,0,116.82422-40.58887,198.73633-118.43744,38.14893-36.25586,68.52783-75.75195,90.29297-117.3916,25.92432-49.59668,39.52441-102.21191,40.42285-156.45508V36.81723l-.05621-.02148ZM134.7296,88.89511h17.00342c12.45093-2.85339,17.0033-10.07751,29.77856-10.07751,9.18262,0,13.51453,6.1217,20.27173,6.1217,5.69373,0,14.47424-6.5238,24.0719-6.5238,9.81812,0,14.68176,5.91418,21.11475,8.65088,2.20001.94714,4.68311,1.49475,7.34393,1.82776l1.49506-.00244s.00012.06323.00031.177c3.14899.29211,6.52789.32043,10.01569.32043.74908,0,1.5022-.00122,2.25983-.00122-.22052,5.69385,0,9.0918,0,13.87769,0,4.88953,6.54968,2.95703,6.54968,10.89453,0,8.36548-8.45624,6.73132-8.45624,10.07751l-.31128,31.08862c.41498,3.86487,8.23578,4.37073,8.23578,10.27197,0,8.76758-8.7027,5.73267-8.13208,12.64551.41504,5.09705,0,15.90088,0,15.90088-8.39343,0-39.02856.026-68.22015.026-29.17737,0-56.91272-.026-59.55798-.12976.32422-11.50415-.18152-9.93481.22058-15.48584.31128-4.48755-9.72742-7.22424-9.72742-14.77258,0-5.20093,6.01807-4.88965,6.5498-9.77917v-30.9718c-.31128-4.07263-9.40308-6.10876-9.07886-11.91919.3761-6.93896,8.4563-6.05701,8.4563-10.70007.01294-2.03625.2334-9.57166.1167-11.51709ZM287.17626,158.25729c0-10.49255,22.39874-61.61926,32.33362-66.41809.0658.28296.13934.56409.22046.84302l2.51617,4.42273c6.74426-2.43835,6.44598-7.40576,10.77783-12.19165,1.6861-1.9325,2.85333-6.10876,6.75726-6.10876,6.64056,0,7.289,4.17627,12.24347,6.5238,2.85333-3.67041,5.79749-9.37708,13.08649-9.37708s8.88428,5.70667,15.21356,5.70667l5.07117-4.07251c2.52911-1.32288,6.97772-1.63416,10.55737-1.63416,6.75726,0,10.62225,4.44861,10.62225,10.05151,0,0,4.57672-2.69214,9.48425-2.69189,2.45355,0,4.99011.6731,7.07812,2.69189,7.01666,6.77026-.57062,9.31238,7.0296,10.72607l12.25647,1.63416c5.58997,2.24377,7.289,7.43164,5.91418,15.48596.72186-.0188,1.40759-.02808,2.06287-.02808,14.29773.00049,13.13776,4.44519,13.13776,12.24561,0,2.54199,0,1.51733-1.25812,3.25537,3.06091,2.12708,10.97247,1.72498,10.97247,7.328,0,2.45117-1.67316,5.70654-2.51617,8.1449,4.11139,2.34753,10.12939,5.60291,10.12939,12.63257,0,1.67725-.67029,4.82812-1.65015,7.35303.00983.01074.01953.02185.02936.03271l-.06549.05933c-.6803,1.72888-1.50415,3.15137-2.36029,3.56628,12.10083,8.76758,20.19397,18.52087,28.97449,19.96045,2.7868.45923,5.48511.68628,8.04907.68628,13.36603,0,23.05939-6.17322,22.35205-17.8064-.33722-5.69373-6.01801-13.43665-11.40045-13.43665-8.54706,0-14.78552,7.32788-19.42871,14.26672-11.40045-27.31433,6.1217-37.70312,19.85669-39.12976-.62836-32.31335,16.2771-37.0625,25.81635-37.06213,3.45575.00024,5.9458.62366,6.28381.78577-3.28137,12.73633-5.95312,15.56372,2.65881,55.2771,12.03589,55.57544-41.84052,62.99414-41.84052,62.99414-5.63477,1.00024-10.94434,1.427-15.91705,1.427-26.17151,0-42.9812-11.82678-48.38702-14.13733-7.49652-3.16467-42.17767-22.6582-50.27081-25.26514-9.19257-2.95776-16.54156-3.99304-22.30322-3.99304-7.40521,0-12.16791,1.70996-14.85626,3.24988-.09662.49536-.22278.9845-.34113,1.44324-.11963.4624-.23242.89893-.28271,1.21973l-2.14594-.33862c-1.26593,8.58081-7.578,13.20239-13.71368,17.5752-8.75458,6.31616-23.33258,17.52209-38.42938,17.52209-8.13208,0-13.09949-4.38379-14.78552-11.01135l4.28009-1.48669v-.1322c-6.77802-.11157-14.43542-3.46362-14.43542-10.17065,0-5.39539,9.28632-9.98669,9.28632-16.30298,0-10.70007-8.66376-6.31628-8.66376-16.31604ZM577.50908,88.89511h17.00342c12.45093-2.85339,17.0033-10.07751,29.77856-10.07751,9.18262,0,13.51453,6.1217,20.27173,6.1217,5.69373,0,14.47424-6.5238,24.0719-6.5238,9.81812,0,14.68176,5.91418,21.11475,8.65088,2.20001.94714,4.68311,1.49475,7.34393,1.82776l1.49506-.00244s.00012.06323.00031.177c3.14899.29211,6.52789.32043,10.01569.32043.74908,0,1.5022-.00122,2.25983-.00122-.22052,5.69385,0,9.0918,0,13.87769,0,4.88953,6.54968,2.95703,6.54968,10.89453,0,8.36548-8.45624,6.73132-8.45624,10.07751l-.31128,31.08862c.41498,3.86487,8.23578,4.37073,8.23578,10.27197,0,8.76758-8.7027,5.73267-8.13208,12.64551.41504,5.09705,0,15.90088,0,15.90088-8.39343,0-39.02856.026-68.22015.026-29.17737,0-56.91272-.026-59.55798-.12976.32422-11.50415-.18152-9.93481.22058-15.48584.31128-4.48755-9.72742-7.22424-9.72742-14.77258,0-5.20093,6.01807-4.88965,6.5498-9.77917v-30.9718c-.31128-4.07263-9.40308-6.10876-9.07886-11.91919.3761-6.93896,8.4563-6.05701,8.4563-10.70007.01294-2.03625.2334-9.57166.1167-11.51709ZM218.47539,488.7789c0-29.05225,24.40912-52.61841,54.5249-52.61841s54.53784,23.55322,54.53784,52.61841-24.42206,52.61829-54.53784,52.61829c-30.10284-.01306-54.5249-23.56604-54.5249-52.61829ZM410.99108,737.75003c-.14209,0-.2832-.00293-.41602-.00684-15.93262-.54297-89.65479-31.39844-161.28076-97.67578-2.09827-1.94159-4.21118-3.93323-6.33344-5.96625l180.41089-182.68823,172.64795,177.36768c-79.2345,72.40002-167.00537,108.96942-185.02863,108.96942ZM368.40587,362.40145c0-29.06519,24.40912-52.61841,54.5249-52.61841s54.5249,23.54028,54.5249,52.61841-24.40912,52.60535-54.5249,52.60535-54.5249-23.54016-54.5249-52.60535ZM564.39202,541.39718c-30.12872-.01306-54.55084-23.56604-54.55084-52.61829s24.42206-52.61841,54.55084-52.61841c30.11578,0,54.5249,23.55322,54.5249,52.61841s-24.40912,52.61829-54.5249,52.61829ZM692.22741,506.54794c-.19678.37646-.40674.74951-.60492,1.12573L423.16424,248.96786,149.99376,507.66232c-20.96387-44.15869-34.96936-95.80505-34.79028-154.89612l.02466-118.05908,616.44147-.07666.00018,119.38623c-.875,52.81738-14.14551,104.13574-39.44238,152.53125Z"/>
  </g>
  <path class="st0" d="M956.4683,503.18825c0,70.77602,16.91258,90.7365,64.69317,90.7365v16.95147h-205.03904v-16.95147c39.81722,0,64.69322-12.96976,64.69322-88.73917V147.28492c0-69.79026-16.92555-90.72354-64.69317-90.72354v-16.95147h208.02208c157.2584,0,220.96591,83.74578,220.96591,162.49817,0,94.71821-71.67093,147.54404-201.04432,147.54404-24.88896,0-45.78325-.99872-87.5848-5.97904v159.51518h-.01306ZM956.4683,317.77253c25.87472,8.96213,40.80283,9.97371,70.67222,9.97371,84.58885,0,138.34848-45.86113,138.34848-123.62777,0-60.81527-33.83813-142.56361-138.34848-142.56361h-70.67222v256.21767ZM1258.05421,395.5262c-1.98437,158.5035,92.55226,198.39845,140.33285,198.39845,48.79227,0,73.66827-16.95147,124.43195-73.78503v25.9136c-42.81323,54.84919-83.61605,75.79533-145.32624,75.79533-110.47643,0-190.09781-76.78098-190.09781-183.45728,0-106.66333,77.62405-190.40911,177.18-190.40911,81.59279,0,157.23247,65.79559,152.26501,147.54404h-258.78575ZM1450.1364,378.57473c2.98309-77.76674-49.752-109.65938-94.53663-109.65938-58.71413,0-93.5769,43.86379-97.54565,109.65938h192.08228ZM1899.007,534.09525c0,45.87409,9.98677,59.82951,59.72571,59.82951v16.95147h-188.10038v-16.95147c47.78069,0,60.72453-10.97243,60.72453-43.87676v-184.43007c0-56.83346-40.80283-80.74973-78.62267-80.74973-34.86277,0-65.70475,21.9319-100.5416,68.79164v172.45892c0,53.85047,6.9648,67.81885,59.72571,67.81885v16.95147h-186.14203v-16.95147c46.78197,0,58.74006-4.00763,58.74006-67.81895v-198.38539c0-42.86508-10.97243-51.84017-58.74006-51.84017v-16.95147l109.47781-10.97243h16.92555v70.78898c41.82747-47.85846,82.6303-70.78898,127.41494-70.78898,58.71403,0,119.41263,41.87932,119.41263,126.61086v159.51508l-.0002.0001Z"/>
  <path class="st0" d="M2329.99223,534.09525c0,45.87409,9.93492,59.82951,59.71285,59.82951v16.95147h-188.11344v-16.95147c47.78069,0,60.72453-10.97243,60.72453-43.87676v-184.43007c0-56.83346-40.80283-80.74973-78.62267-80.74973-34.86277,0-65.67883,21.9319-100.5416,68.79164v172.45892c0,53.85047,6.9648,67.81885,59.72571,67.81885v16.95147h-186.14213v-16.95147c46.78187,0,58.71403-4.00763,58.71403-67.81895v-198.38539c0-42.86508-10.94641-51.84017-58.71403-51.84017v-16.95147l109.47771-10.97243h16.92545v70.78898c41.80165-47.85846,82.60447-70.78898,127.41504-70.78898,58.71403,0,119.43856,41.87932,119.43856,126.61086v159.51518ZM836.35529,712.24793c0,15.83609,4.29301,27.91094,21.11476,27.91094,15.47294,0,23.60497-10.38881,23.60497-28.49455v-31.43876c0-2.38641-.45399-4.28005-.67445-6.10877-.55769-4.07254-4.40967-5.65478-9.71436-6.21247v-2.9441h26.63991v2.9441c-5.42135.55769-9.14371,2.12706-9.71436,6.21247-.23343,1.82872-.67445,3.72236-.67445,6.10877v31.89265c0,24.31831-15.47294,33.35822-30.02504,33.35822-24.05896,0-31.51653-12.20457-31.51653-32.68376v-33.72137c0-10.51844.45394-9.93482-9.71436-11.16697v-2.9441h30.37523v2.9441c-10.16825,1.24511-9.71436.66149-9.71436,11.16697v33.17664h.01306ZM961.25408,744.14058c-13.85172-16.41971-28.2352-33.61767-42.42415-50.36164v38.58503c0,1.82872.35019,3.29429.53177,4.70801.44093,3.13864,3.39809,4.35782,9.14371,4.78589v2.28271h-21.34828v-2.28271c4.17625-.42797,7.05554-1.64715,7.4836-4.78589.18158-1.41372.53177-2.89225.53177-4.70801v-41.11413c-2.43836-3.13864-5.13608-5.92719-10.10344-5.92719v-2.28271h15.84905c12.98273,15.81017,26.48426,31.86672,39.46698,47.65096h.16861v-35.87435c0-1.82872-.35019-3.32022-.53177-4.70801-.44093-3.13864-3.39809-4.35782-9.14371-4.78589v-2.28271h21.34828v2.28271c-4.09847.42797-7.05554,1.64715-7.4836,4.78589-.18158,1.38779-.53177,2.89225-.53177,4.70801v49.32403h-2.95707ZM1005.94788,733.22c0,8.1061-.33723,7.67814,7.49656,8.63787v2.28271h-23.43635v-2.28271c7.83369-.95973,7.49656-.53177,7.49656-8.63787v-39.25948c0-8.13203.35019-7.67814-7.49656-8.63787v-2.28271h23.43635v2.28271c-7.83369.95973-7.49656.50584-7.49656,8.63787v39.25948ZM1050.55094,685.32265c-4.78589,0-8.27472,1.38779-5.40839,9.77917,3.39809,10.28501,8.45629,25.27804,12.98273,38.5591,5.577-13.34588,10.89455-26.76963,16.28998-40.12847,2.17891-5.49923-.09084-8.2099-6.01793-8.2099v-2.28271h18.81908v2.28271c-2.51614,0-5.39543.85603-7.23711,5.21385-7.31499,17.9112-14.72071,35.7187-22.0356,53.60408h-4.44866c-5.31765-15.09683-11.24474-31.9445-16.54943-46.78197-3.21652-9.32528-5.92719-12.03596-10.10344-12.03596v-2.28271h23.70877v2.28281ZM1100.65313,741.85787c7.83369-.95973,7.49656-.53177,7.49656-8.63787v-39.25948c0-8.13203.35019-7.67814-7.49656-8.63787v-2.28271h38.93522v14.05922h-2.26975c-.86899-6.45896-2.60688-11.27077-8.88426-11.27077h-11.85438v24.9798h7.31499c5.48617,0,7.83369-2.17891,8.01527-7.60026h2.26975v18.59862h-2.26975c-.18158-5.13608-2.17891-8.2099-8.01527-8.2099h-7.31499v19.72706c0,7.41869,3.41105,8.0023,11.24474,8.0023,12.63254,0,12.023-3.56671,16.03063-12.89199h2.26975l-2.61994,15.70637h-42.86508v-2.28271h.01296l.0001.0002ZM1159.4581,683.03994h25.35591c8.80648,0,17.6,4.63024,17.6,14.85034,0,8.98806-5.48617,15.1746-12.19161,17.8075l8.54703,12.99569c4.34486,6.38108,9.23445,12.48985,12.26939,14.31857v1.14131h-8.96213c-5.13608,0-7.93749-9.51982-18.46899-27.05491h-8.19694v16.13443c0,8.1061-.35019,7.67814,7.49656,8.63787v2.28271h-23.43635v-2.28271c7.83369-.95973,7.49656-.53177,7.49656-8.63787v-39.25948c0-8.13203.33723-7.67814-7.49656-8.63787v-2.29567h-.01296l.0001.0001ZM1175.39789,714.29712h7.23711c7.57434,0,11.07613-5.77154,11.07613-15.62859,0-9.51982-5.22681-12.84004-11.59493-12.84004h-6.71831v28.46863ZM1254.16325,696.03573c-.70038-6.10877-4.00763-10.99835-10.97243-10.99835-5.0582,0-9.58464,2.6329-9.58464,9.09176,0,6.10877,6.10877,9.77917,14.82441,16.31601,9.22148,6.88692,12.20457,11.34854,12.20457,18.59862,0,10.38881-10.64817,16.13443-21.10179,16.13443-5.56404,0-10.36289-1.0376-14.88932-2.78845-.35019-.18158-.60954-.53177-.60954-1.21918v-12.56772h2.26975c.95973,9.67547,7.31499,13.52746,14.03329,13.52746,6.09462.11468,11.12828-4.73305,11.24296-10.82766.00158-.08718.00218-.17435.00178-.26153,0-5.6808-3.0479-10.28501-16.12137-18.94881-4.70801-3.13864-10.5314-6.53673-10.5314-16.05656,0-7.84675,8.70268-14.03329,18.72834-14.03329,3.74828,0,8.71564.42797,12.19161,1.64715.53177.18158.60954.53177.60954.95973v11.42632h-2.29567l-.0001.0001ZM1292.24253,733.22c0,8.1061-.35019,7.67814,7.49656,8.63787v2.28271h-23.43635v-2.28271c7.83369-.95973,7.47054-.53177,7.47054-8.63787v-39.25948c0-8.13203.35019-7.67814-7.47054-8.63787v-2.28271h23.43635v2.28271c-7.84675.95973-7.49656.50584-7.49656,8.63787v39.25948ZM1342.77269,733.22c0,8.1061-.35019,7.67814,7.49656,8.63787v2.28271h-23.46228v-2.28271c7.84675-.95973,7.49656-.53177,7.49656-8.63787v-47.39151h-7.83369c-7.57434,0-9.32528,4.81181-12.20457,10.55743h-2.17891l2.36049-13.34588h48.18263l2.36049,13.34588h-2.17891c-2.89225-5.74562-4.60431-10.55743-12.20457-10.55743h-7.83369v47.39151h-.0001ZM1390.34577,741.85787c7.83369-.95973,7.49656-.53177,7.49656-8.63787v-13.42375l-13.42375-26.62695c-2.89225-5.6808-5.31765-7.84675-9.32528-7.84675v-2.28271h22.21717v2.28271c-6.61461,0-6.00497,3.32022-3.85198,7.84675l10.55743,21.89301,12.01003-21.89301c2.97003-5.31765.18158-7.84675-4.96746-7.84675v-2.28271h17.96315v2.28271c-2.45132,0-4.78589,1.14131-7.14637,5.31765l-14.53913,26.44537c-.88195,1.75095-1.06353,4.17625-1.06353,6.35516v9.77917c0,8.1061-.32426,7.67814,7.49656,8.63787v2.28271h-23.43635v-2.28271h.01296v.0001ZM1468.69613,723.22027c0-14.82441,12.76226-36.98973,31.62033-36.98973,15.01895,0,18.28742,10.18131,18.28742,20.36253,0,12.438-9.93482,38.88337-31.49061,38.88337-14.46126.01296-18.41704-11.64688-18.41704-22.25616h-.0001ZM1508.21496,701.15874c0-11.75058-7.12045-12.20457-8.92324-12.20457-12.17865,0-20.21984,21.9319-20.21984,36.65251,0,5.84932,1.01168,16.48462,9.37713,16.48462,12.87893,0,19.76595-21.25744,19.76595-40.93255ZM1575.39845,689.95289l-2.71068,2.38641h-14.79849c-5.52515,26.89926-14.56506,62.77361-20.99809,79.94565h-5.07116l16.13443-79.94565h-10.71298l1.01168-4.75986h10.60928c5.97904-24.08488,25.83573-26.57509,30.59569-26.57509,2.58095,0,8.0023.45399,9.7014,2.02326l-1.34881,7.47054-2.8404,1.36187c-1.56937-3.06087-5.18793-6.56266-9.93482-6.56266-6.78322,0-11.85438,4.63024-14.56506,16.84777l-1.24511,5.42135h16.58832l-.415,2.38641h-.0002ZM1644.26787,730.00349c0,10.51844-.45399,9.96075,9.7014,11.19289v2.9441h-30.3492v-2.9441c10.15529-1.24511,9.7014-.68742,9.7014-11.19289v-50.91933c0-10.51844.45399-9.93482-9.7014-11.16697v-2.9441h29.55809c18.7414,0,28.01474,7.44461,28.01474,21.02402,0,16.28998-14.69469,25.10943-31.97042,24.08488v-2.28271c14.137.23343,20.67373-8.23583,20.67373-20.67383,0-12.69735-6.10867-18.57269-18.74131-18.57269h-6.88692v61.45073h-.0001ZM1696.75656,741.85787c7.84665-.95973,7.49656-.53177,7.49656-8.63787v-39.25948c0-8.13203.35009-7.67814-7.49656-8.63787v-2.28271h38.96114v14.05922h-2.28261c-.85593-6.45896-2.60697-11.27077-8.87139-11.27077h-11.85438v24.9798h7.31489c5.4732,0,7.83379-2.17891,8.0024-7.60026h2.25669v18.59862h-2.25669c-.18167-5.13608-2.17891-8.2099-8.0024-8.2099h-7.31489v19.72706c0,7.41869,3.39799,8.0023,11.21892,8.0023,12.6456,0,12.03586-3.56671,16.03053-12.89199h2.28261l-2.60697,15.70637h-42.8911v-2.28271h.01306l.0002.0002ZM1811.43516,744.14058c-13.85162-16.41971-28.24807-33.61767-42.42405-50.36164v38.58503c0,1.82872.32416,3.29429.50584,4.70801.45399,3.13864,3.39799,4.35782,9.14371,4.78589v2.28271h-21.33532v-2.28271c4.17634-.42797,7.04257-1.64715,7.47064-4.78589.18167-1.41372.53177-2.89225.53177-4.70801v-41.11413c-2.43836-3.13864-5.13598-5.92719-10.10354-5.92719v-2.28271h15.86212c12.99569,15.81017,26.49722,31.86672,39.46698,47.65096h.18167v-35.87435c0-1.82872-.35009-3.32022-.53177-4.70801-.42806-3.13864-3.39799-4.35782-9.14371-4.78589v-2.28271h21.34818v2.28271c-4.09837.42797-7.0685,1.64715-7.49656,4.78589-.18167,1.38779-.53177,2.89225-.53177,4.70801v49.32403h-2.9442ZM1889.48728,744.14058c-13.85162-16.41971-28.22214-33.61767-42.42405-50.36164v38.58503c0,1.82872.35009,3.29429.53177,4.70801.42806,3.13864,3.39799,4.35782,9.14371,4.78589v2.28271h-21.33532v-2.28271c4.15042-.42797,7.04257-1.64715,7.47064-4.78589.18167-1.41372.53177-2.89225.53177-4.70801v-41.11413c-2.43836-3.13864-5.13598-5.92719-10.10354-5.92719v-2.28271h15.86212c12.96976,15.81017,26.47129,31.86672,39.46698,47.65096h.18167v-35.87435c0-1.82872-.35009-3.32022-.53177-4.70801-.42806-3.13864-3.39799-4.35782-9.14371-4.78589v-2.28271h21.34818v2.28271c-4.09837.42797-7.0685,1.64715-7.49656,4.78589-.18167,1.38779-.53177,2.89225-.53177,4.70801v49.32403h-2.97013ZM1946.20407,696.03573c-.68732-6.10877-4.00773-10.99835-10.97233-10.99835-5.07126,0-9.57177,2.6329-9.57177,9.09176,0,6.10877,6.08274,9.77917,14.79859,16.31601,9.24741,6.88692,12.20447,11.34854,12.20447,18.59862,0,10.38881-10.6353,16.13443-21.10179,16.13443-5.5769,0-10.36279-1.0376-14.88922-2.78845-.32416-.18158-.60954-.53177-.60954-1.21918v-12.56772h2.28261c.9339,9.67547,7.31489,13.52746,14.00737,13.52746,6.09462.11468,11.12828-4.73295,11.24306-10.82756.00158-.08728.00218-.17445.00178-.26163,0-5.6808-3.03484-10.28501-16.1085-18.94881-4.70811-3.13864-10.55733-6.53673-10.55733-16.05656,0-7.84675,8.74157-14.03329,18.7414-14.03329,3.74828,0,8.71564.42797,12.17855,1.64715.53177.18158.63547.53177.63547.95973v11.42632h-2.28261l-.0002.0001ZM1981.31323,741.85787c7.84665-.95973,7.49656-.53177,7.49656-8.63787v-13.42375l-13.42375-26.62695c-2.86623-5.6808-5.29173-7.84675-9.32518-7.84675v-2.28271h22.21717v2.28271c-6.61451,0-6.00497,3.32022-3.82606,7.84675l10.5314,21.89301,12.03586-21.89301c2.97013-5.31765.18167-7.84675-4.96736-7.84675v-2.28271h17.96305v2.28271c-2.45123,0-4.81181,1.14131-7.1722,5.31765l-14.53913,26.44537c-.85593,1.75095-1.0376,4.17625-1.0376,6.35516v9.77917c0,8.1061-.35009,7.67814,7.47064,8.63787v2.28271h-23.43645v-2.28271h.01306v.0001ZM2034.28175,741.85787c7.84665-.95973,7.49656-.53177,7.49656-8.63787v-39.25948c0-8.13203.35009-7.67814-7.49656-8.63787v-2.28271h23.43645v2.28271c-7.83379.95973-7.47064.50584-7.47064,8.63787v40.66024c0,6.13469,3.39799,6.71831,11.14094,6.71831,12.6456,0,12.11383-3.56671,16.1085-12.89199h2.17891l-2.60697,15.70637h-42.7872v-2.29567.0001ZM2110.08984,685.32265c-4.78589,0-8.28778,1.38779-5.42135,9.77917,3.42412,10.28501,8.45619,25.27804,12.99569,38.5591,5.5769-13.34588,10.89455-26.76963,16.28998-40.12847,2.17891-5.49923-.1037-8.2099-6.00497-8.2099v-2.28271h18.79326v2.28271c-2.50308,0-5.39543.85603-7.22425,5.21385-7.31489,17.9112-14.72061,35.7187-22.0357,53.60408h-4.46152c-5.45975-15.61246-10.97213-31.20642-16.53637-46.78197-3.21652-9.32528-5.92719-12.03596-10.10354-12.03596v-2.28271h23.70877v2.28281ZM2161.2426,723.90768l-4.03366,11.67281c-1.14131,3.39809.53177,6.27738,4.35782,6.27738v2.28271h-15.86212v-2.28271c2.36059,0,4.88959-1.46557,6.27728-4.35782,3.74828-7.67814,13.92959-36.22454,21.17957-55.49761h4.86366c5.92719,17.53509,14.82451,44.40852,17.78158,52.1774,1.89353,4.88959,3.29429,7.67814,7.0685,7.67814v2.28271h-20.31058v-2.28271c5.49913,0,6.00497-2.89225,4.60421-6.71831l-3.74828-11.24474h-22.17838v.01296l.0004-.0002ZM2182.31846,720.56144l-9.24741-28.35187h-.18167l-10.36279,28.35187h19.79187ZM2269.96827,744.14058c-13.85162-16.41971-28.24807-33.61767-42.42405-50.36164v38.58503c0,1.82872.35009,3.29429.53177,4.70801.42806,3.13864,3.37207,4.35782,9.11778,4.78589v2.28271h-21.33532v-2.28271c4.17634-.42797,7.0685-1.64715,7.49656-4.78589.18167-1.41372.50584-2.89225.50584-4.70801v-41.11413c-2.43836-3.13864-5.12311-5.92719-10.07741-5.92719v-2.28271h15.83599c12.99569,15.81017,26.49722,31.86672,39.46698,47.65096h.18167v-35.87435c0-1.82872-.32416-3.32022-.50584-4.70801-.45399-3.13864-3.42412-4.35782-9.16963-4.78589v-2.28271h21.34818v2.28271c-4.09837.42797-7.04257,1.64715-7.47064,4.78589-.18167,1.38779-.53177,2.89225-.53177,4.70801v49.32403h-2.97013ZM2311.17324,733.22c0,8.1061-.35009,7.67814,7.49656,8.63787v2.28271h-23.46238v-2.28271c7.84665-.95973,7.49656-.53177,7.49656-8.63787v-39.25948c0-8.13203.35009-7.67814-7.49656-8.63787v-2.28271h23.46238v2.28271c-7.84665.95973-7.49656.50584-7.49656,8.63787v39.25948ZM2347.57926,723.90768l-4.00773,11.67281c-1.11538,3.39809.53177,6.27738,4.35782,6.27738v2.28271h-15.86212v-2.28271c2.36059,0,4.88959-1.46557,6.27728-4.35782,3.74828-7.67814,13.92959-36.22454,21.15364-55.49761h4.88959c5.92719,17.53509,14.82451,44.40852,17.78158,52.1774,1.89353,4.88959,3.29429,7.67814,7.04257,7.67814v2.28271h-20.28465v-2.28271c5.49913,0,6.00497-2.89225,4.60421-6.71831l-3.74828-11.24474h-22.20431v.01296l.0004-.0002ZM2368.68106,720.56144l-9.24741-28.35187h-.18167l-10.36279,28.35187h19.79187Z"/>
</svg>