<?xml version="1.0" encoding="UTF-8"?>
<svg id="Calque_1" data-name="Calque 1" xmlns="http://www.w3.org/2000/svg" viewBox="0 0 159.16 159.16">
  <defs>
    <style>
      .cls-1 {
        fill: #260085;
      }

      .cls-2 {
        fill: #ff540a;
      }
    </style>
  </defs>
  <rect class="cls-2" x="0" width="159.16" height="159.16"/>
  <path class="cls-1" d="M125.39,97.65c-5.5-3.98-11.71-5.97-18.62-5.97-8.8,0-16.87,3.67-24.2,11l-31.9,31.9c-8.17-5.45-14.67-12.57-19.49-21.37-4.82-8.8-7.23-18.28-7.23-28.44,0-6.91,1.26-13.88,3.77-20.9h45.73v-6.6H26.15c-2.93-4.09-5.29-8.49-7.07-13.2h54.37v-6.6H17.03c-1.05-4.09-1.68-8.38-1.89-12.89l68.83.16c10.9,0,20.93,2.7,30.1,8.09,9.17,5.4,16.45,12.68,21.84,21.84,5.39,9.17,8.09,19.2,8.09,30.09,0,10.16-2.36,19.64-7.07,28.44-2.2-6.39-6.05-11.58-11.55-15.56ZM118.95,69.76c1.31-1.31,1.96-2.91,1.96-4.79s-.66-3.48-1.96-4.79c-1.31-1.31-2.91-1.96-4.79-1.96s-3.48.66-4.79,1.96c-1.31,1.31-1.96,2.91-1.96,4.79s.65,3.48,1.96,4.79c1.31,1.31,2.91,1.96,4.79,1.96s3.48-.65,4.79-1.96Z"/>
</svg>