<?xml version="1.0" encoding="UTF-8"?>
<svg id="Calque_1" xmlns="http://www.w3.org/2000/svg" xmlns:xlink="http://www.w3.org/1999/xlink" version="1.1" viewBox="0 0 500 440">
  <!-- Generator: Adobe Illustrator 29.1.0, SVG Export Plug-In . SVG Version: 2.1.0 Build 142)  -->
  <defs>
    <style>
      .st0 {
        fill: none;
      }

      .st1 {
        fill: #ff540a;
      }

      .st2 {
        opacity: .2;
      }

      .st3 {
        clip-path: url(#clippath);
      }
    </style>
    <clipPath id="clippath">
      <rect class="st0" width="500" height="440"/>
    </clipPath>
  </defs>
  <g class="st2">
    <g class="st3">
      <path class="st1" d="M1150.67009-42.59689c-57.68718-41.74444-122.78911-62.63309-195.3099-62.63309-92.2962,0-176.91885,38.47455-253.81455,115.37436l-334.57989,334.57578c-85.70303-57.12029-153.8448-131.85113-204.37192-224.15144C112.04207,28.27252,86.77851-71.15909,86.77851-177.74666c0-72.52079,13.18635-145.57972,39.55493-219.20758h479.61736v-69.22215H109.85256c-30.77225-42.85151-55.49767-89.00167-74.16806-138.44635h570.2663v-69.22215H14.26183c-10.99684-42.85151-17.59001-87.89459-19.77952-135.14977l721.89694,1.64727c114.26112,0,219.46022,28.3034,315.62195,84.88145,96.13297,56.60475,172.49054,132.96026,229.09323,229.09529,56.57805,96.15968,84.88145,201.35878,84.88145,315.624,0,106.58757-24.72132,206.01918-74.16806,298.31538-23.07405-67.00799-63.45466-121.39653-121.13774-163.16562ZM1083.09521-335.14685c13.72448-13.72653,20.6011-30.49086,20.6011-50.27037,0-19.77746-6.87662-36.51714-20.6011-50.26832-13.75323-13.72653-30.49291-20.6011-50.26832-20.6011-19.77952,0-36.54384,6.87456-50.27243,20.6011-13.74913,13.75118-20.6011,30.49086-20.6011,50.26832,0,19.77952,6.85197,36.54384,20.6011,50.27037,13.72859,13.75118,30.49291,20.6011,50.27243,20.6011,19.77541,0,36.51508-6.84992,50.26832-20.6011Z"/>
    </g>
  </g>
</svg>