<?xml version="1.0" encoding="UTF-8"?>
<svg id="Calque_1" xmlns="http://www.w3.org/2000/svg" xmlns:xlink="http://www.w3.org/1999/xlink" version="1.1" viewBox="0 0 500 440">
  <!-- Generator: Adobe Illustrator 29.1.0, SVG Export Plug-In . SVG Version: 2.1.0 Build 142)  -->
  <defs>
    <style>
      .st0 {
        fill: none;
      }

      .st1 {
        opacity: .2;
      }

      .st2 {
        clip-path: url(#clippath);
      }
    </style>
    <clipPath id="clippath">
      <rect class="st0" y="0" width="500" height="440"/>
    </clipPath>
  </defs>
  <g class="st1">
    <g class="st2">
      <path d="M361.40604,389.54468c-25.48734-18.44351-54.25064-27.67252-86.29172-27.67252-40.77826,0-78.1662,16.99881-112.14023,50.97464L15.15016,560.66895c-37.86527-25.23688-67.97164-58.25439-90.2955-99.03448-22.33476-40.77826-33.49669-84.70911-33.49669-131.80157,0-32.04111,5.82598-64.31995,17.47614-96.85019H120.73842v-30.58369H-98.44746c-13.59578-18.93263-24.51995-39.32268-32.7689-61.1683H120.73842v-30.5837H-140.68132c-4.85863-18.93264-7.77161-38.83355-8.73898-59.71181l318.94815.72779c50.48279,0,96.96181,12.505,139.44792,37.50228,42.47342,25.00908,76.20969,58.74445,101.21786,101.21878,24.99728,42.48523,37.50229,88.96423,37.50229,139.44885,0,47.09247-10.92236,91.02332-32.76889,131.80157-10.19458-29.60544-28.03552-53.63538-53.52103-72.08975l.00003-.00003ZM331.55014,260.29041c6.06375-6.06465,9.10196-13.47147,9.10196-22.21043,0-8.73807-3.03821-16.13399-9.10196-22.20953-6.07645-6.06465-13.47235-9.10197-22.20953-9.10197-8.73898,0-16.14578,3.03732-22.21133,9.10197-6.07462,6.07555-9.10196,13.47147-9.10196,22.20953,0,8.73898,3.02734,16.14578,9.10196,22.21043,6.06555,6.07553,13.47235,9.10196,22.21133,9.10196,8.73715,0,16.13309-3.02643,22.20953-9.10196Z"/>
    </g>
  </g>
</svg>