<?xml version="1.0" encoding="UTF-8"?>
<svg id="Calque_1" xmlns="http://www.w3.org/2000/svg" xmlns:xlink="http://www.w3.org/1999/xlink" version="1.1" viewBox="0 0 500 440">
  <!-- Generator: Adobe Illustrator 29.1.0, SVG Export Plug-In . SVG Version: 2.1.0 Build 142)  -->
  <defs>
    <style>
      .st0 {
        fill: none;
      }

      .st1 {
        fill: #ff540a;
      }

      .st2 {
        opacity: .2;
      }

      .st3 {
        clip-path: url(#clippath);
      }
    </style>
    <clipPath id="clippath">
      <rect class="st0" width="500" height="440"/>
    </clipPath>
  </defs>
  <g class="st2">
    <g class="st3">
      <path class="st1" d="M361.40604,389.54468c-25.48732-18.44351-54.25063-27.67252-86.29173-27.67252-40.77826,0-78.1662,16.99881-112.14022,50.97464L15.15016,560.66892c-37.86527-25.23686-67.97164-58.2544-90.2955-99.03448-22.33476-40.77826-33.49669-84.70909-33.49669-131.80156,0-32.0411,5.82598-64.31996,17.47614-96.85019H120.73842v-30.5837H-98.44746c-13.59578-18.93264-24.51995-39.32267-32.7689-61.1683H120.73842v-30.5837H-140.68132c-4.85862-18.93264-7.77161-38.83355-8.73898-59.71181l318.94816.72779c50.48279,0,96.96181,12.505,139.44794,37.50228,42.47343,25.00908,76.20969,58.74444,101.21786,101.21877,24.99729,42.48522,37.50228,88.96424,37.50228,139.44885,0,47.09247-10.92236,91.0233-32.7689,131.80156-10.19457-29.60544-28.03551-53.63536-53.52102-72.08976ZM331.55014,260.2904c6.06374-6.06465,9.10197-13.47146,9.10197-22.21043,0-8.73807-3.03822-16.13398-9.10197-22.20953-6.07645-6.06465-13.47236-9.10197-22.20953-9.10197-8.73898,0-16.14578,3.03732-22.21134,9.10197-6.07463,6.07554-9.10197,13.47146-9.10197,22.20953,0,8.73898,3.02733,16.14578,9.10197,22.21043,6.06556,6.07554,13.47236,9.10197,22.21134,9.10197,8.73716,0,16.13308-3.02643,22.20953-9.10197Z"/>
    </g>
  </g>
</svg>