<?xml version="1.0" encoding="UTF-8"?>
<svg id="Calque_1" xmlns="http://www.w3.org/2000/svg" xmlns:xlink="http://www.w3.org/1999/xlink" version="1.1" viewBox="0 0 500 440">
  <!-- Generator: Adobe Illustrator 29.1.0, SVG Export Plug-In . SVG Version: 2.1.0 Build 142)  -->
  <defs>
    <style>
      .st0 {
        fill: none;
      }

      .st1 {
        opacity: .2;
      }

      .st2 {
        clip-path: url(#clippath);
      }
    </style>
    <clipPath id="clippath">
      <rect class="st0" y="0" width="500" height="440"/>
    </clipPath>
  </defs>
  <g class="st1">
    <g class="st2">
      <path d="M1150.67004-42.59689c-57.68713-41.74443-122.78906-62.63309-195.30994-62.63309-92.2962,0-176.91882,38.47455-253.81458,115.37436l-334.5799,334.57578c-85.70303-57.1203-153.8448-131.85114-204.37192-224.15144C112.04207,28.27252,86.77851-71.15909,86.77851-177.74666c0-72.5208,13.18635-145.57973,39.55493-219.20757h479.61736v-69.22217H109.85256c-30.77225-42.8515-55.49767-89.00165-74.16806-138.44635h570.2663v-69.22217H14.26183c-10.99684-42.8515-17.59001-87.89459-19.77952-135.14978l721.8969,1.64728c114.26111,0,219.46021,28.30341,315.62201,84.88147,96.13293,56.60474,172.49048,132.96027,229.09326,229.09528,56.578,96.15967,84.88147,201.35876,84.88147,315.62399,0,106.58757-24.72131,206.01918-74.16809,298.31537-23.0741-67.00799-63.45471-121.39653-121.1377-163.16562l-.00012.00003ZM1083.09521-335.14685c13.72449-13.72653,20.60107-30.49084,20.60107-50.27039,0-19.77747-6.87659-36.51715-20.60107-50.26831-13.75317-13.72653-30.49292-20.6011-50.26831-20.6011-19.77954,0-36.54382,6.87457-50.27246,20.6011-13.74915,13.75119-20.60107,30.49084-20.60107,50.26831,0,19.77951,6.85199,36.54382,20.60107,50.27039,13.72858,13.75119,30.49292,20.6011,50.27246,20.6011,19.77539,0,36.51514-6.84991,50.26831-20.6011Z"/>
    </g>
  </g>
</svg>