<?xml version="1.0" encoding="UTF-8"?>
<svg id="Layer_1" xmlns="http://www.w3.org/2000/svg" version="1.1" viewBox="0 0 217.5 79.8">
  <!-- Generator: Adobe Illustrator 29.1.0, SVG Export Plug-In . SVG Version: 2.1.0 Build 142)  -->
  <defs>
    <style>
      .st0 {
        fill: #fff;
      }
    </style>
  </defs>
  <g>
    <path class="st0" d="M86.3,34.5l-.8,2.6h-1.7l2.9-9.1h2.1l3,9.1h-1.8l-.8-2.6h-2.9ZM88.9,33.3l-.7-2.2c-.2-.6-.3-1.2-.5-1.7h0c-.1.5-.3,1.2-.4,1.7l-.7,2.2h2.3Z"/>
    <path class="st0" d="M92.7,35.6c.4.2,1.1.5,1.7.5s1.1-.3,1.1-.7-.3-.7-1.1-1c-1.3-.4-1.8-1.1-1.8-1.9,0-1.2,1-2.1,2.5-2.1s1.4.2,1.8.4l-.3,1.2c-.3-.2-.8-.4-1.4-.4s-.9.3-.9.7.3.6,1.1.9c1.2.4,1.7,1,1.8,2,0,1.2-.9,2.1-2.7,2.1s-1.5-.2-2-.5l.3-1.2Z"/>
    <path class="st0" d="M98.1,35.6c.4.2,1.1.5,1.7.5s1.1-.3,1.1-.7-.3-.7-1.1-1c-1.3-.4-1.8-1.1-1.8-1.9,0-1.2,1-2.1,2.5-2.1s1.4.2,1.8.4l-.3,1.2c-.3-.2-.8-.4-1.4-.4s-.9.3-.9.7.3.6,1.1.9c1.2.4,1.7,1,1.8,2,0,1.2-.9,2.1-2.7,2.1s-1.5-.2-2-.5l.3-1.2Z"/>
    <path class="st0" d="M106.5,37.3c-1.8,0-3.3-1.3-3.3-3.4s1.4-3.5,3.4-3.5,3.3,1.4,3.3,3.4-1.7,3.5-3.4,3.5h0ZM106.5,36.1c.9,0,1.6-.9,1.6-2.3s-.5-2.2-1.6-2.2-1.6,1.1-1.6,2.2.6,2.2,1.6,2.2h0Z"/>
    <path class="st0" d="M115.8,36.9c-.4.2-1,.3-1.9.3-2.1,0-3.4-1.3-3.4-3.4s1.3-3.5,3.7-3.5,1.2.1,1.6.3l-.3,1.3c-.3-.1-.7-.3-1.3-.3-1.3,0-2,.9-2,2.1,0,1.4.9,2.1,2,2.1s1-.1,1.3-.3l.2,1.2Z"/>
    <path class="st0" d="M117.7,29.6c-.6,0-.9-.4-.9-.9s.4-.9.9-.9.9.4.9.9c0,.5-.4.9-.9.9h0ZM116.9,37.1v-6.6h1.7v6.6h-1.7Z"/>
    <path class="st0" d="M125.2,35.5c0,.6,0,1.2.1,1.6h-1.5v-.7h-.2c-.4.5-1.1.9-1.9.9-1.3,0-2.1-1-2.1-2,0-1.6,1.5-2.5,3.9-2.5h0c0-.5-.2-1.3-1.3-1.3s-1.3.2-1.8.5l-.3-1.1c.5-.3,1.3-.6,2.4-.6,2.1,0,2.7,1.3,2.7,2.8v2.4ZM123.6,33.9c-1.2,0-2.3.2-2.3,1.2s.4.9.9.9,1.1-.4,1.3-.9c0-.1,0-.2,0-.4v-.9Z"/>
    <path class="st0" d="M128.6,28.8v1.7h1.6v1.2h-1.6v2.9c0,.8.2,1.2.8,1.2s.5,0,.6,0v1.3c-.2,0-.7.2-1.2.2s-1.1-.2-1.4-.5c-.4-.4-.5-1-.5-1.8v-3.1h-.9v-1.2h.9v-1.2l1.6-.5Z"/>
    <path class="st0" d="M132.1,29.6c-.6,0-.9-.4-.9-.9s.4-.9.9-.9.9.4.9.9c0,.5-.4.9-.9.9h0ZM131.2,37.1v-6.6h1.7v6.6h-1.7Z"/>
    <path class="st0" d="M137.4,37.3c-1.8,0-3.3-1.3-3.3-3.4s1.4-3.5,3.4-3.5,3.3,1.4,3.3,3.4-1.7,3.5-3.4,3.5h0ZM137.4,36.1c.9,0,1.6-.9,1.6-2.3s-.5-2.2-1.6-2.2-1.6,1.1-1.6,2.2.6,2.2,1.6,2.2h0Z"/>
    <path class="st0" d="M141.9,32.5c0-.8,0-1.4,0-2h1.4v1h.1c.3-.5,1-1.1,2.1-1.1s2.3.7,2.3,2.8v3.9h-1.7v-3.7c0-.9-.4-1.7-1.3-1.7s-1.1.5-1.3,1c0,.1,0,.3,0,.5v3.9h-1.7v-4.6Z"/>
    <path class="st0" d="M152.2,37.1v-5.3h-.9v-1.2h.9v-.3c0-.9.2-1.7.8-2.2.5-.5,1.1-.6,1.7-.6s.8,0,1.1.2v1.3c-.3,0-.5-.1-.8-.1-.8,0-1.1.7-1.1,1.5v.3h1.4v1.2h-1.4v5.3h-1.7Z"/>
    <path class="st0" d="M158.8,37.3c-1.8,0-3.3-1.3-3.3-3.4s1.4-3.5,3.4-3.5,3.3,1.4,3.3,3.4-1.7,3.5-3.4,3.5h0ZM158.9,36.1c.9,0,1.6-.9,1.6-2.3s-.5-2.2-1.6-2.2-1.6,1.1-1.6,2.2.6,2.2,1.6,2.2h0Z"/>
    <path class="st0" d="M163.4,32.7c0-.9,0-1.5,0-2.1h1.4v1.2h.1c.3-.9,1.1-1.4,1.8-1.4s.3,0,.4,0v1.6c-.1,0-.3,0-.5,0-.8,0-1.3.5-1.5,1.3,0,.1,0,.3,0,.5v3.4h-1.7v-4.5Z"/>
    <path class="st0" d="M91,51.8c-.4.2-1.3.4-2.4.4-2.9,0-4.6-1.8-4.6-4.6s2.1-4.8,4.9-4.8,1.9.2,2.2.4l-.4,1.3c-.4-.2-1-.4-1.8-.4-1.8,0-3.2,1.2-3.2,3.3s1.2,3.3,3.2,3.3,1.4-.1,1.8-.3l.3,1.3Z"/>
    <path class="st0" d="M94.8,52.3c-1.8,0-3.3-1.3-3.3-3.4s1.4-3.5,3.4-3.5,3.3,1.4,3.3,3.4-1.7,3.5-3.4,3.5h0ZM94.9,51.1c.9,0,1.6-.9,1.6-2.3s-.5-2.2-1.6-2.2-1.6,1.1-1.6,2.2.6,2.2,1.6,2.2h0Z"/>
    <path class="st0" d="M99.4,47.5c0-.8,0-1.4,0-2h1.4v1h.1c.3-.5.9-1.1,2-1.1s1.5.5,1.8,1.2h0c.2-.4.5-.6.8-.8.4-.3.8-.4,1.3-.4,1.1,0,2.2.7,2.2,2.8v3.9h-1.6v-3.6c0-1.1-.4-1.7-1.2-1.7s-1,.4-1.2.9c0,.1,0,.4,0,.6v3.9h-1.6v-3.8c0-.9-.4-1.6-1.1-1.6s-1,.5-1.2.9c0,.2,0,.4,0,.6v3.9h-1.6v-4.6Z"/>
    <path class="st0" d="M110.6,47.7c0-.9,0-1.6,0-2.2h1.5v1h.1c.5-.7,1.3-1.2,2.3-1.2,1.5,0,2.8,1.3,2.8,3.3s-1.5,3.5-3,3.5-1.5-.4-1.8-.9h0v3.4h-1.7v-7.1ZM112.3,49.4c0,.2,0,.3,0,.5.2.7.8,1.2,1.5,1.2,1.1,0,1.7-.9,1.7-2.2s-.6-2.1-1.6-2.1-1.3.5-1.5,1.2c0,.1,0,.3,0,.4v1Z"/>
    <path class="st0" d="M124.2,50.1c0,.8,0,1.4,0,2h-1.4v-1h-.1c-.3.5-.9,1.1-2.1,1.1s-2.3-.7-2.3-2.9v-3.9h1.7v3.6c0,1.1.4,1.8,1.2,1.8s1.1-.5,1.3-.9c0-.1,0-.3,0-.5v-4h1.7v4.6Z"/>
    <path class="st0" d="M127.7,43.8v1.7h1.6v1.2h-1.6v2.9c0,.8.2,1.2.8,1.2s.5,0,.6,0v1.3c-.2,0-.7.2-1.2.2s-1.1-.2-1.4-.5c-.4-.4-.5-1-.5-1.8v-3.1h-.9v-1.2h.9v-1.2l1.6-.5Z"/>
    <path class="st0" d="M131.1,44.6c-.6,0-.9-.4-.9-.9s.4-.9.9-.9.9.4.9.9c0,.5-.4.9-.9.9h0ZM130.3,52.1v-6.6h1.7v6.6h-1.7Z"/>
    <path class="st0" d="M133.6,47.5c0-.8,0-1.4,0-2h1.4v1h.1c.3-.5,1-1.1,2.1-1.1s2.3.7,2.3,2.8v3.9h-1.7v-3.7c0-.9-.4-1.7-1.3-1.7s-1.1.5-1.3,1c0,.1,0,.3,0,.5v3.9h-1.7v-4.6Z"/>
    <path class="st0" d="M147,51.1c0,1.4-.3,2.4-1,3-.7.6-1.6.8-2.5.8s-1.7-.2-2.3-.5l.4-1.3c.4.2,1.1.5,1.9.5s1.9-.6,1.9-2v-.6h0c-.4.6-1,1-1.9,1-1.6,0-2.8-1.4-2.8-3.2s1.4-3.5,3-3.5,1.6.5,1.9,1h0v-.9h1.5c0,.4,0,1,0,1.9v3.7ZM145.4,48.2c0-.2,0-.3,0-.4-.2-.6-.6-1.1-1.3-1.1s-1.6.8-1.6,2.1.6,2,1.6,2,1.2-.4,1.3-1c0-.2,0-.4,0-.6v-1.1Z"/>
    <path class="st0" d="M159,48.4c0-1.2-.1-2.6-.1-3.8h0c-.3,1.1-.7,2.3-1.1,3.5l-1.3,3.9h-1.3l-1.2-3.9c-.4-1.2-.7-2.4-.9-3.5h0c0,1.2,0,2.6-.2,3.9l-.2,3.7h-1.6l.6-9.1h2.2l1.2,3.7c.3,1.1.6,2.1.8,3.2h0c.2-1,.6-2.1.9-3.2l1.3-3.6h2.2l.5,9.1h-1.6l-.2-3.7Z"/>
    <path class="st0" d="M167.3,50.5c0,.6,0,1.2.1,1.6h-1.5v-.7h-.2c-.4.5-1.1.9-1.9.9-1.3,0-2.1-1-2.1-2,0-1.6,1.5-2.5,3.9-2.5h0c0-.5-.2-1.3-1.3-1.3s-1.3.2-1.8.5l-.3-1.1c.5-.3,1.3-.6,2.4-.6,2.1,0,2.7,1.3,2.7,2.8v2.4ZM165.7,48.9c-1.2,0-2.3.2-2.3,1.2s.4.9.9.9,1.1-.4,1.3-.9c0-.1,0-.2,0-.4v-.9Z"/>
    <path class="st0" d="M173.7,51.9c-.4.2-1,.3-1.9.3-2.1,0-3.4-1.3-3.4-3.4s1.3-3.5,3.7-3.5,1.2.1,1.6.3l-.3,1.3c-.3-.1-.7-.3-1.3-.3-1.3,0-2,.9-2,2.1,0,1.3.9,2.1,2,2.1s1-.1,1.3-.3l.2,1.2Z"/>
    <path class="st0" d="M174.7,42.5h1.7v3.9h0c.2-.3.5-.6.8-.7.3-.2.7-.3,1.1-.3,1.1,0,2.3.7,2.3,2.8v3.9h-1.7v-3.7c0-.9-.4-1.7-1.3-1.7s-1.1.4-1.3.9c0,.1,0,.3,0,.5v3.9h-1.7v-9.6Z"/>
    <path class="st0" d="M183.1,44.6c-.6,0-.9-.4-.9-.9s.4-.9.9-.9.9.4.9.9c0,.5-.4.9-.9.9h0ZM182.3,52.1v-6.6h1.7v6.6h-1.7Z"/>
    <path class="st0" d="M185.5,47.5c0-.8,0-1.4,0-2h1.4v1h.1c.3-.5,1-1.1,2.1-1.1s2.3.7,2.3,2.8v3.9h-1.7v-3.7c0-.9-.4-1.7-1.3-1.7s-1.1.5-1.3,1c0,.1,0,.3,0,.5v3.9h-1.7v-4.6Z"/>
    <path class="st0" d="M194.2,49.3c0,1.2,1,1.7,2,1.7s1.3-.1,1.8-.3l.2,1.1c-.6.2-1.4.4-2.3.4-2.1,0-3.4-1.3-3.4-3.3s1.1-3.5,3.2-3.5,2.8,1.8,2.8,3.2,0,.6,0,.7h-4.4ZM197.1,48.1c0-.6-.3-1.6-1.4-1.6s-1.5.9-1.5,1.6h2.9Z"/>
    <path class="st0" d="M199.8,47.7c0-.9,0-1.5,0-2.1h1.4v1.2h.1c.3-.9,1.1-1.4,1.8-1.4s.3,0,.4,0v1.6c-.1,0-.3,0-.5,0-.8,0-1.3.5-1.5,1.3,0,.1,0,.3,0,.5v3.4h-1.7v-4.5Z"/>
    <path class="st0" d="M205.7,45.5l1.2,3.5c.1.4.3.9.4,1.3h0c0-.4.2-.9.4-1.3l1-3.5h1.8l-1.6,4.5c-.9,2.5-1.5,3.6-2.3,4.2-.7.6-1.3.8-1.7.8l-.4-1.4c.3,0,.6-.2,1-.5.3-.2.7-.6.9-1,0-.1,0-.2,0-.3s0-.2,0-.3l-2.4-6h1.8Z"/>
  </g>
  <g>
    <path class="st0" d="M40.2,4.1L4.2,40.1l36,36,36-36L40.2,4.1ZM40.2,62.1c-12.2,0-22.1-9.9-22.1-22.1s9.9-22.1,22.1-22.1,22.1,9.9,22.1,22.1-9.9,22.1-22.1,22.1Z"/>
    <g>
      <path class="st0" d="M26.5,40.8c-.3,0-.5.2-.6.4-.1.2-.2.4-.2.7,0,.4.1.8.4.9.2.2.6.2,1.1.2s.5,0,.8-.2c.3-.1.5-.3.7-.5v-2c-.5,0-.9,0-1.2.1-.3,0-.6.1-.9.2Z"/>
      <path class="st0" d="M40.2,20.2c-11,0-19.9,8.9-19.9,19.9s8.9,19.9,19.9,19.9,19.9-8.9,19.9-19.9-8.9-19.9-19.9-19.9ZM31.6,45h-3v-1c-.2.2-.4.3-.5.5-.2.1-.4.3-.7.4-.3.1-.5.2-.8.3-.3,0-.6,0-1.1,0-.8,0-1.5-.3-2.1-.9-.6-.6-.8-1.3-.8-2.1s.1-1.3.4-1.7c.3-.4.7-.8,1.2-1,.5-.3,1.2-.4,1.9-.5.7-.1,1.6-.2,2.4-.2h0c0-.6-.2-.9-.6-1.1-.4-.2-1-.3-1.7-.3s-.8,0-1.2.2c-.5.1-.9.3-1.4.5h-.3v-2.3c.3,0,.8-.2,1.4-.3.7-.1,1.3-.2,2-.2,1.6,0,2.8.3,3.6.8.8.5,1.1,1.4,1.1,2.5v6.5ZM41.3,38.5h-.4c-.1-.1-.3-.2-.4-.4-.2-.1-.4-.3-.6-.4-.2-.1-.5-.2-.7-.3-.3,0-.6-.1-.9-.1-.8,0-1.4.3-1.8.8-.4.5-.6,1.2-.6,2.1s.2,1.7.7,2.1c.4.5,1,.7,1.8.7s.7,0,1-.1c.3,0,.5-.2.7-.3.2-.1.4-.2.5-.4.1-.1.3-.2.4-.3h.4v2.5c-.2,0-.4.2-.6.3-.2,0-.5.2-.7.2-.3,0-.6.1-.8.2-.3,0-.6,0-1,0-.8,0-1.5,0-2.2-.3-.7-.2-1.2-.5-1.7-.9-.5-.4-.9-.9-1.1-1.6-.3-.6-.4-1.4-.4-2.2s.1-1.7.4-2.3c.3-.6.7-1.2,1.2-1.6.5-.4,1-.7,1.7-.9.6-.2,1.3-.3,2-.3s1.1,0,1.6.2c.5.1,1.1.3,1.6.6v2.6ZM54.3,45v-4.8c0-.5,0-.9,0-1.2,0-.3,0-.6-.2-.8,0-.2-.2-.4-.4-.4-.2,0-.4-.1-.8-.1s-.5,0-.7.1c-.2.1-.5.2-.7.4v6.8h-3v-4.8c0-.5,0-.9,0-1.2,0-.3,0-.6-.2-.8,0-.2-.2-.4-.4-.4-.2,0-.4-.1-.7-.1s-.5,0-.7.2c-.2.1-.5.2-.7.4v6.8h-3v-9.6h3v1.1c.5-.4.9-.7,1.4-1,.4-.2.9-.4,1.5-.4s1.1.1,1.5.4c.4.3.8.7,1,1.2.6-.5,1.1-.9,1.6-1.2.5-.3,1-.4,1.5-.4s.8,0,1.2.2c.4.1.7.4.9.6.3.3.5.7.6,1.1.1.4.2,1,.2,1.7v6.2h-3Z"/>
    </g>
  </g>
</svg>