<?xml version="1.0" encoding="UTF-8"?>
<svg id="Capa_1" xmlns="http://www.w3.org/2000/svg" version="1.1" viewBox="0 0 800 659.5">
  <!-- Generator: Adobe Illustrator 29.1.0, SVG Export Plug-In . SVG Version: 2.1.0 Build 142)  -->
  <defs>
    <style>
      .st0 {
        fill: #fff;
      }
    </style>
  </defs>
  <path class="st0" d="M446.6,603.9c-.4.6-.1,1.9-.1,1.9l2.2,5.9s.7,1.2,1.4,1.4.3,0,.4,0c10.5.2,20.9-.2,31-1.4.8-.1,1.5,0,1.9.1,2,.8,4,1.8,6.3,3,.5.2.8.6.9.7,2.5,11.6,9.8,20.5,22.3,27.1,2.7,1.4,5.6,2.7,8.5,3.8,3,1.1,6.5,2.2,10.2,3.1,5.2,1.3,9,1.9,9,1.9,11.8,1.6,22.3,1.5,32-.3,4-.7,8.6-1.9,12.7-5.1.8-.6,1-1.7.4-2.6-6.9-10-14.4-18-23.1-24.3-12.9-9.3-25.6-14.2-39-15-2-.1-4-.1-5.9,0,13.8-4.1,27.4-9.6,40.6-16.5.3-.1.6-.2.9-.2,1.8.2,4.3.4,6.8.8.2,0,.4.2.5.3,4.6,8.9,12.1,14.6,22.9,17.3.5.1,1.1.3,1.7.4,11.8,2.6,24.4,2.3,37.4-.7,9.5-2.2,19.5-5.1,28.5-10.9,2-1.3,3.9-2.8,5.5-4.2h.2c.7-.7,1.5-1.3,2.2-1.9.4-.3.7-.8.7-1.3,0-.5-.1-1.1-.5-1.4-.2-.2-2.8-2.5-5.2-4.3-16.5-11.7-34.8-17.1-53.9-15.9-6.2.4-12.4,1.8-18.6,4.3,12.7-8.9,24.9-19.1,36.5-30.4.1-.1.5-.4.6-.5.8-.3,1.6-.5,2.5-.7,1.5-.4,3.1-.9,4.6-1.5,1.3-.5,1.6-.5,2.5.5,1.3,1.4,2.9,2.4,4.4,3.2,8.6,4.7,18.1,5.8,29.5,3.6,10.4-2,19.3-7.1,27.4-12.3,11.8-7.6,20.1-15,26.2-23.4,1.3-1.8,2.3-3.6,3.4-5.5.5-1,1-1.8,1.5-2.6.5-.9.3-2-.6-2.5h-.3c0-.1-.5-.3-.5-.3-3.8-1-37.5-8.9-62,5.2-5.3,3.1-10.3,6.5-15,10.5,12-14.5,23-30.2,32.8-46.9v-.2c.3-.2.4-.5.5-.6l6.9-5.7c.3-.3.3-.3.6-.2s.3,0,.4.1l1.1.3c3.8,1.2,6,1.7,8,1.9,7.6.7,15.2-1.3,23.1-6.2,18.5-11.3,33.3-27.6,45.4-49.6,1.3-2.4,2.1-4.9,3-7.5.4-1.2.8-2.4,1.3-3.7.2-.6.1-1.3-.2-1.8-.4-.5-1-.8-1.6-.8-.7,0-1.3,0-1.9,0h-.3c-1.5,0-2.8.1-4.1.3-20.8,2.7-39,11.8-55.5,27.8-4.1,4-7.6,8.3-10.6,12.7,7.1-15.6,9.4-21.8,14.5-40,.2-.8.4-1.5.6-2.3.5-2.1,1-4.1,2-5.8,1.1-2,2.8-3.9,4.4-5.7.5-.5.9-1,1.3-1.5,0,0,.4-.1.5-.1,5.6.5,11-.5,16.4-3.3,5.5-2.8,10.4-6.7,14.6-11.6,15.1-17.5,25.7-38.4,31.5-62,.6-2.3.9-4.6,1.2-7,.1-1.2.3-2.3.5-3.5,0-.6-.2-1.3-.6-1.7-.5-.4-1.2-.6-1.8-.4-.4.1-.7.2-1,.3-.6.2-1,.3-1.5.5-10.1,4-19.5,9.6-28,16.9-14,11.9-24.1,26.8-30.3,44.5.3-2.1.7-4.1,1-6.2v-.7c1.5-8,2.9-16.4,4.4-24.5.4-2,.5-4.1.6-6.1.2-3.9.4-7.6,2.4-10.9.5-.8.9-1.5,1.3-2.3,1-1.9,4.4-4.4,9.1-6.9h.2c1.7-.9,10.7-5.8,18.2-18,7.6-12.4,10.9-26.5,13.2-36.8v-.3c3.3-14.2,4.5-25.2,3.9-35.7,0-1.3-.3-2.7-.4-4.1,0-.7-.2-1.5-.3-2.3,0-.7-.5-1.3-1.1-1.5h-.3c-.6-.2-1.1-.1-1.6.2l-3.9,2.9c-18.9,14-31.3,32.9-36.7,56.2-1,4.1-1.7,8.4-2.3,12.8-.5-13.6-1.7-27.1-3.5-40.2,0-.3,0-.6,0-.9l.4-1.6c.5-2.4,1.1-4.8,1.8-7.2.1-.4.6-1,1.3-1.6,1-.8,2.1-1.6,3.2-2.3,2-1.4,4-2.8,5.7-4.5,5.6-5.6,9.4-12.8,11.9-22.9,3.1-11.8,4.4-24.8,4.2-40.7-.1-8.7-.7-20.1-4.4-31.3-.3-.8-.6-1.5-.9-2.2-.1-.3-.3-.7-.5-1.1-.2-.6-.7-1-1.3-1.1-.8-.1-1.4,0-1.9.5-11.2,11.9-18.8,25.8-23.2,42.3-3.7,13.8-4.5,26.3-4.2,36.4-3.7-14.3-8.3-28.5-13.7-42.1v-.3c-.3-.3-.3-.5-.3-.5.4-3.7.8-6.8,1.3-9.6,0,0,0-.1.6-.7.8-.8,1.6-1.6,2.5-2.3,1.8-1.7,3.7-3.4,5.1-5.4,4.3-6.2,6.8-13.8,7.7-23.2,2.1-20.9-2.2-41.2-13.1-62.2-1.1-2.2-2.5-4.1-3.9-6.3l-.4-.6c-.6-.8-1.1-1.7-1.7-2.6-.4-.6-1-.9-1.7-.9-.7,0-1.3.4-1.6,1l-.7,1.4c-.5.9-.8,1.6-1.2,2.3-5.1,11.7-8.3,24.8-9.7,40.1-1.4,15.2.1,28.9,4.5,41.6-7.5-15.3-15.3-28.6-23.8-40.7,0,0,0-.2,0-.3,2.7-7.1,2.6-14.4-.2-22.5-3.7-10.6-10.3-19.5-19.6-26.7-5.6-4.3-11.4-8.3-17.1-12.2-2.8-1.9-5.6-3.8-8.3-5.8-3-2.2-4.2-2.7-5.1-2.2-1.2.6-1.1,1.4-1.1,2.9v.5c.6,13.9,3.1,25.4,7.7,35.2,8.4,18,20.8,29.1,37.7,34.1.6.2,1,.5,1.2.7,2,2.4,3.4,4.3,4.6,6.1,3.8,5.8,7.5,11.8,11,18.1-6-6.2-14.2-10.4-24.1-12.4-5.4-1.1-10.9-1.6-16.3-2.2h-.2c-1.6-.2-3.1-.3-4.7-.5-3.4-.4-6.9-.6-9.9-.9-1.3,0-4.3-.2-5.3,1.1-.3.4-.5.9-.3,1.5.1.5.3.9.5,1.3,5.7,13.1,13.5,22.8,24,29.6,12.7,8.3,25.6,11.1,38.5,8.4,2-.5,4.3-.5,6.7.1s3.1,1.1,3.5,1.3c.7.3,1.6.9,1.7,1.2,4.8,11.2,9,23,12.7,35.1-4-6.6-10.1-11.8-19.1-16.5-7.8-4.1-16.2-6.7-24.4-9.2l-2.7-.8c-2.6-.8-5.1-1.6-7.7-2.4l-4.3-1.4h0c-.7-.2-1.3,0-1.8.3-.5.4-.7,1-.7,1.7,0,.5.2,1.5.3,1.8,5,16.7,12.7,29.4,23.4,38.6,10.5,9.1,21,13.4,32.6,13.5,1.3,0,2.9.2,4.4.6,4.7,1.2,7.6,3.4,7.9,4.9,2.9,13.9,5,28.2,6.3,42.6-3.2-7.9-8.6-15.1-16.2-21.4-7.5-6.2-15.5-12.2-23.2-17.9-3.5-2.6-6.9-5.1-10.3-7.7-.5-.4-1.2-.5-1.8-.3-.6.2-1.1.7-1.2,1.3-.3,1.2,3.4,39,18.1,57.3,6,7.5,13.7,15.5,25.1,18.7,3.4.9,6.9,2.3,8.8,6.1.3.6.7,1.1,1.3,1.4.9.5,1,1.2.9,3.2-.2,16.6-1.6,33.4-4.1,50.2,0-1.8-.2-3.6-.5-5.5-1.5-11.3-6-22.1-14.3-33.8-4.3-6.1-8.9-12.1-13.3-17.9l-.2-.3c-2-2.6-4-5.3-6-7.9-.4-.6-.8-1.1-1.3-1.8l-1.2-1.7c-.4-.6-1.2-.9-1.9-.8-.7.2-1.3.8-1.4,1.5-.2,1.1-.4,2.2-.6,3.2v.5c-.5,2.1-.9,4.1-1.1,6.1-2.8,19.3-1.2,36.3,4.9,52.2,3.8,9.8,9.7,22.1,21.6,30.3,2.9,2,4.8,4.4,6.5,8.2,1.6,3.6,1.3,6.4.4,9.9-3.9,14.4-8.5,28.4-13.9,42,.6-4,.7-8.3.4-12.8-.7-9.4-3-18.9-7.1-29.1-3.5-8.9-7.3-17.8-10.9-26.4l-.2-.6c-1.4-3.4-2.9-6.9-4.3-10.2-.2-.6-.8-1-1.1-1.2-.3-.3-.9-.5-1.5-.4-.5,0-1,.4-1.3.9v.2c-.3.2-.4.4-.5.7-9.5,21.5-12.3,42.3-8.5,63.4,1.8,10.3,4.7,22.2,12.7,32.3,3.6,4.6,6,10.3,6.6,16.2.1,1.3,0,1.7-.1,1.9-8.5,16.2-18.2,31.5-28.8,45.6,3.8-7.9,5.9-16.6,6.2-26.2.5-13.5-1.1-27.1-2.7-38.9l-.5-3.5c-.7-5.5-1.5-11-2.2-16.8,0-.7-.6-1.3-1.3-1.6-.7-.2-1.5,0-2,.5l-1,1.1c-.4.5-.8.9-1.2,1.4-13.4,17.1-21.3,36-23.4,56.4-1.5,14.6-.6,25.5,2.9,35.4,1.8,5.1,3.4,10.8,2.4,16.9-.2,1.5-.5,2.4-1.5,3.4-10.4,10.8-21.5,20.6-33.1,29.4,0,0,0-.1.1-.2,9.3-10,12.7-22.5,14.7-33.4,1.8-9.4,3-18.8,4.3-28v-.5c.6-3.7,1.1-7.3,1.6-11,.3-2.1.6-4.2.8-6.3l.4-2.9c0-.6-.2-1.3-.6-1.7-.2-.1-.4-.2-.6-.3-1-.3-2.5.3-4.3,1.6-15.7,11.2-27.2,25.4-34.4,42.3-7.4,17.5-9.8,33.4-7.4,48.7,0,.4-.1,1.2-.2,1.4l-2.3,7.9c-.2.5-.6,1.1-1,1.3-15,8.5-30.8,15.3-47.1,20,8.3-4.4,15.1-11.1,20.8-20.4,6.3-10.3,11-21.4,15.6-32.2l.4-1c1.6-3.8,3.3-7.6,4.9-11.4l1.9-4.4c.3-.6.2-1.4-.2-1.9-.4-.5-1.1-.8-1.8-.7h-.7c-.8.2-1.4.3-2.1.5-30.3,6.6-55.9,33.5-60.9,63.8-.8,4.8-2.3,9-4.7,13-.2.4-.7.7-.9.7-14.1,2.2-27.3,3-40.2,2.6-.7,0-1.3.3-1.6.9Z"/>
  <g id="_x33_8-Award_symbol">
    <path class="st0" d="M359.7,603c-12.9.4-26-.5-40.2-2.6-.2,0-.7-.4-.9-.7-2.4-4-3.9-8.3-4.7-13-5-30.4-30.7-57.2-60.9-63.8-.6-.1-1.3-.2-2.1-.4h-.7c-.7-.2-1.4,0-1.8.6-.4.5-.5,1.3-.2,1.9l1.9,4.4c1.7,3.9,3.3,7.7,4.9,11.4l.4,1c4.6,10.8,9.3,21.9,15.6,32.2,5.7,9.3,12.5,16,20.8,20.4-16.3-4.8-32.1-11.5-47.1-20-.3-.2-.8-.7-1-1.3l-2.3-7.9c0-.3-.3-1-.2-1.4,2.4-15.3,0-31.2-7.4-48.7-7.1-16.8-18.7-31.1-34.4-42.3-1.8-1.3-3.3-1.8-4.3-1.6s-.5.2-.6.3c-.5.4-.7,1-.6,1.7l.4,2.9c.3,2.1.5,4.2.8,6.3.5,3.7,1,7.3,1.5,11v.5c1.3,9.2,2.6,18.6,4.4,28,2.1,10.9,5.4,23.4,14.7,33.4,0,0,0,.1.1.2-11.6-8.8-22.7-18.7-33.1-29.4-.9-1-1.2-1.9-1.5-3.4-1-6.2.5-11.8,2.4-16.9,3.5-10,4.5-20.9,2.9-35.4-2.1-20.4-10-39.3-23.4-56.4-.4-.5-.8-.9-1.2-1.4l-1-1.1c-.5-.5-1.3-.8-2-.5-.7.2-1.2.8-1.3,1.6-.7,5.7-1.5,11.3-2.2,16.8l-.5,3.5c-1.5,11.7-3.1,25.3-2.7,38.9.3,9.5,2.4,18.3,6.2,26.2-10.6-14.1-20.3-29.4-28.8-45.6,0-.2-.2-.7-.1-1.9.6-5.8,2.9-11.6,6.6-16.2,7.9-10.1,10.9-22,12.7-32.3,3.7-21.1.9-41.9-8.5-63.4,0-.2-.2-.4-.4-.7v-.2c-.4-.5-.9-.8-1.4-.9-.5,0-1.1.1-1.5.4-.3.2-.9.6-1.1,1.2-1.4,3.4-2.9,6.8-4.3,10.2l-.2.6c-3.6,8.6-7.4,17.6-10.9,26.4-4.1,10.2-6.4,19.8-7.1,29.1-.3,4.5-.2,8.8.4,12.8-5.4-13.6-10-27.6-13.9-42-.9-3.4-1.2-6.3.4-9.9,1.7-3.8,3.6-6.2,6.5-8.2,12-8.1,17.8-20.5,21.6-30.3,6.1-15.9,7.7-33,4.9-52.2-.3-2-.7-4-1.1-6.1v-.5c-.3-1-.5-2.1-.7-3.2-.1-.7-.7-1.3-1.4-1.5-.7-.2-1.5.1-1.9.8l-1.2,1.7c-.5.7-.9,1.2-1.3,1.8-2,2.7-4,5.3-6,7.9l-.2.3c-4.4,5.8-9,11.8-13.3,17.9-8.3,11.8-12.9,22.5-14.3,33.8-.2,1.9-.4,3.7-.5,5.5-2.5-16.8-3.8-33.6-4.1-50.2,0-2,0-2.7.9-3.2.5-.3,1-.9,1.3-1.4,1.9-3.8,5.4-5.1,8.8-6.1,11.4-3.2,19.1-11.2,25.1-18.7,14.7-18.3,18.4-56.1,18.1-57.3s-.6-1.1-1.2-1.3c-.6-.2-1.3,0-1.8.3-3.4,2.6-6.8,5.1-10.3,7.7-7.7,5.8-15.7,11.7-23.2,17.9-7.6,6.3-13,13.4-16.2,21.4,1.3-14.4,3.4-28.6,6.3-42.6.4-1.5,3.2-3.8,7.9-4.9s3-.6,4.4-.6c11.6-.1,22.1-4.5,32.6-13.5,10.7-9.3,18.4-21.9,23.4-38.6,0-.3.2-1.3.3-1.8,0-.6-.2-1.3-.7-1.7-.5-.4-1.1-.5-1.8-.3h0s-4.3,1.4-4.3,1.4c-2.6.8-5.2,1.7-7.7,2.4l-2.7.8c-8.1,2.5-16.5,5.1-24.4,9.2-8.9,4.7-15,10-19.1,16.5,3.7-12.1,7.9-23.9,12.7-35.1.1-.3,1-.9,1.7-1.2.4-.2,1.7-.8,3.5-1.3s4.7-.7,6.7-.1c12.8,2.7,25.8-.1,38.5-8.4,10.4-6.8,18.3-16.5,24-29.6.2-.4.3-.9.5-1.3.1-.5,0-1.1-.3-1.5-1-1.2-4-1.1-5.3-1.1-3.1.2-6.5.5-9.9.9-1.6.2-3.1.3-4.7.5h-.2c-5.3.6-10.8,1.1-16.3,2.2-9.9,2-18.1,6.2-24.1,12.4,3.5-6.3,7.1-12.4,11-18.1,1.2-1.8,2.6-3.7,4.6-6.1.2-.2.6-.5,1.2-.7,17-5,29.3-16.2,37.7-34.1,4.6-9.8,7.1-21.3,7.7-35.2v-.5c0-1.5.1-2.3-1-2.9-.9-.5-2.1,0-5.1,2.2-2.7,1.9-5.5,3.8-8.3,5.8-5.7,3.9-11.5,7.9-17.1,12.2-9.3,7.2-15.9,16.2-19.6,26.7-2.8,8-2.9,15.4-.2,22.5,0,0,0,.3,0,.3-8.5,12.2-16.3,25.4-23.8,40.7,4.4-12.7,5.8-26.5,4.5-41.6-1.4-15.3-4.5-28.4-9.7-40.1-.3-.7-.7-1.5-1.2-2.3l-.7-1.4c-.3-.6-.9-1-1.6-1-.7,0-1.3.3-1.7.9-.6.9-1.1,1.7-1.7,2.6l-.4.6c-1.4,2.1-2.7,4.1-3.9,6.3-10.9,21-15.1,41.3-13.1,62.2.9,9.4,3.5,17,7.7,23.2,1.4,2,3.3,3.7,5.1,5.4.8.8,1.7,1.5,2.5,2.3.6.6.7.7.6.7.4,2.8.8,5.8,1.3,9.6,0,0,0,.2-.2.5v.3c-5.5,13.7-10.1,27.8-13.8,42.1.3-10.1-.5-22.6-4.2-36.4-4.4-16.6-12-30.4-23.2-42.3-.4-.5-1.1-.7-1.9-.5-.6.1-1,.6-1.3,1.1-.1.4-.3.7-.5,1.1-.3.8-.6,1.5-.9,2.2-3.7,11.1-4.3,22.6-4.4,31.3-.2,15.9,1.1,28.9,4.2,40.7,2.6,10.1,6.4,17.3,11.9,22.9,1.7,1.7,3.7,3.1,5.7,4.5,1.1.7,2.1,1.5,3.2,2.3.7.6,1.1,1.2,1.3,1.6.7,2.4,1.3,4.8,1.8,7.2l.4,1.6c0,.3,0,.6,0,.9-1.9,13.1-3.1,26.6-3.5,40.2-.6-4.5-1.3-8.7-2.3-12.8-5.4-23.3-17.8-42.2-36.7-56.2l-3.9-2.9c-.5-.3-1-.5-1.6-.3h-.3c-.6.4-1,1-1.1,1.6,0,.8-.2,1.6-.3,2.3-.2,1.4-.3,2.8-.4,4.1-.6,10.5.5,21.5,3.8,35.7v.3c2.4,10.3,5.7,24.5,13.3,36.8,7.5,12.2,16.5,17,18.2,17.9h.2c4.7,2.6,8,5.1,9.1,7,.4.8.8,1.5,1.3,2.3,2,3.4,2.2,7,2.4,10.9.1,2,.2,4,.6,6.1,1.5,8.2,2.9,16.5,4.3,24.5v.7c.5,2.1.8,4.1,1.2,6.2-6.2-17.6-16.3-32.5-30.3-44.5-8.5-7.3-18-13-28-16.9-.4-.2-.9-.3-1.5-.5-.3,0-.6-.2-1-.3-.6-.2-1.3,0-1.8.4-.5.4-.7,1.1-.6,1.7.2,1.2.3,2.3.5,3.5.3,2.4.6,4.7,1.2,7,5.9,23.6,16.5,44.5,31.5,62,4.2,4.9,9.1,8.8,14.6,11.6,5.4,2.8,10.8,3.9,16.4,3.3.1,0,.5,0,.5.1.4.5.9,1,1.3,1.5,1.6,1.8,3.3,3.7,4.4,5.7.9,1.7,1.4,3.7,2,5.8s.4,1.6.6,2.3c5.2,18.2,7.4,24.4,14.5,40-3-4.4-6.5-8.7-10.6-12.7-16.5-16-34.7-25.1-55.5-27.8-1.3-.2-2.6-.2-4.1-.3h-.3c-.6,0-1.3,0-1.9,0-.6,0-1.3.3-1.6.8-.4.5-.5,1.2-.2,1.8.5,1.3.9,2.5,1.3,3.7.9,2.7,1.7,5.2,3,7.5,12.1,22,26.9,38.2,45.4,49.6,7.9,4.8,15.5,6.9,23.1,6.2,1.9-.2,4.2-.7,8-1.9l1.1-.3c.2,0,.3,0,.4-.1.3,0,.3,0,.6.2l6.9,5.7c0,0,.3.4.4.6v.2c10,16.7,21,32.4,33,46.9-4.7-3.9-9.7-7.4-15-10.5-24.5-14.1-58.3-6.1-62-5.2h-.5c0,.1-.3.3-.3.3-.8.6-1.1,1.7-.6,2.5.5.8,1,1.6,1.5,2.6,1,1.8,2.1,3.7,3.4,5.5,6.1,8.4,14.4,15.8,26.2,23.4,8.1,5.2,17,10.3,27.4,12.3,11.4,2.2,20.9,1,29.5-3.6,1.5-.8,3.1-1.8,4.4-3.2.9-1,1.2-1,2.5-.5,1.5.6,3.1,1.1,4.6,1.5.8.2,1.7.5,2.5.7.1,0,.5.4.6.5,11.6,11.3,23.8,21.5,36.5,30.4-6.3-2.5-12.4-3.9-18.6-4.3-19.1-1.2-37.4,4.2-53.9,15.9-2.5,1.7-5.1,4.1-5.2,4.3-.3.4-.5.9-.5,1.4,0,.5.3,1,.7,1.3.8.6,1.5,1.2,2.2,1.8h.2c1.7,1.5,3.5,3,5.5,4.3,9,5.8,19,8.7,28.5,10.9,13,3.1,25.6,3.3,37.4.7.6-.1,1.1-.2,1.7-.4,10.8-2.7,18.3-8.4,22.9-17.3,0,0,.3-.3.5-.3,2.5-.4,5-.7,6.8-.8.3,0,.7,0,.9.2,13.2,6.8,26.8,12.3,40.6,16.5-2,0-3.9,0-5.9,0-13.4.8-26.1,5.6-39,15-8.7,6.3-16.3,14.2-23.1,24.3-.6.8-.4,1.9.4,2.6,4.1,3.2,8.8,4.4,12.7,5.1,9.7,1.8,20.2,1.9,32,.3,0,0,3.8-.6,9-1.9,3.7-.9,7.2-2,10.2-3.1,2.9-1.1,5.8-2.3,8.5-3.8,12.4-6.6,19.8-15.5,22.3-27.1,0-.1.4-.4.9-.7,2.2-1.2,4.3-2.2,6.3-3,.5-.2,1.1-.2,1.9-.1,10.1,1.2,20.5,1.7,31,1.4.1,0,.3,0,.4,0,.7-.2,1.4-1.4,1.4-1.4l2.2-5.9s.2-1.3-.1-1.9c-.3-.5-1-.9-1.6-.9Z"/>
  </g>
  <path class="st0" d="M565.6,237.2c-1.6-1.6-3.7-2.4-6.3-2.4h-101.1c-2.8,0-4.9-.7-6.1-2.1l-1.7-4-34.1-97.2c-.9-2.6-2.2-4.4-4.1-5.4-1.9-1-3.7-1-5.6,0-1.9,1-3.2,2.8-4.1,5.4l-34.1,98.5c-.9,3.2-3.3,4.8-7.3,4.8h-101.1c-2.9,0-5.1.8-6.7,2.4-1.6,1.6-2.2,3.5-1.9,5.6.3,2.2,1.7,4.1,4.3,5.8l80.8,59.2c1.4,1.2,2.3,2.3,2.6,3.5.3,1.2.3,2.5,0,3.9l-34.6,100.3c-1.2,2.6-1.2,5-.2,7.1,1,2.2,2.5,3.4,4.5,3.7,2,.3,4.3-.3,6.9-1.7l89.5-64c2.9-1.7,5.6-1.7,8.2,0l90.3,64c2.3,1.4,4.5,2,6.5,1.7,2-.3,3.5-1.4,4.5-3.5,1-2,1.1-4.5.2-7.3l-34.6-100.3c-.6-1.4-.7-2.7-.4-3.9.3-1.1,1.3-2.3,3-3.5l80.8-59.2c2.3-1.7,3.6-3.7,3.9-5.8.3-2.2-.4-4-1.9-5.6ZM495.8,393c1.1,2.3,1.2,4.3.2,6.1-.4.7-.9,1.3-1.5,1.8l-85.2-111.6v56.6l-76.1,54.9c-2,1.2-4,1.6-6.1,1.3-1-.1-1.9-.5-2.6-1l84.7-111.8-56.9,17.5-69.3-50.8c-2-1.4-3.2-3.2-3.5-5.2-.1-.9,0-1.7,0-2.4l129.6,40.9-36-45.4h.1l29.4-85.1c.9-2.3,2.2-3.9,3.9-4.8s1.7-.7,2.6-.6v135.9l36.4-45.4h85.9c2.6,0,4.5.6,5.8,1.9.8.8,1.3,1.7,1.5,2.8l-129.6,40.6,57.6,17.6h-.1c0,0,29,86.1,29,86.1Z"/>
</svg>