<?xml version="1.0" encoding="UTF-8"?>
<svg id="Calque_1" xmlns="http://www.w3.org/2000/svg" xmlns:xlink="http://www.w3.org/1999/xlink" version="1.1" viewBox="0 0 1075 329">
  <defs>
    <style>
      .st0 {
        fill: none;
      }

      .st1 {
        fill: #1d1d1b;
      }

      .st2 {
        opacity: 0;
      }

      .st3 {
        clip-path: url(#clippath);
      }
    </style>
    <clipPath id="clippath">
      <rect class="st0" x=".6" y="1.2" width="1073.2" height="327.4"/>
    </clipPath>
  </defs>
  <g class="st3">
    <g class="st2">
      <path class="st1" d="M21.2,335.1c-2.9-1.7-6-2.5-9.4-2.5H-9.8c0,1.4.3,2.7.6,4H8.5v2.1H-8.5c.6,1.5,1.3,2.9,2.2,4.1h14.8v2.1H-5.8c-.8,2.2-1.2,4.4-1.2,6.5,0,3.2.8,6.1,2.3,8.9,1.5,2.8,3.5,5,6.1,6.7l10-10c2.3-2.3,4.8-3.4,7.6-3.4s4.1.6,5.8,1.9c1.7,1.2,2.9,2.9,3.6,4.9,1.5-2.8,2.2-5.7,2.2-8.9s-.8-6.5-2.5-9.4c-1.7-2.9-4-5.1-6.8-6.8ZM22.7,346.6c-.4.4-.9.6-1.5.6s-1.1-.2-1.5-.6c-.4-.4-.6-.9-.6-1.5s.2-1.1.6-1.5.9-.6,1.5-.6,1.1.2,1.5.6c.4.4.6.9.6,1.5s-.2,1.1-.6,1.5Z"/>
      <path class="st1" d="M21.2,218.1c-2.9-1.7-6-2.5-9.4-2.5H-9.8c0,1.4.3,2.7.6,4H8.5v2.1H-8.5c.6,1.5,1.3,2.9,2.2,4.1h14.8v2.1H-5.8c-.8,2.2-1.2,4.4-1.2,6.5,0,3.2.8,6.1,2.3,8.9,1.5,2.8,3.5,5,6.1,6.7l10-10c2.3-2.3,4.8-3.4,7.6-3.4s4.1.6,5.8,1.9c1.7,1.2,2.9,2.9,3.6,4.9,1.5-2.8,2.2-5.7,2.2-8.9s-.8-6.5-2.5-9.4c-1.7-2.9-4-5.1-6.8-6.8ZM22.7,229.7c-.4.4-.9.6-1.5.6s-1.1-.2-1.5-.6c-.4-.4-.6-.9-.6-1.5s.2-1.1.6-1.5c.4-.4.9-.6,1.5-.6s1.1.2,1.5.6c.4.4.6.9.6,1.5s-.2,1.1-.6,1.5Z"/>
      <path class="st1" d="M21.2,101.1c-2.9-1.7-6-2.5-9.4-2.5H-9.8c0,1.4.3,2.7.6,4H8.5v2.1H-8.5c.6,1.5,1.3,2.9,2.2,4.1h14.8v2.1H-5.8c-.8,2.2-1.2,4.4-1.2,6.5,0,3.2.8,6.1,2.3,8.9,1.5,2.8,3.5,5,6.1,6.7l10-10c2.3-2.3,4.8-3.4,7.6-3.4s4.1.6,5.8,1.9c1.7,1.2,2.9,2.9,3.6,4.9,1.5-2.8,2.2-5.7,2.2-8.9s-.8-6.5-2.5-9.4c-1.7-2.9-4-5.1-6.8-6.8ZM22.7,112.7c-.4.4-.9.6-1.5.6s-1.1-.2-1.5-.6c-.4-.4-.6-.9-.6-1.5s.2-1.1.6-1.5c.4-.4.9-.6,1.5-.6s1.1.2,1.5.6c.4.4.6.9.6,1.5s-.2,1.1-.6,1.5Z"/>
      <path class="st1" d="M21.2-15.8c-2.9-1.7-6-2.5-9.4-2.5H-9.8c0,1.4.3,2.7.6,4H8.5v2.1H-8.5c.6,1.5,1.3,2.9,2.2,4.1h14.8v2.1H-5.8c-.8,2.2-1.2,4.4-1.2,6.5,0,3.2.8,6.1,2.3,8.9,1.5,2.8,3.5,5,6.1,6.7L11.3,6c2.3-2.3,4.8-3.4,7.6-3.4s4.1.6,5.8,1.9c1.7,1.2,2.9,2.9,3.6,4.9,1.5-2.8,2.2-5.7,2.2-8.9s-.8-6.5-2.5-9.4c-1.7-2.9-4-5.1-6.8-6.8ZM22.7-4.3c-.4.4-.9.6-1.5.6s-1.1-.2-1.5-.6c-.4-.4-.6-.9-.6-1.5s.2-1.1.6-1.5c.4-.4.9-.6,1.5-.6s1.1.2,1.5.6c.4.4.6.9.6,1.5s-.2,1.1-.6,1.5Z"/>
      <path class="st1" d="M122,277.4c-2.9-1.7-6-2.5-9.4-2.5h-21.5c0,1.4.3,2.7.6,4h17.6v2.1h-17c.6,1.5,1.3,2.9,2.2,4.1h14.8v2.1h-14.3c-.8,2.2-1.2,4.4-1.2,6.5,0,3.2.8,6.1,2.3,8.9,1.5,2.8,3.5,5,6.1,6.7l10-10c2.3-2.3,4.8-3.4,7.6-3.4s4.1.6,5.8,1.9c1.7,1.2,2.9,2.9,3.6,4.9,1.5-2.8,2.2-5.7,2.2-8.9s-.8-6.5-2.5-9.4c-1.7-2.9-4-5.1-6.8-6.8ZM123.6,289c-.4.4-.9.6-1.5.6s-1.1-.2-1.5-.6c-.4-.4-.6-.9-.6-1.5s.2-1.1.6-1.5c.4-.4.9-.6,1.5-.6s1.1.2,1.5.6c.4.4.6.9.6,1.5s-.2,1.1-.6,1.5Z"/>
      <path class="st1" d="M122,160.5c-2.9-1.7-6-2.5-9.4-2.5h-21.5c0,1.4.3,2.7.6,4h17.6v2.1h-17c.6,1.5,1.3,2.9,2.2,4.1h14.8v2.1h-14.3c-.8,2.2-1.2,4.4-1.2,6.5,0,3.2.8,6.1,2.3,8.9,1.5,2.8,3.5,5,6.1,6.7l10-10c2.3-2.3,4.8-3.4,7.6-3.4s4.1.6,5.8,1.9c1.7,1.2,2.9,2.9,3.6,4.9,1.5-2.8,2.2-5.7,2.2-8.9s-.8-6.5-2.5-9.4c-1.7-2.9-4-5.1-6.8-6.8ZM123.6,172c-.4.4-.9.6-1.5.6s-1.1-.2-1.5-.6c-.4-.4-.6-.9-.6-1.5s.2-1.1.6-1.5c.4-.4.9-.6,1.5-.6s1.1.2,1.5.6c.4.4.6.9.6,1.5s-.2,1.1-.6,1.5Z"/>
      <path class="st1" d="M122,43.5c-2.9-1.7-6-2.5-9.4-2.5h-21.5c0,1.4.3,2.7.6,4h17.6v2.1h-17c.6,1.5,1.3,2.9,2.2,4.1h14.8v2.1h-14.3c-.8,2.2-1.2,4.4-1.2,6.5,0,3.2.8,6.1,2.3,8.9,1.5,2.8,3.5,5,6.1,6.7l10-10c2.3-2.3,4.8-3.4,7.6-3.4s4.1.6,5.8,1.9c1.7,1.2,2.9,2.9,3.6,4.9,1.5-2.8,2.2-5.7,2.2-8.9s-.8-6.5-2.5-9.4c-1.7-2.9-4-5.1-6.8-6.8ZM123.6,55.1c-.4.4-.9.6-1.5.6s-1.1-.2-1.5-.6c-.4-.4-.6-.9-.6-1.5s.2-1.1.6-1.5c.4-.4.9-.6,1.5-.6s1.1.2,1.5.6c.4.4.6.9.6,1.5s-.2,1.1-.6,1.5Z"/>
      <path class="st1" d="M228.3,335.1c-2.9-1.7-6-2.5-9.4-2.5h-21.5c0,1.4.3,2.7.6,4h17.6v2.1h-17c.6,1.5,1.3,2.9,2.2,4.1h14.8v2.1h-14.3c-.8,2.2-1.2,4.4-1.2,6.5,0,3.2.8,6.1,2.3,8.9,1.5,2.8,3.5,5,6.1,6.7l10-10c2.3-2.3,4.8-3.4,7.6-3.4s4.1.6,5.8,1.9c1.7,1.2,2.9,2.9,3.6,4.9,1.5-2.8,2.2-5.7,2.2-8.9s-.8-6.5-2.5-9.4c-1.7-2.9-4-5.1-6.8-6.8ZM229.8,346.6c-.4.4-.9.6-1.5.6s-1.1-.2-1.5-.6c-.4-.4-.6-.9-.6-1.5s.2-1.1.6-1.5.9-.6,1.5-.6,1.1.2,1.5.6c.4.4.6.9.6,1.5s-.2,1.1-.6,1.5Z"/>
      <path class="st1" d="M228.3,218.1c-2.9-1.7-6-2.5-9.4-2.5h-21.5c0,1.4.3,2.7.6,4h17.6v2.1h-17c.6,1.5,1.3,2.9,2.2,4.1h14.8v2.1h-14.3c-.8,2.2-1.2,4.4-1.2,6.5,0,3.2.8,6.1,2.3,8.9,1.5,2.8,3.5,5,6.1,6.7l10-10c2.3-2.3,4.8-3.4,7.6-3.4s4.1.6,5.8,1.9c1.7,1.2,2.9,2.9,3.6,4.9,1.5-2.8,2.2-5.7,2.2-8.9s-.8-6.5-2.5-9.4c-1.7-2.9-4-5.1-6.8-6.8ZM229.8,229.7c-.4.4-.9.6-1.5.6s-1.1-.2-1.5-.6c-.4-.4-.6-.9-.6-1.5s.2-1.1.6-1.5c.4-.4.9-.6,1.5-.6s1.1.2,1.5.6c.4.4.6.9.6,1.5s-.2,1.1-.6,1.5Z"/>
      <path class="st1" d="M228.3,101.1c-2.9-1.7-6-2.5-9.4-2.5h-21.5c0,1.4.3,2.7.6,4h17.6v2.1h-17c.6,1.5,1.3,2.9,2.2,4.1h14.8v2.1h-14.3c-.8,2.2-1.2,4.4-1.2,6.5,0,3.2.8,6.1,2.3,8.9,1.5,2.8,3.5,5,6.1,6.7l10-10c2.3-2.3,4.8-3.4,7.6-3.4s4.1.6,5.8,1.9c1.7,1.2,2.9,2.9,3.6,4.9,1.5-2.8,2.2-5.7,2.2-8.9s-.8-6.5-2.5-9.4c-1.7-2.9-4-5.1-6.8-6.8ZM229.8,112.7c-.4.4-.9.6-1.5.6s-1.1-.2-1.5-.6c-.4-.4-.6-.9-.6-1.5s.2-1.1.6-1.5c.4-.4.9-.6,1.5-.6s1.1.2,1.5.6c.4.4.6.9.6,1.5s-.2,1.1-.6,1.5Z"/>
      <path class="st1" d="M228.3-15.8c-2.9-1.7-6-2.5-9.4-2.5h-21.5c0,1.4.3,2.7.6,4h17.6v2.1h-17c.6,1.5,1.3,2.9,2.2,4.1h14.8v2.1h-14.3c-.8,2.2-1.2,4.4-1.2,6.5,0,3.2.8,6.1,2.3,8.9,1.5,2.8,3.5,5,6.1,6.7l10-10c2.3-2.3,4.8-3.4,7.6-3.4s4.1.6,5.8,1.9c1.7,1.2,2.9,2.9,3.6,4.9,1.5-2.8,2.2-5.7,2.2-8.9s-.8-6.5-2.5-9.4c-1.7-2.9-4-5.1-6.8-6.8ZM229.8-4.3c-.4.4-.9.6-1.5.6s-1.1-.2-1.5-.6c-.4-.4-.6-.9-.6-1.5s.2-1.1.6-1.5c.4-.4.9-.6,1.5-.6s1.1.2,1.5.6c.4.4.6.9.6,1.5s-.2,1.1-.6,1.5Z"/>
      <path class="st1" d="M329.2,277.4c-2.9-1.7-6-2.5-9.4-2.5h-21.5c0,1.4.3,2.7.6,4h17.6v2.1h-17c.6,1.5,1.3,2.9,2.2,4.1h14.8v2.1h-14.3c-.8,2.2-1.2,4.4-1.2,6.5,0,3.2.8,6.1,2.3,8.9,1.5,2.8,3.5,5,6.1,6.7l10-10c2.3-2.3,4.8-3.4,7.6-3.4s4.1.6,5.8,1.9c1.7,1.2,2.9,2.9,3.6,4.9,1.5-2.8,2.2-5.7,2.2-8.9s-.8-6.5-2.5-9.4c-1.7-2.9-4-5.1-6.8-6.8ZM330.7,289c-.4.4-.9.6-1.5.6s-1.1-.2-1.5-.6c-.4-.4-.6-.9-.6-1.5s.2-1.1.6-1.5.9-.6,1.5-.6,1.1.2,1.5.6c.4.4.6.9.6,1.5s-.2,1.1-.6,1.5Z"/>
      <path class="st1" d="M329.2,160.5c-2.9-1.7-6-2.5-9.4-2.5h-21.5c0,1.4.3,2.7.6,4h17.6v2.1h-17c.6,1.5,1.3,2.9,2.2,4.1h14.8v2.1h-14.3c-.8,2.2-1.2,4.4-1.2,6.5,0,3.2.8,6.1,2.3,8.9,1.5,2.8,3.5,5,6.1,6.7l10-10c2.3-2.3,4.8-3.4,7.6-3.4s4.1.6,5.8,1.9c1.7,1.2,2.9,2.9,3.6,4.9,1.5-2.8,2.2-5.7,2.2-8.9s-.8-6.5-2.5-9.4c-1.7-2.9-4-5.1-6.8-6.8ZM330.7,172c-.4.4-.9.6-1.5.6s-1.1-.2-1.5-.6c-.4-.4-.6-.9-.6-1.5s.2-1.1.6-1.5.9-.6,1.5-.6,1.1.2,1.5.6c.4.4.6.9.6,1.5s-.2,1.1-.6,1.5Z"/>
      <path class="st1" d="M329.2,43.5c-2.9-1.7-6-2.5-9.4-2.5h-21.5c0,1.4.3,2.7.6,4h17.6v2.1h-17c.6,1.5,1.3,2.9,2.2,4.1h14.8v2.1h-14.3c-.8,2.2-1.2,4.4-1.2,6.5,0,3.2.8,6.1,2.3,8.9,1.5,2.8,3.5,5,6.1,6.7l10-10c2.3-2.3,4.8-3.4,7.6-3.4s4.1.6,5.8,1.9c1.7,1.2,2.9,2.9,3.6,4.9,1.5-2.8,2.2-5.7,2.2-8.9s-.8-6.5-2.5-9.4c-1.7-2.9-4-5.1-6.8-6.8ZM330.7,55.1c-.4.4-.9.6-1.5.6s-1.1-.2-1.5-.6c-.4-.4-.6-.9-.6-1.5s.2-1.1.6-1.5.9-.6,1.5-.6,1.1.2,1.5.6c.4.4.6.9.6,1.5s-.2,1.1-.6,1.5Z"/>
      <path class="st1" d="M435.4,335.1c-2.9-1.7-6-2.5-9.4-2.5h-21.5c0,1.4.3,2.7.6,4h17.6v2.1h-17c.6,1.5,1.3,2.9,2.2,4.1h14.8v2.1h-14.3c-.8,2.2-1.2,4.4-1.2,6.5,0,3.2.8,6.1,2.3,8.9,1.5,2.8,3.5,5,6.1,6.7l10-10c2.3-2.3,4.8-3.4,7.6-3.4s4.1.6,5.8,1.9c1.7,1.2,2.9,2.9,3.6,4.9,1.5-2.8,2.2-5.7,2.2-8.9s-.8-6.5-2.5-9.4c-1.7-2.9-4-5.1-6.8-6.8ZM437,346.6c-.4.4-.9.6-1.5.6s-1.1-.2-1.5-.6c-.4-.4-.6-.9-.6-1.5s.2-1.1.6-1.5c.4-.4.9-.6,1.5-.6s1.1.2,1.5.6c.4.4.6.9.6,1.5s-.2,1.1-.6,1.5Z"/>
      <path class="st1" d="M435.4,218.1c-2.9-1.7-6-2.5-9.4-2.5h-21.5c0,1.4.3,2.7.6,4h17.6v2.1h-17c.6,1.5,1.3,2.9,2.2,4.1h14.8v2.1h-14.3c-.8,2.2-1.2,4.4-1.2,6.5,0,3.2.8,6.1,2.3,8.9,1.5,2.8,3.5,5,6.1,6.7l10-10c2.3-2.3,4.8-3.4,7.6-3.4s4.1.6,5.8,1.9c1.7,1.2,2.9,2.9,3.6,4.9,1.5-2.8,2.2-5.7,2.2-8.9s-.8-6.5-2.5-9.4c-1.7-2.9-4-5.1-6.8-6.8ZM437,229.7c-.4.4-.9.6-1.5.6s-1.1-.2-1.5-.6c-.4-.4-.6-.9-.6-1.5s.2-1.1.6-1.5c.4-.4.9-.6,1.5-.6s1.1.2,1.5.6c.4.4.6.9.6,1.5s-.2,1.1-.6,1.5Z"/>
      <path class="st1" d="M435.4,101.1c-2.9-1.7-6-2.5-9.4-2.5h-21.5c0,1.4.3,2.7.6,4h17.6v2.1h-17c.6,1.5,1.3,2.9,2.2,4.1h14.8v2.1h-14.3c-.8,2.2-1.2,4.4-1.2,6.5,0,3.2.8,6.1,2.3,8.9,1.5,2.8,3.5,5,6.1,6.7l10-10c2.3-2.3,4.8-3.4,7.6-3.4s4.1.6,5.8,1.9c1.7,1.2,2.9,2.9,3.6,4.9,1.5-2.8,2.2-5.7,2.2-8.9s-.8-6.5-2.5-9.4c-1.7-2.9-4-5.1-6.8-6.8ZM437,112.7c-.4.4-.9.6-1.5.6s-1.1-.2-1.5-.6c-.4-.4-.6-.9-.6-1.5s.2-1.1.6-1.5c.4-.4.9-.6,1.5-.6s1.1.2,1.5.6c.4.4.6.9.6,1.5s-.2,1.1-.6,1.5Z"/>
      <path class="st1" d="M435.4-15.8c-2.9-1.7-6-2.5-9.4-2.5h-21.5c0,1.4.3,2.7.6,4h17.6v2.1h-17c.6,1.5,1.3,2.9,2.2,4.1h14.8v2.1h-14.3c-.8,2.2-1.2,4.4-1.2,6.5,0,3.2.8,6.1,2.3,8.9,1.5,2.8,3.5,5,6.1,6.7l10-10c2.3-2.3,4.8-3.4,7.6-3.4s4.1.6,5.8,1.9c1.7,1.2,2.9,2.9,3.6,4.9,1.5-2.8,2.2-5.7,2.2-8.9s-.8-6.5-2.5-9.4c-1.7-2.9-4-5.1-6.8-6.8ZM437-4.3c-.4.4-.9.6-1.5.6s-1.1-.2-1.5-.6c-.4-.4-.6-.9-.6-1.5s.2-1.1.6-1.5c.4-.4.9-.6,1.5-.6s1.1.2,1.5.6c.4.4.6.9.6,1.5s-.2,1.1-.6,1.5Z"/>
      <path class="st1" d="M536.3,277.4c-2.9-1.7-6-2.5-9.4-2.5h-21.5c0,1.4.3,2.7.6,4h17.6v2.1h-17c.6,1.5,1.3,2.9,2.2,4.1h14.8v2.1h-14.3c-.8,2.2-1.2,4.4-1.2,6.5,0,3.2.8,6.1,2.3,8.9,1.5,2.8,3.5,5,6.1,6.7l10-10c2.3-2.3,4.8-3.4,7.6-3.4s4.1.6,5.8,1.9c1.7,1.2,2.9,2.9,3.6,4.9,1.5-2.8,2.2-5.7,2.2-8.9s-.8-6.5-2.5-9.4c-1.7-2.9-4-5.1-6.8-6.8ZM537.8,289c-.4.4-.9.6-1.5.6s-1.1-.2-1.5-.6c-.4-.4-.6-.9-.6-1.5s.2-1.1.6-1.5.9-.6,1.5-.6,1.1.2,1.5.6c.4.4.6.9.6,1.5s-.2,1.1-.6,1.5Z"/>
      <path class="st1" d="M536.3,160.5c-2.9-1.7-6-2.5-9.4-2.5h-21.5c0,1.4.3,2.7.6,4h17.6v2.1h-17c.6,1.5,1.3,2.9,2.2,4.1h14.8v2.1h-14.3c-.8,2.2-1.2,4.4-1.2,6.5,0,3.2.8,6.1,2.3,8.9,1.5,2.8,3.5,5,6.1,6.7l10-10c2.3-2.3,4.8-3.4,7.6-3.4s4.1.6,5.8,1.9c1.7,1.2,2.9,2.9,3.6,4.9,1.5-2.8,2.2-5.7,2.2-8.9s-.8-6.5-2.5-9.4c-1.7-2.9-4-5.1-6.8-6.8ZM537.8,172c-.4.4-.9.6-1.5.6s-1.1-.2-1.5-.6c-.4-.4-.6-.9-.6-1.5s.2-1.1.6-1.5.9-.6,1.5-.6,1.1.2,1.5.6c.4.4.6.9.6,1.5s-.2,1.1-.6,1.5Z"/>
      <path class="st1" d="M536.3,43.5c-2.9-1.7-6-2.5-9.4-2.5h-21.5c0,1.4.3,2.7.6,4h17.6v2.1h-17c.6,1.5,1.3,2.9,2.2,4.1h14.8v2.1h-14.3c-.8,2.2-1.2,4.4-1.2,6.5,0,3.2.8,6.1,2.3,8.9,1.5,2.8,3.5,5,6.1,6.7l10-10c2.3-2.3,4.8-3.4,7.6-3.4s4.1.6,5.8,1.9c1.7,1.2,2.9,2.9,3.6,4.9,1.5-2.8,2.2-5.7,2.2-8.9s-.8-6.5-2.5-9.4c-1.7-2.9-4-5.1-6.8-6.8ZM537.8,55.1c-.4.4-.9.6-1.5.6s-1.1-.2-1.5-.6c-.4-.4-.6-.9-.6-1.5s.2-1.1.6-1.5.9-.6,1.5-.6,1.1.2,1.5.6c.4.4.6.9.6,1.5s-.2,1.1-.6,1.5Z"/>
      <path class="st1" d="M642.6,335.1c-2.9-1.7-6-2.5-9.4-2.5h-21.5c0,1.4.3,2.7.6,4h17.6v2.1h-17c.6,1.5,1.3,2.9,2.2,4.1h14.8v2.1h-14.3c-.8,2.2-1.2,4.4-1.2,6.5,0,3.2.8,6.1,2.3,8.9,1.5,2.8,3.5,5,6.1,6.7l10-10c2.3-2.3,4.8-3.4,7.6-3.4s4.1.6,5.8,1.9c1.7,1.2,2.9,2.9,3.6,4.9,1.5-2.8,2.2-5.7,2.2-8.9s-.8-6.5-2.5-9.4c-1.7-2.9-4-5.1-6.8-6.8ZM644.1,346.6c-.4.4-.9.6-1.5.6s-1.1-.2-1.5-.6c-.4-.4-.6-.9-.6-1.5s.2-1.1.6-1.5c.4-.4.9-.6,1.5-.6s1.1.2,1.5.6c.4.4.6.9.6,1.5s-.2,1.1-.6,1.5Z"/>
      <path class="st1" d="M642.6,218.1c-2.9-1.7-6-2.5-9.4-2.5h-21.5c0,1.4.3,2.7.6,4h17.6v2.1h-17c.6,1.5,1.3,2.9,2.2,4.1h14.8v2.1h-14.3c-.8,2.2-1.2,4.4-1.2,6.5,0,3.2.8,6.1,2.3,8.9,1.5,2.8,3.5,5,6.1,6.7l10-10c2.3-2.3,4.8-3.4,7.6-3.4s4.1.6,5.8,1.9c1.7,1.2,2.9,2.9,3.6,4.9,1.5-2.8,2.2-5.7,2.2-8.9s-.8-6.5-2.5-9.4c-1.7-2.9-4-5.1-6.8-6.8ZM644.1,229.7c-.4.4-.9.6-1.5.6s-1.1-.2-1.5-.6c-.4-.4-.6-.9-.6-1.5s.2-1.1.6-1.5c.4-.4.9-.6,1.5-.6s1.1.2,1.5.6c.4.4.6.9.6,1.5s-.2,1.1-.6,1.5Z"/>
      <path class="st1" d="M642.6,101.1c-2.9-1.7-6-2.5-9.4-2.5h-21.5c0,1.4.3,2.7.6,4h17.6v2.1h-17c.6,1.5,1.3,2.9,2.2,4.1h14.8v2.1h-14.3c-.8,2.2-1.2,4.4-1.2,6.5,0,3.2.8,6.1,2.3,8.9,1.5,2.8,3.5,5,6.1,6.7l10-10c2.3-2.3,4.8-3.4,7.6-3.4s4.1.6,5.8,1.9c1.7,1.2,2.9,2.9,3.6,4.9,1.5-2.8,2.2-5.7,2.2-8.9s-.8-6.5-2.5-9.4c-1.7-2.9-4-5.1-6.8-6.8ZM644.1,112.7c-.4.4-.9.6-1.5.6s-1.1-.2-1.5-.6c-.4-.4-.6-.9-.6-1.5s.2-1.1.6-1.5c.4-.4.9-.6,1.5-.6s1.1.2,1.5.6c.4.4.6.9.6,1.5s-.2,1.1-.6,1.5Z"/>
      <path class="st1" d="M642.6-15.8c-2.9-1.7-6-2.5-9.4-2.5h-21.5c0,1.4.3,2.7.6,4h17.6v2.1h-17c.6,1.5,1.3,2.9,2.2,4.1h14.8v2.1h-14.3c-.8,2.2-1.2,4.4-1.2,6.5,0,3.2.8,6.1,2.3,8.9,1.5,2.8,3.5,5,6.1,6.7l10-10c2.3-2.3,4.8-3.4,7.6-3.4s4.1.6,5.8,1.9c1.7,1.2,2.9,2.9,3.6,4.9,1.5-2.8,2.2-5.7,2.2-8.9s-.8-6.5-2.5-9.4c-1.7-2.9-4-5.1-6.8-6.8ZM644.1-4.3c-.4.4-.9.6-1.5.6s-1.1-.2-1.5-.6c-.4-.4-.6-.9-.6-1.5s.2-1.1.6-1.5c.4-.4.9-.6,1.5-.6s1.1.2,1.5.6c.4.4.6.9.6,1.5s-.2,1.1-.6,1.5Z"/>
      <path class="st1" d="M743.4,277.4c-2.9-1.7-6-2.5-9.4-2.5h-21.5c0,1.4.3,2.7.6,4h17.6v2.1h-17c.6,1.5,1.3,2.9,2.2,4.1h14.8v2.1h-14.3c-.8,2.2-1.2,4.4-1.2,6.5,0,3.2.8,6.1,2.3,8.9,1.5,2.8,3.5,5,6.1,6.7l10-10c2.3-2.3,4.8-3.4,7.6-3.4s4.1.6,5.8,1.9c1.7,1.2,2.9,2.9,3.6,4.9,1.5-2.8,2.2-5.7,2.2-8.9s-.8-6.5-2.5-9.4c-1.7-2.9-4-5.1-6.8-6.8ZM744.9,289c-.4.4-.9.6-1.5.6s-1.1-.2-1.5-.6c-.4-.4-.6-.9-.6-1.5s.2-1.1.6-1.5c.4-.4.9-.6,1.5-.6s1.1.2,1.5.6c.4.4.6.9.6,1.5s-.2,1.1-.6,1.5Z"/>
      <path class="st1" d="M743.4,160.5c-2.9-1.7-6-2.5-9.4-2.5h-21.5c0,1.4.3,2.7.6,4h17.6v2.1h-17c.6,1.5,1.3,2.9,2.2,4.1h14.8v2.1h-14.3c-.8,2.2-1.2,4.4-1.2,6.5,0,3.2.8,6.1,2.3,8.9,1.5,2.8,3.5,5,6.1,6.7l10-10c2.3-2.3,4.8-3.4,7.6-3.4s4.1.6,5.8,1.9c1.7,1.2,2.9,2.9,3.6,4.9,1.5-2.8,2.2-5.7,2.2-8.9s-.8-6.5-2.5-9.4c-1.7-2.9-4-5.1-6.8-6.8ZM744.9,172c-.4.4-.9.6-1.5.6s-1.1-.2-1.5-.6c-.4-.4-.6-.9-.6-1.5s.2-1.1.6-1.5c.4-.4.9-.6,1.5-.6s1.1.2,1.5.6c.4.4.6.9.6,1.5s-.2,1.1-.6,1.5Z"/>
      <path class="st1" d="M743.4,43.5c-2.9-1.7-6-2.5-9.4-2.5h-21.5c0,1.4.3,2.7.6,4h17.6v2.1h-17c.6,1.5,1.3,2.9,2.2,4.1h14.8v2.1h-14.3c-.8,2.2-1.2,4.4-1.2,6.5,0,3.2.8,6.1,2.3,8.9,1.5,2.8,3.5,5,6.1,6.7l10-10c2.3-2.3,4.8-3.4,7.6-3.4s4.1.6,5.8,1.9c1.7,1.2,2.9,2.9,3.6,4.9,1.5-2.8,2.2-5.7,2.2-8.9s-.8-6.5-2.5-9.4c-1.7-2.9-4-5.1-6.8-6.8ZM744.9,55.1c-.4.4-.9.6-1.5.6s-1.1-.2-1.5-.6c-.4-.4-.6-.9-.6-1.5s.2-1.1.6-1.5c.4-.4.9-.6,1.5-.6s1.1.2,1.5.6c.4.4.6.9.6,1.5s-.2,1.1-.6,1.5Z"/>
      <path class="st1" d="M849.7,335.1c-2.9-1.7-6-2.5-9.4-2.5h-21.5c0,1.4.3,2.7.6,4h17.6v2.1h-17c.6,1.5,1.3,2.9,2.2,4.1h14.8v2.1h-14.3c-.8,2.2-1.2,4.4-1.2,6.5,0,3.2.8,6.1,2.3,8.9,1.5,2.8,3.5,5,6.1,6.7l10-10c2.3-2.3,4.8-3.4,7.6-3.4s4.1.6,5.8,1.9c1.7,1.2,2.9,2.9,3.6,4.9,1.5-2.8,2.2-5.7,2.2-8.9s-.8-6.5-2.5-9.4c-1.7-2.9-4-5.1-6.8-6.8ZM851.2,346.6c-.4.4-.9.6-1.5.6s-1.1-.2-1.5-.6c-.4-.4-.6-.9-.6-1.5s.2-1.1.6-1.5.9-.6,1.5-.6,1.1.2,1.5.6c.4.4.6.9.6,1.5s-.2,1.1-.6,1.5Z"/>
      <path class="st1" d="M849.7,218.1c-2.9-1.7-6-2.5-9.4-2.5h-21.5c0,1.4.3,2.7.6,4h17.6v2.1h-17c.6,1.5,1.3,2.9,2.2,4.1h14.8v2.1h-14.3c-.8,2.2-1.2,4.4-1.2,6.5,0,3.2.8,6.1,2.3,8.9,1.5,2.8,3.5,5,6.1,6.7l10-10c2.3-2.3,4.8-3.4,7.6-3.4s4.1.6,5.8,1.9c1.7,1.2,2.9,2.9,3.6,4.9,1.5-2.8,2.2-5.7,2.2-8.9s-.8-6.5-2.5-9.4c-1.7-2.9-4-5.1-6.8-6.8ZM851.2,229.7c-.4.4-.9.6-1.5.6s-1.1-.2-1.5-.6c-.4-.4-.6-.9-.6-1.5s.2-1.1.6-1.5c.4-.4.9-.6,1.5-.6s1.1.2,1.5.6c.4.4.6.9.6,1.5s-.2,1.1-.6,1.5Z"/>
      <path class="st1" d="M849.7,101.1c-2.9-1.7-6-2.5-9.4-2.5h-21.5c0,1.4.3,2.7.6,4h17.6v2.1h-17c.6,1.5,1.3,2.9,2.2,4.1h14.8v2.1h-14.3c-.8,2.2-1.2,4.4-1.2,6.5,0,3.2.8,6.1,2.3,8.9,1.5,2.8,3.5,5,6.1,6.7l10-10c2.3-2.3,4.8-3.4,7.6-3.4s4.1.6,5.8,1.9c1.7,1.2,2.9,2.9,3.6,4.9,1.5-2.8,2.2-5.7,2.2-8.9s-.8-6.5-2.5-9.4c-1.7-2.9-4-5.1-6.8-6.8ZM851.2,112.7c-.4.4-.9.6-1.5.6s-1.1-.2-1.5-.6c-.4-.4-.6-.9-.6-1.5s.2-1.1.6-1.5c.4-.4.9-.6,1.5-.6s1.1.2,1.5.6c.4.4.6.9.6,1.5s-.2,1.1-.6,1.5Z"/>
      <path class="st1" d="M849.7-15.8c-2.9-1.7-6-2.5-9.4-2.5h-21.5c0,1.4.3,2.7.6,4h17.6v2.1h-17c.6,1.5,1.3,2.9,2.2,4.1h14.8v2.1h-14.3c-.8,2.2-1.2,4.4-1.2,6.5,0,3.2.8,6.1,2.3,8.9,1.5,2.8,3.5,5,6.1,6.7l10-10c2.3-2.3,4.8-3.4,7.6-3.4s4.1.6,5.8,1.9c1.7,1.2,2.9,2.9,3.6,4.9,1.5-2.8,2.2-5.7,2.2-8.9s-.8-6.5-2.5-9.4c-1.7-2.9-4-5.1-6.8-6.8ZM851.2-4.3c-.4.4-.9.6-1.5.6s-1.1-.2-1.5-.6c-.4-.4-.6-.9-.6-1.5s.2-1.1.6-1.5c.4-.4.9-.6,1.5-.6s1.1.2,1.5.6c.4.4.6.9.6,1.5s-.2,1.1-.6,1.5Z"/>
      <path class="st1" d="M950.5,277.4c-2.9-1.7-6-2.5-9.4-2.5h-21.5c0,1.4.3,2.7.6,4h17.6v2.1h-17c.6,1.5,1.3,2.9,2.2,4.1h14.8v2.1h-14.3c-.8,2.2-1.2,4.4-1.2,6.5,0,3.2.8,6.1,2.3,8.9,1.5,2.8,3.5,5,6.1,6.7l10-10c2.3-2.3,4.8-3.4,7.6-3.4s4.1.6,5.8,1.9c1.7,1.2,2.9,2.9,3.6,4.9,1.5-2.8,2.2-5.7,2.2-8.9s-.8-6.5-2.5-9.4c-1.7-2.9-4-5.1-6.8-6.8ZM952.1,289c-.4.4-.9.6-1.5.6s-1.1-.2-1.5-.6c-.4-.4-.6-.9-.6-1.5s.2-1.1.6-1.5c.4-.4.9-.6,1.5-.6s1.1.2,1.5.6c.4.4.6.9.6,1.5s-.2,1.1-.6,1.5Z"/>
      <path class="st1" d="M950.5,160.5c-2.9-1.7-6-2.5-9.4-2.5h-21.5c0,1.4.3,2.7.6,4h17.6v2.1h-17c.6,1.5,1.3,2.9,2.2,4.1h14.8v2.1h-14.3c-.8,2.2-1.2,4.4-1.2,6.5,0,3.2.8,6.1,2.3,8.9,1.5,2.8,3.5,5,6.1,6.7l10-10c2.3-2.3,4.8-3.4,7.6-3.4s4.1.6,5.8,1.9c1.7,1.2,2.9,2.9,3.6,4.9,1.5-2.8,2.2-5.7,2.2-8.9s-.8-6.5-2.5-9.4c-1.7-2.9-4-5.1-6.8-6.8ZM952.1,172c-.4.4-.9.6-1.5.6s-1.1-.2-1.5-.6c-.4-.4-.6-.9-.6-1.5s.2-1.1.6-1.5c.4-.4.9-.6,1.5-.6s1.1.2,1.5.6c.4.4.6.9.6,1.5s-.2,1.1-.6,1.5Z"/>
      <path class="st1" d="M950.5,43.5c-2.9-1.7-6-2.5-9.4-2.5h-21.5c0,1.4.3,2.7.6,4h17.6v2.1h-17c.6,1.5,1.3,2.9,2.2,4.1h14.8v2.1h-14.3c-.8,2.2-1.2,4.4-1.2,6.5,0,3.2.8,6.1,2.3,8.9,1.5,2.8,3.5,5,6.1,6.7l10-10c2.3-2.3,4.8-3.4,7.6-3.4s4.1.6,5.8,1.9c1.7,1.2,2.9,2.9,3.6,4.9,1.5-2.8,2.2-5.7,2.2-8.9s-.8-6.5-2.5-9.4c-1.7-2.9-4-5.1-6.8-6.8ZM952.1,55.1c-.4.4-.9.6-1.5.6s-1.1-.2-1.5-.6c-.4-.4-.6-.9-.6-1.5s.2-1.1.6-1.5c.4-.4.9-.6,1.5-.6s1.1.2,1.5.6c.4.4.6.9.6,1.5s-.2,1.1-.6,1.5Z"/>
      <path class="st1" d="M1056.8,335.1c-2.9-1.7-6-2.5-9.4-2.5h-21.5c0,1.4.3,2.7.6,4h17.6v2.1h-17c.6,1.5,1.3,2.9,2.2,4.1h14.8v2.1h-14.3c-.8,2.2-1.2,4.4-1.2,6.5,0,3.2.8,6.1,2.3,8.9,1.5,2.8,3.5,5,6.1,6.7l10-10c2.3-2.3,4.8-3.4,7.6-3.4s4.1.6,5.8,1.9c1.7,1.2,2.9,2.9,3.6,4.9,1.5-2.8,2.2-5.7,2.2-8.9s-.8-6.5-2.5-9.4c-1.7-2.9-4-5.1-6.8-6.8ZM1058.3,346.6c-.4.4-.9.6-1.5.6s-1.1-.2-1.5-.6c-.4-.4-.6-.9-.6-1.5s.2-1.1.6-1.5c.4-.4.9-.6,1.5-.6s1.1.2,1.5.6c.4.4.6.9.6,1.5s-.2,1.1-.6,1.5Z"/>
      <path class="st1" d="M1056.8,218.1c-2.9-1.7-6-2.5-9.4-2.5h-21.5c0,1.4.3,2.7.6,4h17.6v2.1h-17c.6,1.5,1.3,2.9,2.2,4.1h14.8v2.1h-14.3c-.8,2.2-1.2,4.4-1.2,6.5,0,3.2.8,6.1,2.3,8.9,1.5,2.8,3.5,5,6.1,6.7l10-10c2.3-2.3,4.8-3.4,7.6-3.4s4.1.6,5.8,1.9c1.7,1.2,2.9,2.9,3.6,4.9,1.5-2.8,2.2-5.7,2.2-8.9s-.8-6.5-2.5-9.4c-1.7-2.9-4-5.1-6.8-6.8ZM1058.3,229.7c-.4.4-.9.6-1.5.6s-1.1-.2-1.5-.6c-.4-.4-.6-.9-.6-1.5s.2-1.1.6-1.5c.4-.4.9-.6,1.5-.6s1.1.2,1.5.6c.4.4.6.9.6,1.5s-.2,1.1-.6,1.5Z"/>
      <path class="st1" d="M1056.8,101.1c-2.9-1.7-6-2.5-9.4-2.5h-21.5c0,1.4.3,2.7.6,4h17.6v2.1h-17c.6,1.5,1.3,2.9,2.2,4.1h14.8v2.1h-14.3c-.8,2.2-1.2,4.4-1.2,6.5,0,3.2.8,6.1,2.3,8.9,1.5,2.8,3.5,5,6.1,6.7l10-10c2.3-2.3,4.8-3.4,7.6-3.4s4.1.6,5.8,1.9c1.7,1.2,2.9,2.9,3.6,4.9,1.5-2.8,2.2-5.7,2.2-8.9s-.8-6.5-2.5-9.4c-1.7-2.9-4-5.1-6.8-6.8ZM1058.3,112.7c-.4.4-.9.6-1.5.6s-1.1-.2-1.5-.6c-.4-.4-.6-.9-.6-1.5s.2-1.1.6-1.5c.4-.4.9-.6,1.5-.6s1.1.2,1.5.6c.4.4.6.9.6,1.5s-.2,1.1-.6,1.5Z"/>
      <path class="st1" d="M1044.1-14.4v2.1h-17c.6,1.5,1.3,2.9,2.2,4.1h14.8v2.1h-14.3c-.8,2.2-1.2,4.4-1.2,6.5,0,3.2.8,6.1,2.3,8.9,1.5,2.8,3.5,5,6.1,6.7l10-10c2.3-2.3,4.8-3.4,7.6-3.4s4.1.6,5.8,1.9c1.7,1.2,2.9,2.9,3.6,4.9,1.5-2.8,2.2-5.7,2.2-8.9s-.8-6.5-2.5-9.4c-1.7-2.9-4-5.1-6.8-6.8-2.9-1.7-6-2.5-9.4-2.5h-21.5c0,1.4.3,2.7.6,4h17.6ZM1055.3-7.3c.4-.4.9-.6,1.5-.6s1.1.2,1.5.6c.4.4.6.9.6,1.5s-.2,1.1-.6,1.5c-.4.4-.9.6-1.5.6s-1.1-.2-1.5-.6c-.4-.4-.6-.9-.6-1.5s.2-1.1.6-1.5Z"/>
    </g>
  </g>
</svg>