<?xml version="1.0" encoding="UTF-8"?>
<svg id="Calque_1" xmlns="http://www.w3.org/2000/svg" version="1.1" viewBox="0 0 1075 329">
  <!-- Generator: Adobe Illustrator 29.1.0, SVG Export Plug-In . SVG Version: 2.1.0 Build 142)  -->
  <defs>
    <style>
      .st0 {
        opacity: 0;
      }
    </style>
  </defs>
  <g class="st0">
    <path d="M42,292.8v-.2c-2.9-1.7-6-2.4-9.3-2.4H11.6c0,1.4.3,2.6.6,3.9h17.3v2.1H12.9c.6,1.5,1.3,2.8,2.1,4h14.5v2.1h-14c-.8,2.1-1.2,4.3-1.2,6.3,0,3.1.8,6,2.2,8.7s3.4,4.9,6,6.5l9.8-9.8c2.2-2.2,4.7-3.3,7.4-3.3s4,.6,5.7,1.9c1.7,1.2,2.8,2.8,3.5,4.8,1.5-2.7,2.1-5.6,2.1-8.7s-.8-6.3-2.4-9.2c-1.7-2.8-3.9-5-6.6-6.6ZM43.4,303.9c-.4.4-.9.6-1.5.6s-1.1-.2-1.5-.6-.6-.9-.6-1.5.2-1.1.6-1.5c.4-.4.9-.6,1.5-.6s1.1.2,1.5.6.6.9.6,1.5-.2,1.1-.6,1.5Z"/>
    <path d="M42,178.6v-.2c-2.9-1.7-6-2.4-9.3-2.4H11.6c0,1.4.3,2.6.6,3.9h17.3v2.1H12.9c.6,1.5,1.3,2.8,2.1,4h14.5v2.1h-14c-.8,2.1-1.2,4.3-1.2,6.3,0,3.1.8,6,2.2,8.7s3.4,4.9,6,6.5l9.8-9.8c2.2-2.2,4.7-3.3,7.4-3.3s4,.6,5.7,1.9c1.7,1.2,2.8,2.8,3.5,4.8,1.5-2.7,2.1-5.6,2.1-8.7s-.8-6.3-2.4-9.2c-1.7-2.8-3.9-5-6.6-6.6ZM43.4,189.7c-.4.4-.9.6-1.5.6s-1.1-.2-1.5-.6-.6-.9-.6-1.5.2-1.1.6-1.5c.4-.4.9-.6,1.5-.6s1.1.2,1.5.6.6.9.6,1.5-.2,1.1-.6,1.5Z"/>
    <path d="M42,64.3v-.2c-2.9-1.7-6-2.4-9.3-2.4H11.6c0,1.4.3,2.6.6,3.9h17.3v2.1H12.9c.6,1.5,1.3,2.8,2.1,4h14.5v2.1h-14c-.8,2.1-1.2,4.3-1.2,6.3,0,3.1.8,6,2.2,8.7,1.5,2.7,3.4,4.9,6,6.5l9.8-9.8c2.2-2.2,4.7-3.3,7.4-3.3s4,.6,5.7,1.9c1.7,1.2,2.8,2.8,3.5,4.8,1.5-2.7,2.1-5.6,2.1-8.7s-.8-6.3-2.4-9.2-3.9-5-6.6-6.6ZM43.4,75.5c-.4.4-.9.6-1.5.6s-1.1-.2-1.5-.6-.6-.9-.6-1.5.2-1.1.6-1.5c.4-.4.9-.6,1.5-.6s1.1.2,1.5.6.6.9.6,1.5-.2,1.1-.6,1.5Z"/>
    <path d="M140.4,236.5v-.2c-2.9-1.7-6-2.4-9.3-2.4h-21c0,1.4.3,2.6.6,3.9h17.2v2.1h-16.6c.6,1.5,1.3,2.8,2.1,4h14.5v2.1h-14c-.8,2.1-1.2,4.3-1.2,6.3,0,3.1.8,6,2.2,8.7s3.4,4.9,6,6.5l9.8-9.8c2.2-2.2,4.7-3.3,7.4-3.3s4,.6,5.7,1.9c1.7,1.2,2.8,2.8,3.5,4.8,1.5-2.7,2.1-5.6,2.1-8.7s-.8-6.3-2.4-9.2c-1.7-2.8-3.9-5-6.6-6.6ZM141.9,247.6c-.4.4-.9.6-1.5.6s-1.1-.2-1.5-.6-.6-.9-.6-1.5.2-1.1.6-1.5c.4-.4.9-.6,1.5-.6s1.1.2,1.5.6.6.9.6,1.5-.2,1.1-.6,1.5Z"/>
    <path d="M140.4,122.3v-.2c-2.9-1.7-6-2.4-9.3-2.4h-21c0,1.4.3,2.6.6,3.9h17.2v2.1h-16.6c.6,1.5,1.3,2.8,2.1,4h14.5v2.1h-14c-.8,2.1-1.2,4.3-1.2,6.3,0,3.1.8,6,2.2,8.7s3.4,4.9,6,6.5l9.8-9.8c2.2-2.2,4.7-3.3,7.4-3.3s4,.6,5.7,1.9c1.7,1.2,2.8,2.8,3.5,4.8,1.5-2.7,2.1-5.6,2.1-8.7s-.8-6.3-2.4-9.2c-1.7-2.8-3.9-5-6.6-6.6ZM141.9,133.4c-.4.4-.9.6-1.5.6s-1.1-.2-1.5-.6-.6-.9-.6-1.5.2-1.1.6-1.5c.4-.4.9-.6,1.5-.6s1.1.2,1.5.6.6.9.6,1.5-.2,1.1-.6,1.5Z"/>
    <path d="M140.4,8.1v-.2c-2.9-1.7-6-2.4-9.3-2.4h-21c0,1.4.3,2.6.6,3.9h17.2v2.1h-16.6c.6,1.5,1.3,2.8,2.1,4h14.5v2.1h-14c-.8,2.1-1.2,4.3-1.2,6.3,0,3.1.8,6,2.2,8.7,1.5,2.7,3.4,4.9,6,6.5l9.8-9.8c2.2-2.2,4.7-3.3,7.4-3.3s4,.6,5.7,1.9c1.7,1.2,2.8,2.8,3.5,4.8,1.5-2.7,2.1-5.6,2.1-8.7s-.8-6.3-2.4-9.2c-1.7-2.8-3.9-5-6.6-6.6ZM141.9,19.2c-.4.4-.9.6-1.5.6s-1.1-.2-1.5-.6c-.4-.4-.6-.9-.6-1.5s.2-1.1.6-1.5c.4-.4.9-.6,1.5-.6s1.1.2,1.5.6c.4.4.6.9.6,1.5s-.2,1.1-.6,1.5Z"/>
    <path d="M244.2,292.8v-.2c-2.9-1.7-6-2.4-9.3-2.4h-21c0,1.4.3,2.6.6,3.9h17.2v2.1h-16.6c.6,1.5,1.3,2.8,2.1,4h14.5v2.1h-14c-.8,2.1-1.2,4.3-1.2,6.3,0,3.1.8,6,2.2,8.7s3.4,4.9,6,6.5l9.8-9.8c2.2-2.2,4.7-3.3,7.4-3.3s4,.6,5.7,1.9c1.7,1.2,2.8,2.8,3.5,4.8,1.5-2.7,2.1-5.6,2.1-8.7s-.8-6.3-2.4-9.2c-1.7-2.8-3.9-5-6.6-6.6ZM245.6,303.9c-.4.4-.9.6-1.5.6s-1.1-.2-1.5-.6-.6-.9-.6-1.5.2-1.1.6-1.5c.4-.4.9-.6,1.5-.6s1.1.2,1.5.6.6.9.6,1.5-.2,1.1-.6,1.5Z"/>
    <path d="M244.2,178.6v-.2c-2.9-1.7-6-2.4-9.3-2.4h-21c0,1.4.3,2.6.6,3.9h17.2v2.1h-16.6c.6,1.5,1.3,2.8,2.1,4h14.5v2.1h-14c-.8,2.1-1.2,4.3-1.2,6.3,0,3.1.8,6,2.2,8.7s3.4,4.9,6,6.5l9.8-9.8c2.2-2.2,4.7-3.3,7.4-3.3s4,.6,5.7,1.9c1.7,1.2,2.8,2.8,3.5,4.8,1.5-2.7,2.1-5.6,2.1-8.7s-.8-6.3-2.4-9.2c-1.7-2.8-3.9-5-6.6-6.6ZM245.6,189.7c-.4.4-.9.6-1.5.6s-1.1-.2-1.5-.6-.6-.9-.6-1.5.2-1.1.6-1.5c.4-.4.9-.6,1.5-.6s1.1.2,1.5.6.6.9.6,1.5-.2,1.1-.6,1.5Z"/>
    <path d="M244.2,64.3v-.2c-2.9-1.7-6-2.4-9.3-2.4h-21c0,1.4.3,2.6.6,3.9h17.2v2.1h-16.6c.6,1.5,1.3,2.8,2.1,4h14.5v2.1h-14c-.8,2.1-1.2,4.3-1.2,6.3,0,3.1.8,6,2.2,8.7,1.5,2.7,3.4,4.9,6,6.5l9.8-9.8c2.2-2.2,4.7-3.3,7.4-3.3s4,.6,5.7,1.9c1.7,1.2,2.8,2.8,3.5,4.8,1.5-2.7,2.1-5.6,2.1-8.7s-.8-6.3-2.4-9.2c-1.7-2.8-3.9-5-6.6-6.6ZM245.6,75.5c-.4.4-.9.6-1.5.6s-1.1-.2-1.5-.6-.6-.9-.6-1.5.2-1.1.6-1.5c.4-.4.9-.6,1.5-.6s1.1.2,1.5.6.6.9.6,1.5-.2,1.1-.6,1.5Z"/>
    <path d="M342.7,236.5v-.2c-2.9-1.7-6-2.4-9.3-2.4h-21c0,1.4.3,2.6.6,3.9h17.2v2.1h-16.6c.6,1.5,1.3,2.8,2.1,4h14.5v2.1h-14c-.8,2.1-1.2,4.3-1.2,6.3,0,3.1.8,6,2.2,8.7s3.4,4.9,6,6.5l9.8-9.8c2.2-2.2,4.7-3.3,7.4-3.3s4,.6,5.7,1.9c1.7,1.2,2.8,2.8,3.5,4.8,1.5-2.7,2.1-5.6,2.1-8.7s-.8-6.3-2.4-9.2c-1.7-2.8-3.9-5-6.6-6.6ZM344.1,247.6c-.4.4-.9.6-1.5.6s-1.1-.2-1.5-.6c-.4-.4-.6-.9-.6-1.5s.2-1.1.6-1.5.9-.6,1.5-.6,1.1.2,1.5.6c.4.4.6.9.6,1.5s-.2,1.1-.6,1.5Z"/>
    <path d="M342.7,122.3v-.2c-2.9-1.7-6-2.4-9.3-2.4h-21c0,1.4.3,2.6.6,3.9h17.2v2.1h-16.6c.6,1.5,1.3,2.8,2.1,4h14.5v2.1h-14c-.8,2.1-1.2,4.3-1.2,6.3,0,3.1.8,6,2.2,8.7s3.4,4.9,6,6.5l9.8-9.8c2.2-2.2,4.7-3.3,7.4-3.3s4,.6,5.7,1.9c1.7,1.2,2.8,2.8,3.5,4.8,1.5-2.7,2.1-5.6,2.1-8.7s-.8-6.3-2.4-9.2c-1.7-2.8-3.9-5-6.6-6.6ZM344.1,133.4c-.4.4-.9.6-1.5.6s-1.1-.2-1.5-.6c-.4-.4-.6-.9-.6-1.5s.2-1.1.6-1.5.9-.6,1.5-.6,1.1.2,1.5.6c.4.4.6.9.6,1.5s-.2,1.1-.6,1.5Z"/>
    <path d="M342.7,8.1v-.2c-2.9-1.7-6-2.4-9.3-2.4h-21c0,1.4.3,2.6.6,3.9h17.2v2.1h-16.6c.6,1.5,1.3,2.8,2.1,4h14.5v2.1h-14c-.8,2.1-1.2,4.3-1.2,6.3,0,3.1.8,6,2.2,8.7,1.5,2.7,3.4,4.9,6,6.5l9.8-9.8c2.2-2.2,4.7-3.3,7.4-3.3s4,.6,5.7,1.9c1.7,1.2,2.8,2.8,3.5,4.8,1.5-2.7,2.1-5.6,2.1-8.7s-.8-6.3-2.4-9.2c-1.7-2.8-3.9-5-6.6-6.6ZM344.1,19.2c-.4.4-.9.6-1.5.6s-1.1-.2-1.5-.6c-.4-.4-.6-.9-.6-1.5s.2-1.1.6-1.5c.4-.4.9-.6,1.5-.6s1.1.2,1.5.6c.4.4.6.9.6,1.5s-.2,1.1-.6,1.5Z"/>
    <path d="M446.4,292.8v-.2c-2.9-1.7-6-2.4-9.3-2.4h-21c0,1.4.3,2.6.6,3.9h17.2v2.1h-16.6c.6,1.5,1.3,2.8,2.1,4h14.5v2.1h-14c-.8,2.1-1.2,4.3-1.2,6.3,0,3.1.8,6,2.2,8.7s3.4,4.9,6,6.5l9.8-9.8c2.2-2.2,4.7-3.3,7.4-3.3s4,.6,5.7,1.9c1.7,1.2,2.8,2.8,3.5,4.8,1.5-2.7,2.1-5.6,2.1-8.7s-.8-6.3-2.4-9.2c-1.7-2.8-3.9-5-6.6-6.6ZM447.9,303.9c-.4.4-.9.6-1.5.6s-1.1-.2-1.5-.6-.6-.9-.6-1.5.2-1.1.6-1.5c.4-.4.9-.6,1.5-.6s1.1.2,1.5.6.6.9.6,1.5-.2,1.1-.6,1.5Z"/>
    <path d="M446.4,178.6v-.2c-2.9-1.7-6-2.4-9.3-2.4h-21c0,1.4.3,2.6.6,3.9h17.2v2.1h-16.6c.6,1.5,1.3,2.8,2.1,4h14.5v2.1h-14c-.8,2.1-1.2,4.3-1.2,6.3,0,3.1.8,6,2.2,8.7s3.4,4.9,6,6.5l9.8-9.8c2.2-2.2,4.7-3.3,7.4-3.3s4,.6,5.7,1.9c1.7,1.2,2.8,2.8,3.5,4.8,1.5-2.7,2.1-5.6,2.1-8.7s-.8-6.3-2.4-9.2c-1.7-2.8-3.9-5-6.6-6.6ZM447.9,189.7c-.4.4-.9.6-1.5.6s-1.1-.2-1.5-.6-.6-.9-.6-1.5.2-1.1.6-1.5c.4-.4.9-.6,1.5-.6s1.1.2,1.5.6.6.9.6,1.5-.2,1.1-.6,1.5Z"/>
    <path d="M446.4,64.3v-.2c-2.9-1.7-6-2.4-9.3-2.4h-21c0,1.4.3,2.6.6,3.9h17.2v2.1h-16.6c.6,1.5,1.3,2.8,2.1,4h14.5v2.1h-14c-.8,2.1-1.2,4.3-1.2,6.3,0,3.1.8,6,2.2,8.7,1.5,2.7,3.4,4.9,6,6.5l9.8-9.8c2.2-2.2,4.7-3.3,7.4-3.3s4,.6,5.7,1.9c1.7,1.2,2.8,2.8,3.5,4.8,1.5-2.7,2.1-5.6,2.1-8.7s-.8-6.3-2.4-9.2-3.9-5-6.6-6.6ZM447.9,75.5c-.4.4-.9.6-1.5.6s-1.1-.2-1.5-.6-.6-.9-.6-1.5.2-1.1.6-1.5c.4-.4.9-.6,1.5-.6s1.1.2,1.5.6.6.9.6,1.5-.2,1.1-.6,1.5Z"/>
    <path d="M545,236.5v-.2c-2.9-1.7-6-2.4-9.3-2.4h-21c0,1.4.3,2.6.6,3.9h17.2v2.1h-16.6c.6,1.5,1.3,2.8,2.1,4h14.5v2.1h-14c-.8,2.1-1.2,4.3-1.2,6.3,0,3.1.8,6,2.2,8.7s3.4,4.9,6,6.5l9.8-9.8c2.2-2.2,4.7-3.3,7.4-3.3s4,.6,5.7,1.9c1.7,1.2,2.8,2.8,3.5,4.8,1.5-2.7,2.1-5.6,2.1-8.7s-.8-6.3-2.4-9.2c-1.7-2.8-3.9-5-6.6-6.6ZM546.3,247.6c-.4.4-.9.6-1.5.6s-1.1-.2-1.5-.6c-.4-.4-.6-.9-.6-1.5s.2-1.1.6-1.5c.4-.4.9-.6,1.5-.6s1.1.2,1.5.6c.4.4.6.9.6,1.5s-.2,1.1-.6,1.5Z"/>
    <path d="M545,122.3v-.2c-2.9-1.7-6-2.4-9.3-2.4h-21c0,1.4.3,2.6.6,3.9h17.2v2.1h-16.6c.6,1.5,1.3,2.8,2.1,4h14.5v2.1h-14c-.8,2.1-1.2,4.3-1.2,6.3,0,3.1.8,6,2.2,8.7s3.4,4.9,6,6.5l9.8-9.8c2.2-2.2,4.7-3.3,7.4-3.3s4,.6,5.7,1.9c1.7,1.2,2.8,2.8,3.5,4.8,1.5-2.7,2.1-5.6,2.1-8.7s-.8-6.3-2.4-9.2c-1.7-2.8-3.9-5-6.6-6.6ZM546.3,133.4c-.4.4-.9.6-1.5.6s-1.1-.2-1.5-.6c-.4-.4-.6-.9-.6-1.5s.2-1.1.6-1.5c.4-.4.9-.6,1.5-.6s1.1.2,1.5.6c.4.4.6.9.6,1.5s-.2,1.1-.6,1.5Z"/>
    <path d="M545,8.1v-.2c-2.9-1.7-6-2.4-9.3-2.4h-21c0,1.4.3,2.6.6,3.9h17.2v2.1h-16.6c.6,1.5,1.3,2.8,2.1,4h14.5v2.1h-14c-.8,2.1-1.2,4.3-1.2,6.3,0,3.1.8,6,2.2,8.7,1.5,2.7,3.4,4.9,6,6.5l9.8-9.8c2.2-2.2,4.7-3.3,7.4-3.3s4,.6,5.7,1.9c1.7,1.2,2.8,2.8,3.5,4.8,1.5-2.7,2.1-5.6,2.1-8.7s-.8-6.3-2.4-9.2c-1.7-2.8-3.9-5-6.6-6.6ZM546.3,19.2c-.4.4-.9.6-1.5.6s-1.1-.2-1.5-.6-.6-.9-.6-1.5.2-1.1.6-1.5.9-.6,1.5-.6,1.1.2,1.5.6.6.9.6,1.5-.2,1.1-.6,1.5Z"/>
    <path d="M648.8,292.8v-.2c-2.9-1.7-6-2.4-9.3-2.4h-21c0,1.4.3,2.6.6,3.9h17.2v2.1h-16.6c.6,1.5,1.3,2.8,2.1,4h14.5v2.1h-14c-.8,2.1-1.2,4.3-1.2,6.3,0,3.1.8,6,2.2,8.7,1.5,2.7,3.4,4.9,6,6.5l9.8-9.8c2.2-2.2,4.7-3.3,7.4-3.3s4,.6,5.7,1.9c1.7,1.2,2.8,2.8,3.5,4.8,1.5-2.7,2.1-5.6,2.1-8.7s-.8-6.3-2.4-9.2c-1.7-2.8-3.9-5-6.6-6.6ZM650.1,303.9c-.4.4-.9.6-1.5.6s-1.1-.2-1.5-.6c-.4-.4-.6-.9-.6-1.5s.2-1.1.6-1.5c.4-.4.9-.6,1.5-.6s1.1.2,1.5.6c.4.4.6.9.6,1.5s-.2,1.1-.6,1.5Z"/>
    <path d="M648.8,178.6v-.2c-2.9-1.7-6-2.4-9.3-2.4h-21c0,1.4.3,2.6.6,3.9h17.2v2.1h-16.6c.6,1.5,1.3,2.8,2.1,4h14.5v2.1h-14c-.8,2.1-1.2,4.3-1.2,6.3,0,3.1.8,6,2.2,8.7,1.5,2.7,3.4,4.9,6,6.5l9.8-9.8c2.2-2.2,4.7-3.3,7.4-3.3s4,.6,5.7,1.9c1.7,1.2,2.8,2.8,3.5,4.8,1.5-2.7,2.1-5.6,2.1-8.7s-.8-6.3-2.4-9.2c-1.7-2.8-3.9-5-6.6-6.6ZM650.1,189.7c-.4.4-.9.6-1.5.6s-1.1-.2-1.5-.6c-.4-.4-.6-.9-.6-1.5s.2-1.1.6-1.5c.4-.4.9-.6,1.5-.6s1.1.2,1.5.6c.4.4.6.9.6,1.5s-.2,1.1-.6,1.5Z"/>
    <path d="M648.8,64.3v-.2c-2.9-1.7-6-2.4-9.3-2.4h-21c0,1.4.3,2.6.6,3.9h17.2v2.1h-16.6c.6,1.5,1.3,2.8,2.1,4h14.5v2.1h-14c-.8,2.1-1.2,4.3-1.2,6.3,0,3.1.8,6,2.2,8.7,1.5,2.7,3.4,4.9,6,6.5l9.8-9.8c2.2-2.2,4.7-3.3,7.4-3.3s4,.6,5.7,1.9c1.7,1.2,2.8,2.8,3.5,4.8,1.5-2.7,2.1-5.6,2.1-8.7s-.8-6.3-2.4-9.2-3.9-5-6.6-6.6ZM650.1,75.5c-.4.4-.9.6-1.5.6s-1.1-.2-1.5-.6c-.4-.4-.6-.9-.6-1.5s.2-1.1.6-1.5c.4-.4.9-.6,1.5-.6s1.1.2,1.5.6c.4.4.6.9.6,1.5s-.2,1.1-.6,1.5Z"/>
    <path d="M747.2,236.5v-.2c-2.9-1.7-6-2.4-9.3-2.4h-21c0,1.4.3,2.6.6,3.9h17.2v2.1h-16.6c.6,1.5,1.3,2.8,2.1,4h14.5v2.1h-14c-.8,2.1-1.2,4.3-1.2,6.3,0,3.1.8,6,2.2,8.7,1.5,2.7,3.4,4.9,6,6.5l9.8-9.8c2.2-2.2,4.7-3.3,7.4-3.3s4,.6,5.7,1.9c1.7,1.2,2.8,2.8,3.5,4.8,1.5-2.7,2.1-5.6,2.1-8.7s-.8-6.3-2.4-9.2c-1.7-2.8-3.9-5-6.6-6.6ZM748.6,247.6c-.4.4-.9.6-1.5.6s-1.1-.2-1.5-.6c-.4-.4-.6-.9-.6-1.5s.2-1.1.6-1.5.9-.6,1.5-.6,1.1.2,1.5.6c.4.4.6.9.6,1.5s-.2,1.1-.6,1.5Z"/>
    <path d="M747.2,122.3v-.2c-2.9-1.7-6-2.4-9.3-2.4h-21c0,1.4.3,2.6.6,3.9h17.2v2.1h-16.6c.6,1.5,1.3,2.8,2.1,4h14.5v2.1h-14c-.8,2.1-1.2,4.3-1.2,6.3,0,3.1.8,6,2.2,8.7s3.4,4.9,6,6.5l9.8-9.8c2.2-2.2,4.7-3.3,7.4-3.3s4,.6,5.7,1.9c1.7,1.2,2.8,2.8,3.5,4.8,1.5-2.7,2.1-5.6,2.1-8.7s-.8-6.3-2.4-9.2c-1.7-2.8-3.9-5-6.6-6.6ZM748.6,133.4c-.4.4-.9.6-1.5.6s-1.1-.2-1.5-.6c-.4-.4-.6-.9-.6-1.5s.2-1.1.6-1.5.9-.6,1.5-.6,1.1.2,1.5.6c.4.4.6.9.6,1.5s-.2,1.1-.6,1.5Z"/>
    <path d="M747.2,8.1v-.2c-2.9-1.7-6-2.4-9.3-2.4h-21c0,1.4.3,2.6.6,3.9h17.2v2.1h-16.6c.6,1.5,1.3,2.8,2.1,4h14.5v2.1h-14c-.8,2.1-1.2,4.3-1.2,6.3,0,3.1.8,6,2.2,8.7,1.5,2.7,3.4,4.9,6,6.5l9.8-9.8c2.2-2.2,4.7-3.3,7.4-3.3s4,.6,5.7,1.9c1.7,1.2,2.8,2.8,3.5,4.8,1.5-2.7,2.1-5.6,2.1-8.7s-.8-6.3-2.4-9.2c-1.7-2.8-3.9-5-6.6-6.6ZM748.6,19.2c-.4.4-.9.6-1.5.6s-1.1-.2-1.5-.6-.6-.9-.6-1.5.2-1.1.6-1.5c.4-.4.9-.6,1.5-.6s1.1.2,1.5.6.6.9.6,1.5-.2,1.1-.6,1.5Z"/>
    <path d="M851,292.8v-.2c-2.9-1.7-6-2.4-9.3-2.4h-21c0,1.4.3,2.6.6,3.9h17.2v2.1h-16.6c.6,1.5,1.3,2.8,2.1,4h14.5v2.1h-14c-.8,2.1-1.2,4.3-1.2,6.3,0,3.1.8,6,2.2,8.7s3.4,4.9,6,6.5l9.8-9.8c2.2-2.2,4.7-3.3,7.4-3.3s4,.6,5.7,1.9c1.7,1.2,2.8,2.8,3.5,4.8,1.5-2.7,2.1-5.6,2.1-8.7s-.8-6.3-2.4-9.2c-1.7-2.8-3.9-5-6.6-6.6ZM852.4,303.9c-.4.4-.9.6-1.5.6s-1.1-.2-1.5-.6c-.4-.4-.6-.9-.6-1.5s.2-1.1.6-1.5c.4-.4.9-.6,1.5-.6s1.1.2,1.5.6c.4.4.6.9.6,1.5s-.2,1.1-.6,1.5Z"/>
    <path d="M851,178.6v-.2c-2.9-1.7-6-2.4-9.3-2.4h-21c0,1.4.3,2.6.6,3.9h17.2v2.1h-16.6c.6,1.5,1.3,2.8,2.1,4h14.5v2.1h-14c-.8,2.1-1.2,4.3-1.2,6.3,0,3.1.8,6,2.2,8.7s3.4,4.9,6,6.5l9.8-9.8c2.2-2.2,4.7-3.3,7.4-3.3s4,.6,5.7,1.9c1.7,1.2,2.8,2.8,3.5,4.8,1.5-2.7,2.1-5.6,2.1-8.7s-.8-6.3-2.4-9.2c-1.7-2.8-3.9-5-6.6-6.6ZM852.4,189.7c-.4.4-.9.6-1.5.6s-1.1-.2-1.5-.6c-.4-.4-.6-.9-.6-1.5s.2-1.1.6-1.5c.4-.4.9-.6,1.5-.6s1.1.2,1.5.6c.4.4.6.9.6,1.5s-.2,1.1-.6,1.5Z"/>
    <path d="M851,64.3v-.2c-2.9-1.7-6-2.4-9.3-2.4h-21c0,1.4.3,2.6.6,3.9h17.2v2.1h-16.6c.6,1.5,1.3,2.8,2.1,4h14.5v2.1h-14c-.8,2.1-1.2,4.3-1.2,6.3,0,3.1.8,6,2.2,8.7,1.5,2.7,3.4,4.9,6,6.5l9.8-9.8c2.2-2.2,4.7-3.3,7.4-3.3s4,.6,5.7,1.9c1.7,1.2,2.8,2.8,3.5,4.8,1.5-2.7,2.1-5.6,2.1-8.7s-.8-6.3-2.4-9.2-3.9-5-6.6-6.6ZM852.4,75.5c-.4.4-.9.6-1.5.6s-1.1-.2-1.5-.6c-.4-.4-.6-.9-.6-1.5s.2-1.1.6-1.5c.4-.4.9-.6,1.5-.6s1.1.2,1.5.6c.4.4.6.9.6,1.5s-.2,1.1-.6,1.5Z"/>
    <path d="M949.4,236.5v-.2c-2.9-1.7-6-2.4-9.3-2.4h-21c0,1.4.3,2.6.6,3.9h17.2v2.1h-16.6c.6,1.5,1.3,2.8,2.1,4h14.5v2.1h-14c-.8,2.1-1.2,4.3-1.2,6.3,0,3.1.8,6,2.2,8.7s3.4,4.9,6,6.5l9.8-9.8c2.2-2.2,4.7-3.3,7.4-3.3s4,.6,5.7,1.9c1.7,1.2,2.8,2.8,3.5,4.8,1.5-2.7,2.1-5.6,2.1-8.7s-.8-6.3-2.4-9.2c-1.7-2.8-3.9-5-6.6-6.6ZM950.9,247.6c-.4.4-.9.6-1.5.6s-1.1-.2-1.5-.6c-.4-.4-.6-.9-.6-1.5s.2-1.1.6-1.5.9-.6,1.5-.6,1.1.2,1.5.6c.4.4.6.9.6,1.5s-.2,1.1-.6,1.5Z"/>
    <path d="M949.4,122.3v-.2c-2.9-1.7-6-2.4-9.3-2.4h-21c0,1.4.3,2.6.6,3.9h17.2v2.1h-16.6c.6,1.5,1.3,2.8,2.1,4h14.5v2.1h-14c-.8,2.1-1.2,4.3-1.2,6.3,0,3.1.8,6,2.2,8.7s3.4,4.9,6,6.5l9.8-9.8c2.2-2.2,4.7-3.3,7.4-3.3s4,.6,5.7,1.9c1.7,1.2,2.8,2.8,3.5,4.8,1.5-2.7,2.1-5.6,2.1-8.7s-.8-6.3-2.4-9.2c-1.7-2.8-3.9-5-6.6-6.6ZM950.9,133.4c-.4.4-.9.6-1.5.6s-1.1-.2-1.5-.6c-.4-.4-.6-.9-.6-1.5s.2-1.1.6-1.5.9-.6,1.5-.6,1.1.2,1.5.6c.4.4.6.9.6,1.5s-.2,1.1-.6,1.5Z"/>
    <path d="M949.4,8.1v-.2c-2.9-1.7-6-2.4-9.3-2.4h-21c0,1.4.3,2.6.6,3.9h17.2v2.1h-16.6c.6,1.5,1.3,2.8,2.1,4h14.5v2.1h-14c-.8,2.1-1.2,4.3-1.2,6.3,0,3.1.8,6,2.2,8.7,1.5,2.7,3.4,4.9,6,6.5l9.8-9.8c2.2-2.2,4.7-3.3,7.4-3.3s4,.6,5.7,1.9c1.7,1.2,2.8,2.8,3.5,4.8,1.5-2.7,2.1-5.6,2.1-8.7s-.8-6.3-2.4-9.2c-1.7-2.8-3.9-5-6.6-6.6ZM950.9,19.2c-.4.4-.9.6-1.5.6s-1.1-.2-1.5-.6-.6-.9-.6-1.5.2-1.1.6-1.5c.4-.4.9-.6,1.5-.6s1.1.2,1.5.6.6.9.6,1.5-.2,1.1-.6,1.5Z"/>
    <path d="M1053.2,292.8v-.2c-2.9-1.7-6-2.4-9.3-2.4h-21c0,1.4.3,2.6.6,3.9h17.2v2.1h-16.6c.6,1.5,1.3,2.8,2.1,4h14.5v2.1h-14c-.8,2.1-1.2,4.3-1.2,6.3,0,3.1.8,6,2.2,8.7,1.5,2.7,3.4,4.9,6,6.5l9.8-9.8c2.2-2.2,4.7-3.3,7.4-3.3s4,.6,5.7,1.9c1.7,1.2,2.8,2.8,3.5,4.8,1.5-2.7,2.1-5.6,2.1-8.7s-.8-6.3-2.4-9.2c-1.7-2.8-3.9-5-6.6-6.6ZM1054.6,303.9c-.4.4-.9.6-1.5.6s-1.1-.2-1.5-.6c-.4-.4-.6-.9-.6-1.5s.2-1.1.6-1.5c.4-.4.9-.6,1.5-.6s1.1.2,1.5.6c.4.4.6.9.6,1.5s-.2,1.1-.6,1.5Z"/>
    <path d="M1053.2,178.6v-.2c-2.9-1.7-6-2.4-9.3-2.4h-21c0,1.4.3,2.6.6,3.9h17.2v2.1h-16.6c.6,1.5,1.3,2.8,2.1,4h14.5v2.1h-14c-.8,2.1-1.2,4.3-1.2,6.3,0,3.1.8,6,2.2,8.7,1.5,2.7,3.4,4.9,6,6.5l9.8-9.8c2.2-2.2,4.7-3.3,7.4-3.3s4,.6,5.7,1.9c1.7,1.2,2.8,2.8,3.5,4.8,1.5-2.7,2.1-5.6,2.1-8.7s-.8-6.3-2.4-9.2c-1.7-2.8-3.9-5-6.6-6.6ZM1054.6,189.7c-.4.4-.9.6-1.5.6s-1.1-.2-1.5-.6c-.4-.4-.6-.9-.6-1.5s.2-1.1.6-1.5c.4-.4.9-.6,1.5-.6s1.1.2,1.5.6c.4.4.6.9.6,1.5s-.2,1.1-.6,1.5Z"/>
    <path d="M1053.2,64.3v-.2c-2.9-1.7-6-2.4-9.3-2.4h-21c0,1.4.3,2.6.6,3.9h17.2v2.1h-16.6c.6,1.5,1.3,2.8,2.1,4h14.5v2.1h-14c-.8,2.1-1.2,4.3-1.2,6.3,0,3.1.8,6,2.2,8.7,1.5,2.7,3.4,4.9,6,6.5l9.8-9.8c2.2-2.2,4.7-3.3,7.4-3.3s4,.6,5.7,1.9c1.7,1.2,2.8,2.8,3.5,4.8,1.5-2.7,2.1-5.6,2.1-8.7s-.8-6.3-2.4-9.2c-1.7-2.8-3.9-5-6.6-6.6ZM1054.6,75.5c-.4.4-.9.6-1.5.6s-1.1-.2-1.5-.6c-.4-.4-.6-.9-.6-1.5s.2-1.1.6-1.5c.4-.4.9-.6,1.5-.6s1.1.2,1.5.6c.4.4.6.9.6,1.5s-.2,1.1-.6,1.5Z"/>
  </g>
</svg>